<svg width="13" height="13" viewBox="0 0 13 13" fill="none" xmlns="http://www.w3.org/2000/svg">
<path d="M6.54875 8.75875C6.23458 8.76958 5.93407 8.71823 5.6472 8.6047C5.36033 8.49117 5.10835 8.32585 4.89125 8.10875C4.67458 7.89208 4.50927 7.64833 4.3953 7.3775C4.28133 7.10667 4.22457 6.81958 4.225 6.51625C4.225 6.40792 4.23042 6.30218 4.24125 6.19905C4.25208 6.09592 4.27375 5.99582 4.30625 5.89875C4.34958 5.76875 4.34698 5.63875 4.29845 5.50875C4.24992 5.37875 4.16585 5.28667 4.04625 5.2325C3.91625 5.17833 3.78907 5.17833 3.6647 5.2325C3.54033 5.28667 3.45627 5.37875 3.4125 5.50875C3.35833 5.67125 3.31782 5.83375 3.29095 5.99625C3.26408 6.15875 3.25043 6.32667 3.25 6.5C3.25 6.93333 3.33407 7.34782 3.5022 7.74345C3.67033 8.13908 3.90585 8.48835 4.20875 8.79125C4.50125 9.09458 4.84532 9.3275 5.24095 9.49C5.63658 9.6525 6.04543 9.73917 6.4675 9.75L6.19125 10.0262C6.09375 10.1237 6.045 10.2375 6.045 10.3675C6.045 10.4975 6.09375 10.6112 6.19125 10.7087C6.28875 10.8062 6.4025 10.855 6.5325 10.855C6.6625 10.855 6.77625 10.8062 6.87375 10.7087L7.91375 9.66875C8.04375 9.53875 8.10875 9.38708 8.10875 9.21375C8.10875 9.04041 8.04375 8.88875 7.91375 8.75875L6.87375 7.71875C6.77625 7.62125 6.6625 7.5725 6.5325 7.5725C6.4025 7.5725 6.28875 7.62125 6.19125 7.71875C6.09375 7.81625 6.045 7.93 6.045 8.06C6.045 8.19 6.09375 8.30375 6.19125 8.40125L6.54875 8.75875ZM6.435 4.225C6.74917 4.225 7.0525 4.28198 7.345 4.39595C7.6375 4.50992 7.89208 4.67502 8.10875 4.89125C8.32542 5.10792 8.49073 5.35167 8.6047 5.6225C8.71867 5.89333 8.77543 6.18042 8.775 6.48375C8.775 6.59208 8.76958 6.6976 8.75875 6.8003C8.74792 6.903 8.72625 7.00332 8.69375 7.10125C8.65042 7.23125 8.65323 7.36385 8.7022 7.49905C8.75117 7.63425 8.83502 7.72915 8.95375 7.78375C9.08375 7.83792 9.21115 7.83792 9.33595 7.78375C9.46075 7.72958 9.5446 7.6375 9.5875 7.5075C9.64167 7.345 9.6824 7.17968 9.7097 7.01155C9.737 6.84342 9.75043 6.6729 9.75 6.5C9.75 6.06667 9.67135 5.6524 9.51405 5.2572C9.35675 4.862 9.12123 4.5071 8.8075 4.1925C8.50417 3.88917 8.1549 3.65907 7.7597 3.5022C7.3645 3.34533 6.95543 3.26668 6.5325 3.26625L6.825 2.97375C6.91167 2.87625 6.955 2.7625 6.955 2.6325C6.955 2.5025 6.90625 2.38875 6.80875 2.29125C6.71125 2.19375 6.5975 2.145 6.4675 2.145C6.3375 2.145 6.22375 2.19375 6.12625 2.29125L5.08625 3.33125C4.95625 3.46125 4.89125 3.61292 4.89125 3.78625C4.89125 3.95958 4.95625 4.11125 5.08625 4.24125L6.12625 5.28125C6.22375 5.37875 6.3375 5.4275 6.4675 5.4275C6.5975 5.4275 6.71125 5.37875 6.80875 5.28125C6.90625 5.18375 6.955 5.07 6.955 4.94C6.955 4.81 6.90625 4.69625 6.80875 4.59875L6.435 4.225ZM6.5 13C5.60083 13 4.75583 12.8293 3.965 12.4878C3.17417 12.1463 2.48625 11.6833 1.90125 11.0987C1.31625 10.5137 0.853233 9.82583 0.5122 9.035C0.171167 8.24417 0.000433333 7.39917 0 6.5C0 5.60083 0.170733 4.75583 0.5122 3.965C0.853667 3.17417 1.31668 2.48625 1.90125 1.90125C2.48625 1.31625 3.17417 0.853233 3.965 0.5122C4.75583 0.171167 5.60083 0.000433333 6.5 0C7.39917 0 8.24417 0.170733 9.035 0.5122C9.82583 0.853667 10.5137 1.31668 11.0987 1.90125C11.6837 2.48625 12.147 3.17417 12.4884 3.965C12.8299 4.75583 13.0004 5.60083 13 6.5C13 7.39917 12.8293 8.24417 12.4878 9.035C12.1463 9.82583 11.6833 10.5137 11.0987 11.0987C10.5137 11.6837 9.82583 12.147 9.035 12.4884C8.24417 12.8299 7.39917 13.0004 6.5 13Z" fill="#427BBD" fill-opacity="0.5"/>
</svg>
