<svg width="37" height="41" viewBox="0 0 37 41" fill="none" xmlns="http://www.w3.org/2000/svg">
<path d="M29 3.99999V6H24.8V3.99999H12.2V6H8V3.99999C8 2.93914 8.44246 1.92173 9.23011 1.17159C10.0178 0.421425 11.0861 0 12.2 0H24.8C25.9139 0 26.9822 0.421425 27.7698 1.17159C28.5575 1.92173 29 2.93914 29 3.99999Z" fill="#1E3167"/>
<path d="M34.9444 8H2.05557C1.51039 8 0.987555 8.21731 0.602064 8.6041C0.216574 8.99089 0 9.51549 0 10.0625C0 10.6095 0.216574 11.1341 0.602064 11.5209C0.987555 11.9077 1.51039 12.125 2.05557 12.125H4.11109V36.875C4.11109 37.969 4.54424 39.0182 5.31522 39.7918C6.0862 40.5654 7.13187 41 8.22224 41H28.7778C29.8681 41 30.9138 40.5654 31.6848 39.7918C32.4558 39.0182 32.8889 37.969 32.8889 36.875V12.125H34.9444C35.4896 12.125 36.0124 11.9077 36.3979 11.5209C36.7834 11.1341 37 10.6095 37 10.0625C37 9.51549 36.7834 8.99089 36.3979 8.6041C36.0124 8.21731 35.4896 8 34.9444 8Z" fill="#1E3167"/>
</svg>
