<svg width="32" height="28" viewBox="0 0 32 28" fill="none" xmlns="http://www.w3.org/2000/svg">
<path d="M14.1878 26.401L14.1754 26.3887L14.1625 26.3769L11.4463 23.9009C11.4461 23.9007 11.446 23.9006 11.4458 23.9004C11.4457 23.9004 11.4457 23.9003 11.4457 23.9003C8.68072 21.3741 6.18626 18.8707 3.96122 16.3905C1.83178 14.0168 0.799028 11.4435 0.800001 8.64896V8.64868C0.800001 6.38471 1.55123 4.53504 3.04583 3.0428C4.5405 1.55049 6.39371 0.8 8.66238 0.8C9.93648 0.8 11.1309 1.06882 12.2551 1.60565C13.3888 2.14704 14.3476 2.88408 15.1392 3.81914L15.7495 4.53995L16.3601 3.81945C17.1517 2.88535 18.1106 2.1487 19.2445 1.60722C20.3687 1.07035 21.5633 0.801004 22.8375 0.8C25.106 0.800064 26.9591 1.55055 28.4537 3.0428C29.9483 4.53504 30.6995 6.38471 30.6995 8.64868C30.6995 11.444 29.6718 14.0249 27.5542 16.4128C25.3456 18.9032 22.8345 21.4108 20.0194 23.9352L20.0193 23.9352L20.0149 23.9392L17.3375 26.3766L17.3238 26.389L17.3108 26.402C17.1065 26.606 16.8757 26.7499 16.612 26.8408C16.3082 26.9456 16.0219 26.9937 15.7498 26.9937C15.479 26.9937 15.1932 26.9457 14.8891 26.8408C14.6251 26.7498 14.3935 26.6056 14.1878 26.401Z" stroke="black" stroke-width="1.6"/>
</svg>
