<svg width="32" height="28" viewBox="0 0 32 28" fill="none" xmlns="http://www.w3.org/2000/svg">
<path d="M13.7999 26.7909L13.8 26.7908L13.792 26.7834L11.0753 24.3069C8.29828 21.7697 5.79055 19.2532 3.55182 16.7577C1.34302 14.2956 0.248975 11.5949 0.250001 8.64877V8.64868C0.250001 6.24749 1.05323 4.25505 2.65723 2.65358C4.26125 1.0521 6.25704 0.25 8.66238 0.25C10.017 0.25 11.2926 0.53653 12.4921 1.10933C13.6946 1.68357 14.716 2.46813 15.559 3.46376L15.7497 3.68901L15.9405 3.46386C16.7834 2.46925 17.8049 1.68517 19.0075 1.11091C20.207 0.538089 21.4826 0.251035 22.8373 0.25C25.2426 0.25002 27.2383 1.05212 28.8423 2.65358C30.4463 4.25505 31.2495 6.24749 31.2495 8.64868C31.2495 11.5943 30.1614 14.3017 27.9657 16.7777C25.7415 19.2857 23.2153 21.808 20.3865 24.3447L20.3852 24.3459L17.7077 26.7833L17.7075 26.7831L17.6994 26.7912C17.437 27.0532 17.135 27.2423 16.7912 27.3608C16.435 27.4836 16.0882 27.5437 15.7498 27.5437C15.4125 27.5437 15.0662 27.4837 14.7099 27.3608C14.3661 27.2423 14.0634 27.0531 13.7999 26.7909Z" stroke="black" stroke-width="0.5"/>
</svg>
