<svg width="12" height="12" viewBox="0 0 12 12" fill="none" xmlns="http://www.w3.org/2000/svg">
<path fill-rule="evenodd" clip-rule="evenodd" d="M1.95 5.09205V3.90361C1.95 2.86831 2.3767 1.87541 3.13622 1.14334C3.89574 0.411273 4.92587 0 6 0C7.07413 0 8.10426 0.411273 8.86378 1.14334C9.62331 1.87541 10.05 2.86831 10.05 3.90361V5.09205C10.719 5.14005 11.154 5.26149 11.4726 5.56858C12 6.07634 12 6.89465 12 8.53012C12 10.1656 12 10.9839 11.4726 11.4917C10.9458 12 10.0968 12 8.4 12H3.6C1.9032 12 1.0542 12 0.5274 11.4917C-3.57628e-08 10.9839 0 10.1656 0 8.53012C0 6.89465 -3.57628e-08 6.07634 0.5274 5.56858C0.8454 5.26149 1.281 5.14005 1.95 5.09205ZM2.85 3.90361C2.85 3.09838 3.18187 2.32612 3.77261 1.75674C4.36335 1.18735 5.16457 0.86747 6 0.86747C6.83543 0.86747 7.63665 1.18735 8.22739 1.75674C8.81813 2.32612 9.15 3.09838 9.15 3.90361V5.06255C8.9202 5.06024 8.6706 5.06024 8.4 5.06024H3.6C3.3288 5.06024 3.0798 5.06024 2.85 5.06255V3.90361ZM3.6 9.10843C3.75913 9.10843 3.91174 9.0475 4.02426 8.93905C4.13679 8.8306 4.2 8.6835 4.2 8.53012C4.2 8.37674 4.13679 8.22965 4.02426 8.12119C3.91174 8.01274 3.75913 7.95181 3.6 7.95181C3.44087 7.95181 3.28826 8.01274 3.17574 8.12119C3.06321 8.22965 3 8.37674 3 8.53012C3 8.6835 3.06321 8.8306 3.17574 8.93905C3.28826 9.0475 3.44087 9.10843 3.6 9.10843ZM6 9.10843C6.15913 9.10843 6.31174 9.0475 6.42426 8.93905C6.53679 8.8306 6.6 8.6835 6.6 8.53012C6.6 8.37674 6.53679 8.22965 6.42426 8.12119C6.31174 8.01274 6.15913 7.95181 6 7.95181C5.84087 7.95181 5.68826 8.01274 5.57574 8.12119C5.46321 8.22965 5.4 8.37674 5.4 8.53012C5.4 8.6835 5.46321 8.8306 5.57574 8.93905C5.68826 9.0475 5.84087 9.10843 6 9.10843ZM9 8.53012C9 8.6835 8.93679 8.8306 8.82426 8.93905C8.71174 9.0475 8.55913 9.10843 8.4 9.10843C8.24087 9.10843 8.08826 9.0475 7.97574 8.93905C7.86321 8.8306 7.8 8.6835 7.8 8.53012C7.8 8.37674 7.86321 8.22965 7.97574 8.12119C8.08826 8.01274 8.24087 7.95181 8.4 7.95181C8.55913 7.95181 8.71174 8.01274 8.82426 8.12119C8.93679 8.22965 9 8.37674 9 8.53012Z" fill="#427BBD" fill-opacity="0.5"/>
</svg>
