<svg width="14" height="11" viewBox="0 0 14 11" fill="none" xmlns="http://www.w3.org/2000/svg">
<path d="M1.27273 11C0.922727 11 0.623212 10.8804 0.374182 10.6413C0.125152 10.4021 0.000424242 10.1143 0 9.77778V2.13889H1.27273V9.77778H11.7727V11H1.27273ZM3.81818 8.55556C3.46818 8.55556 3.16867 8.43598 2.91964 8.19683C2.67061 7.95769 2.54588 7.66985 2.54545 7.33333V1.22222C2.54545 0.886111 2.67018 0.598482 2.91964 0.359333C3.16909 0.120185 3.46861 0.000407407 3.81818 0H12.7273C13.0773 0 13.377 0.119778 13.6265 0.359333C13.8759 0.598889 14.0004 0.886519 14 1.22222V7.33333C14 7.66944 13.8755 7.95728 13.6265 8.19683C13.3774 8.43639 13.0777 8.55596 12.7273 8.55556H3.81818ZM8.27273 5.68333L12.7273 2.70417V1.22222L8.27273 4.18611L3.81818 1.22222V2.70417L8.27273 5.68333Z" fill="#427BBD" fill-opacity="0.5"/>
</svg>
