<svg width="8" height="13" viewBox="0 0 8 13" fill="none" xmlns="http://www.w3.org/2000/svg">
<path d="M3.14286 11.2273H4.85714C4.93333 11.2273 5 11.1977 5.05714 11.1386C5.11428 11.0795 5.14286 11.0106 5.14286 10.9318C5.14286 10.853 5.11428 10.7841 5.05714 10.725C5 10.6659 4.93333 10.6364 4.85714 10.6364H3.14286C3.06667 10.6364 3 10.6659 2.94286 10.725C2.88571 10.7841 2.85714 10.853 2.85714 10.9318C2.85714 11.0106 2.88571 11.0795 2.94286 11.1386C3 11.1977 3.06667 11.2273 3.14286 11.2273ZM1.14286 13C0.828571 13 0.559619 12.8844 0.336 12.6531C0.112381 12.4219 0.000380952 12.1436 0 11.8182V1.18182C0 0.856818 0.112 0.578697 0.336 0.347455C0.56 0.116212 0.828952 0.000393939 1.14286 0H6.85714C7.17143 0 7.44057 0.115818 7.66457 0.347455C7.88857 0.579091 8.00038 0.857212 8 1.18182V11.8182C8 12.1432 7.88819 12.4215 7.66457 12.6531C7.44095 12.8848 7.17181 13.0004 6.85714 13H1.14286ZM1.14286 8.86364H6.85714V2.95455H1.14286V8.86364Z" fill="#427BBD" fill-opacity="0.5"/>
</svg>
