<svg width="17" height="14" viewBox="0 0 17 14" fill="none" xmlns="http://www.w3.org/2000/svg">
<path d="M16.9134 0.0561155C16.8378 -0.00294446 16.7301 -0.0166467 16.6388 0.0210232L0.147043 6.83923C0.0582573 6.87595 0.00108244 6.95478 1.51775e-05 7.04187C-0.00105209 7.12897 0.0542423 7.20888 0.142165 7.24727L4.80931 9.28534C4.89489 9.32273 4.99694 9.31428 5.07338 9.26345L9.61113 6.2456L6.04881 9.50611C5.99798 9.55264 5.97207 9.61636 5.97766 9.68103L6.33234 13.7912C6.34022 13.8823 6.40883 13.9602 6.50636 13.9887C6.53243 13.9963 6.55921 14 6.58569 14C6.65832 14 6.72896 13.9723 6.7781 13.9216L9.25527 11.3674L12.3176 12.6693C12.384 12.6976 12.461 12.6988 12.5285 12.6726C12.5961 12.6465 12.6475 12.5955 12.6696 12.533L16.9883 0.293847C17.0185 0.208378 16.9891 0.115175 16.9134 0.0561155Z" fill="#1E3167"/>
</svg>
