<svg width="53" height="45" viewBox="0 0 53 45" fill="none" xmlns="http://www.w3.org/2000/svg">
<path d="M49.2623 13.3164H43.1571C38.9714 13.3164 35.5781 16.3796 35.5781 20.1585C35.5781 23.9374 38.9714 27.0006 43.1571 27.0006H49.2623C49.4579 27.0006 49.5555 27.0006 49.6381 26.9958C50.9032 26.9208 51.9107 26.0112 51.9938 24.8691C51.9992 24.7945 51.9992 24.7062 51.9992 24.5299V15.7871C51.9992 15.6108 51.9992 15.5224 51.9938 15.4479C51.9107 14.3059 50.9032 13.3961 49.6381 13.3213C49.5555 13.3164 49.4579 13.3164 49.2623 13.3164Z" stroke="white" stroke-width="2"/>
<path d="M13.6836 10.5781H23.2625" stroke="white" stroke-width="2" stroke-linecap="round" stroke-linejoin="round"/>
<path d="M49.2634 12.9737C49.0784 8.49002 48.4814 5.74098 46.557 3.8056C43.7675 1 39.2774 1 30.2978 1H23.1544C14.1746 1 9.68478 1 6.89511 3.8056C4.10547 6.61123 4.10547 11.1268 4.10547 20.1579C4.10547 29.1889 4.10547 33.7047 6.89511 36.5101C9.68478 39.3158 14.1746 39.3158 23.1544 39.3158H30.2978C39.2774 39.3158 43.7675 39.3158 46.557 36.5101C48.4814 34.5749 49.0784 31.8258 49.2634 27.3421" stroke="white" stroke-width="2"/>
<circle cx="9.57895" cy="35.2098" r="9.57895" fill="white"/>
<path d="M6.00813 34.6753C5.7124 34.6753 5.47266 34.915 5.47266 35.2107C5.47266 35.5065 5.7124 35.7462 6.00813 35.7462V34.6753ZM9.57792 35.7462C9.87364 35.7462 10.1134 35.5065 10.1134 35.2107C10.1134 34.915 9.87364 34.6753 9.57792 34.6753V35.7462ZM9.57792 34.6753C9.2822 34.6753 9.04245 34.915 9.04245 35.2107C9.04245 35.5065 9.2822 35.7462 9.57792 35.7462V34.6753ZM13.1477 35.7462C13.4434 35.7462 13.6832 35.5065 13.6832 35.2107C13.6832 34.915 13.4434 34.6753 13.1477 34.6753V35.7462ZM10.1134 35.2107C10.1134 34.915 9.87364 34.6753 9.57792 34.6753C9.2822 34.6753 9.04245 34.915 9.04245 35.2107H10.1134ZM9.04245 38.7805C9.04245 39.0762 9.2822 39.316 9.57792 39.316C9.87364 39.316 10.1134 39.0762 10.1134 38.7805H9.04245ZM9.04245 35.2107C9.04245 35.5065 9.2822 35.7462 9.57792 35.7462C9.87364 35.7462 10.1134 35.5065 10.1134 35.2107H9.04245ZM10.1134 31.6409C10.1134 31.3452 9.87364 31.1055 9.57792 31.1055C9.2822 31.1055 9.04245 31.3452 9.04245 31.6409H10.1134ZM6.00813 35.7462H9.57792V34.6753H6.00813V35.7462ZM9.57792 35.7462H13.1477V34.6753H9.57792V35.7462ZM9.57792 35.2107H9.04245V35.2114C9.04245 35.2115 9.04245 35.2123 9.04245 35.2123C9.04245 35.2122 9.04245 35.2124 9.04245 35.2123C9.04245 35.2123 9.04245 35.2131 9.04245 35.2132C9.04245 35.2131 9.04245 35.2132 9.04245 35.2132C9.04245 35.2132 9.04245 35.2138 9.04245 35.2139C9.04245 35.2139 9.04245 35.2146 9.04245 35.2147C9.04245 35.2147 9.04245 35.2153 9.04245 35.2154C9.04245 35.2154 9.04245 35.2161 9.04245 35.2162C9.04245 35.2163 9.04245 35.2169 9.04245 35.2171C9.04245 35.2172 9.04245 35.2179 9.04245 35.218C9.04245 35.2179 9.04245 35.2182 9.04245 35.218C9.04245 35.2182 9.04245 35.2186 9.04245 35.2187C9.04245 35.2186 9.04245 35.2189 9.04245 35.2187C9.04245 35.2189 9.04245 35.2194 9.04245 35.2194C9.04245 35.2193 9.04245 35.2196 9.04245 35.2194C9.04245 35.2196 9.04245 35.2201 9.04245 35.2202C9.04245 35.2201 9.04245 35.2204 9.04245 35.2202C9.04245 35.2204 9.04245 35.2209 9.04245 35.2211C9.04245 35.2209 9.04245 35.2212 9.04245 35.2211C9.04245 35.2212 9.04245 35.2218 9.04245 35.2219C9.04245 35.2217 9.04245 35.2221 9.04245 35.2219C9.04245 35.2221 9.04245 35.2227 9.04245 35.2229C9.04245 35.2227 9.04245 35.223 9.04245 35.2229C9.04245 35.223 9.04245 35.2237 9.04245 35.2239C9.04245 35.2237 9.04245 35.224 9.04245 35.2239C9.04245 35.224 9.04245 35.2247 9.04245 35.2249C9.04245 35.2247 9.04245 35.225 9.04245 35.2249C9.04245 35.2251 9.04245 35.2257 9.04245 35.2259C9.04245 35.2257 9.04245 35.2262 9.04245 35.2259C9.04245 35.2261 9.04245 35.2269 9.04245 35.2271C9.04245 35.2269 9.04245 35.2272 9.04245 35.2271C9.04245 35.2273 9.04245 35.228 9.04245 35.2282C9.04245 35.228 9.04245 35.2284 9.04245 35.2282C9.04245 35.2284 9.04245 35.2293 9.04245 35.2295C9.04245 35.2293 9.04245 35.2297 9.04245 35.2295C9.04245 35.2297 9.04245 35.2306 9.04245 35.2308C9.04245 35.2306 9.04245 35.231 9.04245 35.2308C9.04245 35.231 9.04245 35.2319 9.04245 35.2322C9.04245 35.2319 9.04245 35.2324 9.04245 35.2322C9.04245 35.2324 9.04245 35.2333 9.04245 35.2335C9.04245 35.2338 9.04245 35.234 9.04245 35.2343C9.04245 35.2345 9.04245 35.2347 9.04245 35.235C9.04245 35.2353 9.04245 35.2355 9.04245 35.2358C9.04245 35.236 9.04245 35.2363 9.04245 35.2365C9.04245 35.2368 9.04245 35.2371 9.04245 35.2374C9.04245 35.2376 9.04245 35.2379 9.04245 35.2381C9.04245 35.2384 9.04245 35.2386 9.04245 35.2389C9.04245 35.2392 9.04245 35.2395 9.04245 35.2398C9.04245 35.2401 9.04245 35.2404 9.04245 35.2406C9.04245 35.2409 9.04245 35.2412 9.04245 35.2415C9.04245 35.2418 9.04245 35.2421 9.04245 35.2424C9.04245 35.2427 9.04245 35.243 9.04245 35.2433C9.04245 35.2436 9.04245 35.2439 9.04245 35.2442C9.04245 35.2446 9.04245 35.2449 9.04245 35.2451C9.04245 35.2455 9.04245 35.2458 9.04245 35.2461C9.04245 35.2464 9.04245 35.2468 9.04245 35.2471C9.04245 35.2474 9.04245 35.2478 9.04245 35.2481C9.04245 35.2484 9.04245 35.2488 9.04245 35.2491C9.04245 35.2494 9.04245 35.2498 9.04245 35.2501C9.04245 35.2505 9.04245 35.2509 9.04245 35.2512C9.04245 35.2515 9.04245 35.2519 9.04245 35.2522C9.04245 35.2526 9.04245 35.253 9.04245 35.2534C9.04245 35.2537 9.04245 35.2541 9.04245 35.2544C9.04245 35.2548 9.04245 35.2551 9.04245 35.2556C9.04245 35.2559 9.04245 35.2563 9.04245 35.2567C9.04245 35.2571 9.04245 35.2575 9.04245 35.2579C9.04245 35.2582 9.04245 35.2586 9.04245 35.259C9.04245 35.2594 9.04245 35.2599 9.04245 35.2602C9.04245 35.2606 9.04245 35.2611 9.04245 35.2614C9.04245 35.2619 9.04245 35.2623 9.04245 35.2627C9.04245 35.2631 9.04245 35.2635 9.04245 35.2639C9.04245 35.2644 9.04245 35.2648 9.04245 35.2652C9.04245 35.2656 9.04245 35.2661 9.04245 35.2665C9.04245 35.2669 9.04245 35.2674 9.04245 35.2678C9.04245 35.2683 9.04245 35.2687 9.04245 35.2691C9.04245 35.2696 9.04245 35.2701 9.04245 35.2705C9.04245 35.271 9.04245 35.2714 9.04245 35.2719C9.04245 35.2723 9.04245 35.2728 9.04245 35.2733C9.04245 35.2738 9.04245 35.2743 9.04245 35.2747C9.04245 35.2752 9.04245 35.2757 9.04245 35.2762C9.04245 35.2766 9.04245 35.2771 9.04245 35.2776C9.04245 35.2781 9.04245 35.2786 9.04245 35.2791C9.04245 35.2796 9.04245 35.2801 9.04245 35.2806C9.04245 35.2811 9.04245 35.2816 9.04245 35.2821C9.04245 35.2827 9.04245 35.2832 9.04245 35.2837C9.04245 35.2843 9.04245 35.2848 9.04245 35.2853C9.04245 35.2858 9.04245 35.2863 9.04245 35.2869C9.04245 35.2874 9.04245 35.288 9.04245 35.2885C9.04245 35.2891 9.04245 35.2896 9.04245 35.2901C9.04245 35.2907 9.04245 35.2913 9.04245 35.2918C9.04245 35.2924 9.04245 35.2929 9.04245 35.2935C9.04245 35.2941 9.04245 35.2946 9.04245 35.2952C9.04245 35.2958 9.04245 35.2964 9.04245 35.297C9.04245 35.2975 9.04245 35.2981 9.04245 35.2987C9.04245 35.2993 9.04245 35.2999 9.04245 35.3005C9.04245 35.3011 9.04245 35.3017 9.04245 35.3023C9.04245 35.3029 9.04245 35.3035 9.04245 35.3041C9.04245 35.3048 9.04245 35.3054 9.04245 35.306C9.04245 35.3066 9.04245 35.3073 9.04245 35.3079C9.04245 35.3085 9.04245 35.3091 9.04245 35.3098C9.04245 35.3104 9.04245 35.311 9.04245 35.3117C9.04245 35.3123 9.04245 35.313 9.04245 35.3137C9.04245 35.3143 9.04245 35.315 9.04245 35.3156C9.04245 35.3163 9.04245 35.317 9.04245 35.3176C9.04245 35.3183 9.04245 35.319 9.04245 35.3197C9.04245 35.3203 9.04245 35.321 9.04245 35.3218C9.04245 35.3224 9.04245 35.3231 9.04245 35.3238C9.04245 35.3245 9.04245 35.3252 9.04245 35.3259C9.04245 35.3266 9.04245 35.3273 9.04245 35.328C9.04245 35.3287 9.04245 35.3295 9.04245 35.3302C9.04245 35.331 9.04245 35.3317 9.04245 35.3324C9.04245 35.3331 9.04245 35.3339 9.04245 35.3346C9.04245 35.3353 9.04245 35.3361 9.04245 35.3368C9.04245 35.3376 9.04245 35.3383 9.04245 35.3391C9.04245 35.3399 9.04245 35.3406 9.04245 35.3414C9.04245 35.3422 9.04245 35.343 9.04245 35.3437C9.04245 35.3445 9.04245 35.3453 9.04245 35.3461C9.04245 35.3469 9.04245 35.3477 9.04245 35.3485C9.04245 35.3492 9.04245 35.35 9.04245 35.3508C9.04245 35.3517 9.04245 35.3525 9.04245 35.3533C9.04245 35.3541 9.04245 35.3549 9.04245 35.3557C9.04245 35.3565 9.04245 35.3574 9.04245 35.3582C9.04245 35.359 9.04245 35.3599 9.04245 35.3607C9.04245 35.3616 9.04245 35.3624 9.04245 35.3633C9.04245 35.3642 9.04245 35.365 9.04245 35.3659C9.04245 35.3667 9.04245 35.3676 9.04245 35.3684C9.04245 35.3693 9.04245 35.3702 9.04245 35.3711C9.04245 35.3719 9.04245 35.3729 9.04245 35.3737C9.04245 35.3747 9.04245 35.3755 9.04245 35.3764C9.04245 35.3773 9.04245 35.3782 9.04245 35.3792C9.04245 35.38 9.04245 35.3809 9.04245 35.3819C9.04245 35.3828 9.04245 35.3837 9.04245 35.3847C9.04245 35.3856 9.04245 35.3865 9.04245 35.3874C9.04245 35.3884 9.04245 35.3894 9.04245 35.3903C9.04245 35.3912 9.04245 35.3922 9.04245 35.3931C9.04245 35.3941 9.04245 35.3951 9.04245 35.3961C9.04245 35.397 9.04245 35.398 9.04245 35.399C9.04245 35.3999 9.04245 35.4009 9.04245 35.4019C9.04245 35.4029 9.04245 35.4039 9.04245 35.4049C9.04245 35.4059 9.04245 35.4069 9.04245 35.4079C9.04245 35.4089 9.04245 35.41 9.04245 35.411C9.04245 35.412 9.04245 35.4131 9.04245 35.4141C9.04245 35.4151 9.04245 35.4161 9.04245 35.4172C9.04245 35.4182 9.04245 35.4193 9.04245 35.4204C9.04245 35.4214 9.04245 35.4224 9.04245 35.4235C9.04245 35.4246 9.04245 35.4256 9.04245 35.4267C9.04245 35.4278 9.04245 35.4288 9.04245 35.43C9.04245 35.4311 9.04245 35.4321 9.04245 35.4332C9.04245 35.4343 9.04245 35.4354 9.04245 35.4366C9.04245 35.4376 9.04245 35.4388 9.04245 35.4398C9.04245 35.441 9.04245 35.4421 9.04245 35.4433C9.04245 35.4443 9.04245 35.4455 9.04245 35.4466C9.04245 35.4478 9.04245 35.4489 9.04245 35.4501C9.04245 35.4512 9.04245 35.4524 9.04245 35.4535C9.04245 35.4547 9.04245 35.4559 9.04245 35.457C9.04245 35.4582 9.04245 35.4594 9.04245 35.4606C9.04245 35.4618 9.04245 35.463 9.04245 35.4642C9.04245 35.4653 9.04245 35.4665 9.04245 35.4678C9.04245 35.469 9.04245 35.4702 9.04245 35.4714C9.04245 35.4726 9.04245 35.4738 9.04245 35.475C9.04245 35.4763 9.04245 35.4775 9.04245 35.4788C9.04245 35.48 9.04245 35.4813 9.04245 35.4825C9.04245 35.4837 9.04245 35.485 9.04245 35.4862C9.04245 35.4875 9.04245 35.4888 9.04245 35.4901C9.04245 35.4914 9.04245 35.4927 9.04245 35.494C9.04245 35.4952 9.04245 35.4965 9.04245 35.4978C9.04245 35.4991 9.04245 35.5004 9.04245 35.5017C9.04245 35.503 9.04245 35.5044 9.04245 35.5057C9.04245 35.507 9.04245 35.5083 9.04245 35.5097C9.04245 35.511 9.04245 35.5123 9.04245 35.5137C9.04245 35.515 9.04245 35.5164 9.04245 35.5177C9.04245 35.5191 9.04245 35.5204 9.04245 35.5219C9.04245 35.5232 9.04245 35.5246 9.04245 35.5259C9.04245 35.5274 9.04245 35.5287 9.04245 35.5302C9.04245 35.5315 9.04245 35.5329 9.04245 35.5344C9.04245 35.5357 9.04245 35.5372 9.04245 35.5386C9.04245 35.54 9.04245 35.5414 9.04245 35.5429C9.04245 35.5443 9.04245 35.5457 9.04245 35.5471C9.04245 35.5486 9.04245 35.5501 9.04245 35.5515C9.04245 35.553 9.04245 35.5544 9.04245 35.5559C9.04245 35.5574 9.04245 35.5589 9.04245 35.5604C9.04245 35.5618 9.04245 35.5633 9.04245 35.5648C9.04245 35.5663 9.04245 35.5678 9.04245 35.5693C9.04245 35.5708 9.04245 35.5723 9.04245 35.5739C9.04245 35.5754 9.04245 35.5769 9.04245 35.5784C9.04245 35.5799 9.04245 35.5815 9.04245 35.583C9.04245 35.5846 9.04245 35.5861 9.04245 35.5877C9.04245 35.5892 9.04245 35.5908 9.04245 35.5923C9.04245 35.5939 9.04245 35.5955 9.04245 35.5971C9.04245 35.5987 9.04245 35.6003 9.04245 35.6018C9.04245 35.6035 9.04245 35.6051 9.04245 35.6067C9.04245 35.6083 9.04245 35.6099 9.04245 35.6115C9.04245 35.6131 9.04245 35.6148 9.04245 35.6164C9.04245 35.618 9.04245 35.6197 9.04245 35.6213C9.04245 35.623 9.04245 35.6246 9.04245 35.6263C9.04245 35.628 9.04245 35.6296 9.04245 35.6313C9.04245 35.633 9.04245 35.6347 9.04245 35.6364C9.04245 35.638 9.04245 35.6397 9.04245 35.6415C9.04245 35.6432 9.04245 35.6449 9.04245 35.6466C9.04245 35.6483 9.04245 35.65 9.04245 35.6517C9.04245 35.6535 9.04245 35.6552 9.04245 35.657C9.04245 35.6587 9.04245 35.6605 9.04245 35.6622C9.04245 35.664 9.04245 35.6657 9.04245 35.6675C9.04245 35.6692 9.04245 35.671 9.04245 35.6728C9.04245 35.6746 9.04245 35.6764 9.04245 35.6782C9.04245 35.68 9.04245 35.6818 9.04245 35.6836C9.04245 35.6854 9.04245 35.6872 9.04245 35.6891C9.04245 35.6909 9.04245 35.6927 9.04245 35.6946C9.04245 35.6964 9.04245 35.6982 9.04245 35.7001C9.04245 35.7019 9.04245 35.7038 9.04245 35.7057C9.04245 35.7076 9.04245 35.7094 9.04245 35.7113C9.04245 35.7132 9.04245 35.7151 9.04245 35.717C9.04245 35.7189 9.04245 35.7208 9.04245 35.7227C9.04245 35.7246 9.04245 35.7265 9.04245 35.7284C9.04245 35.7304 9.04245 35.7323 9.04245 35.7342C9.04245 35.7362 9.04245 35.7381 9.04245 35.7401C9.04245 35.7421 9.04245 35.744 9.04245 35.746C9.04245 35.7479 9.04245 35.7499 9.04245 35.7519C9.04245 35.7538 9.04245 35.7558 9.04245 35.7578C9.04245 35.7598 9.04245 35.7618 9.04245 35.7638C9.04245 35.7659 9.04245 35.7679 9.04245 35.7699C9.04245 35.772 9.04245 35.774 9.04245 35.776C9.04245 35.778 9.04245 35.7801 9.04245 35.7822C9.04245 35.7843 9.04245 35.7863 9.04245 35.7883C9.04245 35.7904 9.04245 35.7925 9.04245 35.7946C9.04245 35.7967 9.04245 35.7987 9.04245 35.8009C9.04245 35.803 9.04245 35.8051 9.04245 35.8072C9.04245 35.8093 9.04245 35.8115 9.04245 35.8135C9.04245 35.8157 9.04245 35.8178 9.04245 35.82C9.04245 35.8221 9.04245 35.8242 9.04245 35.8264C9.04245 35.8286 9.04245 35.8307 9.04245 35.8329C9.04245 35.8351 9.04245 35.8373 9.04245 35.8395C9.04245 35.8417 9.04245 35.8439 9.04245 35.8461C9.04245 35.8483 9.04245 35.8505 9.04245 35.8527C9.04245 35.8549 9.04245 35.8572 9.04245 35.8594C9.04245 35.8616 9.04245 35.8639 9.04245 35.8661C9.04245 35.8684 9.04245 35.8706 9.04245 35.8729C9.04245 35.8752 9.04245 35.8775 9.04245 35.8798C9.04245 35.882 9.04245 35.8844 9.04245 35.8866C9.04245 35.8889 9.04245 35.8912 9.04245 35.8936C9.04245 35.8958 9.04245 35.8982 9.04245 35.9005C9.04245 35.9028 9.04245 35.9052 9.04245 35.9076C9.04245 35.9098 9.04245 35.9122 9.04245 35.9146C9.04245 35.917 9.04245 35.9193 9.04245 35.9217C9.04245 35.924 9.04245 35.9265 9.04245 35.9288C9.04245 35.9313 9.04245 35.9336 9.04245 35.936C9.04245 35.9385 9.04245 35.9409 9.04245 35.9433C9.04245 35.9458 9.04245 35.9482 9.04245 35.9506C9.04245 35.953 9.04245 35.9555 9.04245 35.958C9.04245 35.9604 9.04245 35.9629 9.04245 35.9654C9.04245 35.9678 9.04245 35.9703 9.04245 35.9728C9.04245 35.9753 9.04245 35.9778 9.04245 35.9803C9.04245 35.9828 9.04245 35.9853 9.04245 35.9879C9.04245 35.9904 9.04245 35.9929 9.04245 35.9954C9.04245 35.998 9.04245 36.0005 9.04245 36.0031C9.04245 36.0057 9.04245 36.0082 9.04245 36.0108C9.04245 36.0134 9.04245 36.0159 9.04245 36.0185C9.04245 36.0211 9.04245 36.0237 9.04245 36.0263C9.04245 36.0289 9.04245 36.0315 9.04245 36.0341C9.04245 36.0368 9.04245 36.0394 9.04245 36.0421C9.04245 36.0447 9.04245 36.0473 9.04245 36.05C9.04245 36.0526 9.04245 36.0553 9.04245 36.058C9.04245 36.0606 9.04245 36.0633 9.04245 36.0661C9.04245 36.0687 9.04245 36.0714 9.04245 36.0741C9.04245 36.0768 9.04245 36.0795 9.04245 36.0823C9.04245 36.085 9.04245 36.0877 9.04245 36.0905C9.04245 36.0932 9.04245 36.096 9.04245 36.0987C9.04245 36.1015 9.04245 36.1043 9.04245 36.107C9.04245 36.1097 9.04245 36.1125 9.04245 36.1154C9.04245 36.1182 9.04245 36.121 9.04245 36.1237C9.04245 36.1266 9.04245 36.1294 9.04245 36.1322C9.04245 36.135 9.04245 36.1379 9.04245 36.1407C9.04245 36.1436 9.04245 36.1464 9.04245 36.1493C9.04245 36.1522 9.04245 36.155 9.04245 36.1579C9.04245 36.1608 9.04245 36.1637 9.04245 36.1666C9.04245 36.1694 9.04245 36.1724 9.04245 36.1753C9.04245 36.1781 9.04245 36.1811 9.04245 36.184C9.04245 36.187 9.04245 36.1899 9.04245 36.1929C9.04245 36.1958 9.04245 36.1988 9.04245 36.2017C9.04245 36.2047 9.04245 36.2077 9.04245 36.2106C9.04245 36.2136 9.04245 36.2166 9.04245 36.2196C9.04245 36.2226 9.04245 36.2256 9.04245 36.2287C9.04245 36.2317 9.04245 36.2347 9.04245 36.2378C9.04245 36.2408 9.04245 36.2438 9.04245 36.2469C9.04245 36.25 9.04245 36.253 9.04245 36.2561C9.04245 36.2592 9.04245 36.2623 9.04245 36.2653C9.04245 36.2685 9.04245 36.2715 9.04245 36.2747C9.04245 36.2777 9.04245 36.2809 9.04245 36.284C9.04245 36.2872 9.04245 36.2903 9.04245 36.2935C9.04245 36.2966 9.04245 36.2997 9.04245 36.3029C9.04245 36.3061 9.04245 36.3092 9.04245 36.3124C9.04245 36.3156 9.04245 36.3188 9.04245 36.322C9.04245 36.3252 9.04245 36.3284 9.04245 36.3316C9.04245 36.3349 9.04245 36.3381 9.04245 36.3414C9.04245 36.3446 9.04245 36.3479 9.04245 36.3511C9.04245 36.3544 9.04245 36.3576 9.04245 36.3608C9.04245 36.3641 9.04245 36.3674 9.04245 36.3708C9.04245 36.3741 9.04245 36.3773 9.04245 36.3806C9.04245 36.384 9.04245 36.3873 9.04245 36.3906C9.04245 36.394 9.04245 36.3973 9.04245 36.4007C9.04245 36.404 9.04245 36.4074 9.04245 36.4108C9.04245 36.4141 9.04245 36.4175 9.04245 36.4209C9.04245 36.4242 9.04245 36.4277 9.04245 36.4311C9.04245 36.4345 9.04245 36.4379 9.04245 36.4413C9.04245 36.4447 9.04245 36.4482 9.04245 36.4517C9.04245 36.4551 9.04245 36.4585 9.04245 36.462C9.04245 36.4655 9.04245 36.4689 9.04245 36.4724C9.04245 36.4759 9.04245 36.4794 9.04245 36.4829C9.04245 36.4864 9.04245 36.4899 9.04245 36.4935C9.04245 36.497 9.04245 36.5005 9.04245 36.5041C9.04245 36.5076 9.04245 36.5111 9.04245 36.5147C9.04245 36.5183 9.04245 36.5218 9.04245 36.5254C9.04245 36.5291 9.04245 36.5326 9.04245 36.5362C9.04245 36.5398 9.04245 36.5434 9.04245 36.547C9.04245 36.5507 9.04245 36.5543 9.04245 36.558C9.04245 36.5616 9.04245 36.5653 9.04245 36.5689C9.04245 36.5725 9.04245 36.5762 9.04245 36.5799C9.04245 36.5836 9.04245 36.5873 9.04245 36.591C9.04245 36.5947 9.04245 36.5984 9.04245 36.6021C9.04245 36.6058 9.04245 36.6096 9.04245 36.6133C9.04245 36.617 9.04245 36.6208 9.04245 36.6246C9.04245 36.6283 9.04245 36.6321 9.04245 36.6359C9.04245 36.6396 9.04245 36.6434 9.04245 36.6472C9.04245 36.6511 9.04245 36.6549 9.04245 36.6586C9.04245 36.6625 9.04245 36.6664 9.04245 36.6701C9.04245 36.674 9.04245 36.6778 9.04245 36.6817C9.04245 36.6856 9.04245 36.6895 9.04245 36.6933C9.04245 36.6972 9.04245 36.7011 9.04245 36.705C9.04245 36.7089 9.04245 36.7128 9.04245 36.7168C9.04245 36.7207 9.04245 36.7246 9.04245 36.7285C9.04245 36.7325 9.04245 36.7365 9.04245 36.7404C9.04245 36.7444 9.04245 36.7483 9.04245 36.7523C9.04245 36.7563 9.04245 36.7603 9.04245 36.7643C9.04245 36.7683 9.04245 36.7723 9.04245 36.7764C9.04245 36.7804 9.04245 36.7844 9.04245 36.7884C9.04245 36.7925 9.04245 36.7966 9.04245 36.8006C9.04245 36.8046 9.04245 36.8088 9.04245 36.8129C9.04245 36.8169 9.04245 36.821 9.04245 36.8251C9.04245 36.8292 9.04245 36.8333 9.04245 36.8375C9.04245 36.8416 9.04245 36.8458 9.04245 36.8499C9.04245 36.8541 9.04245 36.8582 9.04245 36.8624C9.04245 36.8665 9.04245 36.8708 9.04245 36.8749C9.04245 36.8791 9.04245 36.8833 9.04245 36.8875C9.04245 36.8917 9.04245 36.896 9.04245 36.9002C9.04245 36.9045 9.04245 36.9087 9.04245 36.913C9.04245 36.9172 9.04245 36.9214 9.04245 36.9257C9.04245 36.93 9.04245 36.9343 9.04245 36.9386C9.04245 36.9429 9.04245 36.9472 9.04245 36.9515C9.04245 36.9559 9.04245 36.9601 9.04245 36.9645C9.04245 36.9689 9.04245 36.9732 9.04245 36.9776C9.04245 36.9819 9.04245 36.9863 9.04245 36.9907C9.04245 36.9951 9.04245 36.9995 9.04245 37.0039C9.04245 37.0083 9.04245 37.0127 9.04245 37.0171C9.04245 37.0215 9.04245 37.026 9.04245 37.0305C9.04245 37.0349 9.04245 37.0393 9.04245 37.0438C9.04245 37.0483 9.04245 37.0527 9.04245 37.0572C9.04245 37.0617 9.04245 37.0662 9.04245 37.0708C9.04245 37.0753 9.04245 37.0798 9.04245 37.0844C9.04245 37.0889 9.04245 37.0934 9.04245 37.098C9.04245 37.1026 9.04245 37.1071 9.04245 37.1117C9.04245 37.1163 9.04245 37.1209 9.04245 37.1255C9.04245 37.1301 9.04245 37.1347 9.04245 37.1393C9.04245 37.1439 9.04245 37.1486 9.04245 37.1533C9.04245 37.1579 9.04245 37.1626 9.04245 37.1672C9.04245 37.1719 9.04245 37.1765 9.04245 37.1813C9.04245 37.186 9.04245 37.1907 9.04245 37.1954C9.04245 37.2001 9.04245 37.2048 9.04245 37.2095C9.04245 37.2142 9.04245 37.219 9.04245 37.2238C9.04245 37.2285 9.04245 37.2333 9.04245 37.2381C9.04245 37.2429 9.04245 37.2477 9.04245 37.2524C9.04245 37.2573 9.04245 37.2621 9.04245 37.2669C9.04245 37.2717 9.04245 37.2766 9.04245 37.2814C9.04245 37.2863 9.04245 37.2911 9.04245 37.296C9.04245 37.3009 9.04245 37.3058 9.04245 37.3107C9.04245 37.3156 9.04245 37.3205 9.04245 37.3254C9.04245 37.3303 9.04245 37.3353 9.04245 37.3402C9.04245 37.3451 9.04245 37.35 9.04245 37.355C9.04245 37.36 9.04245 37.365 9.04245 37.37C9.04245 37.375 9.04245 37.38 9.04245 37.385C9.04245 37.3899 9.04245 37.3949 9.04245 37.4C9.04245 37.405 9.04245 37.4101 9.04245 37.4152C9.04245 37.4202 9.04245 37.4253 9.04245 37.4304C9.04245 37.4354 9.04245 37.4405 9.04245 37.4456C9.04245 37.4507 9.04245 37.4558 9.04245 37.461C9.04245 37.4661 9.04245 37.4712 9.04245 37.4764C9.04245 37.4815 9.04245 37.4867 9.04245 37.4918C9.04245 37.497 9.04245 37.5022 9.04245 37.5074C9.04245 37.5126 9.04245 37.5178 9.04245 37.523C9.04245 37.5282 9.04245 37.5335 9.04245 37.5387C9.04245 37.5439 9.04245 37.5492 9.04245 37.5545C9.04245 37.5597 9.04245 37.565 9.04245 37.5703C9.04245 37.5756 9.04245 37.5809 9.04245 37.5862C9.04245 37.5916 9.04245 37.5969 9.04245 37.6022C9.04245 37.6076 9.04245 37.6129 9.04245 37.6183C9.04245 37.6236 9.04245 37.629 9.04245 37.6344C9.04245 37.6398 9.04245 37.6452 9.04245 37.6506C9.04245 37.656 9.04245 37.6614 9.04245 37.6668C9.04245 37.6722 9.04245 37.6777 9.04245 37.6832C9.04245 37.6887 9.04245 37.6941 9.04245 37.6996C9.04245 37.7051 9.04245 37.7106 9.04245 37.7161C9.04245 37.7216 9.04245 37.7271 9.04245 37.7326C9.04245 37.7381 9.04245 37.7437 9.04245 37.7493C9.04245 37.7548 9.04245 37.7604 9.04245 37.766C9.04245 37.7716 9.04245 37.7771 9.04245 37.7828C9.04245 37.7883 9.04245 37.794 9.04245 37.7995C9.04245 37.8052 9.04245 37.8108 9.04245 37.8165C9.04245 37.8222 9.04245 37.8278 9.04245 37.8335C9.04245 37.8392 9.04245 37.8449 9.04245 37.8506C9.04245 37.8562 9.04245 37.8619 9.04245 37.8677C9.04245 37.8734 9.04245 37.8792 9.04245 37.8849C9.04245 37.8906 9.04245 37.8964 9.04245 37.9022C9.04245 37.908 9.04245 37.9138 9.04245 37.9196C9.04245 37.9253 9.04245 37.9312 9.04245 37.937C9.04245 37.9428 9.04245 37.9487 9.04245 37.9545C9.04245 37.9604 9.04245 37.9663 9.04245 37.9721C9.04245 37.978 9.04245 37.9839 9.04245 37.9897C9.04245 37.9957 9.04245 38.0016 9.04245 38.0075C9.04245 38.0134 9.04245 38.0194 9.04245 38.0253C9.04245 38.0313 9.04245 38.0372 9.04245 38.0432C9.04245 38.0492 9.04245 38.0552 9.04245 38.0612C9.04245 38.0672 9.04245 38.0732 9.04245 38.0792C9.04245 38.0853 9.04245 38.0913 9.04245 38.0973C9.04245 38.1034 9.04245 38.1095 9.04245 38.1155C9.04245 38.1216 9.04245 38.1277 9.04245 38.1338C9.04245 38.1399 9.04245 38.146 9.04245 38.1522C9.04245 38.1583 9.04245 38.1645 9.04245 38.1706C9.04245 38.1767 9.04245 38.1829 9.04245 38.1891C9.04245 38.1952 9.04245 38.2014 9.04245 38.2076C9.04245 38.2139 9.04245 38.2201 9.04245 38.2263C9.04245 38.2326 9.04245 38.2388 9.04245 38.2451C9.04245 38.2513 9.04245 38.2576 9.04245 38.2638C9.04245 38.2701 9.04245 38.2764 9.04245 38.2828C9.04245 38.289 9.04245 38.2953 9.04245 38.3017C9.04245 38.308 9.04245 38.3144 9.04245 38.3207C9.04245 38.3271 9.04245 38.3334 9.04245 38.3399C9.04245 38.3462 9.04245 38.3527 9.04245 38.3591C9.04245 38.3654 9.04245 38.3719 9.04245 38.3784C9.04245 38.3848 9.04245 38.3912 9.04245 38.3977C9.04245 38.4041 9.04245 38.4106 9.04245 38.4171C9.04245 38.4236 9.04245 38.4301 9.04245 38.4366C9.04245 38.4431 9.04245 38.4497 9.04245 38.4562C9.04245 38.4627 9.04245 38.4693 9.04245 38.4759C9.04245 38.4824 9.04245 38.489 9.04245 38.4957C9.04245 38.5022 9.04245 38.5089 9.04245 38.5154C9.04245 38.5221 9.04245 38.5287 9.04245 38.5354C9.04245 38.542 9.04245 38.5487 9.04245 38.5553C9.04245 38.5621 9.04245 38.5687 9.04245 38.5754C9.04245 38.5821 9.04245 38.5888 9.04245 38.5955C9.04245 38.6023 9.04245 38.609 9.04245 38.6158C9.04245 38.6225 9.04245 38.6293 9.04245 38.6361C9.04245 38.6429 9.04245 38.6497 9.04245 38.6565C9.04245 38.6633 9.04245 38.6701 9.04245 38.6769C9.04245 38.6838 9.04245 38.6906 9.04245 38.6975C9.04245 38.7043 9.04245 38.7113 9.04245 38.7181C9.04245 38.7251 9.04245 38.7319 9.04245 38.7388C9.04245 38.7458 9.04245 38.7527 9.04245 38.7597C9.04245 38.7666 9.04245 38.7735 9.04245 38.7805H10.1134C10.1134 38.7735 10.1134 38.7666 10.1134 38.7597C10.1134 38.7527 10.1134 38.7458 10.1134 38.7388C10.1134 38.7319 10.1134 38.7251 10.1134 38.7181C10.1134 38.7113 10.1134 38.7043 10.1134 38.6975C10.1134 38.6906 10.1134 38.6838 10.1134 38.6769C10.1134 38.6701 10.1134 38.6633 10.1134 38.6565C10.1134 38.6497 10.1134 38.6429 10.1134 38.6361C10.1134 38.6293 10.1134 38.6225 10.1134 38.6158C10.1134 38.609 10.1134 38.6023 10.1134 38.5955C10.1134 38.5888 10.1134 38.5821 10.1134 38.5754C10.1134 38.5687 10.1134 38.5621 10.1134 38.5553C10.1134 38.5487 10.1134 38.542 10.1134 38.5354C10.1134 38.5287 10.1134 38.5221 10.1134 38.5154C10.1134 38.5089 10.1134 38.5022 10.1134 38.4957C10.1134 38.489 10.1134 38.4824 10.1134 38.4759C10.1134 38.4693 10.1134 38.4627 10.1134 38.4562C10.1134 38.4497 10.1134 38.4431 10.1134 38.4366C10.1134 38.4301 10.1134 38.4236 10.1134 38.4171C10.1134 38.4106 10.1134 38.4041 10.1134 38.3977C10.1134 38.3912 10.1134 38.3848 10.1134 38.3784C10.1134 38.3719 10.1134 38.3654 10.1134 38.3591C10.1134 38.3527 10.1134 38.3462 10.1134 38.3399C10.1134 38.3334 10.1134 38.3271 10.1134 38.3207C10.1134 38.3144 10.1134 38.308 10.1134 38.3017C10.1134 38.2953 10.1134 38.289 10.1134 38.2828C10.1134 38.2764 10.1134 38.2701 10.1134 38.2638C10.1134 38.2576 10.1134 38.2513 10.1134 38.2451C10.1134 38.2388 10.1134 38.2326 10.1134 38.2263C10.1134 38.2201 10.1134 38.2139 10.1134 38.2076C10.1134 38.2014 10.1134 38.1952 10.1134 38.1891C10.1134 38.1829 10.1134 38.1767 10.1134 38.1706C10.1134 38.1645 10.1134 38.1583 10.1134 38.1522C10.1134 38.146 10.1134 38.1399 10.1134 38.1338C10.1134 38.1277 10.1134 38.1216 10.1134 38.1155C10.1134 38.1095 10.1134 38.1034 10.1134 38.0973C10.1134 38.0913 10.1134 38.0853 10.1134 38.0792C10.1134 38.0732 10.1134 38.0672 10.1134 38.0612C10.1134 38.0552 10.1134 38.0492 10.1134 38.0432C10.1134 38.0372 10.1134 38.0313 10.1134 38.0253C10.1134 38.0194 10.1134 38.0134 10.1134 38.0075C10.1134 38.0016 10.1134 37.9957 10.1134 37.9897C10.1134 37.9839 10.1134 37.978 10.1134 37.9721C10.1134 37.9663 10.1134 37.9604 10.1134 37.9545C10.1134 37.9487 10.1134 37.9428 10.1134 37.937C10.1134 37.9312 10.1134 37.9253 10.1134 37.9196C10.1134 37.9138 10.1134 37.908 10.1134 37.9022C10.1134 37.8964 10.1134 37.8906 10.1134 37.8849C10.1134 37.8792 10.1134 37.8734 10.1134 37.8677C10.1134 37.8619 10.1134 37.8562 10.1134 37.8506C10.1134 37.8449 10.1134 37.8392 10.1134 37.8335C10.1134 37.8278 10.1134 37.8222 10.1134 37.8165C10.1134 37.8108 10.1134 37.8052 10.1134 37.7995C10.1134 37.794 10.1134 37.7883 10.1134 37.7828C10.1134 37.7771 10.1134 37.7716 10.1134 37.766C10.1134 37.7604 10.1134 37.7548 10.1134 37.7493C10.1134 37.7437 10.1134 37.7381 10.1134 37.7326C10.1134 37.7271 10.1134 37.7216 10.1134 37.7161C10.1134 37.7106 10.1134 37.7051 10.1134 37.6996C10.1134 37.6941 10.1134 37.6887 10.1134 37.6832C10.1134 37.6777 10.1134 37.6722 10.1134 37.6668C10.1134 37.6614 10.1134 37.656 10.1134 37.6506C10.1134 37.6452 10.1134 37.6398 10.1134 37.6344C10.1134 37.629 10.1134 37.6236 10.1134 37.6183C10.1134 37.6129 10.1134 37.6076 10.1134 37.6022C10.1134 37.5969 10.1134 37.5916 10.1134 37.5862C10.1134 37.5809 10.1134 37.5756 10.1134 37.5703C10.1134 37.565 10.1134 37.5597 10.1134 37.5545C10.1134 37.5492 10.1134 37.5439 10.1134 37.5387C10.1134 37.5335 10.1134 37.5282 10.1134 37.523C10.1134 37.5178 10.1134 37.5126 10.1134 37.5074C10.1134 37.5022 10.1134 37.497 10.1134 37.4918C10.1134 37.4867 10.1134 37.4815 10.1134 37.4764C10.1134 37.4712 10.1134 37.4661 10.1134 37.461C10.1134 37.4558 10.1134 37.4507 10.1134 37.4456C10.1134 37.4405 10.1134 37.4354 10.1134 37.4304C10.1134 37.4253 10.1134 37.4202 10.1134 37.4152C10.1134 37.4101 10.1134 37.405 10.1134 37.4C10.1134 37.3949 10.1134 37.3899 10.1134 37.385C10.1134 37.38 10.1134 37.375 10.1134 37.37C10.1134 37.365 10.1134 37.36 10.1134 37.355C10.1134 37.35 10.1134 37.3451 10.1134 37.3402C10.1134 37.3353 10.1134 37.3303 10.1134 37.3254C10.1134 37.3205 10.1134 37.3156 10.1134 37.3107C10.1134 37.3058 10.1134 37.3009 10.1134 37.296C10.1134 37.2911 10.1134 37.2863 10.1134 37.2814C10.1134 37.2766 10.1134 37.2717 10.1134 37.2669C10.1134 37.2621 10.1134 37.2573 10.1134 37.2524C10.1134 37.2477 10.1134 37.2429 10.1134 37.2381C10.1134 37.2333 10.1134 37.2285 10.1134 37.2238C10.1134 37.219 10.1134 37.2142 10.1134 37.2095C10.1134 37.2048 10.1134 37.2001 10.1134 37.1954C10.1134 37.1907 10.1134 37.186 10.1134 37.1813C10.1134 37.1765 10.1134 37.1719 10.1134 37.1672C10.1134 37.1626 10.1134 37.1579 10.1134 37.1533C10.1134 37.1486 10.1134 37.1439 10.1134 37.1393C10.1134 37.1347 10.1134 37.1301 10.1134 37.1255C10.1134 37.1209 10.1134 37.1163 10.1134 37.1117C10.1134 37.1071 10.1134 37.1026 10.1134 37.098C10.1134 37.0934 10.1134 37.0889 10.1134 37.0844C10.1134 37.0798 10.1134 37.0753 10.1134 37.0708C10.1134 37.0662 10.1134 37.0617 10.1134 37.0572C10.1134 37.0527 10.1134 37.0483 10.1134 37.0438C10.1134 37.0393 10.1134 37.0349 10.1134 37.0305C10.1134 37.026 10.1134 37.0215 10.1134 37.0171C10.1134 37.0127 10.1134 37.0083 10.1134 37.0039C10.1134 36.9995 10.1134 36.9951 10.1134 36.9907C10.1134 36.9863 10.1134 36.9819 10.1134 36.9776C10.1134 36.9732 10.1134 36.9689 10.1134 36.9645C10.1134 36.9601 10.1134 36.9559 10.1134 36.9515C10.1134 36.9472 10.1134 36.9429 10.1134 36.9386C10.1134 36.9343 10.1134 36.93 10.1134 36.9257C10.1134 36.9214 10.1134 36.9172 10.1134 36.913C10.1134 36.9087 10.1134 36.9045 10.1134 36.9002C10.1134 36.896 10.1134 36.8917 10.1134 36.8875C10.1134 36.8833 10.1134 36.8791 10.1134 36.8749C10.1134 36.8708 10.1134 36.8665 10.1134 36.8624C10.1134 36.8582 10.1134 36.8541 10.1134 36.8499C10.1134 36.8458 10.1134 36.8416 10.1134 36.8375C10.1134 36.8333 10.1134 36.8292 10.1134 36.8251C10.1134 36.821 10.1134 36.8169 10.1134 36.8129C10.1134 36.8088 10.1134 36.8046 10.1134 36.8006C10.1134 36.7966 10.1134 36.7925 10.1134 36.7884C10.1134 36.7844 10.1134 36.7804 10.1134 36.7764C10.1134 36.7723 10.1134 36.7683 10.1134 36.7643C10.1134 36.7603 10.1134 36.7563 10.1134 36.7523C10.1134 36.7483 10.1134 36.7444 10.1134 36.7404C10.1134 36.7365 10.1134 36.7325 10.1134 36.7285C10.1134 36.7246 10.1134 36.7207 10.1134 36.7168C10.1134 36.7128 10.1134 36.7089 10.1134 36.705C10.1134 36.7011 10.1134 36.6972 10.1134 36.6933C10.1134 36.6895 10.1134 36.6856 10.1134 36.6817C10.1134 36.6778 10.1134 36.674 10.1134 36.6701C10.1134 36.6664 10.1134 36.6625 10.1134 36.6586C10.1134 36.6549 10.1134 36.6511 10.1134 36.6472C10.1134 36.6434 10.1134 36.6396 10.1134 36.6359C10.1134 36.6321 10.1134 36.6283 10.1134 36.6246C10.1134 36.6208 10.1134 36.617 10.1134 36.6133C10.1134 36.6096 10.1134 36.6058 10.1134 36.6021C10.1134 36.5984 10.1134 36.5947 10.1134 36.591C10.1134 36.5873 10.1134 36.5836 10.1134 36.5799C10.1134 36.5762 10.1134 36.5725 10.1134 36.5689C10.1134 36.5653 10.1134 36.5616 10.1134 36.558C10.1134 36.5543 10.1134 36.5507 10.1134 36.547C10.1134 36.5434 10.1134 36.5398 10.1134 36.5362C10.1134 36.5326 10.1134 36.5291 10.1134 36.5254C10.1134 36.5218 10.1134 36.5183 10.1134 36.5147C10.1134 36.5111 10.1134 36.5076 10.1134 36.5041C10.1134 36.5005 10.1134 36.497 10.1134 36.4935C10.1134 36.4899 10.1134 36.4864 10.1134 36.4829C10.1134 36.4794 10.1134 36.4759 10.1134 36.4724C10.1134 36.4689 10.1134 36.4655 10.1134 36.462C10.1134 36.4585 10.1134 36.4551 10.1134 36.4517C10.1134 36.4482 10.1134 36.4447 10.1134 36.4413C10.1134 36.4379 10.1134 36.4345 10.1134 36.4311C10.1134 36.4277 10.1134 36.4242 10.1134 36.4209C10.1134 36.4175 10.1134 36.4141 10.1134 36.4108C10.1134 36.4074 10.1134 36.404 10.1134 36.4007C10.1134 36.3973 10.1134 36.394 10.1134 36.3906C10.1134 36.3873 10.1134 36.384 10.1134 36.3806C10.1134 36.3773 10.1134 36.3741 10.1134 36.3708C10.1134 36.3674 10.1134 36.3641 10.1134 36.3608C10.1134 36.3576 10.1134 36.3544 10.1134 36.3511C10.1134 36.3479 10.1134 36.3446 10.1134 36.3414C10.1134 36.3381 10.1134 36.3349 10.1134 36.3316C10.1134 36.3284 10.1134 36.3252 10.1134 36.322C10.1134 36.3188 10.1134 36.3156 10.1134 36.3124C10.1134 36.3092 10.1134 36.3061 10.1134 36.3029C10.1134 36.2997 10.1134 36.2966 10.1134 36.2935C10.1134 36.2903 10.1134 36.2872 10.1134 36.284C10.1134 36.2809 10.1134 36.2777 10.1134 36.2747C10.1134 36.2715 10.1134 36.2685 10.1134 36.2653C10.1134 36.2623 10.1134 36.2592 10.1134 36.2561C10.1134 36.253 10.1134 36.25 10.1134 36.2469C10.1134 36.2438 10.1134 36.2408 10.1134 36.2378C10.1134 36.2347 10.1134 36.2317 10.1134 36.2287C10.1134 36.2256 10.1134 36.2226 10.1134 36.2196C10.1134 36.2166 10.1134 36.2136 10.1134 36.2106C10.1134 36.2077 10.1134 36.2047 10.1134 36.2017C10.1134 36.1988 10.1134 36.1958 10.1134 36.1929C10.1134 36.1899 10.1134 36.187 10.1134 36.184C10.1134 36.1811 10.1134 36.1781 10.1134 36.1753C10.1134 36.1724 10.1134 36.1694 10.1134 36.1666C10.1134 36.1637 10.1134 36.1608 10.1134 36.1579C10.1134 36.155 10.1134 36.1522 10.1134 36.1493C10.1134 36.1464 10.1134 36.1436 10.1134 36.1407C10.1134 36.1379 10.1134 36.135 10.1134 36.1322C10.1134 36.1294 10.1134 36.1266 10.1134 36.1237C10.1134 36.121 10.1134 36.1182 10.1134 36.1154C10.1134 36.1125 10.1134 36.1097 10.1134 36.107C10.1134 36.1043 10.1134 36.1015 10.1134 36.0987C10.1134 36.096 10.1134 36.0932 10.1134 36.0905C10.1134 36.0877 10.1134 36.085 10.1134 36.0823C10.1134 36.0795 10.1134 36.0768 10.1134 36.0741C10.1134 36.0714 10.1134 36.0687 10.1134 36.0661C10.1134 36.0633 10.1134 36.0606 10.1134 36.058C10.1134 36.0553 10.1134 36.0526 10.1134 36.05C10.1134 36.0473 10.1134 36.0447 10.1134 36.0421C10.1134 36.0394 10.1134 36.0368 10.1134 36.0341C10.1134 36.0315 10.1134 36.0289 10.1134 36.0263C10.1134 36.0237 10.1134 36.0211 10.1134 36.0185C10.1134 36.0159 10.1134 36.0134 10.1134 36.0108C10.1134 36.0082 10.1134 36.0057 10.1134 36.0031C10.1134 36.0005 10.1134 35.998 10.1134 35.9954C10.1134 35.9929 10.1134 35.9904 10.1134 35.9879C10.1134 35.9853 10.1134 35.9828 10.1134 35.9803C10.1134 35.9778 10.1134 35.9753 10.1134 35.9728C10.1134 35.9703 10.1134 35.9678 10.1134 35.9654C10.1134 35.9629 10.1134 35.9604 10.1134 35.958C10.1134 35.9555 10.1134 35.953 10.1134 35.9506C10.1134 35.9482 10.1134 35.9458 10.1134 35.9433C10.1134 35.9409 10.1134 35.9385 10.1134 35.936C10.1134 35.9336 10.1134 35.9313 10.1134 35.9288C10.1134 35.9265 10.1134 35.924 10.1134 35.9217C10.1134 35.9193 10.1134 35.917 10.1134 35.9146C10.1134 35.9122 10.1134 35.9098 10.1134 35.9076C10.1134 35.9052 10.1134 35.9028 10.1134 35.9005C10.1134 35.8982 10.1134 35.8958 10.1134 35.8936C10.1134 35.8912 10.1134 35.8889 10.1134 35.8866C10.1134 35.8844 10.1134 35.882 10.1134 35.8798C10.1134 35.8775 10.1134 35.8752 10.1134 35.8729C10.1134 35.8706 10.1134 35.8684 10.1134 35.8661C10.1134 35.8639 10.1134 35.8616 10.1134 35.8594C10.1134 35.8572 10.1134 35.8549 10.1134 35.8527C10.1134 35.8505 10.1134 35.8483 10.1134 35.8461C10.1134 35.8439 10.1134 35.8417 10.1134 35.8395C10.1134 35.8373 10.1134 35.8351 10.1134 35.8329C10.1134 35.8307 10.1134 35.8286 10.1134 35.8264C10.1134 35.8242 10.1134 35.8221 10.1134 35.82C10.1134 35.8178 10.1134 35.8157 10.1134 35.8135C10.1134 35.8115 10.1134 35.8093 10.1134 35.8072C10.1134 35.8051 10.1134 35.803 10.1134 35.8009C10.1134 35.7987 10.1134 35.7967 10.1134 35.7946C10.1134 35.7925 10.1134 35.7904 10.1134 35.7883C10.1134 35.7863 10.1134 35.7843 10.1134 35.7822C10.1134 35.7801 10.1134 35.778 10.1134 35.776C10.1134 35.774 10.1134 35.772 10.1134 35.7699C10.1134 35.7679 10.1134 35.7659 10.1134 35.7638C10.1134 35.7618 10.1134 35.7598 10.1134 35.7578C10.1134 35.7558 10.1134 35.7538 10.1134 35.7519C10.1134 35.7499 10.1134 35.7479 10.1134 35.746C10.1134 35.744 10.1134 35.7421 10.1134 35.7401C10.1134 35.7381 10.1134 35.7362 10.1134 35.7342C10.1134 35.7323 10.1134 35.7304 10.1134 35.7284C10.1134 35.7265 10.1134 35.7246 10.1134 35.7227C10.1134 35.7208 10.1134 35.7189 10.1134 35.717C10.1134 35.7151 10.1134 35.7132 10.1134 35.7113C10.1134 35.7094 10.1134 35.7076 10.1134 35.7057C10.1134 35.7038 10.1134 35.7019 10.1134 35.7001C10.1134 35.6982 10.1134 35.6964 10.1134 35.6946C10.1134 35.6927 10.1134 35.6909 10.1134 35.6891C10.1134 35.6872 10.1134 35.6854 10.1134 35.6836C10.1134 35.6818 10.1134 35.68 10.1134 35.6782C10.1134 35.6764 10.1134 35.6746 10.1134 35.6728C10.1134 35.671 10.1134 35.6692 10.1134 35.6675C10.1134 35.6657 10.1134 35.664 10.1134 35.6622C10.1134 35.6605 10.1134 35.6587 10.1134 35.657C10.1134 35.6552 10.1134 35.6535 10.1134 35.6517C10.1134 35.65 10.1134 35.6483 10.1134 35.6466C10.1134 35.6449 10.1134 35.6432 10.1134 35.6415C10.1134 35.6397 10.1134 35.638 10.1134 35.6364C10.1134 35.6347 10.1134 35.633 10.1134 35.6313C10.1134 35.6296 10.1134 35.628 10.1134 35.6263C10.1134 35.6246 10.1134 35.623 10.1134 35.6213C10.1134 35.6197 10.1134 35.618 10.1134 35.6164C10.1134 35.6148 10.1134 35.6131 10.1134 35.6115C10.1134 35.6099 10.1134 35.6083 10.1134 35.6067C10.1134 35.6051 10.1134 35.6035 10.1134 35.6018C10.1134 35.6003 10.1134 35.5987 10.1134 35.5971C10.1134 35.5955 10.1134 35.5939 10.1134 35.5923C10.1134 35.5908 10.1134 35.5892 10.1134 35.5877C10.1134 35.5861 10.1134 35.5846 10.1134 35.583C10.1134 35.5815 10.1134 35.5799 10.1134 35.5784C10.1134 35.5769 10.1134 35.5754 10.1134 35.5739C10.1134 35.5723 10.1134 35.5708 10.1134 35.5693C10.1134 35.5678 10.1134 35.5663 10.1134 35.5648C10.1134 35.5633 10.1134 35.5618 10.1134 35.5604C10.1134 35.5589 10.1134 35.5574 10.1134 35.5559C10.1134 35.5544 10.1134 35.553 10.1134 35.5515C10.1134 35.5501 10.1134 35.5486 10.1134 35.5471C10.1134 35.5457 10.1134 35.5443 10.1134 35.5429C10.1134 35.5414 10.1134 35.54 10.1134 35.5386C10.1134 35.5372 10.1134 35.5357 10.1134 35.5344C10.1134 35.5329 10.1134 35.5315 10.1134 35.5302C10.1134 35.5287 10.1134 35.5274 10.1134 35.5259C10.1134 35.5246 10.1134 35.5232 10.1134 35.5219C10.1134 35.5204 10.1134 35.5191 10.1134 35.5177C10.1134 35.5164 10.1134 35.515 10.1134 35.5137C10.1134 35.5123 10.1134 35.511 10.1134 35.5097C10.1134 35.5083 10.1134 35.507 10.1134 35.5057C10.1134 35.5044 10.1134 35.503 10.1134 35.5017C10.1134 35.5004 10.1134 35.4991 10.1134 35.4978C10.1134 35.4965 10.1134 35.4952 10.1134 35.494C10.1134 35.4927 10.1134 35.4914 10.1134 35.4901C10.1134 35.4888 10.1134 35.4875 10.1134 35.4862C10.1134 35.485 10.1134 35.4837 10.1134 35.4825C10.1134 35.4813 10.1134 35.48 10.1134 35.4788C10.1134 35.4775 10.1134 35.4763 10.1134 35.475C10.1134 35.4738 10.1134 35.4726 10.1134 35.4714C10.1134 35.4702 10.1134 35.469 10.1134 35.4678C10.1134 35.4665 10.1134 35.4653 10.1134 35.4642C10.1134 35.463 10.1134 35.4618 10.1134 35.4606C10.1134 35.4594 10.1134 35.4582 10.1134 35.457C10.1134 35.4559 10.1134 35.4547 10.1134 35.4535C10.1134 35.4524 10.1134 35.4512 10.1134 35.4501C10.1134 35.4489 10.1134 35.4478 10.1134 35.4466C10.1134 35.4455 10.1134 35.4443 10.1134 35.4433C10.1134 35.4421 10.1134 35.441 10.1134 35.4398C10.1134 35.4388 10.1134 35.4376 10.1134 35.4366C10.1134 35.4354 10.1134 35.4343 10.1134 35.4332C10.1134 35.4321 10.1134 35.4311 10.1134 35.43C10.1134 35.4288 10.1134 35.4278 10.1134 35.4267C10.1134 35.4256 10.1134 35.4246 10.1134 35.4235C10.1134 35.4224 10.1134 35.4214 10.1134 35.4204C10.1134 35.4193 10.1134 35.4182 10.1134 35.4172C10.1134 35.4161 10.1134 35.4151 10.1134 35.4141C10.1134 35.4131 10.1134 35.412 10.1134 35.411C10.1134 35.41 10.1134 35.4089 10.1134 35.4079C10.1134 35.4069 10.1134 35.4059 10.1134 35.4049C10.1134 35.4039 10.1134 35.4029 10.1134 35.4019C10.1134 35.4009 10.1134 35.3999 10.1134 35.399C10.1134 35.398 10.1134 35.397 10.1134 35.3961C10.1134 35.3951 10.1134 35.3941 10.1134 35.3931C10.1134 35.3922 10.1134 35.3912 10.1134 35.3903C10.1134 35.3894 10.1134 35.3884 10.1134 35.3874C10.1134 35.3865 10.1134 35.3856 10.1134 35.3847C10.1134 35.3837 10.1134 35.3828 10.1134 35.3819C10.1134 35.3809 10.1134 35.38 10.1134 35.3792C10.1134 35.3782 10.1134 35.3773 10.1134 35.3764C10.1134 35.3755 10.1134 35.3747 10.1134 35.3737C10.1134 35.3729 10.1134 35.3719 10.1134 35.3711C10.1134 35.3702 10.1134 35.3693 10.1134 35.3684C10.1134 35.3676 10.1134 35.3667 10.1134 35.3659C10.1134 35.365 10.1134 35.3642 10.1134 35.3633C10.1134 35.3624 10.1134 35.3616 10.1134 35.3607C10.1134 35.3599 10.1134 35.359 10.1134 35.3582C10.1134 35.3574 10.1134 35.3565 10.1134 35.3557C10.1134 35.3549 10.1134 35.3541 10.1134 35.3533C10.1134 35.3525 10.1134 35.3517 10.1134 35.3508C10.1134 35.35 10.1134 35.3492 10.1134 35.3485C10.1134 35.3477 10.1134 35.3469 10.1134 35.3461C10.1134 35.3453 10.1134 35.3445 10.1134 35.3437C10.1134 35.343 10.1134 35.3422 10.1134 35.3414C10.1134 35.3406 10.1134 35.3399 10.1134 35.3391C10.1134 35.3383 10.1134 35.3376 10.1134 35.3368C10.1134 35.3361 10.1134 35.3353 10.1134 35.3346C10.1134 35.3339 10.1134 35.3331 10.1134 35.3324C10.1134 35.3317 10.1134 35.331 10.1134 35.3302C10.1134 35.3295 10.1134 35.3287 10.1134 35.328C10.1134 35.3273 10.1134 35.3266 10.1134 35.3259C10.1134 35.3252 10.1134 35.3245 10.1134 35.3238C10.1134 35.3231 10.1134 35.3224 10.1134 35.3218C10.1134 35.321 10.1134 35.3203 10.1134 35.3197C10.1134 35.319 10.1134 35.3183 10.1134 35.3176C10.1134 35.317 10.1134 35.3163 10.1134 35.3156C10.1134 35.315 10.1134 35.3143 10.1134 35.3137C10.1134 35.313 10.1134 35.3123 10.1134 35.3117C10.1134 35.311 10.1134 35.3104 10.1134 35.3098C10.1134 35.3091 10.1134 35.3085 10.1134 35.3079C10.1134 35.3073 10.1134 35.3066 10.1134 35.306C10.1134 35.3054 10.1134 35.3048 10.1134 35.3041C10.1134 35.3035 10.1134 35.3029 10.1134 35.3023C10.1134 35.3017 10.1134 35.3011 10.1134 35.3005C10.1134 35.2999 10.1134 35.2993 10.1134 35.2987C10.1134 35.2981 10.1134 35.2975 10.1134 35.297C10.1134 35.2964 10.1134 35.2958 10.1134 35.2952C10.1134 35.2946 10.1134 35.2941 10.1134 35.2935C10.1134 35.2929 10.1134 35.2924 10.1134 35.2918C10.1134 35.2913 10.1134 35.2907 10.1134 35.2901C10.1134 35.2896 10.1134 35.2891 10.1134 35.2885C10.1134 35.288 10.1134 35.2874 10.1134 35.2869C10.1134 35.2863 10.1134 35.2858 10.1134 35.2853C10.1134 35.2848 10.1134 35.2843 10.1134 35.2837C10.1134 35.2832 10.1134 35.2827 10.1134 35.2821C10.1134 35.2816 10.1134 35.2811 10.1134 35.2806C10.1134 35.2801 10.1134 35.2796 10.1134 35.2791C10.1134 35.2786 10.1134 35.2781 10.1134 35.2776C10.1134 35.2771 10.1134 35.2766 10.1134 35.2762C10.1134 35.2757 10.1134 35.2752 10.1134 35.2747C10.1134 35.2743 10.1134 35.2738 10.1134 35.2733C10.1134 35.2728 10.1134 35.2723 10.1134 35.2719C10.1134 35.2714 10.1134 35.271 10.1134 35.2705C10.1134 35.2701 10.1134 35.2696 10.1134 35.2691C10.1134 35.2687 10.1134 35.2683 10.1134 35.2678C10.1134 35.2674 10.1134 35.2669 10.1134 35.2665C10.1134 35.2661 10.1134 35.2656 10.1134 35.2652C10.1134 35.2648 10.1134 35.2644 10.1134 35.2639C10.1134 35.2635 10.1134 35.2631 10.1134 35.2627C10.1134 35.2623 10.1134 35.2619 10.1134 35.2614C10.1134 35.2611 10.1134 35.2606 10.1134 35.2602C10.1134 35.2599 10.1134 35.2594 10.1134 35.259C10.1134 35.2586 10.1134 35.2582 10.1134 35.2579C10.1134 35.2575 10.1134 35.2571 10.1134 35.2567C10.1134 35.2563 10.1134 35.2559 10.1134 35.2556C10.1134 35.2551 10.1134 35.2548 10.1134 35.2544C10.1134 35.2541 10.1134 35.2537 10.1134 35.2534C10.1134 35.253 10.1134 35.2526 10.1134 35.2522C10.1134 35.2519 10.1134 35.2515 10.1134 35.2512C10.1134 35.2509 10.1134 35.2505 10.1134 35.2501C10.1134 35.2498 10.1134 35.2494 10.1134 35.2491C10.1134 35.2488 10.1134 35.2484 10.1134 35.2481C10.1134 35.2478 10.1134 35.2474 10.1134 35.2471C10.1134 35.2468 10.1134 35.2464 10.1134 35.2461C10.1134 35.2458 10.1134 35.2455 10.1134 35.2451C10.1134 35.2449 10.1134 35.2446 10.1134 35.2442C10.1134 35.2439 10.1134 35.2436 10.1134 35.2433C10.1134 35.243 10.1134 35.2427 10.1134 35.2424C10.1134 35.2421 10.1134 35.2418 10.1134 35.2415C10.1134 35.2412 10.1134 35.2409 10.1134 35.2406C10.1134 35.2404 10.1134 35.2401 10.1134 35.2398C10.1134 35.2395 10.1134 35.2392 10.1134 35.2389C10.1134 35.2386 10.1134 35.2384 10.1134 35.2381C10.1134 35.2379 10.1134 35.2376 10.1134 35.2374C10.1134 35.2371 10.1134 35.2368 10.1134 35.2365C10.1134 35.2363 10.1134 35.236 10.1134 35.2358C10.1134 35.2355 10.1134 35.2353 10.1134 35.235C10.1134 35.2347 10.1134 35.2345 10.1134 35.2343C10.1134 35.234 10.1134 35.2338 10.1134 35.2335C10.1134 35.2333 10.1134 35.2331 10.1134 35.2328C10.1134 35.233 10.1134 35.2326 10.1134 35.2328C10.1134 35.2325 10.1134 35.2317 10.1134 35.2314C10.1134 35.2317 10.1134 35.2312 10.1134 35.2314C10.1134 35.2312 10.1134 35.2304 10.1134 35.2302C10.1134 35.2304 10.1134 35.2299 10.1134 35.2302C10.1134 35.2299 10.1134 35.2291 10.1134 35.2289C10.1134 35.2291 10.1134 35.2287 10.1134 35.2289C10.1134 35.2287 10.1134 35.2279 10.1134 35.2277C10.1134 35.2278 10.1134 35.2274 10.1134 35.2277C10.1134 35.2274 10.1134 35.2267 10.1134 35.2265C10.1134 35.2267 10.1134 35.2263 10.1134 35.2265C10.1134 35.2263 10.1134 35.2256 10.1134 35.2254C10.1134 35.2255 10.1134 35.2252 10.1134 35.2254C10.1134 35.2252 10.1134 35.2245 10.1134 35.2244C10.1134 35.2245 10.1134 35.2242 10.1134 35.2244C10.1134 35.2242 10.1134 35.2235 10.1134 35.2234C10.1134 35.2235 10.1134 35.2232 10.1134 35.2234C10.1134 35.2232 10.1134 35.2226 10.1134 35.2224C10.1134 35.2226 10.1134 35.2222 10.1134 35.2224C10.1134 35.2223 10.1134 35.2217 10.1134 35.2215C10.1134 35.2217 10.1134 35.2214 10.1134 35.2215C10.1134 35.2214 10.1134 35.2208 10.1134 35.2207C10.1134 35.2208 10.1134 35.2205 10.1134 35.2207C10.1134 35.2205 10.1134 35.22 10.1134 35.2199C10.1134 35.22 10.1134 35.2197 10.1134 35.2199C10.1134 35.2198 10.1134 35.2192 10.1134 35.2191C10.1134 35.2189 10.1134 35.2182 10.1134 35.218C10.1134 35.2179 10.1134 35.2172 10.1134 35.2171C10.1134 35.217 10.1134 35.2163 10.1134 35.2162C10.1134 35.2162 10.1134 35.2155 10.1134 35.2154C10.1134 35.2153 10.1134 35.2148 10.1134 35.2147C10.1134 35.2146 10.1134 35.2139 10.1134 35.2139C10.1134 35.2139 10.1134 35.2138 10.1134 35.2139C10.1134 35.2138 10.1134 35.2132 10.1134 35.2132C10.1134 35.2131 10.1134 35.2124 10.1134 35.2123C10.1134 35.2123 10.1134 35.2117 10.1134 35.2116C10.1134 35.2115 10.1134 35.2107 10.1134 35.2107H9.57792ZM10.1134 35.2107V31.6409H9.04245V35.2107H10.1134Z" fill="url(#paint0_linear_319_861)" fill-opacity="0.89"/>
<defs>
<linearGradient id="paint0_linear_319_861" x1="9.57792" y1="31.1055" x2="9.57792" y2="39.316" gradientUnits="userSpaceOnUse">
<stop stop-color="#1E3167"/>
<stop offset="1" stop-color="#3C62CD" stop-opacity="0.89"/>
</linearGradient>
</defs>
</svg>
