<svg width="198" height="198" viewBox="0 0 198 198" fill="none" xmlns="http://www.w3.org/2000/svg">
<path d="M98.6238 192.476C150.153 192.476 191.925 168.359 191.925 138.608C191.925 108.858 150.153 84.7402 98.6238 84.7402C47.0948 84.7402 5.32224 108.858 5.32224 138.608C5.32224 168.359 47.0948 192.476 98.6238 192.476Z" fill="#F0F0F0"/>
<path d="M152.207 157.299C146.088 153.767 146.088 148.041 152.207 144.509C158.325 140.976 168.245 140.976 174.363 144.509C180.481 148.041 180.481 153.767 174.363 157.299C168.245 160.832 158.325 160.832 152.207 157.299Z" fill="#E0E0E0"/>
<path d="M27.7675 157.79L11.6741 148.5C10.7672 147.977 10.7672 147.126 11.6741 146.603L105.285 92.5572C105.793 92.2994 106.356 92.165 106.926 92.165C107.496 92.165 108.059 92.2994 108.567 92.5572L124.665 101.847C125.572 102.37 125.572 103.221 124.665 103.744L31.0543 157.79C30.5449 158.048 29.9819 158.182 29.4109 158.182C28.8399 158.182 28.277 158.048 27.7675 157.79Z" fill="#E0E0E0"/>
<path d="M85.6152 141.23L99.4514 133.23C100.877 132.407 101.59 131.33 101.59 130.248C101.59 129.167 101.59 128.324 101.59 128.324L87.2388 120.23C86.8379 119.97 86.5041 119.62 86.2646 119.207C86.0251 118.794 85.8867 118.33 85.8607 117.854V100.79L61.7047 114.753V131.809C61.7326 132.285 61.8717 132.748 62.1111 133.161C62.3504 133.573 62.6832 133.924 63.0828 134.185L75.2954 141.218C78.1387 142.877 82.764 142.877 85.6152 141.23Z" fill="#3C74F2" fill-opacity="0.06"/>
<g opacity="0.6">
<path d="M85.6152 141.23L99.4514 133.23C100.877 132.407 101.59 131.33 101.59 130.248C101.59 129.167 101.59 128.324 101.59 128.324L87.2388 120.23C86.8379 119.97 86.5041 119.62 86.2646 119.207C86.0251 118.794 85.8867 118.33 85.8607 117.854V100.79L61.7047 114.753V131.809C61.7326 132.285 61.8717 132.748 62.1111 133.161C62.3504 133.573 62.6832 133.924 63.0828 134.185L75.2954 141.218C78.1387 142.877 82.764 142.877 85.6152 141.23Z" fill="#C7C3C3"/>
</g>
<path opacity="0.3" d="M67.4982 134.831V136.747L63.0709 134.193C62.6715 133.933 62.3389 133.582 62.1002 133.169C61.8614 132.756 61.7233 132.293 61.6968 131.817V114.753L66.2983 112.096C66.3934 113.264 66.4963 114.472 66.5953 115.66L63.36 117.521V130.847C63.3856 131.324 63.5239 131.787 63.7634 132.2C64.003 132.613 64.337 132.964 64.7381 133.223L67.4982 134.831Z" fill="#C7C3C3"/>
<path d="M63.36 130.85C63.3872 131.327 63.5261 131.79 63.7655 132.203C64.0049 132.616 64.3381 132.966 64.7381 133.226L75.2796 139.301C78.1308 140.944 82.7561 140.948 85.6112 139.301L99.4712 131.302C102.326 129.655 102.326 126.985 99.4712 125.338L88.9218 119.263C88.5228 119.003 88.1905 118.652 87.9519 118.239C87.7132 117.826 87.5748 117.363 87.5477 116.887V103.558L63.3917 117.521L63.36 130.85Z" fill="#3C74F2" fill-opacity="0.06"/>
<path opacity="0.3" d="M63.36 130.85C63.3872 131.327 63.5261 131.79 63.7655 132.203C64.0049 132.616 64.3381 132.966 64.7381 133.226L75.2796 139.301C78.1308 140.944 82.7561 140.948 85.6112 139.301L99.4712 131.302C102.326 129.655 102.326 126.985 99.4712 125.338L88.9218 119.263C88.5228 119.003 88.1905 118.652 87.9519 118.239C87.7132 117.826 87.5748 117.363 87.5477 116.887V103.558L63.3917 117.521L63.36 130.85Z" fill="#C7C3C3"/>
<path opacity="0.5" d="M91.7136 120.891L88.906 119.271C88.5069 119.011 88.1747 118.66 87.936 118.247C87.6974 117.834 87.5589 117.371 87.5318 116.895V103.558L63.3758 117.521V130.85C63.403 131.327 63.542 131.79 63.7814 132.203C64.0208 132.616 64.3539 132.966 64.7539 133.226L67.5259 134.81L91.7136 120.891Z" fill="#C7C3C3"/>
<path d="M101.594 128.328V130.253C101.594 131.334 100.877 132.407 99.4554 133.235L85.5954 141.23C84.0786 142.039 82.3845 142.46 80.6652 142.453V140.537C82.3845 140.543 84.0786 140.123 85.5954 139.313L99.4554 131.31C100.877 130.49 101.594 129.409 101.594 128.328Z" fill="#3C74F2" fill-opacity="0.06"/>
<path opacity="0.5" d="M101.594 128.328V130.253C101.594 131.334 100.877 132.407 99.4554 133.235L85.5954 141.23C84.0786 142.039 82.3845 142.46 80.6652 142.453V140.537C82.3845 140.543 84.0786 140.123 85.5954 139.313L99.4554 131.31C100.877 130.49 101.594 129.409 101.594 128.328Z" fill="#C7C3C3"/>
<path d="M24.552 147.415C25.0742 147.667 25.6484 147.793 26.2282 147.783C26.8081 147.773 27.3774 147.626 27.8903 147.356L121.346 93.4008C121.847 93.0739 122.264 92.6337 122.564 92.1156C122.863 91.5976 123.036 91.0163 123.069 90.4189V14.8146C123.051 14.2334 122.896 13.6647 122.617 13.1548C122.337 12.6448 121.941 12.2081 121.461 11.8802C120.94 11.6277 120.366 11.5019 119.786 11.5129C119.207 11.5239 118.638 11.6715 118.127 11.9436L24.6708 65.9144C24.1714 66.2433 23.7569 66.6856 23.461 67.2052C23.165 67.7248 22.9961 68.307 22.968 68.9042V144.497C22.9857 145.073 23.1382 145.637 23.4132 146.144C23.6883 146.651 24.0783 147.086 24.552 147.415Z" fill="#3C74F2" fill-opacity="0.06"/>
<path d="M27.9022 147.352L121.358 93.3968C121.86 93.0706 122.278 92.6305 122.577 92.1123C122.876 91.5941 123.049 91.0125 123.081 90.4149V14.8145C123.081 13.7176 122.309 13.2701 121.358 13.8206L27.9022 67.7756C27.4008 68.1022 26.9836 68.5424 26.6843 69.0605C26.385 69.5786 26.2121 70.16 26.1796 70.7574V146.358C26.1796 147.455 26.9518 147.902 27.9022 147.352Z" fill="#3C74F2" fill-opacity="0.06"/>
<path opacity="0.5" d="M27.9022 147.352L121.358 93.3968C121.86 93.0706 122.278 92.6305 122.577 92.1123C122.876 91.5941 123.049 91.0125 123.081 90.4149V14.8145C123.081 13.7176 122.309 13.2701 121.358 13.8206L27.9022 67.7756C27.4008 68.1022 26.9836 68.5424 26.6843 69.0605C26.385 69.5786 26.2121 70.16 26.1796 70.7574V146.358C26.1796 147.455 26.9518 147.902 27.9022 147.352Z" fill="#C7C3C3"/>
<path d="M27.6487 149.316C27.1587 149.53 26.628 149.635 26.0934 149.624C25.5588 149.613 25.0329 149.487 24.552 149.253C24.0773 148.923 23.6866 148.487 23.4115 147.978C23.1363 147.47 22.9844 146.904 22.968 146.326V139.444L26.1954 141.313V148.195C26.1756 149.197 26.8132 149.653 27.6487 149.316Z" fill="#3C74F2" fill-opacity="0.06"/>
<path opacity="0.5" d="M27.6487 149.316C27.1587 149.53 26.628 149.635 26.0934 149.624C25.5588 149.613 25.0329 149.487 24.552 149.253C24.0773 148.923 23.6866 148.487 23.4115 147.978C23.1363 147.47 22.9844 146.904 22.968 146.326V139.444L26.1954 141.313V148.195C26.1756 149.197 26.8132 149.653 27.6487 149.316Z" fill="#C7C3C3"/>
<path d="M26.1756 141.313V148.195C26.1756 149.292 26.9676 149.736 27.8982 149.189L121.354 95.2342C121.853 94.9089 122.269 94.4711 122.568 93.956C122.867 93.4409 123.042 92.8628 123.077 92.2682V85.354L26.1756 141.313Z" fill="#3C74F2" fill-opacity="0.06"/>
<path opacity="0.3" d="M26.1796 141.297V148.195C26.1796 149.292 26.9716 149.736 27.9022 149.189L121.358 95.2342C121.856 94.9085 122.271 94.4705 122.57 93.9554C122.868 93.4403 123.042 92.8625 123.077 92.2682V85.354L26.1796 141.297Z" fill="#C7C3C3"/>
<path d="M29.407 132.66V71.8306C29.4254 71.4723 29.5283 71.1233 29.7072 70.8123C29.8861 70.5012 30.136 70.2368 30.4366 70.0407L118.8 19.0082C119.37 18.6795 119.834 18.9448 119.834 19.6022V80.4634C119.814 80.8221 119.711 81.1711 119.531 81.4822C119.352 81.7932 119.101 82.0575 118.8 82.2534L30.4405 133.274C29.8703 133.603 29.407 133.333 29.407 132.66Z" fill="#3C74F2" fill-opacity="0.06"/>
<path d="M74.6262 115.526C74.1558 115.831 73.7643 116.244 73.4836 116.73C73.2028 117.216 73.0407 117.761 73.0105 118.321C73.0105 119.351 73.7352 119.771 74.6262 119.256C75.0971 118.95 75.4889 118.536 75.7697 118.05C76.0505 117.563 76.2123 117.017 76.2419 116.456C76.2419 115.426 75.5172 115.011 74.6262 115.526Z" fill="#3C74F2" fill-opacity="0.06"/>
<path opacity="0.7" d="M26.6864 69.0549C26.3795 69.5708 26.2041 70.1542 26.1756 70.7538V141.313L22.968 139.444V68.9045C22.9888 68.3029 23.1633 67.7167 23.4749 67.2017L26.6864 69.0549Z" fill="#C7C3C3"/>
<path opacity="0.3" d="M123.061 14.5293C122.938 13.6423 122.221 13.3413 121.354 13.8205L27.8982 67.7755C27.3915 68.0924 26.9733 68.5324 26.6825 69.0545L23.4511 67.1894C23.7438 66.6674 24.1633 66.2275 24.6708 65.9103L118.127 11.9593C118.639 11.6871 119.208 11.5395 119.788 11.5285C120.368 11.5175 120.943 11.6434 121.465 11.8959C121.904 12.195 122.274 12.5849 122.549 13.0392C122.824 13.4936 122.999 14.0017 123.061 14.5293Z" fill="#C7C3C3"/>
<path d="M128.102 23.8355C127.963 23.7658 127.808 23.7353 127.653 23.7471C127.498 23.759 127.35 23.8128 127.223 23.9028L39.0416 74.8442C38.6937 75.0744 38.4048 75.3833 38.1984 75.7458C37.9921 76.1084 37.8739 76.5145 37.8536 76.9311V137.388C37.8413 137.593 37.8818 137.796 37.9713 137.98C38.0608 138.164 38.1962 138.322 38.3645 138.438C38.5585 138.545 39.596 139.147 39.9049 139.313C40.0142 139.369 40.1363 139.394 40.2588 139.387C40.3812 139.38 40.4996 139.341 40.6019 139.273L128.763 88.332C129.111 88.1018 129.4 87.7929 129.607 87.4304C129.813 87.0678 129.931 86.6618 129.951 86.2451V25.4749C129.969 25.3213 129.944 25.1659 129.878 25.026C129.812 24.8861 129.709 24.7673 129.579 24.6829C129.381 24.5522 128.324 23.9661 128.102 23.8355Z" fill="#3C74F2"/>
<path d="M40.5821 75.6995L128.767 24.7778C129.433 24.3818 129.955 24.7066 129.955 25.4748V86.245C129.935 86.6617 129.817 87.0677 129.611 87.4303C129.404 87.7929 129.115 88.1017 128.767 88.3319L40.5821 139.273C39.9168 139.669 39.3941 139.032 39.3941 138.264V77.7864C39.415 77.3699 39.5334 76.964 39.7397 76.6016C39.9461 76.2391 40.2346 75.9301 40.5821 75.6995Z" fill="#FAFAFA"/>
<path d="M129.306 25.0073C129.54 25.0073 129.575 25.3004 129.575 25.4746V86.2448C129.554 86.5937 129.451 86.9328 129.276 87.2353C129.101 87.5377 128.858 87.7952 128.565 87.9872L40.392 138.929C40.3328 138.967 40.2645 138.989 40.194 138.992C39.9722 138.992 39.798 138.651 39.798 138.263V77.7862C39.8171 77.4374 39.9164 77.0977 40.0881 76.7934C40.2598 76.4892 40.4993 76.2286 40.788 76.0319L128.965 25.1182C129.067 25.0524 129.185 25.0142 129.306 25.0073ZM129.306 24.6113C129.115 24.6195 128.93 24.6767 128.767 24.7776L40.5821 75.6993C40.2346 75.9299 39.9461 76.2389 39.7397 76.6014C39.5334 76.9638 39.415 77.3697 39.3941 77.7862V138.263C39.3941 138.873 39.7346 139.388 40.1861 139.388C40.3259 139.385 40.4625 139.346 40.5821 139.273L128.763 88.3317C129.111 88.1015 129.4 87.7927 129.607 87.4301C129.813 87.0675 129.931 86.6615 129.951 86.2448V25.4746C129.951 24.9281 129.682 24.6113 129.286 24.6113H129.306Z" fill="#E0E0E0"/>
<path d="M38.3407 138.438C38.4714 138.505 39.4099 139.04 39.8218 139.277C39.6739 139.155 39.5568 138.999 39.4797 138.823C39.4027 138.647 39.368 138.455 39.3782 138.263V81.7344L37.8338 80.8315V137.388C37.8211 137.592 37.861 137.796 37.9498 137.979C38.0385 138.163 38.1732 138.321 38.3407 138.438Z" fill="#F0F0F0"/>
<path d="M129.971 25.4631C129.971 24.7028 129.429 24.3939 128.783 24.778L40.5821 75.6997C40.2346 75.9303 39.9461 76.2393 39.7397 76.6017C39.5334 76.9642 39.415 77.37 39.3941 77.7866V81.7466L129.971 29.4231V25.4631Z" fill="#3C74F2"/>
<g opacity="0.4">
<path d="M128.767 24.7778L40.5821 75.6955C40.2282 75.9187 39.9366 76.228 39.7346 76.5944L38.2021 75.7034C38.4037 75.3498 38.6928 75.0539 39.0416 74.8441L127.223 23.9027C127.349 23.8121 127.498 23.7575 127.653 23.745C127.807 23.7324 127.963 23.7623 128.102 23.8314C128.316 23.966 129.318 24.5323 129.575 24.6709C129.442 24.6215 129.299 24.6055 129.158 24.6241C129.017 24.6427 128.883 24.6955 128.767 24.7778Z" fill="white"/>
</g>
<path opacity="0.15" d="M37.8338 80.8358V76.9114C37.8501 76.4837 37.977 76.0676 38.2021 75.7036L39.7386 76.5907C39.5167 76.9483 39.3925 77.358 39.3782 77.7787V81.7387L37.8338 80.8358Z" fill="black"/>
<path d="M111.375 71.0505L58.5605 101.542C58.3036 101.709 58.0898 101.934 57.9363 102.199C57.7829 102.464 57.6942 102.761 57.6774 103.067V118.21C57.6942 118.516 57.7829 118.813 57.9363 119.078C58.0898 119.343 58.3036 119.568 58.5605 119.735L60.1009 120.622C60.3747 120.76 60.6772 120.832 60.984 120.832C61.2908 120.832 61.5933 120.76 61.8671 120.622L114.674 90.1298C114.931 89.9622 115.144 89.7366 115.298 89.471C115.451 89.2054 115.54 88.9074 115.557 88.6012V73.4542C115.54 73.1485 115.451 72.8511 115.298 72.5861C115.144 72.3212 114.931 72.0962 114.674 71.9296L113.129 71.0426C112.857 70.9063 112.556 70.836 112.251 70.8374C111.946 70.8388 111.646 70.9118 111.375 71.0505Z" fill="#3C74F2"/>
<path opacity="0.5" d="M115.557 73.3195C115.493 72.8641 115.125 72.6978 114.682 72.9552L61.8671 103.447C61.6066 103.609 61.3925 103.835 61.2454 104.105L57.9388 102.196C58.087 101.931 58.2994 101.708 58.5565 101.546L111.375 71.0544C111.648 70.9156 111.95 70.8433 112.256 70.8433C112.562 70.8433 112.864 70.9156 113.137 71.0544L114.682 71.9414C114.917 72.0957 115.117 72.2984 115.268 72.536C115.419 72.7737 115.517 73.0408 115.557 73.3195Z" fill="white"/>
<path d="M61.7166 120.697C61.458 120.799 61.1808 120.845 60.9032 120.833C60.6255 120.821 60.3535 120.75 60.1049 120.626L58.5605 119.739C58.3041 119.571 58.0906 119.346 57.9372 119.082C57.7838 118.817 57.6948 118.52 57.6774 118.214V103.071C57.6893 102.762 57.7792 102.461 57.9388 102.196L61.2454 104.105C61.0847 104.366 60.9946 104.665 60.984 104.972V120.119C60.984 120.622 61.3008 120.855 61.7166 120.697Z" fill="#263238"/>
<path d="M61.8671 103.447L114.682 72.9554C115.169 72.6742 115.565 72.8999 115.565 73.4622V88.6092C115.548 88.9155 115.459 89.2135 115.306 89.479C115.152 89.7446 114.939 89.9703 114.682 90.1378L61.875 120.63C61.3879 120.911 60.9919 120.681 60.9919 120.119V104.976C61.0078 104.67 61.0953 104.373 61.2473 104.107C61.3993 103.842 61.6116 103.616 61.8671 103.447Z" fill="#3C74F2"/>
<path d="M97.3725 79.1367L58.5644 101.546C58.3073 101.708 58.0949 101.931 57.9467 102.196L61.2533 104.105C61.4004 103.835 61.6145 103.609 61.875 103.447L100.683 81.0415L97.3725 79.1367Z" fill="#455A64"/>
<path d="M100.675 81.0415L61.8671 103.447C61.6102 103.615 61.3963 103.84 61.2429 104.106C61.0895 104.372 61.0008 104.67 60.984 104.976V120.115C60.984 120.677 61.38 120.907 61.8671 120.626L100.675 98.22V81.0415Z" fill="#37474F"/>
<path d="M70.8167 101.602L90.8424 90.0428C91.67 89.5636 92.3432 89.9042 92.3432 90.8031C92.3062 91.308 92.1507 91.797 91.8892 92.2305C91.6277 92.6639 91.2677 93.0296 90.8384 93.2979L70.8167 104.861C69.989 105.34 69.3119 105 69.3119 104.101C69.3492 103.595 69.5049 103.106 69.7663 102.672C70.0277 102.238 70.3875 101.871 70.8167 101.602Z" fill="#3C74F2"/>
<path d="M74.9192 105.431C74.923 105.427 74.9275 105.424 74.9327 105.421C74.9378 105.419 74.9433 105.418 74.9489 105.418C74.9546 105.418 74.9601 105.419 74.9652 105.421C74.9704 105.424 74.9749 105.427 74.9786 105.431C74.9964 105.458 75.0047 105.49 75.0024 105.522V107.776C75.0027 107.993 74.9841 108.211 74.947 108.425C74.9142 108.621 74.8584 108.813 74.7806 108.995C74.7097 109.163 74.6164 109.32 74.5034 109.463C74.392 109.595 74.2579 109.706 74.1074 109.791C73.9896 109.868 73.8521 109.909 73.7114 109.91C73.6577 109.906 73.6054 109.891 73.5577 109.865C73.5101 109.84 73.468 109.806 73.4342 109.764C73.3473 109.647 73.2902 109.511 73.2679 109.368C73.23 109.176 73.2128 108.981 73.2164 108.785V106.528C73.2163 106.489 73.2244 106.45 73.2402 106.413C73.2499 106.381 73.271 106.353 73.2996 106.334L73.5491 106.188C73.5571 106.18 73.5678 106.176 73.5788 106.176C73.5898 106.176 73.6004 106.18 73.6085 106.188C73.6268 106.214 73.6352 106.247 73.6322 106.279V108.504C73.6292 108.627 73.6412 108.749 73.6679 108.869C73.6788 108.945 73.7118 109.017 73.7629 109.075C73.7807 109.096 73.8033 109.113 73.8287 109.124C73.8541 109.135 73.8818 109.139 73.9094 109.138C73.9772 109.133 74.0426 109.112 74.0995 109.075C74.17 109.032 74.234 108.98 74.2896 108.92C74.3514 108.849 74.4021 108.769 74.4401 108.683C74.4848 108.581 74.518 108.475 74.5391 108.366C74.5622 108.235 74.5728 108.102 74.5708 107.97V105.74C74.572 105.7 74.5814 105.661 74.5985 105.625C74.6082 105.593 74.6293 105.565 74.6579 105.546L74.9192 105.431Z" fill="#FAFAFA"/>
<path d="M76.4716 107.561C76.4736 107.532 76.4667 107.503 76.4518 107.478C76.4424 107.468 76.4306 107.46 76.4175 107.455C76.4044 107.45 76.3904 107.449 76.3765 107.451C76.3279 107.444 76.2786 107.444 76.23 107.451L76.0003 107.494C75.9262 107.513 75.8487 107.513 75.7746 107.494C75.7165 107.475 75.6663 107.438 75.632 107.387C75.5933 107.323 75.5677 107.252 75.5568 107.177C75.5182 106.965 75.5182 106.748 75.5568 106.536C75.5865 106.414 75.629 106.296 75.6835 106.183C75.7378 106.071 75.8042 105.965 75.8815 105.867C75.9565 105.773 76.0477 105.694 76.1508 105.633C76.2341 105.582 76.3272 105.55 76.424 105.538C76.4943 105.531 76.565 105.546 76.626 105.581C76.6841 105.617 76.7298 105.669 76.7567 105.732C76.7886 105.806 76.8061 105.885 76.8082 105.966C76.8123 106.005 76.804 106.046 76.7844 106.08C76.7747 106.113 76.7536 106.141 76.725 106.16L76.4874 106.298C76.4766 106.304 76.4643 106.308 76.4518 106.308C76.4393 106.308 76.427 106.304 76.4161 106.298L76.3646 106.259C76.3442 106.242 76.3194 106.233 76.2934 106.231C76.2425 106.237 76.1936 106.254 76.1508 106.282C76.0886 106.32 76.0336 106.368 75.9884 106.425C75.9405 106.487 75.9154 106.564 75.9172 106.643C75.9116 106.673 75.9116 106.704 75.9172 106.734C75.9248 106.745 75.9347 106.754 75.9464 106.761C75.958 106.768 75.971 106.772 75.9845 106.773C76.0277 106.781 76.0719 106.781 76.1152 106.773L76.3369 106.734C76.523 106.698 76.6498 106.734 76.7329 106.837C76.8203 106.984 76.8604 107.154 76.8478 107.324C76.8467 107.442 76.8308 107.559 76.8002 107.672C76.7689 107.796 76.7238 107.915 76.6656 108.029C76.6074 108.146 76.5342 108.255 76.4478 108.353C76.3658 108.45 76.268 108.531 76.1587 108.595C76.0717 108.651 75.9725 108.685 75.8696 108.694C75.7952 108.697 75.7218 108.676 75.6598 108.635C75.5986 108.593 75.5517 108.533 75.5251 108.464C75.4931 108.389 75.477 108.308 75.4776 108.227C75.4739 108.186 75.4822 108.144 75.5014 108.108C75.5111 108.075 75.5321 108.047 75.5608 108.029L75.7984 107.89C75.83 107.89 75.8538 107.87 75.8696 107.89L75.9211 107.946C75.9317 107.957 75.9444 107.967 75.9587 107.974C75.973 107.981 75.9885 107.984 76.0043 107.985C76.06 107.985 76.1143 107.967 76.1587 107.934C76.2302 107.893 76.2945 107.841 76.3488 107.779C76.3758 107.747 76.3984 107.711 76.4161 107.672C76.4441 107.641 76.4632 107.603 76.4716 107.561Z" fill="#FAFAFA"/>
<path d="M77.2794 106.489C77.2787 106.283 77.2959 106.078 77.3309 105.875C77.3639 105.684 77.4157 105.497 77.4853 105.317C77.5436 105.155 77.6235 105.001 77.7229 104.861C77.8059 104.74 77.914 104.639 78.0397 104.564C78.1315 104.502 78.2435 104.478 78.3526 104.497C78.4493 104.519 78.5341 104.577 78.5902 104.659C78.6647 104.767 78.7172 104.888 78.7446 105.016C78.7826 105.182 78.8012 105.352 78.8 105.522V105.768C78.8013 105.809 78.7917 105.85 78.7723 105.887C78.7626 105.919 78.7416 105.947 78.7129 105.966L77.6833 106.564C77.6809 106.634 77.6903 106.703 77.711 106.77C77.7264 106.815 77.7538 106.854 77.7902 106.885C77.8227 106.91 77.8637 106.923 77.9051 106.92C77.9529 106.915 77.9989 106.898 78.0397 106.873C78.0996 106.84 78.1533 106.797 78.1981 106.746C78.2386 106.7 78.2732 106.65 78.3011 106.596C78.318 106.564 78.3365 106.534 78.3565 106.505C78.3735 106.484 78.3936 106.467 78.4159 106.453L78.6614 106.31C78.6699 106.304 78.6803 106.3 78.6911 106.3C78.7019 106.3 78.7124 106.304 78.7208 106.31C78.7312 106.323 78.7388 106.338 78.7429 106.353C78.747 106.369 78.7476 106.386 78.7446 106.402C78.7403 106.479 78.7243 106.555 78.6971 106.627C78.6629 106.737 78.6178 106.843 78.5624 106.944C78.5005 107.06 78.4261 107.169 78.3407 107.269C78.2555 107.371 78.1537 107.458 78.0397 107.526C77.9462 107.587 77.8341 107.614 77.7229 107.601C77.6255 107.578 77.5406 107.519 77.4853 107.435C77.4074 107.315 77.3548 107.18 77.3309 107.039C77.2949 106.858 77.2776 106.673 77.2794 106.489ZM78.0397 105.225C77.9788 105.258 77.9261 105.304 77.8853 105.36C77.8413 105.416 77.8054 105.477 77.7784 105.542C77.7506 105.608 77.7281 105.675 77.711 105.744C77.6971 105.807 77.6878 105.87 77.6833 105.934L78.3803 105.538C78.3762 105.484 78.3683 105.429 78.3565 105.376C78.3505 105.328 78.3313 105.283 78.3011 105.245C78.2892 105.228 78.274 105.214 78.2563 105.203C78.2385 105.192 78.2187 105.185 78.1981 105.182C78.1418 105.177 78.0857 105.193 78.0397 105.225Z" fill="#FAFAFA"/>
<path d="M80.0435 104.121C79.9235 104.189 79.829 104.295 79.7742 104.421C79.7126 104.589 79.6843 104.766 79.691 104.944V106.374C79.6916 106.415 79.6835 106.455 79.6673 106.493C79.6576 106.525 79.6365 106.553 79.6079 106.572L79.3742 106.706C79.3705 106.711 79.366 106.714 79.3608 106.716C79.3557 106.719 79.3502 106.72 79.3445 106.72C79.3389 106.72 79.3334 106.719 79.3282 106.716C79.3231 106.714 79.3186 106.711 79.3148 106.706C79.2971 106.679 79.2888 106.647 79.2911 106.615V104.053C79.2913 104.012 79.2993 103.972 79.3148 103.934C79.3259 103.902 79.3467 103.875 79.3742 103.855L79.6079 103.721C79.6159 103.713 79.6266 103.709 79.6376 103.709C79.6486 103.709 79.6592 103.713 79.6673 103.721C79.6856 103.746 79.6941 103.777 79.691 103.808V103.934C79.7382 103.828 79.7966 103.727 79.8653 103.633C79.9279 103.547 80.0091 103.475 80.1029 103.424L80.2454 103.34C80.2528 103.333 80.2628 103.329 80.2732 103.329C80.2835 103.329 80.2935 103.333 80.3009 103.34C80.32 103.367 80.3298 103.399 80.3286 103.431V103.792C80.3279 103.833 80.3185 103.873 80.3009 103.911C80.2909 103.942 80.2715 103.97 80.2454 103.99L80.0435 104.121Z" fill="#FAFAFA"/>
<path d="M82.9976 103.93C83.0014 103.926 83.0059 103.923 83.0111 103.92C83.0162 103.918 83.0217 103.917 83.0273 103.917C83.033 103.917 83.0385 103.918 83.0436 103.92C83.0488 103.923 83.0533 103.926 83.057 103.93C83.0748 103.957 83.0831 103.989 83.0808 104.021V104.417C83.0806 104.458 83.0725 104.498 83.057 104.536C83.0434 104.565 83.0231 104.591 82.9976 104.611L81.6433 105.403C81.6353 105.411 81.6246 105.415 81.6136 105.415C81.6026 105.415 81.592 105.411 81.5839 105.403C81.5662 105.378 81.5578 105.347 81.5602 105.316V101.752C81.5604 101.711 81.5684 101.671 81.5839 101.633C81.595 101.602 81.6159 101.576 81.6433 101.558L81.8928 101.412C81.9009 101.404 81.9115 101.4 81.9225 101.4C81.9335 101.4 81.9441 101.404 81.9522 101.412C81.9699 101.437 81.9783 101.468 81.976 101.499V104.512L82.9976 103.93Z" fill="#FAFAFA"/>
<path d="M84.2134 101C84.3025 100.938 84.4101 100.909 84.5183 100.917C84.611 100.924 84.6974 100.967 84.7598 101.036C84.8337 101.12 84.8878 101.22 84.9182 101.329C84.9606 101.469 84.9845 101.614 84.9895 101.76C84.9895 101.792 84.9895 101.836 84.9895 101.887V102.192C84.9895 102.239 84.9895 102.283 84.9895 102.319C84.9817 102.491 84.9578 102.662 84.9182 102.829C84.8816 102.993 84.8286 103.152 84.7598 103.305C84.6971 103.447 84.6159 103.58 84.5183 103.701C84.4348 103.81 84.3313 103.903 84.2134 103.974C84.1217 104.033 84.0136 104.063 83.9045 104.057C83.8131 104.049 83.7281 104.007 83.6669 103.938C83.5909 103.857 83.5365 103.757 83.5085 103.649C83.4662 103.509 83.4422 103.364 83.4372 103.218C83.4372 103.186 83.4372 103.146 83.4372 103.095V102.79C83.4372 102.738 83.4372 102.695 83.4372 102.663C83.4418 102.49 83.4644 102.317 83.5045 102.148C83.5431 101.984 83.5974 101.823 83.6669 101.669C83.7298 101.528 83.8096 101.395 83.9045 101.273C83.9884 101.163 84.0934 101.07 84.2134 101ZM84.5856 102.022C84.5854 101.934 84.5707 101.847 84.542 101.764C84.5273 101.714 84.4968 101.669 84.4549 101.638C84.4212 101.615 84.3804 101.605 84.3401 101.61C84.2948 101.618 84.2517 101.636 84.2134 101.661C84.1668 101.687 84.1242 101.719 84.0866 101.756C84.0412 101.804 84.0026 101.857 83.9718 101.915C83.932 101.987 83.9027 102.064 83.8847 102.144C83.8587 102.246 83.8428 102.349 83.8372 102.453C83.8372 102.485 83.8372 102.521 83.8372 102.564V102.845C83.8372 102.889 83.8372 102.925 83.8372 102.948C83.8409 103.036 83.8569 103.123 83.8847 103.206C83.8991 103.256 83.9297 103.301 83.9718 103.332C83.9883 103.344 84.007 103.352 84.0267 103.356C84.0465 103.36 84.0669 103.36 84.0866 103.356C84.1315 103.349 84.1746 103.332 84.2134 103.309C84.2593 103.282 84.3018 103.25 84.3401 103.214C84.3843 103.165 84.4228 103.112 84.4549 103.055C84.493 102.982 84.5223 102.905 84.542 102.826C84.5679 102.724 84.5825 102.621 84.5856 102.517C84.588 102.48 84.588 102.443 84.5856 102.406V102.129C84.5879 102.093 84.5879 102.057 84.5856 102.022Z" fill="#FAFAFA"/>
<path d="M86.2013 103.316C86.2519 103.285 86.2974 103.247 86.3359 103.202C86.3836 103.146 86.4248 103.085 86.4587 103.019C86.498 102.94 86.5286 102.856 86.5498 102.77C86.5741 102.673 86.5861 102.573 86.5854 102.473V102.271C86.5854 102.311 86.5458 102.358 86.5181 102.414C86.4909 102.471 86.4592 102.527 86.423 102.58C86.3817 102.636 86.3367 102.688 86.2884 102.738C86.2387 102.79 86.1813 102.834 86.1181 102.869C86.0774 102.897 86.0316 102.916 85.9832 102.925C85.9349 102.935 85.8851 102.935 85.837 102.924C85.749 102.897 85.6733 102.839 85.6231 102.762C85.5586 102.66 85.5117 102.547 85.4845 102.429C85.4508 102.28 85.4322 102.127 85.4291 101.974C85.4291 101.922 85.4291 101.859 85.4291 101.784C85.4291 101.709 85.4291 101.645 85.4291 101.59C85.434 101.416 85.4526 101.242 85.4845 101.071C85.5171 100.903 85.5634 100.737 85.6231 100.576C85.6791 100.436 85.7509 100.304 85.837 100.18C85.91 100.071 86.0059 99.979 86.1181 99.9108C86.1708 99.8791 86.2283 99.8564 86.2884 99.8435C86.3329 99.8352 86.3785 99.8352 86.423 99.8435C86.4582 99.8534 86.4906 99.8709 86.5181 99.8949C86.5434 99.9143 86.566 99.9369 86.5854 99.9623V99.8355C86.5856 99.7948 86.5937 99.7544 86.6092 99.7167C86.6202 99.6859 86.6411 99.6594 86.6686 99.6415L86.9022 99.5029C86.9103 99.4954 86.9209 99.4912 86.9319 99.4912C86.9429 99.4912 86.9535 99.4954 86.9616 99.5029C86.9807 99.5293 86.9905 99.5614 86.9893 99.594V102.168C87 102.554 86.9284 102.937 86.7794 103.293C86.6625 103.572 86.4602 103.808 86.2013 103.966C86.113 104.021 86.0121 104.052 85.9082 104.057C85.8261 104.062 85.7444 104.041 85.6746 103.998C85.6077 103.947 85.5534 103.882 85.5162 103.807C85.4776 103.717 85.4561 103.62 85.4528 103.522C85.4491 103.481 85.4574 103.44 85.4766 103.404C85.4863 103.371 85.5074 103.343 85.536 103.324L85.7459 103.206C85.7507 103.2 85.7565 103.196 85.763 103.193C85.7695 103.191 85.7765 103.189 85.7835 103.189C85.7906 103.189 85.7975 103.191 85.804 103.193C85.8105 103.196 85.8163 103.2 85.8211 103.206C85.8406 103.226 85.8579 103.249 85.8726 103.273C85.8967 103.315 85.9365 103.347 85.9835 103.36C86.031 103.396 86.1023 103.356 86.2013 103.316ZM85.829 101.396C85.829 101.501 85.829 101.604 85.829 101.705C85.8177 101.863 85.8626 102.02 85.9558 102.148C85.991 102.179 86.036 102.195 86.0825 102.195C86.129 102.195 86.174 102.179 86.2092 102.148C86.3241 102.073 86.4138 101.966 86.4666 101.839C86.5387 101.674 86.579 101.497 86.5854 101.317C86.5854 101.257 86.5854 101.186 86.5854 101.103C86.5854 101.02 86.5854 100.948 86.5854 100.897C86.5935 100.755 86.5514 100.615 86.4666 100.501C86.4315 100.469 86.3856 100.451 86.3379 100.451C86.2902 100.451 86.2443 100.469 86.2092 100.501C86.0965 100.575 86.0083 100.681 85.9558 100.806C85.8744 100.992 85.8313 101.193 85.829 101.396Z" fill="#FAFAFA"/>
<path d="M87.912 97.8796C87.9198 97.8731 87.9296 97.8696 87.9397 97.8696C87.9498 97.8696 87.9596 97.8731 87.9674 97.8796C87.9882 97.9052 87.9981 97.9379 87.9952 97.9707V98.4023C87.9954 98.4435 87.9859 98.4842 87.9674 98.5211C87.9563 98.5509 87.9371 98.5769 87.912 98.5963L87.6467 98.7508C87.643 98.755 87.6384 98.7584 87.6333 98.7607C87.6282 98.763 87.6226 98.7642 87.617 98.7642C87.6114 98.7642 87.6058 98.763 87.6007 98.7607C87.5956 98.7584 87.591 98.755 87.5873 98.7508C87.5769 98.7389 87.5691 98.7251 87.5644 98.7101C87.5596 98.6951 87.558 98.6793 87.5596 98.6637V98.232C87.5593 98.1908 87.5688 98.1501 87.5873 98.1132C87.5983 98.0823 87.6192 98.0559 87.6467 98.038L87.912 97.8796ZM87.9793 101.598C87.9794 101.638 87.9714 101.677 87.9556 101.713C87.9429 101.744 87.9225 101.771 87.8962 101.792L87.6586 101.927C87.6552 101.931 87.651 101.934 87.6462 101.936C87.6414 101.939 87.6362 101.94 87.6308 101.94C87.6255 101.94 87.6203 101.939 87.6155 101.936C87.6107 101.934 87.6065 101.931 87.6031 101.927C87.5824 101.901 87.5725 101.868 87.5754 101.836V99.2735C87.5751 99.2323 87.5846 99.1916 87.6031 99.1547C87.6143 99.1239 87.6334 99.0966 87.6586 99.0755L87.8962 98.9409C87.9042 98.9334 87.9148 98.9292 87.9259 98.9292C87.9369 98.9292 87.9475 98.9334 87.9556 98.9409C87.9733 98.9663 87.9817 98.9971 87.9793 99.028V101.598Z" fill="#FAFAFA"/>
<path d="M90.0623 100.39C90.0621 100.431 90.054 100.471 90.0385 100.509C90.0275 100.54 90.0066 100.566 89.9791 100.584L89.7415 100.723C89.7341 100.73 89.7242 100.734 89.7138 100.734C89.7034 100.734 89.6935 100.73 89.6861 100.723C89.6654 100.697 89.6554 100.665 89.6584 100.632V99.2379C89.6705 99.0733 89.6405 98.9084 89.5712 98.7587C89.5158 98.6597 89.4287 98.6439 89.3059 98.7152C89.1835 98.7974 89.0927 98.9189 89.0485 99.0597C88.9824 99.2465 88.9502 99.4436 88.9535 99.6418V101.04C88.9533 101.08 88.9452 101.121 88.9297 101.158C88.92 101.191 88.8989 101.219 88.8703 101.238L88.6367 101.372C88.633 101.377 88.6284 101.38 88.6233 101.382C88.6182 101.385 88.6126 101.386 88.607 101.386C88.6014 101.386 88.5958 101.385 88.5907 101.382C88.5856 101.38 88.581 101.377 88.5773 101.372C88.5589 101.347 88.5505 101.316 88.5535 101.285V98.7231C88.553 98.6822 88.5611 98.6418 88.5773 98.6043C88.587 98.5716 88.6081 98.5435 88.6367 98.5251L88.8703 98.3904C88.874 98.3862 88.8786 98.3828 88.8837 98.3805C88.8888 98.3782 88.8944 98.377 88.9 98.377C88.9056 98.377 88.9112 98.3782 88.9163 98.3805C88.9214 98.3828 88.926 98.3862 88.9297 98.3904C88.9474 98.4174 88.9558 98.4494 88.9535 98.4815V98.6043C89.0056 98.4836 89.0692 98.3682 89.1436 98.2598C89.2088 98.1598 89.297 98.0769 89.401 98.0182C89.4911 97.9523 89.6032 97.924 89.7138 97.939C89.7576 97.95 89.7986 97.9702 89.8341 97.9982C89.8696 98.0262 89.8988 98.0613 89.9197 98.1014C89.9772 98.2085 90.0148 98.3253 90.0306 98.4459C90.0517 98.6034 90.0623 98.7621 90.0623 98.9211V100.39Z" fill="#FAFAFA"/>
<path d="M110.037 88.8627L106.191 91.0803L106.789 85.6868C106.326 85.4413 106.033 84.8433 106.033 83.984C106.033 82.4515 106.968 80.6734 108.116 80.024C109.264 79.3746 110.195 80.0636 110.195 81.608C110.171 82.5167 109.912 83.4036 109.443 84.182L110.037 88.8627Z" fill="#455A64"/>
<path d="M110.04 88.8624L106.655 86.9102L106.191 91.084L110.04 88.8624Z" fill="#37474F"/>
<path d="M108.108 80.0122C107.271 80.5779 106.646 81.4072 106.334 82.3684L109.435 84.1583C109.904 83.3799 110.163 82.4929 110.187 81.5843C110.195 80.0518 109.264 79.3508 108.108 80.0122Z" fill="#37474F"/>
<path d="M89.4168 62.0531C88.0981 61.2928 86.2805 61.3997 84.2688 62.56C80.2534 64.8806 76.9982 70.5157 76.9982 75.1528C76.9982 77.4813 77.8219 79.1128 79.1446 79.8652L81.7067 81.3542C83.0214 82.1145 84.839 82.0036 86.8547 80.8433C90.8701 78.5267 94.1252 72.8877 94.1252 68.2505C94.1252 65.9339 93.3095 64.2905 91.9948 63.55" fill="#3C74F2"/>
<path d="M86.8507 64.0529C82.8353 66.3735 79.5802 72.0125 79.5802 76.6457C79.5802 81.2789 82.8353 83.1639 86.8507 80.8433C90.8662 78.5227 94.1252 72.8877 94.1213 68.2505C94.1173 63.6133 90.8622 61.7363 86.8507 64.0529Z" fill="#3C74F2"/>
<path d="M90.8622 74.3414V74.8721C89.9003 76.5891 88.5205 78.0357 86.8507 79.0776C85.2865 79.9765 83.8728 80.0755 82.8353 79.5013V78.4083C82.8884 77.2712 83.2131 76.1634 83.7821 75.1775C84.3512 74.1916 85.1481 73.3563 86.1062 72.7416L87.1636 72.1317C88.0981 71.5932 89.0089 71.5219 89.7217 71.9377C90.4345 72.3535 90.8622 73.2287 90.8622 74.3414Z" fill="#3C74F2"/>
<path opacity="0.4" d="M89.4168 62.0534L91.9908 63.5503C90.6761 62.786 88.8584 62.8929 86.8428 64.0532C84.2134 65.5738 81.9086 68.5161 80.6335 71.6683L78.0556 70.1754C79.3346 67.0074 81.6196 64.0809 84.2648 62.5603C86.2844 61.404 88.1021 61.2931 89.4168 62.0534Z" fill="white"/>
<path opacity="0.2" d="M81.6156 81.2948L79.1485 79.8652C77.8259 79.1128 77.0022 77.4892 77.0022 75.1528L79.5802 76.6497C79.596 78.9069 80.3563 80.5147 81.6156 81.2948Z" fill="black"/>
<path opacity="0.1" d="M78.0635 70.1753L80.6414 71.6682C79.9809 73.2463 79.6261 74.9355 79.596 76.6459L77.018 75.1491C77.0498 73.44 77.4045 71.7525 78.0635 70.1753Z" fill="black"/>
<path d="M85.932 71.8822C85.6863 71.8848 85.4444 71.8219 85.2311 71.7C84.974 71.5286 84.768 71.2909 84.6348 71.0121C84.5017 70.7333 84.4464 70.4237 84.4747 70.116C84.5083 69.3945 84.7142 68.6916 85.0753 68.066C85.4363 67.4404 85.9419 66.9104 86.5498 66.5203C86.7939 66.3254 87.0913 66.2087 87.4029 66.1854C87.7145 66.1622 88.0258 66.2336 88.2962 66.3902C88.5666 66.5467 88.7834 66.7813 88.9183 67.0631C89.0533 67.3449 89.1 67.6609 89.0525 67.9697C89.0182 68.691 88.812 69.3937 88.4511 70.0192C88.0901 70.6447 87.5849 71.1748 86.9774 71.5654C86.6631 71.7616 86.3024 71.8709 85.932 71.8822Z" fill="white"/>
<path d="M89.7217 71.9333C89.0089 71.5175 88.0981 71.5888 87.1636 72.1273L86.1062 72.7372C85.1476 73.3523 84.3504 74.1882 83.7813 75.1748C83.2121 76.1615 82.8878 77.2701 82.8353 78.4079V79.5048C83.8728 80.079 85.2865 79.98 86.8507 79.0811C88.5205 78.0392 89.9003 76.5927 90.8622 74.8756V74.3449C90.8622 73.2282 90.4504 72.3531 89.7217 71.9333Z" fill="white"/>
<path d="M171.131 140.441C171.131 140.441 171.658 135.816 173.959 132.224C176.26 128.633 179.42 126.395 182.37 126.162C185.32 125.928 187.704 128.645 184.548 130.518C181.392 132.391 175.784 134.284 173.202 141.253L171.131 140.441Z" fill="#3C74F2"/>
<path opacity="0.1" d="M171.131 140.441C171.131 140.441 171.658 135.816 173.959 132.224C176.26 128.633 179.42 126.395 182.37 126.162C185.32 125.928 187.704 128.645 184.548 130.518C181.392 132.391 175.784 134.284 173.202 141.253L171.131 140.441Z" fill="black"/>
<path d="M171.999 139.237H171.967C171.928 139.222 171.897 139.191 171.881 139.152C171.865 139.114 171.864 139.07 171.88 139.032C174.992 131.369 180.917 128.165 183.617 127.548C183.638 127.543 183.659 127.542 183.679 127.546C183.7 127.549 183.719 127.557 183.737 127.568C183.755 127.579 183.77 127.593 183.782 127.61C183.794 127.627 183.803 127.646 183.807 127.666C183.812 127.687 183.813 127.708 183.809 127.728C183.806 127.749 183.798 127.768 183.787 127.786C183.776 127.804 183.762 127.819 183.745 127.831C183.728 127.843 183.709 127.852 183.689 127.856C181.043 128.466 175.234 131.61 172.173 139.154C172.158 139.186 172.132 139.211 172.1 139.226C172.069 139.242 172.033 139.245 171.999 139.237Z" fill="white"/>
<path d="M187.752 139.329C187.486 139.931 186.829 140.248 186.219 140.493C185.609 140.739 184.944 141.004 184.611 141.574C183.946 142.723 185.039 144.346 184.326 145.459C184.158 145.683 183.947 145.871 183.705 146.011C183.462 146.151 183.194 146.241 182.916 146.275C182.461 146.358 181.998 146.358 181.538 146.397C181.318 146.395 181.099 146.377 180.881 146.346C180.241 146.203 179.572 146.274 178.976 146.548C178.061 147.063 177.788 148.215 177.226 149.106C176.882 149.631 176.43 150.075 175.898 150.408C175.367 150.742 174.771 150.957 174.149 151.039C173.753 151.09 172.961 151.165 172.565 150.932C172.534 150.916 172.505 150.898 172.478 150.876C172.418 150.813 172.347 150.73 172.315 150.686C172.313 150.677 172.313 150.667 172.315 150.658C172.153 150.06 172.418 149.443 172.43 148.825V148.714C172.403 147.997 172.383 147.284 172.367 146.572C172.333 145.252 172.319 143.932 172.327 142.612C172.327 141.756 172.232 140.822 172.597 140.018C172.993 139.131 173.991 139.111 174.367 138.244C174.517 137.895 174.596 137.527 174.743 137.175C174.969 136.662 175.332 136.222 175.791 135.901C176.251 135.581 176.79 135.392 177.349 135.357C179.087 135.27 180.643 136.676 182.382 136.545C182.829 136.509 183.269 136.371 183.712 136.291C185.118 136.026 186.746 136.426 187.538 137.618C187.711 137.864 187.822 138.148 187.859 138.447C187.897 138.745 187.86 139.048 187.752 139.329Z" fill="#3C74F2"/>
<path d="M172.141 147.914C172.104 147.903 172.072 147.878 172.053 147.844C172.034 147.81 172.028 147.77 172.038 147.732C174.438 138.727 183.918 137.436 186.148 137.586C186.167 137.587 186.187 137.592 186.204 137.601C186.222 137.609 186.238 137.621 186.251 137.636C186.263 137.651 186.273 137.668 186.279 137.687C186.286 137.705 186.288 137.725 186.286 137.745C186.282 137.783 186.264 137.819 186.234 137.844C186.205 137.869 186.167 137.881 186.128 137.879C183.954 137.725 174.672 138.996 172.323 147.811C172.312 147.848 172.287 147.88 172.253 147.899C172.219 147.918 172.179 147.924 172.141 147.914Z" fill="white"/>
<path d="M182.687 143.352C182.657 143.348 182.629 143.334 182.607 143.312C181.731 142.553 180.698 141.996 179.581 141.682C178.465 141.368 177.293 141.304 176.149 141.495C176.11 141.498 176.072 141.487 176.041 141.464C176.01 141.44 175.989 141.406 175.982 141.368C175.977 141.329 175.986 141.29 176.009 141.258C176.032 141.226 176.067 141.205 176.105 141.198C177.298 140.999 178.521 141.067 179.684 141.396C180.848 141.726 181.925 142.308 182.837 143.102C182.851 143.116 182.862 143.132 182.87 143.15C182.878 143.168 182.881 143.188 182.881 143.207C182.881 143.227 182.878 143.246 182.87 143.264C182.862 143.282 182.851 143.299 182.837 143.312C182.819 143.334 182.795 143.349 182.768 143.356C182.741 143.363 182.713 143.362 182.687 143.352Z" fill="white"/>
<path d="M149.34 31.6801L150.599 32.1632V29.3912C150.599 27.1895 152.353 26.6628 154.258 27.7637C156.167 28.8646 157.711 31.5376 157.711 33.7393V34.1353C157.976 34.0542 158.257 34.0342 158.531 34.0767C158.805 34.1192 159.067 34.2232 159.295 34.3808C160.018 34.8525 160.62 35.4881 161.051 36.236C161.483 36.984 161.732 37.8231 161.778 38.6854V38.8675L163.536 39.8813C164.012 40.1918 164.408 40.6099 164.692 41.1018C164.976 41.5937 165.14 42.1455 165.172 42.7127C165.172 43.7581 164.439 44.1818 163.536 43.6591L149.34 35.458C148.863 35.1482 148.468 34.7302 148.184 34.2381C147.9 33.746 147.737 33.1938 147.708 32.6266C147.708 31.5851 148.433 31.1614 149.34 31.6801Z" fill="#E6E6E6"/>
<path d="M166.205 29.4861L168.49 30.8048C168.478 30.7049 168.471 30.6044 168.47 30.5038V29.8425C168.47 28.6545 169.294 28.1872 170.316 28.7773C170.755 29.0461 171.13 29.4068 171.417 29.8346C171.583 28.3535 172.747 27.8031 174.157 28.6149C174.962 29.1391 175.633 29.8457 176.115 30.6775C176.596 31.5093 176.875 32.4429 176.929 33.4025V34.3925C176.939 34.7881 176.859 35.1808 176.695 35.5409L178.596 36.6339C178.892 36.8304 179.138 37.0936 179.314 37.4024C179.49 37.7112 179.592 38.0569 179.61 38.4119C179.61 39.0653 179.15 39.3307 178.584 39.0059L166.205 31.8779C165.906 31.6829 165.657 31.4197 165.479 31.11C165.3 30.8003 165.198 30.4528 165.18 30.0959C165.18 29.4267 165.639 29.1614 166.205 29.4861Z" fill="#E6E6E6"/>
<path d="M157.359 89.5873C155.695 92.3989 154.095 94.8422 152.971 96.0144C150.836 97.0044 145.823 98.5329 143.863 98.7864C143.519 98.8302 143.17 98.7487 142.881 98.5567C142.109 98.0498 141.511 97.9666 140.699 97.6855C140.061 97.4677 139.792 97.1628 139.673 97.2895C139.55 97.4333 139.489 97.6194 139.501 97.8081C139.514 97.9967 139.6 98.173 139.74 98.2993C140.045 98.5887 140.383 98.8412 140.746 99.0517C139.877 99.2674 138.97 99.2836 138.093 99.0992C136.394 98.6517 135.594 99.4675 136.743 101.313C137.139 101.97 138.77 103.028 142.049 102.742C143.219 102.679 144.384 102.547 145.538 102.346C148.682 101.673 152.179 101.024 154.329 100.366C155.129 100.052 155.845 99.5557 156.42 98.917C160.035 94.7947 161.235 91.8564 162.819 89.1873L162.685 84.8313C160.119 84.7442 158.748 87.235 157.359 89.5873Z" fill="#FFA8A7"/>
<path d="M163.124 84.7442C162.38 84.6396 161.622 84.7404 160.931 85.0356C160.24 85.3309 159.643 85.8093 159.204 86.4193C157.446 88.6726 154.333 94.0819 154.333 94.0819C154.333 94.0819 155.351 96.7945 158.099 97.2499L162.514 91.2862C162.514 91.2862 164.605 87.144 163.124 84.7442Z" fill="#455A64"/>
<path d="M172.672 145.546H169.793V150.678H172.672V145.546Z" fill="#FFA8A7"/>
<path d="M162.693 145.272L159.818 145.375L159.671 139.942L162.693 139.839V145.272Z" fill="#FFA8A7"/>
<path d="M173.076 101.118C173.076 103.978 172.656 127.013 172.656 127.013C172.719 127.837 173.448 129.357 173.301 132.521C173.084 136.818 172.795 148.112 172.795 148.112C172.3 148.365 171.755 148.502 171.2 148.513C170.645 148.524 170.095 148.408 169.591 148.175C169.591 148.175 167.255 132.335 166.74 128.094C166.288 124.376 165.132 112.068 165.132 112.068L163.576 126.617C163.906 128.178 164.026 129.776 163.932 131.369C163.797 133.349 162.871 143.597 162.871 143.597C162.373 143.891 161.816 144.067 161.24 144.113C160.665 144.159 160.086 144.073 159.548 143.863C159.548 143.863 157.909 128.419 157.877 126.605C157.838 124.546 158.836 101.095 158.836 101.095L173.076 101.118Z" fill="#37474F"/>
<path d="M169.793 149.197V148.769C169.516 148.892 168.878 151.434 167.734 152.519C166.827 153.382 165.591 154.376 165.275 155.339C164.958 156.301 166.997 156.891 167.849 156.737C168.831 156.554 170.541 155.83 170.969 155.153C171.397 154.475 171.599 153.493 171.947 153.002C172.296 152.511 173.1 151.965 173.286 151.395C173.344 150.861 173.288 150.321 173.123 149.811C172.989 149.28 172.846 148.698 172.672 148.749V149.074C172.266 149.407 171.756 149.587 171.23 149.581C170.811 149.617 169.789 149.529 169.793 149.197Z" fill="#263238"/>
<path d="M159.786 144.449C159.636 144.449 159.513 144.675 159.184 145.047C158.695 145.561 158.124 145.989 157.493 146.314C156.416 146.877 154.325 147.74 153.371 148.187C152.777 148.465 152.805 149.209 153.418 149.633C154.032 150.056 155.509 150.361 157.283 149.95C158.25 149.724 159.509 148.793 160.309 148.845C161.109 148.896 162.594 148.88 163.184 148.449C163.774 148.017 163.536 147.122 163.37 146.35C163.188 145.502 162.974 144.184 162.693 144.243V144.54C162.348 145.087 160.562 145.308 159.802 144.908L159.786 144.449Z" fill="#263238"/>
<path d="M165.132 112.068C163.634 111.578 162.265 110.759 161.124 109.672C161.124 109.672 161.916 111.181 164.197 112.587L163.706 125.58L165.132 112.068Z" fill="#263238"/>
<path d="M171.468 85.164C171.468 85.164 173.844 85.7105 173.674 90.0031L173.179 96.8341V107.091C171.064 109.49 161.695 109.316 158.467 106.9C158.467 106.9 158.832 94.7631 159.049 90.0903C159.204 86.7718 159.968 85.1006 163.231 84.7363L167.243 84.9106L171.468 85.164Z" fill="#3C74F2"/>
<path d="M168.443 76.2456C168.456 76.8203 168.356 77.392 168.148 77.9278C167.939 78.4636 167.627 78.9528 167.229 79.3673C166.83 79.7818 166.354 80.1134 165.827 80.3429C165.3 80.5724 164.733 80.6953 164.158 80.7046C161.782 80.7046 160.388 78.6533 159.873 76.2456C158.923 71.8382 161.79 71.7827 164.158 71.7827C165.318 71.8066 166.421 72.2902 167.224 73.1271C168.028 73.964 168.466 75.0857 168.443 76.2456Z" fill="#263238"/>
<path d="M170.628 78.0479C170.628 78.0479 169.971 81.2634 169.706 81.794C169.539 82.1134 169.255 82.356 168.914 82.4712L168.961 80.21L170.628 78.0479Z" fill="#263238"/>
<path d="M169.801 73.442C169.801 73.442 170.272 73.3232 170.775 74.1072C171.203 74.7765 171.302 76.2813 170.628 78.0672L169.389 78.2177L169.801 73.442Z" fill="#263238"/>
<path d="M170.256 74.0953L171.777 74.1231C171.787 74.0248 171.777 73.9254 171.747 73.8312C171.718 73.737 171.669 73.6499 171.604 73.5756C171.538 73.5012 171.459 73.4411 171.369 73.399C171.28 73.3569 171.183 73.3338 171.084 73.3311C170.876 73.334 170.677 73.4137 170.524 73.5548C170.371 73.6958 170.276 73.8883 170.256 74.0953Z" fill="#263238"/>
<path d="M170.442 73.735L171.567 72.6539C171.502 72.5775 171.422 72.5154 171.332 72.4714C171.242 72.4275 171.144 72.4026 171.044 72.3986C170.944 72.3945 170.844 72.4112 170.751 72.4476C170.657 72.4841 170.573 72.5395 170.502 72.6103C170.353 72.7562 170.264 72.9528 170.253 73.1611C170.242 73.3694 170.309 73.5742 170.442 73.735Z" fill="#263238"/>
<path d="M169.017 78.198C169.266 78.3525 169.619 77.8575 169.928 77.5209C170.236 77.1843 171.195 76.8754 171.694 77.9683C172.193 79.0613 171.341 80.1424 170.628 80.4988C169.349 81.1324 168.945 80.2097 168.945 80.2097L168.839 85.3023C167.041 88.0743 162.962 87.9871 164.431 85.1676V83.6193C163.827 83.7197 163.213 83.7516 162.602 83.7143C161.604 83.5559 160.978 82.7362 160.673 81.6115C160.19 79.8058 160.004 78.3485 160.416 74.7964C160.867 70.9077 165.215 70.8641 167.544 72.4204C169.872 73.9767 169.017 78.198 169.017 78.198Z" fill="#FFA8A7"/>
<path d="M163.599 74.1906C164.637 74.0877 165.663 73.8738 166.704 73.7946C166.929 73.7674 167.156 73.7781 167.377 73.8263C168.169 74.0441 168.074 74.9707 168.201 75.6162C168.419 76.7329 168.597 78.6219 169.017 78.6298C169.143 78.6298 169.619 77.8101 169.928 77.517C170.097 77.2645 170.193 76.9697 170.205 76.6656C170.284 76.2063 170.324 75.735 170.359 75.2677C170.391 74.8717 170.43 74.4757 170.43 74.0797C170.449 73.6322 170.413 73.1841 170.324 72.7452C170.224 72.3718 170.034 72.0289 169.769 71.7473L169.69 71.6602C169.168 71.1145 168.535 70.6876 167.833 70.4088C166.823 70.0305 165.764 69.7998 164.688 69.7237C163.614 69.6477 162.545 69.5155 161.485 69.3277C161.424 69.31 161.359 69.31 161.299 69.3277C161.256 69.3515 161.219 69.3858 161.193 69.4273C161.167 69.4688 161.151 69.5163 161.148 69.5653C161.105 69.8114 161.132 70.0648 161.227 70.296C161.321 70.5273 161.479 70.7271 161.683 70.8721C160.966 70.9276 160.142 70.5553 159.453 70.3653C159.398 70.3416 159.338 70.3294 159.277 70.3294C159.217 70.3294 159.157 70.3416 159.101 70.3653C159.032 70.4136 158.983 70.4853 158.962 70.5672C158.912 70.7533 158.905 70.9484 158.943 71.1375C159.006 71.7106 159.219 72.257 159.56 72.7215C160.094 73.4163 160.848 73.9092 161.699 74.1193C162.325 74.2401 162.966 74.2641 163.599 74.1906Z" fill="#263238"/>
<path d="M164.435 83.6195C164.435 83.6195 166.661 83.1523 167.437 82.7206C167.899 82.4677 168.274 82.0813 168.514 81.6118C168.397 82.0835 168.188 82.5275 167.9 82.9186C167.334 83.6789 164.435 84.2333 164.435 84.2333V83.6195Z" fill="#F28F8F"/>
<path d="M164.97 77.6158C164.965 77.7381 165.01 77.857 165.093 77.9468C165.176 78.0366 165.291 78.0898 165.413 78.095C165.51 78.103 165.607 78.0814 165.692 78.0333C165.776 77.9851 165.845 77.9125 165.887 77.8249C165.93 77.7374 165.945 77.6391 165.931 77.5428C165.916 77.4465 165.873 77.3567 165.807 77.2853C165.741 77.2139 165.655 77.1641 165.56 77.1425C165.465 77.1208 165.366 77.1284 165.275 77.1641C165.185 77.1998 165.107 77.2621 165.053 77.3427C164.998 77.4233 164.969 77.5185 164.97 77.6158Z" fill="#263238"/>
<path d="M165.682 75.6956L166.637 76.2461C166.706 76.1104 166.722 75.9535 166.681 75.8067C166.64 75.6599 166.545 75.534 166.415 75.4541C166.352 75.4186 166.282 75.3966 166.21 75.3896C166.137 75.3826 166.064 75.3908 165.996 75.4135C165.927 75.4362 165.863 75.473 165.809 75.5216C165.755 75.5702 165.712 75.6295 165.682 75.6956Z" fill="#263238"/>
<path d="M164.633 80.8276L163.615 81.2236C163.636 81.2934 163.67 81.3583 163.717 81.4142C163.764 81.47 163.821 81.5157 163.886 81.5484C163.951 81.5811 164.022 81.6001 164.095 81.6041C164.167 81.6082 164.24 81.5973 164.308 81.5721C164.447 81.5124 164.558 81.4023 164.618 81.264C164.678 81.1258 164.684 80.9698 164.633 80.8276Z" fill="#F28F8F"/>
<path d="M160.875 76.1032L161.746 75.4062C161.707 75.3454 161.656 75.2934 161.595 75.2538C161.535 75.2141 161.467 75.1877 161.395 75.1761C161.324 75.1645 161.251 75.1681 161.181 75.1866C161.111 75.2051 161.046 75.2381 160.99 75.2834C160.873 75.3822 160.797 75.5202 160.776 75.6714C160.755 75.8226 160.79 75.9763 160.875 76.1032Z" fill="#263238"/>
<path d="M161.259 77.4856C161.266 77.5722 161.298 77.655 161.351 77.7237C161.404 77.7925 161.476 77.8442 161.559 77.8727C161.641 77.9012 161.729 77.9051 161.814 77.884C161.898 77.863 161.974 77.8178 162.033 77.754C162.093 77.6902 162.132 77.6106 162.146 77.5249C162.161 77.4392 162.15 77.3512 162.116 77.2714C162.081 77.1917 162.024 77.1238 161.951 77.0761C161.878 77.0283 161.794 77.0027 161.707 77.0024C161.645 77.0045 161.585 77.0186 161.53 77.0441C161.474 77.0695 161.424 77.1057 161.382 77.1507C161.34 77.1956 161.308 77.2483 161.287 77.3058C161.266 77.3633 161.256 77.4244 161.259 77.4856Z" fill="#263238"/>
<path d="M163.647 77.1133L163.596 79.9288L161.996 79.5645L163.647 77.1133Z" fill="#F28F8F"/>
<path d="M125.655 100.695L128.138 99.2613L129.12 98.0693L126.641 99.5029L125.655 100.695Z" fill="#3C74F2"/>
<path opacity="0.4" d="M125.655 100.695L128.138 99.2613L129.12 98.0693L126.641 99.5029L125.655 100.695Z" fill="black"/>
<path d="M132.407 104.592L134.889 103.158L136.961 101.325L134.482 102.754L132.407 104.592Z" fill="#3C74F2"/>
<path opacity="0.4" d="M132.407 104.592L134.889 103.158L136.961 101.325L134.482 102.754L132.407 104.592Z" fill="black"/>
<path d="M153.498 109.538C154.085 110.325 154.44 111.26 154.523 112.238C153.939 111.45 153.584 110.515 153.498 109.538ZM159.267 109.613C158.432 103.93 155.379 98.3111 151.743 96.2083C149.997 95.1985 148.381 95.1629 147.086 95.9192L144.75 97.2656L144.619 97.3448C144.515 97.4021 144.415 97.4656 144.318 97.5349C144.126 97.667 143.946 97.8154 143.78 97.9784L143.7 98.0537C143.629 98.125 143.554 98.2081 143.487 98.2873C143.419 98.3665 143.316 98.4893 143.237 98.5962C143.069 98.8174 142.917 99.0504 142.782 99.2932C142.71 99.4159 142.643 99.5466 142.58 99.6892L122.174 87.9121L119.695 89.3417V90.9257L119.905 91.0445L120.103 91.1593V91.4761L119.707 91.7097V92.6285L122.705 98.9645L125.667 100.679L126.653 99.4912L129.266 101.055L130.767 103.625L132.422 104.58L134.493 102.742L137.036 104.211L137.891 107.74L142.164 110.211C142.375 111.109 142.64 111.994 142.956 112.86C142.984 112.947 143.019 113.038 143.055 113.137C144.473 116.86 146.726 120.048 149.268 121.517C149.573 121.697 149.892 121.852 150.223 121.98C150.397 122.049 150.576 122.109 150.757 122.158C150.916 122.2 151.074 122.236 151.232 122.265C151.733 122.356 152.245 122.356 152.745 122.265L152.951 122.214C153.049 122.194 153.146 122.166 153.24 122.13L153.462 122.043C153.54 122.015 153.616 121.979 153.688 121.936C153.761 121.905 153.832 121.869 153.901 121.83L154.004 121.766C154.023 121.76 154.04 121.751 154.056 121.738C154.622 121.414 156.016 120.606 156.396 120.392C158.281 119.299 159.501 116.535 159.501 112.626C159.498 111.618 159.42 110.61 159.267 109.613Z" fill="#3C74F2"/>
<path d="M152.773 114.333C151.791 113.767 150.999 112.088 150.999 110.583C150.999 109.078 151.791 108.314 152.773 108.876C153.755 109.439 154.543 111.122 154.543 112.631C154.543 114.139 153.751 114.9 152.773 114.333ZM156.784 111.043C155.953 105.364 152.9 99.7408 149.26 97.642C147.573 96.6678 146.013 96.5965 144.746 97.2658L144.615 97.345C144.511 97.4022 144.411 97.4657 144.314 97.535C144.122 97.6671 143.942 97.8155 143.776 97.9786L143.697 98.0538C143.625 98.1251 143.55 98.2082 143.483 98.2874C143.415 98.3666 143.312 98.4894 143.233 98.5963C143.065 98.8176 142.913 99.0505 142.778 99.2933C142.707 99.416 142.639 99.5467 142.576 99.6893C142.207 100.455 141.94 101.266 141.784 102.101L119.691 89.3418V90.9258L119.901 91.0446L120.099 91.1594V91.4762L119.703 91.7099V92.6286L122.701 98.9646L125.663 100.679L126.649 99.4913L129.262 101.055L130.763 103.626L132.418 104.58L134.49 102.742L137.032 104.212L137.887 107.74L142.164 110.211C142.375 111.109 142.64 111.994 142.956 112.86C142.984 112.947 143.019 113.038 143.055 113.137C144.473 116.86 146.726 120.048 149.268 121.517C149.573 121.697 149.892 121.852 150.223 121.98C150.397 122.05 150.576 122.109 150.757 122.158C150.916 122.201 151.074 122.236 151.232 122.265C151.733 122.356 152.245 122.356 152.745 122.265L152.951 122.214C153.049 122.194 153.146 122.166 153.24 122.131L153.462 122.043C153.54 122.015 153.616 121.979 153.688 121.937C153.761 121.905 153.832 121.869 153.901 121.83L154.004 121.766C154.023 121.76 154.04 121.751 154.056 121.739C155.862 120.598 157.022 117.874 157.022 114.06C157.015 113.05 156.936 112.041 156.784 111.043Z" fill="#3C74F2"/>
<path opacity="0.4" d="M154.543 112.626C154.543 114.135 153.751 114.899 152.773 114.333C151.795 113.767 150.999 112.092 150.999 110.583C150.999 109.074 151.791 108.31 152.773 108.876C153.056 109.048 153.302 109.274 153.498 109.542C153.583 110.519 153.938 111.454 154.523 112.242C154.538 112.37 154.544 112.498 154.543 112.626Z" fill="black"/>
<path opacity="0.4" d="M159.493 112.622C159.493 116.531 158.273 119.295 156.388 120.388C155.992 120.602 154.614 121.409 154.048 121.734C155.854 120.594 157.014 117.869 157.014 114.056C157.01 113.047 156.933 112.04 156.784 111.042C155.953 105.363 152.9 99.7403 149.26 97.6415C147.573 96.6673 146.013 96.5961 144.746 97.2653L147.082 95.9189C148.377 95.1625 149.993 95.1982 151.739 96.208C155.379 98.3107 158.432 103.93 159.263 109.613C159.414 110.609 159.491 111.615 159.493 112.622Z" fill="white"/>
<path d="M157.014 114.048C157.014 117.861 155.854 120.586 154.048 121.726C154.614 121.402 156.008 120.594 156.388 120.38C158.273 119.287 159.493 116.523 159.493 112.614C159.493 112.472 159.493 112.325 159.493 112.179L157.014 113.612C157.01 113.767 157.014 113.909 157.014 114.048Z" fill="#3C74F2"/>
<path opacity="0.1" d="M157.014 114.048C157.014 117.861 155.854 120.586 154.048 121.726C154.614 121.402 156.008 120.594 156.388 120.38C158.273 119.287 159.493 116.523 159.493 112.614C159.493 112.472 159.493 112.325 159.493 112.179L157.014 113.612C157.01 113.767 157.014 113.909 157.014 114.048Z" fill="black"/>
<path opacity="0.15" d="M141.879 103.72V104.524L119.695 91.7177L120.103 91.4801V91.1475L141.879 103.72Z" fill="black"/>
<path opacity="0.15" d="M141.879 104.053V104.524L119.695 91.7176L120.103 91.48V91.4761L141.879 104.053Z" fill="black"/>
<path opacity="0.15" d="M151.525 120.384C150.685 120.362 149.865 120.118 149.149 119.675C145.534 117.588 142.592 111.379 142.592 105.835C142.592 102.6 143.57 100.184 145.277 99.1981C146.465 98.5091 147.87 98.5962 149.347 99.4476C152.959 101.535 155.901 107.764 155.901 113.308C155.901 116.539 154.923 118.959 153.216 119.941C152.702 120.235 152.118 120.388 151.525 120.384ZM146.991 99.1387C146.464 99.1358 145.944 99.2724 145.486 99.5347C143.93 100.434 143 102.79 143 105.831C143 111.248 145.851 117.315 149.359 119.327C150.702 120.119 151.973 120.19 153.03 119.58C154.587 118.681 155.517 116.329 155.517 113.288C155.517 107.867 152.666 101.804 149.161 99.7881C148.506 99.3896 147.758 99.1711 146.991 99.1545V99.1387Z" fill="black"/>
<path opacity="0.4" d="M142.56 99.6813C142.191 100.447 141.924 101.258 141.768 102.093L119.675 89.3339L122.154 87.9043L142.56 99.6813Z" fill="white"/>
<path d="M171.274 100.921C172.43 98.7309 173.753 93.8126 174.41 91.3297C175.345 87.8053 173.832 85.5877 172.113 85.4966C171.04 85.6629 167.504 98.521 167.504 98.521C167.108 98.8339 161.734 101.562 160.008 102.247C159.699 102.364 159.358 102.364 159.049 102.247C158.222 101.946 157.656 102.002 156.844 101.923C156.206 101.859 155.885 101.634 155.802 101.768C155.727 101.935 155.717 102.125 155.775 102.299C155.833 102.473 155.954 102.618 156.115 102.707C156.465 102.91 156.837 103.072 157.224 103.19C156.53 103.4 155.807 103.498 155.082 103.479C153.418 103.443 152.82 104.164 154.111 105.855C154.903 106.908 156.214 107.241 159.141 106.231C159.98 105.938 161.121 105.372 162.186 104.988C164.38 104.196 164.958 104.101 166.629 103.534C169.064 102.711 170.759 101.895 171.274 100.921Z" fill="#FFA8A7"/>
<path d="M171.468 85.1636C172.478 85.3022 173.448 85.5279 174.046 86.3516C174.644 87.1753 175.123 88.3316 174.537 91.4798C174.088 93.6938 173.487 95.8743 172.739 98.0059C172.739 98.0059 170.387 99.0117 167.888 96.4615L169.607 89.8166C169.607 89.8166 169.884 85.4962 171.468 85.1636Z" fill="#455A64"/>
</svg>
