<svg width="38" height="37" viewBox="0 0 38 37" fill="none" xmlns="http://www.w3.org/2000/svg">
<path d="M4.37578 31.4638V27.7731H8.07578V14.8554C8.07578 12.3026 8.84661 10.0346 10.3883 8.05142C11.9299 6.06825 13.9341 4.76848 16.4008 4.15212V0.0922692H21.9508V4.15212C24.4174 4.76725 26.4216 6.06702 27.9633 8.05142C29.5049 10.0358 30.2758 12.3038 30.2758 14.8554V27.7731H33.9758V31.4638H4.37578ZM19.1758 37C18.1583 37 17.2875 36.6389 16.5636 35.9168C15.8396 35.1946 15.477 34.3254 15.4758 33.3092H22.8758C22.8758 34.3242 22.5138 35.1934 21.7898 35.9168C21.0659 36.6401 20.1945 37.0012 19.1758 37ZM11.7758 27.7731H26.5758V14.8554C26.5758 12.8254 25.8512 11.0877 24.402 9.64214C22.9529 8.19659 21.2108 7.47382 19.1758 7.47382C17.1408 7.47382 15.3987 8.19659 13.9495 9.64214C12.5004 11.0877 11.7758 12.8254 11.7758 14.8554V27.7731ZM0.675781 14.8554C0.675781 11.7797 1.36213 8.95812 2.73483 6.39057C4.10753 3.82303 5.94951 1.69283 8.26078 0L10.4345 2.95262C8.58453 4.3059 7.11255 6.01288 6.01858 8.07357C4.92461 10.1342 4.37701 12.3948 4.37578 14.8554H0.675781ZM33.9758 14.8554C33.9758 12.3948 33.4282 10.1342 32.333 8.07357C31.2378 6.01288 29.7664 4.3059 27.9189 2.95262L30.0926 0C32.4051 1.6916 34.2477 3.8218 35.6204 6.39057C36.9931 8.95935 37.6782 11.7809 37.6758 14.8554H33.9758Z" fill="#427BBD"/>
</svg>
