<svg width="25" height="24" viewBox="0 0 25 24" fill="none" xmlns="http://www.w3.org/2000/svg">
<g clip-path="url(#clip0_1398_2484)">
<path d="M5.19753 0.47168H19.3643C22.0394 0.47462 24.2072 2.59275 24.2103 5.20626V15.0907C24.2073 17.7045 22.0394 19.8227 19.3646 19.8256H15.6434L12.2809 23.111L8.91843 19.8256H5.19753C2.5224 19.8227 0.354572 17.7046 0.351562 15.091V5.20657C0.354572 2.59272 2.52269 0.47462 5.19753 0.47168ZM19.3643 18.2715C21.1615 18.2697 22.6179 16.8467 22.6197 15.0909V5.20657C22.6179 3.45059 21.1615 2.02756 19.3645 2.02579H5.19753C3.40036 2.02756 1.94392 3.45059 1.94211 5.20635V15.0907C1.94392 16.8467 3.40036 18.2697 5.19735 18.2715H9.57798L12.2809 20.9125L14.9838 18.2715H19.3643Z" fill="black"/>
</g>
<defs>
<clipPath id="clip0_1398_2484">
<rect width="23.8587" height="23.111" fill="white" transform="translate(0.351562)"/>
</clipPath>
</defs>
</svg>
