<svg width="32" height="32" viewBox="0 0 32 32" fill="none" xmlns="http://www.w3.org/2000/svg">
<path d="M10.2295 31.2398L10.1426 31.0866C8.81346 28.7446 6.56022 27.0699 3.93443 26.4725V26.4725C3.55972 26.3943 3.25995 26.1927 3.03513 25.8676C2.8103 25.5424 2.72287 25.184 2.77283 24.7922L2.79778 24.5249C3.04561 21.87 2.22282 19.226 0.512231 17.1804L0.374707 17.016C0.124902 16.7294 0 16.3908 0 16C0 15.6092 0.124902 15.2706 0.374707 14.984L0.51223 14.8196C2.22282 12.774 3.04561 10.13 2.79778 7.47507L2.77283 7.20782C2.72287 6.81705 2.8103 6.45859 3.03513 6.13244C3.25995 5.80628 3.55972 5.60465 3.93443 5.52754V5.52754C6.56022 4.93009 8.81346 3.25538 10.1426 0.91335L10.2295 0.760219C10.4294 0.421557 10.7041 0.193351 11.0539 0.0756009C11.4036 -0.0421492 11.7533 -0.0223505 12.103 0.134997V0.134997C14.5856 1.2303 17.4144 1.2303 19.897 0.134997V0.134997C20.2467 -0.0213085 20.5964 -0.0411071 20.9461 0.0756009C21.2959 0.192309 21.5707 0.420515 21.7705 0.760219L21.8574 0.913349C23.1865 3.25538 25.4398 4.93009 28.0656 5.52754V5.52754C28.4403 5.60569 28.74 5.80784 28.9649 6.134C29.1897 6.46016 29.2771 6.8181 29.2272 7.20782L29.2022 7.47507C28.9544 10.13 29.7772 12.774 31.4878 14.8196L31.6253 14.984C31.8751 15.2706 32 15.6092 32 16C32 16.3908 31.8751 16.7294 31.6253 17.016L31.4878 17.1804C29.7772 19.226 28.9544 21.87 29.2022 24.5249L29.2272 24.7922C29.2771 25.1829 29.1897 25.5414 28.9649 25.8676C28.74 26.1937 28.4403 26.3954 28.0656 26.4725V26.4725C25.4398 27.0699 23.1865 28.7446 21.8574 31.0866L21.7705 31.2398C21.5707 31.5784 21.2959 31.8066 20.9461 31.9244C20.5964 32.0421 20.2467 32.0223 19.897 31.865V31.865C17.4144 30.7697 14.5856 30.7697 12.103 31.865V31.865C11.7533 32.0213 11.4036 32.0411 11.0539 31.9244C10.7041 31.8077 10.4294 31.5795 10.2295 31.2398Z" fill="#1E3167"/>
<mask id="path-2-inside-1_43_80" fill="white">
<path d="M16.6661 8.00596C16.6638 8.00959 16.6532 8.01469 16.6434 8.01687C16.6328 8.01905 16.6048 8.03433 16.5806 8.04961C16.5557 8.06562 16.5239 8.08381 16.5095 8.08963C16.4952 8.09618 16.4498 8.12092 16.4082 8.14493C16.3666 8.16822 16.3159 8.1966 16.2947 8.20751C16.2743 8.21842 16.2403 8.23734 16.2191 8.25044C16.1987 8.26354 16.1737 8.27663 16.1647 8.27882C16.1556 8.28173 16.1253 8.29846 16.0974 8.31593C16.0686 8.33412 16.0429 8.34867 16.0391 8.34867C16.0353 8.34867 16.0111 8.36177 15.9854 8.37778C15.9597 8.39378 15.9242 8.41416 15.9068 8.42289C15.8183 8.46873 15.7321 8.51675 15.7283 8.52257C15.726 8.52621 15.7162 8.53058 15.7064 8.53349C15.6965 8.53567 15.6655 8.55241 15.6368 8.5706C15.6081 8.58879 15.5808 8.60334 15.5755 8.60334C15.571 8.60334 15.5498 8.61426 15.5294 8.62808C15.509 8.64191 15.4719 8.66301 15.447 8.67538C15.3971 8.70157 15.2957 8.75833 15.2549 8.78307C15.2405 8.79252 15.2254 8.7998 15.2216 8.7998C15.2186 8.7998 15.1906 8.81435 15.1611 8.83254C15.1308 8.85074 15.1029 8.86529 15.0983 8.86529C15.0938 8.86529 15.0824 8.87111 15.0726 8.87911C15.0628 8.88639 15.0272 8.90749 14.994 8.92495C14.9607 8.94314 14.9032 8.97516 14.8654 8.99626C14.8283 9.01736 14.783 9.0421 14.7663 9.05083C14.7489 9.05957 14.7149 9.07848 14.6899 9.09304C14.6642 9.10832 14.6408 9.11996 14.637 9.11996C14.6325 9.11996 14.6211 9.12578 14.6113 9.13378C14.6015 9.14106 14.5659 9.16216 14.5326 9.17962C14.4994 9.19781 14.4419 9.22983 14.4041 9.25093C14.367 9.27276 14.3194 9.29823 14.2982 9.30841C14.2778 9.31933 14.2468 9.33606 14.2301 9.34625C14.2135 9.35717 14.1863 9.37172 14.1696 9.37972C14.153 9.38773 14.1227 9.40373 14.1016 9.4161C13.9874 9.48232 13.9329 9.51288 13.9284 9.51288C13.9261 9.51288 13.8996 9.52743 13.8694 9.54562C13.8391 9.56381 13.8119 9.57837 13.8081 9.57837C13.8051 9.57837 13.793 9.58419 13.7817 9.59146C13.7227 9.63003 13.6992 9.64385 13.6894 9.64385C13.6841 9.64385 13.669 9.65113 13.6561 9.66059C13.6433 9.67005 13.6092 9.69042 13.5797 9.7057C13.551 9.72098 13.5185 9.73844 13.5079 9.74572C13.4973 9.753 13.4814 9.76027 13.4724 9.76318C13.4633 9.76609 13.433 9.78283 13.405 9.80029C13.3763 9.81848 13.3506 9.83304 13.3468 9.83304C13.3423 9.83304 13.3203 9.84541 13.2977 9.85996C13.2742 9.87451 13.2394 9.89416 13.2205 9.90362C13.2016 9.91235 13.154 9.94 13.1146 9.96401C13.0753 9.98802 13.0307 10.0135 13.0163 10.0208C12.9793 10.0382 12.8159 10.1277 12.7229 10.1816C12.6994 10.1947 12.6579 10.218 12.6306 10.2318C12.6042 10.2463 12.5701 10.2652 12.5558 10.2747C12.5421 10.2842 12.527 10.2914 12.5232 10.2914C12.5172 10.2914 12.5089 10.2958 12.4529 10.3329C12.44 10.3409 12.4211 10.3504 12.4113 10.3533C12.4007 10.3562 12.3826 10.3664 12.3697 10.3751C12.3576 10.3846 12.3251 10.402 12.2979 10.4151C12.2706 10.4282 12.2381 10.4464 12.2253 10.4559C12.2124 10.4653 12.1996 10.4734 12.1958 10.4734C12.1927 10.4734 12.1617 10.4894 12.127 10.5097C12.0922 10.5294 12.0612 10.5461 12.0574 10.5461C12.0536 10.5461 12.0422 10.5519 12.0324 10.5599C12.0226 10.5672 11.9908 10.5854 11.9613 10.6007C11.9326 10.6152 11.9031 10.632 11.897 10.6371C11.891 10.6422 11.8645 10.6567 11.8388 10.6698C11.8123 10.6822 11.7738 10.704 11.7526 10.7178C11.7314 10.7309 11.711 10.7426 11.7072 10.7426C11.7027 10.7426 11.68 10.7542 11.6566 10.7695C11.6331 10.784 11.6036 10.8001 11.5908 10.8059C11.5787 10.811 11.5461 10.8284 11.5197 10.8444C11.494 10.8605 11.4698 10.8735 11.4667 10.8735C11.4637 10.8735 11.438 10.8881 11.4093 10.9063C11.3798 10.9245 11.3533 10.939 11.3488 10.939C11.345 10.939 11.3261 10.9492 11.3072 10.9616C11.2762 10.982 11.2308 11.0067 11.1347 11.0555C11.1151 11.0656 11.0795 11.086 11.0553 11.1006C11.0319 11.1158 11.0084 11.1282 11.0047 11.1282C11.0001 11.1282 10.9805 11.1391 10.9608 11.1515L10.9245 11.1755L10.9192 11.6703C10.9162 11.9424 10.9139 12.5682 10.9139 13.0608C10.9139 13.5534 10.9116 13.9769 10.9094 14.0016L10.9041 14.0467L10.8315 14.0795C10.6462 14.1646 10.6212 14.1755 10.6038 14.1806C10.5932 14.1835 10.5713 14.1937 10.5547 14.2032C10.538 14.2119 10.5078 14.2257 10.4866 14.2337C10.4662 14.2417 10.4216 14.2599 10.3883 14.2752C10.355 14.2898 10.2938 14.3167 10.2522 14.3349C10.2106 14.3523 10.1455 14.3822 10.1077 14.3996C10.0691 14.4171 10.0344 14.4317 10.0298 14.4317C10.0253 14.4317 9.99579 14.4448 9.96478 14.4608C9.93378 14.4768 9.90504 14.4899 9.9005 14.4899C9.89672 14.4899 9.85664 14.5066 9.81202 14.527C9.76664 14.5474 9.69631 14.5786 9.65471 14.5968C9.61312 14.615 9.54808 14.6441 9.51027 14.6616C9.47245 14.6791 9.43766 14.6936 9.43313 14.6936C9.42859 14.6936 9.39985 14.706 9.36884 14.722C9.33859 14.7373 9.30532 14.7525 9.29549 14.7555C9.2849 14.7584 9.24406 14.7758 9.20473 14.7933C9.16541 14.8115 9.09886 14.8406 9.05726 14.8588C9.01567 14.877 8.95365 14.9046 8.91962 14.9199C8.88635 14.9359 8.85609 14.9483 8.85307 14.9483C8.84248 14.9483 8.69123 15.037 8.67383 15.0531C8.664 15.0618 8.64661 15.0749 8.63375 15.0829C8.62165 15.0902 8.60653 15.1025 8.60048 15.1105C8.59518 15.1178 8.58157 15.1295 8.57023 15.136C8.55888 15.1433 8.53014 15.1695 8.50594 15.1957C8.48174 15.2219 8.453 15.2532 8.44166 15.2648C8.39099 15.3186 8.28511 15.4918 8.26016 15.5609C8.25259 15.582 8.23596 15.6279 8.2231 15.6621C8.20722 15.7065 8.19663 15.7596 8.18453 15.8513C8.16562 16.0012 8.13386 16.2988 8.12705 16.3963C8.12403 16.4341 8.11193 16.5534 8.09983 16.6618C8.07109 16.9216 8.06428 16.9907 8.05521 17.1166C8.05067 17.1748 8.03857 17.2956 8.02798 17.3851C8.01739 17.4746 8.00983 17.5517 8.01134 17.5568C8.01286 17.5641 8.02193 17.5627 8.04764 17.5517C8.06655 17.5437 8.11042 17.5248 8.14596 17.5095C8.28284 17.4506 8.38645 17.4048 8.44469 17.3778C8.47872 17.3618 8.50897 17.3495 8.51199 17.3495C8.51577 17.3495 8.54981 17.3349 8.58762 17.3174C8.62543 17.3 8.69198 17.2701 8.73585 17.2512C8.77971 17.2323 8.85004 17.201 8.8924 17.1814C8.93475 17.1617 8.97256 17.1457 8.9771 17.1457C8.98164 17.1457 9.01491 17.1312 9.05121 17.113C9.08751 17.0948 9.12003 17.0802 9.12306 17.0802C9.12684 17.0802 9.15709 17.0671 9.19188 17.0519C9.22591 17.0366 9.29322 17.006 9.34086 16.9856C9.38851 16.9645 9.4596 16.9333 9.49741 16.9158C9.53598 16.8983 9.57077 16.8838 9.57455 16.8838C9.57833 16.8838 9.60329 16.8729 9.62976 16.859C9.65623 16.8459 9.68572 16.8328 9.69631 16.8299C9.7069 16.827 9.74244 16.8117 9.77572 16.7965C9.80899 16.7805 9.87554 16.7513 9.92319 16.7302C9.97083 16.7099 10.0389 16.68 10.0744 16.664C10.11 16.6473 10.1508 16.6306 10.1652 16.6255C10.1796 16.6204 10.2091 16.608 10.2295 16.5978C10.265 16.5811 10.349 16.544 10.532 16.4639C10.5736 16.4457 10.6318 16.4203 10.6605 16.4072C10.69 16.3941 10.7339 16.3744 10.7589 16.3642C10.7838 16.3541 10.8209 16.3373 10.8413 16.3271C10.8988 16.2988 10.9018 16.3002 10.8965 16.3577C10.8935 16.3853 10.8912 16.6677 10.8912 16.9864V17.5656L10.8519 17.5823C10.7566 17.6223 10.6409 17.6733 10.5864 17.6994C10.5539 17.7155 10.5237 17.7278 10.5199 17.7278C10.5153 17.7278 10.4806 17.7424 10.4427 17.7598C10.4042 17.7773 10.3338 17.8086 10.2862 17.8297C10.1448 17.8908 10.0525 17.9316 9.97915 17.965C9.94134 17.9825 9.90731 17.997 9.90353 17.997C9.9005 17.997 9.87025 18.0101 9.83622 18.0254C9.80294 18.0414 9.73639 18.0713 9.68875 18.0916C9.48985 18.1775 9.46262 18.1891 9.39531 18.2197C9.35674 18.2372 9.32347 18.2517 9.3212 18.2517C9.31893 18.2517 9.28868 18.2641 9.2554 18.2801C9.22137 18.2954 9.15406 18.3252 9.10642 18.3463C8.93399 18.4213 8.89769 18.438 8.81979 18.4758C8.75097 18.51 8.67913 18.5515 8.66778 18.5646C8.66552 18.5668 8.65417 18.5748 8.64207 18.5821C8.5914 18.6134 8.42351 18.7763 8.40007 18.8178C8.39628 18.8251 8.39099 18.8316 8.38797 18.8338C8.38116 18.8389 8.32746 18.9182 8.32746 18.9226C8.32746 18.9248 8.31536 18.9452 8.30099 18.9684C8.28663 18.9917 8.26923 19.0274 8.26242 19.0477C8.25562 19.0681 8.2473 19.0885 8.24352 19.0921C8.23217 19.1067 8.2057 19.1824 8.19436 19.2347C8.1747 19.3286 8.14067 19.6044 8.13083 19.7557C8.1263 19.819 8.10966 19.99 8.09378 20.1363C8.07714 20.2825 8.06201 20.4361 8.05899 20.4783C8.05596 20.5205 8.04386 20.6413 8.03176 20.7475C8.01966 20.8537 8.00756 20.9723 8.00454 21.0116L8 21.0822L8.05975 21.056C8.09226 21.0415 8.15352 21.0153 8.19512 20.9971C8.23671 20.9789 8.30175 20.9498 8.33956 20.9323C8.37813 20.9148 8.41217 20.9003 8.41595 20.9003C8.41973 20.9003 8.44847 20.8872 8.48023 20.8719C8.51199 20.8559 8.54603 20.8414 8.55586 20.8384C8.57249 20.8334 8.60123 20.821 8.76761 20.7446C8.80769 20.7264 8.84324 20.7111 8.84702 20.7111C8.85004 20.7111 8.87954 20.698 8.91357 20.6827C8.94685 20.6667 8.99298 20.6471 9.01567 20.6383C9.03836 20.6296 9.06785 20.6165 9.08071 20.6085C9.09356 20.6012 9.11776 20.5903 9.13364 20.5845C9.16238 20.575 9.23574 20.5423 9.35977 20.4855C9.39304 20.4703 9.42859 20.4557 9.43918 20.4528C9.44976 20.4499 9.48758 20.4332 9.52312 20.4157C9.55942 20.3982 9.59043 20.3837 9.59346 20.3837C9.59648 20.3837 9.62295 20.372 9.6532 20.3575C9.6827 20.3429 9.72051 20.3269 9.73639 20.3211C9.76362 20.3116 9.78328 20.3029 9.95495 20.2243C9.99957 20.204 10.0389 20.1872 10.0427 20.1872C10.0457 20.1872 10.079 20.1727 10.1153 20.1545C10.1523 20.1363 10.1864 20.1217 10.1917 20.1217C10.197 20.1217 10.2227 20.1108 10.2499 20.097C10.2771 20.0839 10.3074 20.0701 10.3172 20.0672C10.3346 20.0621 10.3951 20.0351 10.5411 19.9682C10.5743 19.9529 10.6053 19.9398 10.6091 19.9398C10.6121 19.9398 10.6424 19.9267 10.6757 19.9114C10.7831 19.8605 10.87 19.8234 10.8814 19.8234C10.8905 19.8234 10.8912 19.9078 10.8874 20.3851C10.8852 20.6944 10.8821 21.6265 10.8799 22.4552L10.8753 23.9636L10.8965 23.9549C10.9078 23.9505 10.9283 23.9389 10.9404 23.9309C10.9532 23.9221 10.985 23.904 11.0122 23.8909C11.0394 23.8778 11.072 23.8603 11.0841 23.8516C11.0969 23.8421 11.1272 23.8254 11.1521 23.813C11.1771 23.8006 11.2111 23.7824 11.227 23.7715C11.2429 23.7613 11.2595 23.7526 11.2625 23.7526C11.2663 23.7526 11.2928 23.7381 11.3223 23.7199C11.3518 23.7017 11.3782 23.6871 11.3813 23.6871C11.3843 23.6871 11.4108 23.6726 11.4395 23.6544C11.469 23.6362 11.4962 23.6216 11.5008 23.6216C11.5053 23.6216 11.5235 23.6122 11.5401 23.5998C11.5575 23.5882 11.5877 23.5707 11.6089 23.5612C11.6293 23.5511 11.6618 23.5336 11.6808 23.5205C11.7004 23.5081 11.7186 23.4979 11.7216 23.4979C11.7254 23.4979 11.7526 23.4827 11.7836 23.4645C11.8146 23.4463 11.8471 23.4281 11.8562 23.4252C11.8645 23.4215 11.8933 23.4055 11.9197 23.3895C11.9462 23.3728 11.9704 23.3597 11.9742 23.3597C11.978 23.3597 11.9991 23.3488 12.0203 23.3349C12.0422 23.3211 12.068 23.3066 12.0786 23.3029C12.0891 23.2993 12.1156 23.284 12.1383 23.2695C12.1602 23.2549 12.1806 23.2433 12.1837 23.2433C12.1867 23.2433 12.2253 23.2207 12.2691 23.1931C12.3826 23.1218 12.5036 23.0046 12.58 22.8918C12.6117 22.8453 12.6382 22.8045 12.6382 22.8016C12.6382 22.7994 12.6503 22.7732 12.6647 22.7441C12.6942 22.6844 12.7395 22.5251 12.7509 22.4407C12.7562 22.4029 12.7607 21.7516 12.7645 20.5066C12.7668 19.4749 12.7713 18.6301 12.7736 18.6301C12.7826 18.6308 12.9044 18.697 12.9694 18.7378C12.9967 18.7545 13.0224 18.7683 13.0262 18.7683C13.0292 18.7683 13.0519 18.7807 13.0753 18.7953C13.1177 18.8215 13.1411 18.8338 13.2372 18.884C13.2636 18.8971 13.2984 18.9175 13.315 18.9284C13.3445 18.9481 13.4126 18.9866 13.4845 19.023C13.5041 19.0332 13.5359 19.0521 13.5548 19.0645C13.5737 19.0769 13.5979 19.0892 13.6077 19.0921C13.6168 19.0958 13.6357 19.1052 13.6478 19.114C13.6607 19.1234 13.6932 19.1423 13.7212 19.1569C13.7491 19.1714 13.7847 19.1911 13.7998 19.2013C13.8149 19.2115 13.8308 19.2195 13.8346 19.2195C13.8384 19.2195 13.8641 19.234 13.8928 19.2522C13.9216 19.2704 13.9473 19.285 13.9511 19.285C13.9548 19.285 13.9813 19.2995 14.0093 19.3177C14.038 19.3359 14.0638 19.3504 14.0675 19.3504C14.0706 19.3504 14.0857 19.3584 14.1008 19.3686C14.1167 19.3788 14.1553 19.4006 14.187 19.4167C14.2188 19.4334 14.2506 19.4509 14.2566 19.4567C14.2627 19.4618 14.277 19.469 14.2876 19.4734C14.2982 19.477 14.3277 19.4923 14.3519 19.5076C14.3761 19.5229 14.4094 19.5418 14.4245 19.5505C14.5205 19.6007 14.5871 19.6379 14.5969 19.6459C14.603 19.6502 14.6325 19.667 14.6612 19.6815C14.6907 19.6968 14.7225 19.715 14.7323 19.7223C14.7421 19.7303 14.7535 19.7361 14.7572 19.7361C14.7618 19.7361 14.786 19.7492 14.8117 19.7652C14.8374 19.7812 14.8722 19.8016 14.8896 19.8103C14.9751 19.8554 15.0333 19.8874 15.0666 19.9093C15.087 19.9216 15.1059 19.9325 15.1089 19.9325C15.1127 19.9325 15.1377 19.9471 15.1656 19.9646C15.1936 19.9828 15.2239 19.9995 15.2322 20.0017C15.2413 20.0046 15.2685 20.0191 15.2927 20.0351C15.3176 20.0504 15.3403 20.0635 15.3441 20.0635C15.3479 20.0635 15.3638 20.0715 15.3789 20.0817C15.394 20.0912 15.4258 20.1101 15.45 20.1225C15.4734 20.1356 15.5067 20.1545 15.5233 20.1654C15.54 20.1763 15.5619 20.1879 15.571 20.1909C15.5808 20.1938 15.6035 20.2054 15.6202 20.2163C15.6375 20.2272 15.6693 20.2462 15.6905 20.2571C15.7109 20.2687 15.7464 20.2876 15.7684 20.3C15.7903 20.3116 15.8311 20.3357 15.8584 20.3531C15.8856 20.3699 15.9121 20.3837 15.9166 20.3837C15.9204 20.3837 15.9476 20.3982 15.9756 20.4164C16.0043 20.4346 16.03 20.4492 16.0331 20.4492C16.0353 20.4492 16.0648 20.4652 16.0981 20.4855C16.1314 20.5052 16.1616 20.5219 16.1654 20.5219C16.1692 20.5219 16.1828 20.5299 16.1957 20.5394C16.2085 20.5488 16.238 20.5656 16.2607 20.5765C16.2834 20.5874 16.3159 20.6056 16.3326 20.6165C16.3492 20.6274 16.3749 20.642 16.3893 20.6485C16.4036 20.6551 16.4309 20.6696 16.4498 20.682C16.4687 20.6936 16.4921 20.7075 16.5027 20.7111C16.5133 20.7155 16.539 20.7308 16.5609 20.7446C16.5821 20.7584 16.6033 20.7693 16.6071 20.7693C16.6109 20.7693 16.6373 20.7839 16.6661 20.8021C16.6948 20.8195 16.7213 20.8348 16.7243 20.8348C16.7273 20.8348 16.753 20.8494 16.7818 20.8676C16.8105 20.8857 16.8362 20.9003 16.84 20.9003C16.8438 20.9003 16.8589 20.9076 16.8733 20.917C16.9103 20.9396 17.014 20.9978 17.0586 21.0211C17.0797 21.032 17.1138 21.0509 17.1342 21.064C17.1554 21.0764 17.1955 21.1004 17.2242 21.1157C17.2529 21.131 17.2945 21.1535 17.3165 21.1659C17.3384 21.1775 17.3792 21.2001 17.408 21.2161C17.4359 21.2314 17.473 21.2532 17.4896 21.2634C17.5063 21.2743 17.5388 21.2925 17.5615 21.3034C17.5842 21.315 17.6084 21.3281 17.6144 21.3332C17.6205 21.3383 17.6409 21.3507 17.6598 21.3609C17.6787 21.3703 17.7211 21.3922 17.7543 21.4096C17.7876 21.4271 17.8254 21.4482 17.8375 21.4569C17.8504 21.4657 17.8791 21.4817 17.9018 21.4933C17.9245 21.5042 17.954 21.521 17.9668 21.5304C17.9797 21.5399 17.9933 21.5479 17.9971 21.5479C18.0009 21.5479 18.0311 21.5646 18.0644 21.5843C18.0977 21.6046 18.1272 21.6206 18.1302 21.6206C18.1325 21.6206 18.1559 21.6337 18.1809 21.6498C18.2058 21.6658 18.2293 21.6789 18.2331 21.6789C18.2368 21.6789 18.2595 21.6912 18.2845 21.7065C18.3344 21.7371 18.4123 21.7815 18.4713 21.8113C18.4925 21.8222 18.5235 21.8404 18.5401 21.8513C18.5575 21.8622 18.5885 21.8797 18.6089 21.8899C18.6445 21.9081 18.6815 21.9284 18.7806 21.9852C18.832 22.015 18.8955 22.05 18.922 22.0638C18.9326 22.0689 18.9629 22.0863 18.9886 22.1016C19.0143 22.1176 19.0385 22.13 19.0415 22.13C19.0453 22.13 19.0665 22.1424 19.0907 22.1576C19.1141 22.1722 19.1572 22.1977 19.1875 22.2137C19.2389 22.2413 19.2654 22.2559 19.3395 22.2973C19.3569 22.3075 19.3864 22.3235 19.4038 22.3337C19.4363 22.3512 19.5021 22.3883 19.6412 22.4662C19.679 22.4873 19.7221 22.5113 19.738 22.5193C19.7532 22.5273 19.7842 22.5455 19.8068 22.5586C19.8295 22.5724 19.8605 22.5906 19.8764 22.5986C19.9067 22.6146 19.9884 22.6597 20.1063 22.7266C20.1441 22.7477 20.1903 22.7732 20.2099 22.7841C20.3014 22.8336 20.3514 22.862 20.3861 22.8838C20.4073 22.8976 20.4277 22.9086 20.4323 22.9086C20.4361 22.9086 20.4625 22.9231 20.4913 22.9413C20.5193 22.9588 20.5495 22.9755 20.5571 22.9777C20.5654 22.9806 20.5926 22.9951 20.6168 23.0112C20.6418 23.0264 20.6645 23.0395 20.6682 23.0395C20.6728 23.0395 20.6924 23.0504 20.7129 23.0643C20.7333 23.0781 20.7688 23.0977 20.7915 23.1087C20.8142 23.1196 20.8429 23.1363 20.855 23.145C20.8679 23.1538 20.8928 23.1683 20.9118 23.1771C20.9307 23.1865 20.9602 23.2032 20.9775 23.2142C20.9942 23.2251 21.0154 23.2367 21.0237 23.2389C21.032 23.2418 21.0623 23.2585 21.0902 23.276C21.119 23.2942 21.1447 23.3088 21.1477 23.3088C21.1515 23.3088 21.1719 23.3204 21.1938 23.3342C21.215 23.348 21.2362 23.3597 21.24 23.3597C21.243 23.3597 21.2687 23.3742 21.2967 23.3917C21.3239 23.4092 21.3549 23.4259 21.3648 23.4288C21.3746 23.4317 21.4003 23.4463 21.4207 23.4601C21.4419 23.4747 21.4744 23.4936 21.4933 23.503C21.5122 23.5118 21.5591 23.5372 21.5962 23.5591C21.634 23.5809 21.6847 23.6093 21.7096 23.6216C21.7346 23.634 21.7656 23.6522 21.7777 23.6609C21.7905 23.6704 21.8155 23.6849 21.8344 23.6937C21.8699 23.7104 21.9667 23.7642 22.0212 23.7984C22.0393 23.8094 22.056 23.8181 22.0598 23.8181C22.0628 23.8181 22.084 23.8297 22.1067 23.8443C22.1293 23.8588 22.1588 23.8756 22.1709 23.8814C22.1838 23.8865 22.2088 23.901 22.2277 23.9127C22.2466 23.9251 22.2753 23.9411 22.2919 23.9491C22.3086 23.9571 22.3358 23.9724 22.3532 23.9818L22.3842 24L22.3887 23.7104C22.3918 23.5518 22.394 23.1967 22.394 22.9224C22.394 22.3905 22.3925 22.3687 22.3555 22.2442C22.3471 22.2151 22.3358 22.1773 22.3305 22.1591C22.3169 22.1147 22.242 21.9728 22.2133 21.9379C22.2004 21.9226 22.1898 21.9066 22.1898 21.9022C22.1898 21.8942 22.0794 21.7735 22.0492 21.748C21.9902 21.6985 21.9705 21.6832 21.9373 21.6592C21.9161 21.6447 21.8805 21.6236 21.8578 21.6112C21.8344 21.5988 21.8049 21.5814 21.792 21.5719C21.7792 21.5624 21.7656 21.5552 21.7618 21.5552C21.758 21.5552 21.73 21.5406 21.6998 21.5224C21.6695 21.5042 21.6423 21.4897 21.6385 21.4897C21.6355 21.4897 21.6189 21.4802 21.6022 21.4686C21.5848 21.4569 21.5531 21.438 21.5311 21.4271C21.5084 21.4162 21.4767 21.3987 21.46 21.3878C21.4434 21.3776 21.4245 21.3667 21.4185 21.3645C21.4124 21.3623 21.3814 21.3456 21.3504 21.3267C21.3194 21.3085 21.2914 21.2932 21.2884 21.2932C21.2854 21.2932 21.2596 21.2787 21.2317 21.2605C21.2037 21.2423 21.1772 21.2277 21.1734 21.2277C21.1689 21.2277 21.1454 21.2146 21.1205 21.1986C21.0963 21.1826 21.0728 21.1695 21.0698 21.1695C21.066 21.1695 21.0433 21.1571 21.0199 21.1419C20.9957 21.1273 20.9602 21.1069 20.9405 21.0968C20.8921 21.072 20.8081 21.0262 20.7756 21.0058C20.7613 20.9963 20.7295 20.9789 20.706 20.9665C20.6818 20.9541 20.6501 20.9352 20.635 20.9258C20.6198 20.9156 20.604 20.9076 20.6002 20.9076C20.5964 20.9076 20.5707 20.8937 20.5427 20.8763C20.5147 20.8595 20.4822 20.8399 20.4693 20.8334C20.3498 20.7693 20.3158 20.7504 20.2992 20.738C20.2886 20.7308 20.2689 20.7198 20.2553 20.7147C20.2417 20.7089 20.213 20.6936 20.191 20.6806C20.1699 20.6675 20.1419 20.6507 20.129 20.6442C20.1078 20.6325 20.092 20.6238 20.0148 20.5801C19.9974 20.57 19.9581 20.5488 19.9286 20.5328C19.8984 20.5168 19.8575 20.4928 19.8371 20.4805C19.8167 20.4674 19.7978 20.4564 19.7955 20.4564C19.7925 20.4564 19.7653 20.4419 19.735 20.4237C19.7055 20.4055 19.6783 20.391 19.6753 20.391C19.6715 20.391 19.6503 20.3786 19.6276 20.364C19.6042 20.3495 19.5686 20.3298 19.549 20.3204C19.5285 20.3109 19.4983 20.2935 19.4809 20.2818C19.4643 20.2694 19.4469 20.26 19.4431 20.26C19.4393 20.26 19.4121 20.2454 19.3833 20.2272C19.3546 20.209 19.3281 20.1945 19.3251 20.1945C19.3221 20.1945 19.2964 20.1799 19.2676 20.1617C19.2396 20.1443 19.2094 20.1276 19.2003 20.1246C19.1912 20.1225 19.1784 20.1159 19.1723 20.1108C19.1602 20.1006 19.0491 20.0388 18.9734 19.9995C18.9477 19.9857 18.916 19.9675 18.9024 19.9573C18.8895 19.9478 18.8751 19.9398 18.8721 19.9398C18.8683 19.9398 18.8403 19.9253 18.8101 19.9071C18.7798 19.8889 18.7526 19.8743 18.7503 19.8743C18.7473 19.8743 18.7299 19.8641 18.711 19.8518C18.6921 19.8401 18.6573 19.8198 18.6331 19.8081C18.6082 19.7958 18.5749 19.7768 18.5582 19.7652C18.5318 19.7463 18.5295 19.7426 18.5416 19.7383C18.5499 19.7361 18.5749 19.7215 18.5983 19.707C18.6218 19.6924 18.6505 19.6764 18.6626 19.6728C18.6747 19.6684 18.705 19.6517 18.7292 19.6349C18.7541 19.6189 18.7776 19.6051 18.7821 19.6051C18.7866 19.6051 18.8025 19.5978 18.8169 19.5884C18.8615 19.5607 19.0234 19.4712 19.1353 19.4123C19.1686 19.3948 19.2253 19.3635 19.2843 19.3293C19.3077 19.3162 19.3448 19.2959 19.3652 19.285C19.3864 19.274 19.4196 19.2551 19.4401 19.242C19.4612 19.2297 19.4809 19.2195 19.4839 19.2195C19.4877 19.2195 19.5006 19.2129 19.5127 19.2049C19.5255 19.1969 19.5444 19.1845 19.5565 19.1765C19.5679 19.1693 19.586 19.1605 19.5958 19.1576C19.6064 19.1547 19.6253 19.1445 19.6374 19.1358C19.6503 19.1263 19.6821 19.1081 19.7093 19.0958C19.7365 19.0827 19.7637 19.0674 19.7698 19.0623C19.7819 19.0528 19.8658 19.0063 19.9324 18.9721C19.9536 18.9619 19.9906 18.9408 20.0148 18.9255C20.0398 18.9102 20.0655 18.8964 20.0715 18.8942C20.0783 18.8913 20.1078 18.8753 20.1373 18.8586C20.1668 18.8411 20.1941 18.8265 20.1978 18.8265C20.2016 18.8265 20.2251 18.8135 20.25 18.7974C20.275 18.7814 20.2977 18.7683 20.3007 18.7683C20.3045 18.7683 20.3309 18.7538 20.3612 18.7356C20.3914 18.7174 20.4187 18.7029 20.4209 18.7029C20.424 18.7029 20.4512 18.6883 20.4814 18.6701C20.5117 18.6519 20.5397 18.6374 20.5427 18.6374C20.5457 18.6374 20.5722 18.6228 20.6009 18.6046C20.6297 18.5864 20.6569 18.5719 20.6607 18.5719C20.6645 18.5719 20.6811 18.5631 20.697 18.553C20.7257 18.534 20.8157 18.4838 20.8777 18.4518C20.8944 18.4438 20.9284 18.4242 20.9526 18.4089C20.9768 18.3936 21.0048 18.3791 21.0139 18.3754C21.0229 18.3718 21.0494 18.3572 21.0728 18.3434C21.0963 18.3288 21.1243 18.3136 21.1356 18.3099C21.147 18.3056 21.1659 18.2954 21.178 18.2874C21.2014 18.2714 21.2831 18.2255 21.3474 18.1935C21.3685 18.1826 21.4018 18.1637 21.4207 18.1506C21.4396 18.1382 21.4646 18.1244 21.4767 18.12C21.488 18.1157 21.5153 18.1011 21.5364 18.0873C21.5584 18.0742 21.5841 18.0596 21.5939 18.056C21.6045 18.0523 21.634 18.0356 21.6605 18.0196C21.6869 18.0029 21.7104 17.9898 21.7142 17.9898C21.7172 17.9898 21.7444 17.9752 21.7747 17.957C21.8049 17.9388 21.8321 17.9243 21.8352 17.9243C21.8374 17.9243 21.8631 17.9097 21.8919 17.8915C21.9199 17.8734 21.9471 17.8588 21.9524 17.8588C21.9569 17.8588 21.9781 17.8479 21.9985 17.8341C22.0189 17.8202 22.056 17.7991 22.0809 17.7868C22.1051 17.7737 22.1377 17.7569 22.152 17.7482C22.1664 17.7402 22.2065 17.7176 22.2405 17.698C22.2745 17.6783 22.3048 17.6623 22.3071 17.6623C22.3101 17.6623 22.332 17.6507 22.3555 17.6369L22.3993 17.6107L22.4039 17.2563C22.4069 17.0613 22.4092 16.509 22.4092 16.0288C22.4092 15.5486 22.4114 15.0363 22.4145 14.8901L22.4198 14.6245L22.4931 14.5896C22.5339 14.5706 22.571 14.5554 22.5763 14.5554C22.5808 14.5554 22.6111 14.5423 22.6429 14.527C22.6746 14.511 22.7397 14.4811 22.7873 14.4608C22.9053 14.4098 23.0119 14.3633 23.0951 14.3254C23.1337 14.308 23.17 14.2934 23.1753 14.2934C23.1806 14.2934 23.1911 14.289 23.1995 14.2832C23.2078 14.2781 23.2403 14.2629 23.2713 14.2505C23.3023 14.2374 23.3522 14.2163 23.381 14.2025C23.4105 14.1894 23.4732 14.161 23.5209 14.1406C23.5685 14.1195 23.6396 14.0882 23.6782 14.0708C23.716 14.0533 23.7523 14.0387 23.7576 14.0387C23.7621 14.0387 23.7818 14.03 23.8007 14.0198C23.8196 14.0096 23.8551 13.9929 23.8801 13.9827C23.9323 13.9616 24.0238 13.9209 24.1221 13.8743C24.1599 13.8568 24.1932 13.8423 24.1962 13.8423C24.1992 13.8423 24.2197 13.8299 24.2416 13.8146C24.2635 13.7986 24.29 13.7819 24.3013 13.7761C24.3399 13.7564 24.4579 13.656 24.5131 13.5949C24.5902 13.5105 24.6311 13.4566 24.678 13.3766C24.7506 13.2529 24.8088 13.0644 24.8179 12.9291C24.8201 12.8847 24.8345 12.7465 24.8489 12.6206C24.8633 12.4954 24.8799 12.3317 24.8859 12.2568C24.892 12.1826 24.9086 12.013 24.923 11.8813C24.9374 11.7489 24.9517 11.6085 24.954 11.5684C24.957 11.5284 24.9653 11.4411 24.9722 11.3734C24.9812 11.2912 24.9827 11.2519 24.9774 11.2519C24.9699 11.2519 24.8965 11.2839 24.7332 11.3581C24.6954 11.3756 24.6613 11.3902 24.6583 11.3902C24.6553 11.3902 24.6258 11.4033 24.5918 11.4185C24.5585 11.4346 24.4912 11.4637 24.4435 11.4848C24.3959 11.5051 24.3331 11.5328 24.3036 11.5466C24.2749 11.5597 24.2318 11.5779 24.2091 11.5866C24.1864 11.5954 24.1607 11.6063 24.1516 11.6121C24.1425 11.6172 24.1138 11.6303 24.0873 11.6412C24.0609 11.6521 24.0185 11.6696 23.9935 11.6812C23.9686 11.6921 23.9088 11.7183 23.8612 11.7394C23.8136 11.7605 23.7432 11.7918 23.7054 11.8093C23.6668 11.8267 23.6328 11.8413 23.629 11.8413C23.6245 11.8413 23.5905 11.8558 23.5526 11.874C23.5148 11.8922 23.4816 11.9068 23.4785 11.9068C23.4755 11.9068 23.4453 11.9199 23.412 11.9352C23.3779 11.9512 23.3114 11.981 23.2637 12.0014C23.2161 12.0225 23.1458 12.0538 23.108 12.0712C23.0701 12.0887 23.0354 12.1032 23.0308 12.1032C23.0263 12.1032 22.996 12.1163 22.9635 12.1316C22.931 12.1476 22.8652 12.1775 22.8175 12.1978C22.7064 12.2459 22.5944 12.2953 22.5249 12.3266C22.4946 12.3405 22.4598 12.3543 22.447 12.3579L22.4243 12.3645V11.7824C22.4243 11.3996 22.422 11.201 22.4167 11.201C22.4129 11.201 22.4092 11.1973 22.4092 11.1937C22.4092 11.1893 22.4145 11.1864 22.4205 11.1864C22.4273 11.1864 22.4583 11.1741 22.4908 11.1581C22.5226 11.1428 22.5574 11.1275 22.568 11.1246C22.5786 11.1217 22.6126 11.1071 22.6444 11.0918C22.6754 11.0766 22.7094 11.062 22.72 11.0591C22.7298 11.0562 22.7586 11.0438 22.7835 11.0322C22.8085 11.0198 22.8417 11.006 22.8576 11.0002C22.8728 10.9951 22.9106 10.9791 22.9408 10.9652C22.9907 10.9427 23.0633 10.9107 23.2335 10.8372C23.269 10.8219 23.3356 10.7928 23.381 10.7724C23.4271 10.752 23.4672 10.7353 23.4695 10.7353C23.4725 10.7353 23.5065 10.7207 23.5458 10.7026C23.5852 10.6844 23.6207 10.6698 23.6252 10.6698C23.6298 10.6698 23.6623 10.6553 23.6994 10.6371C23.7357 10.6189 23.7697 10.6043 23.775 10.6043C23.7803 10.6043 23.8151 10.5898 23.8514 10.5716C23.8877 10.5534 23.9225 10.5388 23.9293 10.5388C23.9361 10.5388 23.9444 10.5359 23.9489 10.5323C23.9527 10.5287 23.9845 10.5141 24.02 10.4988C24.0556 10.4843 24.1085 10.461 24.1372 10.4479C24.1667 10.4341 24.2091 10.4151 24.2318 10.4042C24.3361 10.3569 24.4397 10.2856 24.5297 10.1998C24.5993 10.1328 24.6076 10.1219 24.6651 10.0404C24.7249 9.95528 24.746 9.91962 24.7619 9.8796C24.771 9.85559 24.7808 9.83304 24.7838 9.8294C24.8217 9.77628 24.8693 9.47795 24.8859 9.18908C24.889 9.14106 24.9026 8.99699 24.9169 8.86893C24.9313 8.74086 24.9464 8.59024 24.9502 8.53422C24.957 8.4469 24.988 8.14784 24.9986 8.0729C25.0016 8.05252 25.0001 8.04961 24.9895 8.05252C24.9684 8.05835 24.8973 8.08745 24.8391 8.11292C24.8096 8.12602 24.7702 8.1413 24.7521 8.14712C24.7339 8.15367 24.6938 8.16967 24.6628 8.1835C24.6318 8.19732 24.5978 8.21115 24.5872 8.21406C24.5766 8.21697 24.5403 8.23152 24.5055 8.24753C24.4707 8.26281 24.4397 8.27591 24.4352 8.27591C24.4314 8.27591 24.3906 8.29192 24.3445 8.31229C24.2983 8.33193 24.2575 8.34867 24.2545 8.34867C24.2507 8.34867 24.2159 8.36322 24.1773 8.38141C24.1387 8.3996 24.1024 8.41416 24.0979 8.41416C24.0926 8.41416 24.0639 8.42507 24.0336 8.4389C23.9739 8.46582 23.8869 8.5022 23.8272 8.52476C23.8067 8.53276 23.7727 8.54659 23.7515 8.55604C23.7311 8.56478 23.6933 8.58006 23.6683 8.58879C23.6434 8.59825 23.5995 8.61644 23.57 8.62954C23.5413 8.64263 23.4914 8.66373 23.4604 8.67683C23.3643 8.7154 23.2925 8.74596 23.2448 8.76706C23.2199 8.77797 23.1874 8.79107 23.173 8.79616C23.1586 8.80126 23.1246 8.81508 23.0974 8.82745C23.0391 8.85365 22.9408 8.89512 22.8667 8.9235C22.838 8.93514 22.7933 8.95479 22.7691 8.96643C22.7442 8.9788 22.7207 8.98898 22.7162 8.98898C22.7117 8.98898 22.6769 9.00354 22.6398 9.021C22.602 9.03846 22.5634 9.0552 22.5529 9.05811C22.5423 9.06102 22.512 9.07412 22.4848 9.08722C22.4576 9.09958 22.422 9.11487 22.4054 9.11996C22.3887 9.12505 22.3487 9.14179 22.3169 9.15707C22.2844 9.17308 22.2541 9.18545 22.2496 9.18545C22.2451 9.18545 22.2148 9.19781 22.183 9.21382C22.1513 9.2291 22.1172 9.24438 22.1067 9.24729C22.0961 9.2502 22.0643 9.26403 22.0348 9.27785C22.0061 9.29168 21.9599 9.31133 21.9327 9.32151C21.9055 9.3317 21.8737 9.34552 21.8609 9.3528C21.8488 9.36008 21.8299 9.36808 21.8193 9.37099C21.8087 9.3739 21.7656 9.39209 21.7232 9.41174C21.6801 9.43138 21.6423 9.44739 21.6385 9.44739C21.6317 9.44739 21.5705 9.47504 21.4071 9.54999C21.3731 9.566 21.3428 9.57837 21.339 9.57837C21.3353 9.57837 21.3111 9.58782 21.2861 9.60019C21.2611 9.61184 21.2173 9.63075 21.1878 9.6424C21.1591 9.65477 21.0955 9.68096 21.0479 9.70206C21.0002 9.72244 20.9405 9.7479 20.9155 9.75809C20.8906 9.76755 20.8422 9.78865 20.8081 9.80466C20.7749 9.81994 20.7439 9.83304 20.7401 9.83304C20.7371 9.83304 20.7068 9.84613 20.6735 9.86214C20.6403 9.87815 20.61 9.89125 20.607 9.89125C20.604 9.89125 20.5654 9.90725 20.5223 9.92763C20.4792 9.94727 20.4398 9.96401 20.4361 9.96401C20.4315 9.96401 20.399 9.97783 20.3642 9.99457L20.3007 10.0244L20.2568 9.99603C20.2319 9.98002 20.2069 9.96474 20.1994 9.96255C20.1925 9.95964 20.1646 9.94436 20.1366 9.92836C20.1086 9.91162 20.0844 9.89852 20.0821 9.89852C20.0799 9.89852 20.0587 9.88615 20.036 9.8716C20.0126 9.85705 19.977 9.8374 19.9573 9.82794C19.9369 9.81848 19.9067 9.80102 19.8893 9.78938C19.8726 9.77701 19.8552 9.76755 19.8515 9.76755C19.8477 9.76755 19.8235 9.75445 19.797 9.73844C19.7705 9.72244 19.7463 9.70934 19.7433 9.70934C19.7403 9.70934 19.7146 9.69479 19.6874 9.67732C19.6601 9.66059 19.6299 9.64385 19.6208 9.64094C19.6117 9.63803 19.5913 9.62712 19.5754 9.61693C19.5444 9.59656 19.4431 9.53907 19.3765 9.50415C19.3538 9.49178 19.3243 9.47431 19.3107 9.46486C19.2979 9.4554 19.2835 9.44739 19.2805 9.44739C19.2767 9.44739 19.2487 9.43284 19.2185 9.41465C19.1882 9.39646 19.161 9.38191 19.158 9.38191C19.1557 9.38191 19.1345 9.37026 19.1118 9.35571C19.0891 9.34116 19.0513 9.32006 19.0286 9.30914C19.006 9.2975 18.9757 9.28004 18.9613 9.26985C18.947 9.25966 18.9311 9.25093 18.9273 9.25093C18.9228 9.25093 18.8955 9.23638 18.8676 9.21819C18.8388 9.2 18.8131 9.18545 18.8093 9.18545C18.8063 9.18545 18.7912 9.17744 18.7761 9.16725C18.7609 9.15707 18.7254 9.13742 18.6974 9.12287C18.6694 9.10832 18.6377 9.09013 18.6271 9.08285C18.6157 9.07557 18.5983 9.06611 18.587 9.06175C18.5756 9.05811 18.5461 9.04137 18.5212 9.02537C18.4962 9.00936 18.4728 8.99626 18.4698 8.99626C18.466 8.99626 18.4509 8.98826 18.4357 8.97807C18.4206 8.96788 18.3851 8.94824 18.3571 8.93369C18.3291 8.91913 18.2981 8.90167 18.2875 8.89439C18.2709 8.88421 18.2134 8.85146 18.1325 8.80853C18.1204 8.80198 18.0909 8.78525 18.0682 8.77142C18.0455 8.7576 18.0115 8.73868 17.9926 8.72922C17.9737 8.71976 17.9283 8.69429 17.8905 8.67247C17.8534 8.65064 17.8035 8.62371 17.7808 8.61134C17.7581 8.5997 17.7211 8.5786 17.6991 8.56478C17.678 8.55022 17.6522 8.5364 17.6432 8.53349C17.6265 8.52839 17.6167 8.5233 17.5638 8.48838C17.5501 8.47964 17.5365 8.47237 17.5328 8.47237C17.529 8.47237 17.5055 8.45927 17.4813 8.44326C17.4564 8.42725 17.4329 8.41416 17.4291 8.41416C17.4246 8.41416 17.4027 8.40251 17.38 8.38796C17.3573 8.37341 17.3165 8.35013 17.2892 8.33557C17.262 8.32175 17.231 8.30428 17.2197 8.29701C17.2091 8.289 17.1962 8.28318 17.1924 8.28318C17.1886 8.28318 17.1682 8.27227 17.1478 8.25844C17.1274 8.24462 17.0926 8.22497 17.0707 8.21406C17.0487 8.20387 17.017 8.18495 16.9996 8.17331C16.9829 8.16167 16.9663 8.15221 16.9633 8.15221C16.9595 8.15221 16.9323 8.13766 16.902 8.12019C16.8718 8.10273 16.8377 8.08381 16.8264 8.07872C16.8158 8.0729 16.7803 8.05325 16.7485 8.03361C16.6918 7.99941 16.6736 7.99359 16.6661 8.00596ZM16.7523 10.1306C16.7712 10.143 16.7893 10.1532 16.7924 10.1532C16.7954 10.1532 16.8211 10.1677 16.8498 10.1859C16.8786 10.2041 16.9043 10.2187 16.9073 10.2187C16.9134 10.2187 17.02 10.2783 17.085 10.3169C17.1123 10.3336 17.1849 10.3737 17.256 10.4115C17.3323 10.4522 17.3989 10.4901 17.4102 10.4988C17.4163 10.5039 17.4488 10.5214 17.4821 10.5388C17.5154 10.5556 17.5532 10.5774 17.566 10.5869C17.5789 10.5963 17.5933 10.6043 17.5985 10.6043C17.6031 10.6043 17.6303 10.6181 17.6583 10.6356C17.6863 10.6523 17.7195 10.672 17.7316 10.6785C17.7445 10.6851 17.7831 10.7062 17.8186 10.7251C17.8542 10.744 17.8935 10.7666 17.9056 10.7753C17.9184 10.784 17.9464 10.8001 17.9691 10.811C17.9918 10.8226 18.019 10.8372 18.0296 10.8437C18.0652 10.867 18.1809 10.9318 18.1862 10.9318C18.1892 10.9318 18.2089 10.9434 18.2308 10.9572C18.2527 10.9703 18.2883 10.9914 18.311 11.0031C18.3336 11.014 18.3828 11.0409 18.4199 11.0627C18.4577 11.0838 18.5015 11.1086 18.5182 11.1173C18.5348 11.126 18.5635 11.142 18.5817 11.153C18.5998 11.1646 18.6324 11.1828 18.6535 11.1937C18.6914 11.2126 18.7496 11.2461 18.8169 11.2854C18.8358 11.297 18.8691 11.3152 18.8918 11.3261C18.9145 11.3378 18.9439 11.3552 18.9576 11.3647C18.9712 11.3749 18.9848 11.3829 18.9886 11.3829C18.9923 11.3829 19.0196 11.3974 19.0498 11.4156C19.0801 11.4338 19.1073 11.4484 19.1111 11.4484C19.1149 11.4484 19.136 11.46 19.158 11.4746C19.1807 11.4891 19.2177 11.5102 19.2404 11.5211C19.2631 11.5328 19.2933 11.5502 19.3077 11.5604C19.3221 11.5706 19.338 11.5793 19.3417 11.5793C19.3463 11.5793 19.3728 11.5939 19.4007 11.6114C19.4287 11.6296 19.459 11.6463 19.468 11.6485C19.4771 11.6514 19.4983 11.663 19.5157 11.6739C19.5459 11.6936 19.614 11.7314 19.6858 11.7685C19.7055 11.7787 19.7373 11.7976 19.7562 11.81C19.7751 11.8224 19.7993 11.8347 19.8091 11.8377C19.8182 11.8413 19.8371 11.8508 19.8492 11.8595C19.8621 11.8689 19.8976 11.89 19.9286 11.9068C19.9596 11.9242 20.0118 11.9534 20.0443 11.9715C20.0761 11.9897 20.1192 12.013 20.1388 12.0232C20.1585 12.0334 20.1933 12.0523 20.216 12.0661C20.2387 12.08 20.2704 12.0981 20.2856 12.1062C20.337 12.1338 20.4156 12.1775 20.4542 12.2007C20.4754 12.2131 20.5026 12.2284 20.5147 12.2342L20.5374 12.2459L20.5351 14.2934C20.5344 15.4198 20.5314 16.3912 20.5291 16.4516L20.5245 16.5614L20.4973 16.5738C20.4814 16.5811 20.4572 16.5942 20.4429 16.6029C20.4149 16.6204 20.3355 16.6655 20.2833 16.6924C20.2659 16.7011 20.2288 16.7215 20.2009 16.7375C20.1721 16.7543 20.1472 16.7674 20.1449 16.7674C20.1426 16.7674 20.1192 16.7805 20.092 16.7972C20.0428 16.8263 20.0247 16.8365 19.9347 16.883C19.9082 16.8961 19.8696 16.9187 19.8484 16.9318C19.8273 16.9456 19.8068 16.9565 19.8031 16.9565C19.7993 16.9565 19.7834 16.9645 19.7683 16.9747C19.7532 16.9849 19.7259 17.0002 19.7078 17.0097C19.6722 17.0278 19.5845 17.0766 19.524 17.1115C19.5036 17.1232 19.4658 17.1435 19.4408 17.1566C19.4159 17.169 19.3818 17.1887 19.3659 17.1988C19.3501 17.2098 19.3334 17.2185 19.3296 17.2185C19.3251 17.2185 19.313 17.2243 19.3024 17.2323C19.2911 17.2396 19.2586 17.2578 19.2291 17.2731C19.2003 17.2876 19.1708 17.3043 19.1648 17.3094C19.1587 17.3145 19.1315 17.3291 19.1043 17.3422C19.077 17.3553 19.0498 17.3698 19.0438 17.3757C19.037 17.3807 19.0067 17.3982 18.9757 17.4135C18.9439 17.4295 18.9054 17.4506 18.8895 17.4615C18.8736 17.4717 18.857 17.4804 18.8532 17.4804C18.8487 17.4804 18.8366 17.4863 18.826 17.4943C18.8146 17.5015 18.7866 17.5175 18.764 17.5299C18.7413 17.5416 18.7027 17.5627 18.6793 17.5758C18.6218 17.6092 18.5688 17.6383 18.5023 17.6733C18.4728 17.6893 18.4433 17.706 18.4372 17.7111C18.432 17.7155 18.4115 17.7264 18.3934 17.7351C18.3745 17.7431 18.3442 17.7591 18.3261 17.77C18.283 17.7962 18.2331 17.8231 18.1778 17.8515C18.1529 17.8646 18.1158 17.8857 18.0947 17.8995C18.0742 17.9126 18.0485 17.9265 18.0379 17.9301C18.0274 17.9337 18.0009 17.949 17.9789 17.9629C17.9578 17.9774 17.9321 17.9912 17.923 17.9941C17.9132 17.997 17.8973 18.0043 17.8867 18.0116C17.83 18.0487 17.8058 18.0625 17.7982 18.0625C17.7944 18.0625 17.7785 18.0705 17.7642 18.0793C17.7498 18.0887 17.7158 18.1084 17.6885 18.1229C17.6613 18.1375 17.6258 18.1579 17.6106 18.168C17.5948 18.1782 17.5781 18.1862 17.5728 18.1862C17.5675 18.1862 17.5403 18.2008 17.5116 18.219C17.4836 18.2372 17.4571 18.2517 17.4533 18.2517C17.4496 18.2517 17.4254 18.2648 17.3996 18.2808C17.3543 18.3092 17.3384 18.3179 17.2423 18.3674C17.2159 18.3805 17.1781 18.4023 17.1569 18.4162C17.1365 18.4293 17.1108 18.4431 17.1002 18.4467C17.0896 18.4504 17.0631 18.4656 17.0412 18.4795C17.02 18.494 16.9943 18.5078 16.9845 18.5108C16.9754 18.5129 16.9474 18.5282 16.9224 18.5435C16.8975 18.5588 16.8627 18.5792 16.8453 18.5879C16.8279 18.5973 16.7954 18.6141 16.7735 18.6257C16.7515 18.6366 16.7145 18.6592 16.691 18.6745L16.6479 18.7021L16.6018 18.673C16.5768 18.6577 16.5549 18.6446 16.5526 18.6446C16.5488 18.6446 16.446 18.5864 16.3779 18.545C16.353 18.5297 16.3242 18.5144 16.3136 18.51C16.2902 18.5013 16.1972 18.4489 16.1367 18.4103C16.1117 18.3951 16.089 18.3827 16.0845 18.3827C16.0807 18.3827 16.0542 18.3681 16.0263 18.3499C15.9983 18.3318 15.9718 18.3172 15.9688 18.3172C15.965 18.3172 15.9348 18.3005 15.9015 18.2808C15.8682 18.2605 15.838 18.2444 15.8342 18.2444C15.8304 18.2444 15.816 18.2364 15.8032 18.227C15.7896 18.2168 15.7585 18.1993 15.7343 18.187C15.7101 18.1753 15.6784 18.1571 15.664 18.1469C15.6496 18.136 15.6338 18.128 15.63 18.128C15.6254 18.128 15.599 18.1135 15.571 18.096C15.543 18.0778 15.5135 18.0618 15.5052 18.0589C15.4969 18.0567 15.4674 18.04 15.4394 18.0225C15.4107 18.0043 15.3842 17.9898 15.3804 17.9898C15.3759 17.9898 15.3555 17.9789 15.3343 17.965C15.2972 17.941 15.2208 17.8981 15.1649 17.8697C15.1498 17.8617 15.118 17.8442 15.0953 17.8304C15.0734 17.8166 15.0409 17.7984 15.0242 17.7897C14.9788 17.7657 14.8851 17.7133 14.8472 17.69C14.8283 17.6791 14.8109 17.6696 14.8072 17.6696C14.8034 17.6696 14.7792 17.6558 14.7535 17.6398C14.7278 17.623 14.6998 17.607 14.6907 17.6041C14.6816 17.6005 14.6544 17.5859 14.6302 17.5707C14.5841 17.5416 14.5621 17.5299 14.482 17.4884C14.4555 17.4753 14.4177 17.4535 14.3965 17.4411C14.3761 17.4288 14.3489 17.4128 14.336 17.4062C14.3148 17.3946 14.299 17.3858 14.2218 17.3422C14.2044 17.332 14.1651 17.3109 14.1356 17.2949C14.1053 17.2789 14.0645 17.2549 14.0441 17.2418C14.0237 17.2294 14.0055 17.2185 14.0033 17.2185C14.001 17.2185 13.9738 17.2039 13.9435 17.1857C13.9125 17.1676 13.8845 17.153 13.8822 17.153C13.8792 17.153 13.8558 17.1399 13.8301 17.1239C13.8044 17.1079 13.7696 17.0875 13.7522 17.0788C13.7348 17.0693 13.6856 17.0424 13.6433 17.0184C13.6002 16.9944 13.5502 16.966 13.5313 16.9558C13.5124 16.9456 13.4814 16.9282 13.4625 16.9158C13.4436 16.9041 13.4202 16.8911 13.4096 16.8874C13.399 16.883 13.3755 16.8707 13.3566 16.8598C13.2803 16.8146 13.2296 16.7863 13.1903 16.7652C13.1676 16.7535 13.1343 16.7339 13.1169 16.723C13.0995 16.7113 13.0829 16.7019 13.0791 16.7019C13.0753 16.7019 13.0473 16.6873 13.0171 16.6691C12.9868 16.6509 12.9596 16.6364 12.9566 16.6364C12.9543 16.6364 12.9384 16.6276 12.9218 16.616C12.9052 16.6051 12.8658 16.5833 12.8348 16.5665L12.7781 16.5374V16.0426C12.7781 15.7712 12.7819 14.8028 12.7864 13.891C12.794 12.2706 12.7947 12.2335 12.8091 12.2233C12.8167 12.2175 12.8431 12.2022 12.8673 12.1891C12.8915 12.176 12.9286 12.1549 12.9505 12.1418C12.9725 12.1294 13.0072 12.1105 13.0277 12.1003C13.0488 12.0901 13.0844 12.0705 13.1071 12.0559C13.1298 12.0421 13.1517 12.0305 13.1555 12.0305C13.1593 12.0305 13.1683 12.0261 13.1744 12.0203C13.1812 12.0152 13.2137 11.997 13.247 11.9795C13.2803 11.9628 13.3128 11.9446 13.3188 11.9395C13.3249 11.9344 13.3521 11.9192 13.3793 11.9061C13.4066 11.893 13.4391 11.8755 13.4512 11.8668C13.464 11.858 13.4958 11.8398 13.523 11.8267C13.5502 11.8136 13.5775 11.7991 13.5835 11.794C13.5896 11.7889 13.607 11.7787 13.6221 11.7714C13.6372 11.7634 13.6637 11.7496 13.6818 11.7394C13.7544 11.698 13.7809 11.6834 13.8338 11.6565C13.8649 11.6412 13.8996 11.6216 13.9125 11.6128C13.9246 11.6048 13.9571 11.5866 13.9843 11.5735C14.0116 11.5597 14.0388 11.5444 14.0448 11.5393C14.0517 11.5335 14.0683 11.524 14.0827 11.5175C14.097 11.511 14.128 11.4949 14.1507 11.4811C14.1734 11.4673 14.2044 11.4513 14.2188 11.4447C14.2332 11.4382 14.2498 11.4287 14.2566 11.4236C14.2627 11.4178 14.2869 11.4047 14.3095 11.3931C14.3322 11.3822 14.3617 11.3662 14.3738 11.3574C14.3867 11.3487 14.4177 11.3312 14.4442 11.3189C14.4706 11.3058 14.5016 11.289 14.5137 11.281C14.5258 11.273 14.547 11.2614 14.5606 11.2548C14.5742 11.249 14.6007 11.2345 14.6196 11.2228C14.6385 11.2104 14.6657 11.1959 14.6801 11.1893C14.6945 11.1828 14.7119 11.1733 14.7179 11.1682C14.724 11.1631 14.7512 11.1486 14.7784 11.1355C14.8057 11.1224 14.8382 11.1042 14.8503 11.0955C14.8631 11.0867 14.8979 11.0664 14.9282 11.0511C15.0121 11.0082 15.0348 10.9958 15.0885 10.9645C15.1399 10.9347 15.1619 10.9223 15.2413 10.8816C15.2677 10.8685 15.3063 10.8466 15.3267 10.8328C15.3479 10.8197 15.3729 10.8059 15.3834 10.8022C15.394 10.7986 15.4205 10.7833 15.4424 10.7695C15.4636 10.7549 15.4893 10.7411 15.4984 10.7382C15.5082 10.7353 15.5241 10.728 15.5347 10.7207C15.5907 10.6844 15.6156 10.6698 15.6224 10.6698C15.6262 10.6698 15.6413 10.6618 15.6557 10.6531C15.6701 10.6436 15.7049 10.624 15.7328 10.6094C15.7601 10.5949 15.7948 10.5752 15.8092 10.5665C15.8236 10.557 15.8591 10.5374 15.8879 10.5221C15.9718 10.477 15.9824 10.4712 16.0384 10.4392C16.0686 10.4217 16.0958 10.4079 16.1004 10.4079C16.1042 10.4079 16.1155 10.402 16.1253 10.394C16.1352 10.3868 16.1692 10.3678 16.2002 10.3518C16.2312 10.3358 16.2705 10.314 16.2864 10.3038C16.3023 10.2929 16.3189 10.2842 16.3227 10.2842C16.3265 10.2842 16.3522 10.2696 16.381 10.2514C16.4097 10.2332 16.4354 10.2187 16.4384 10.2187C16.4415 10.2187 16.4694 10.2041 16.5004 10.1859C16.5307 10.1677 16.5587 10.1532 16.5617 10.1532C16.5647 10.1532 16.5791 10.1452 16.5935 10.1357C16.6078 10.1263 16.6335 10.1117 16.6494 10.1037C16.6827 10.0863 16.6857 10.0877 16.7523 10.1306Z"/>
</mask>
<path d="M16.6661 8.00596C16.6638 8.00959 16.6532 8.01469 16.6434 8.01687C16.6328 8.01905 16.6048 8.03433 16.5806 8.04961C16.5557 8.06562 16.5239 8.08381 16.5095 8.08963C16.4952 8.09618 16.4498 8.12092 16.4082 8.14493C16.3666 8.16822 16.3159 8.1966 16.2947 8.20751C16.2743 8.21842 16.2403 8.23734 16.2191 8.25044C16.1987 8.26354 16.1737 8.27663 16.1647 8.27882C16.1556 8.28173 16.1253 8.29846 16.0974 8.31593C16.0686 8.33412 16.0429 8.34867 16.0391 8.34867C16.0353 8.34867 16.0111 8.36177 15.9854 8.37778C15.9597 8.39378 15.9242 8.41416 15.9068 8.42289C15.8183 8.46873 15.7321 8.51675 15.7283 8.52257C15.726 8.52621 15.7162 8.53058 15.7064 8.53349C15.6965 8.53567 15.6655 8.55241 15.6368 8.5706C15.6081 8.58879 15.5808 8.60334 15.5755 8.60334C15.571 8.60334 15.5498 8.61426 15.5294 8.62808C15.509 8.64191 15.4719 8.66301 15.447 8.67538C15.3971 8.70157 15.2957 8.75833 15.2549 8.78307C15.2405 8.79252 15.2254 8.7998 15.2216 8.7998C15.2186 8.7998 15.1906 8.81435 15.1611 8.83254C15.1308 8.85074 15.1029 8.86529 15.0983 8.86529C15.0938 8.86529 15.0824 8.87111 15.0726 8.87911C15.0628 8.88639 15.0272 8.90749 14.994 8.92495C14.9607 8.94314 14.9032 8.97516 14.8654 8.99626C14.8283 9.01736 14.783 9.0421 14.7663 9.05083C14.7489 9.05957 14.7149 9.07848 14.6899 9.09304C14.6642 9.10832 14.6408 9.11996 14.637 9.11996C14.6325 9.11996 14.6211 9.12578 14.6113 9.13378C14.6015 9.14106 14.5659 9.16216 14.5326 9.17962C14.4994 9.19781 14.4419 9.22983 14.4041 9.25093C14.367 9.27276 14.3194 9.29823 14.2982 9.30841C14.2778 9.31933 14.2468 9.33606 14.2301 9.34625C14.2135 9.35717 14.1863 9.37172 14.1696 9.37972C14.153 9.38773 14.1227 9.40373 14.1016 9.4161C13.9874 9.48232 13.9329 9.51288 13.9284 9.51288C13.9261 9.51288 13.8996 9.52743 13.8694 9.54562C13.8391 9.56381 13.8119 9.57837 13.8081 9.57837C13.8051 9.57837 13.793 9.58419 13.7817 9.59146C13.7227 9.63003 13.6992 9.64385 13.6894 9.64385C13.6841 9.64385 13.669 9.65113 13.6561 9.66059C13.6433 9.67005 13.6092 9.69042 13.5797 9.7057C13.551 9.72098 13.5185 9.73844 13.5079 9.74572C13.4973 9.753 13.4814 9.76027 13.4724 9.76318C13.4633 9.76609 13.433 9.78283 13.405 9.80029C13.3763 9.81848 13.3506 9.83304 13.3468 9.83304C13.3423 9.83304 13.3203 9.84541 13.2977 9.85996C13.2742 9.87451 13.2394 9.89416 13.2205 9.90362C13.2016 9.91235 13.154 9.94 13.1146 9.96401C13.0753 9.98802 13.0307 10.0135 13.0163 10.0208C12.9793 10.0382 12.8159 10.1277 12.7229 10.1816C12.6994 10.1947 12.6579 10.218 12.6306 10.2318C12.6042 10.2463 12.5701 10.2652 12.5558 10.2747C12.5421 10.2842 12.527 10.2914 12.5232 10.2914C12.5172 10.2914 12.5089 10.2958 12.4529 10.3329C12.44 10.3409 12.4211 10.3504 12.4113 10.3533C12.4007 10.3562 12.3826 10.3664 12.3697 10.3751C12.3576 10.3846 12.3251 10.402 12.2979 10.4151C12.2706 10.4282 12.2381 10.4464 12.2253 10.4559C12.2124 10.4653 12.1996 10.4734 12.1958 10.4734C12.1927 10.4734 12.1617 10.4894 12.127 10.5097C12.0922 10.5294 12.0612 10.5461 12.0574 10.5461C12.0536 10.5461 12.0422 10.5519 12.0324 10.5599C12.0226 10.5672 11.9908 10.5854 11.9613 10.6007C11.9326 10.6152 11.9031 10.632 11.897 10.6371C11.891 10.6422 11.8645 10.6567 11.8388 10.6698C11.8123 10.6822 11.7738 10.704 11.7526 10.7178C11.7314 10.7309 11.711 10.7426 11.7072 10.7426C11.7027 10.7426 11.68 10.7542 11.6566 10.7695C11.6331 10.784 11.6036 10.8001 11.5908 10.8059C11.5787 10.811 11.5461 10.8284 11.5197 10.8444C11.494 10.8605 11.4698 10.8735 11.4667 10.8735C11.4637 10.8735 11.438 10.8881 11.4093 10.9063C11.3798 10.9245 11.3533 10.939 11.3488 10.939C11.345 10.939 11.3261 10.9492 11.3072 10.9616C11.2762 10.982 11.2308 11.0067 11.1347 11.0555C11.1151 11.0656 11.0795 11.086 11.0553 11.1006C11.0319 11.1158 11.0084 11.1282 11.0047 11.1282C11.0001 11.1282 10.9805 11.1391 10.9608 11.1515L10.9245 11.1755L10.9192 11.6703C10.9162 11.9424 10.9139 12.5682 10.9139 13.0608C10.9139 13.5534 10.9116 13.9769 10.9094 14.0016L10.9041 14.0467L10.8315 14.0795C10.6462 14.1646 10.6212 14.1755 10.6038 14.1806C10.5932 14.1835 10.5713 14.1937 10.5547 14.2032C10.538 14.2119 10.5078 14.2257 10.4866 14.2337C10.4662 14.2417 10.4216 14.2599 10.3883 14.2752C10.355 14.2898 10.2938 14.3167 10.2522 14.3349C10.2106 14.3523 10.1455 14.3822 10.1077 14.3996C10.0691 14.4171 10.0344 14.4317 10.0298 14.4317C10.0253 14.4317 9.99579 14.4448 9.96478 14.4608C9.93378 14.4768 9.90504 14.4899 9.9005 14.4899C9.89672 14.4899 9.85664 14.5066 9.81202 14.527C9.76664 14.5474 9.69631 14.5786 9.65471 14.5968C9.61312 14.615 9.54808 14.6441 9.51027 14.6616C9.47245 14.6791 9.43766 14.6936 9.43313 14.6936C9.42859 14.6936 9.39985 14.706 9.36884 14.722C9.33859 14.7373 9.30532 14.7525 9.29549 14.7555C9.2849 14.7584 9.24406 14.7758 9.20473 14.7933C9.16541 14.8115 9.09886 14.8406 9.05726 14.8588C9.01567 14.877 8.95365 14.9046 8.91962 14.9199C8.88635 14.9359 8.85609 14.9483 8.85307 14.9483C8.84248 14.9483 8.69123 15.037 8.67383 15.0531C8.664 15.0618 8.64661 15.0749 8.63375 15.0829C8.62165 15.0902 8.60653 15.1025 8.60048 15.1105C8.59518 15.1178 8.58157 15.1295 8.57023 15.136C8.55888 15.1433 8.53014 15.1695 8.50594 15.1957C8.48174 15.2219 8.453 15.2532 8.44166 15.2648C8.39099 15.3186 8.28511 15.4918 8.26016 15.5609C8.25259 15.582 8.23596 15.6279 8.2231 15.6621C8.20722 15.7065 8.19663 15.7596 8.18453 15.8513C8.16562 16.0012 8.13386 16.2988 8.12705 16.3963C8.12403 16.4341 8.11193 16.5534 8.09983 16.6618C8.07109 16.9216 8.06428 16.9907 8.05521 17.1166C8.05067 17.1748 8.03857 17.2956 8.02798 17.3851C8.01739 17.4746 8.00983 17.5517 8.01134 17.5568C8.01286 17.5641 8.02193 17.5627 8.04764 17.5517C8.06655 17.5437 8.11042 17.5248 8.14596 17.5095C8.28284 17.4506 8.38645 17.4048 8.44469 17.3778C8.47872 17.3618 8.50897 17.3495 8.51199 17.3495C8.51577 17.3495 8.54981 17.3349 8.58762 17.3174C8.62543 17.3 8.69198 17.2701 8.73585 17.2512C8.77971 17.2323 8.85004 17.201 8.8924 17.1814C8.93475 17.1617 8.97256 17.1457 8.9771 17.1457C8.98164 17.1457 9.01491 17.1312 9.05121 17.113C9.08751 17.0948 9.12003 17.0802 9.12306 17.0802C9.12684 17.0802 9.15709 17.0671 9.19188 17.0519C9.22591 17.0366 9.29322 17.006 9.34086 16.9856C9.38851 16.9645 9.4596 16.9333 9.49741 16.9158C9.53598 16.8983 9.57077 16.8838 9.57455 16.8838C9.57833 16.8838 9.60329 16.8729 9.62976 16.859C9.65623 16.8459 9.68572 16.8328 9.69631 16.8299C9.7069 16.827 9.74244 16.8117 9.77572 16.7965C9.80899 16.7805 9.87554 16.7513 9.92319 16.7302C9.97083 16.7099 10.0389 16.68 10.0744 16.664C10.11 16.6473 10.1508 16.6306 10.1652 16.6255C10.1796 16.6204 10.2091 16.608 10.2295 16.5978C10.265 16.5811 10.349 16.544 10.532 16.4639C10.5736 16.4457 10.6318 16.4203 10.6605 16.4072C10.69 16.3941 10.7339 16.3744 10.7589 16.3642C10.7838 16.3541 10.8209 16.3373 10.8413 16.3271C10.8988 16.2988 10.9018 16.3002 10.8965 16.3577C10.8935 16.3853 10.8912 16.6677 10.8912 16.9864V17.5656L10.8519 17.5823C10.7566 17.6223 10.6409 17.6733 10.5864 17.6994C10.5539 17.7155 10.5237 17.7278 10.5199 17.7278C10.5153 17.7278 10.4806 17.7424 10.4427 17.7598C10.4042 17.7773 10.3338 17.8086 10.2862 17.8297C10.1448 17.8908 10.0525 17.9316 9.97915 17.965C9.94134 17.9825 9.90731 17.997 9.90353 17.997C9.9005 17.997 9.87025 18.0101 9.83622 18.0254C9.80294 18.0414 9.73639 18.0713 9.68875 18.0916C9.48985 18.1775 9.46262 18.1891 9.39531 18.2197C9.35674 18.2372 9.32347 18.2517 9.3212 18.2517C9.31893 18.2517 9.28868 18.2641 9.2554 18.2801C9.22137 18.2954 9.15406 18.3252 9.10642 18.3463C8.93399 18.4213 8.89769 18.438 8.81979 18.4758C8.75097 18.51 8.67913 18.5515 8.66778 18.5646C8.66552 18.5668 8.65417 18.5748 8.64207 18.5821C8.5914 18.6134 8.42351 18.7763 8.40007 18.8178C8.39628 18.8251 8.39099 18.8316 8.38797 18.8338C8.38116 18.8389 8.32746 18.9182 8.32746 18.9226C8.32746 18.9248 8.31536 18.9452 8.30099 18.9684C8.28663 18.9917 8.26923 19.0274 8.26242 19.0477C8.25562 19.0681 8.2473 19.0885 8.24352 19.0921C8.23217 19.1067 8.2057 19.1824 8.19436 19.2347C8.1747 19.3286 8.14067 19.6044 8.13083 19.7557C8.1263 19.819 8.10966 19.99 8.09378 20.1363C8.07714 20.2825 8.06201 20.4361 8.05899 20.4783C8.05596 20.5205 8.04386 20.6413 8.03176 20.7475C8.01966 20.8537 8.00756 20.9723 8.00454 21.0116L8 21.0822L8.05975 21.056C8.09226 21.0415 8.15352 21.0153 8.19512 20.9971C8.23671 20.9789 8.30175 20.9498 8.33956 20.9323C8.37813 20.9148 8.41217 20.9003 8.41595 20.9003C8.41973 20.9003 8.44847 20.8872 8.48023 20.8719C8.51199 20.8559 8.54603 20.8414 8.55586 20.8384C8.57249 20.8334 8.60123 20.821 8.76761 20.7446C8.80769 20.7264 8.84324 20.7111 8.84702 20.7111C8.85004 20.7111 8.87954 20.698 8.91357 20.6827C8.94685 20.6667 8.99298 20.6471 9.01567 20.6383C9.03836 20.6296 9.06785 20.6165 9.08071 20.6085C9.09356 20.6012 9.11776 20.5903 9.13364 20.5845C9.16238 20.575 9.23574 20.5423 9.35977 20.4855C9.39304 20.4703 9.42859 20.4557 9.43918 20.4528C9.44976 20.4499 9.48758 20.4332 9.52312 20.4157C9.55942 20.3982 9.59043 20.3837 9.59346 20.3837C9.59648 20.3837 9.62295 20.372 9.6532 20.3575C9.6827 20.3429 9.72051 20.3269 9.73639 20.3211C9.76362 20.3116 9.78328 20.3029 9.95495 20.2243C9.99957 20.204 10.0389 20.1872 10.0427 20.1872C10.0457 20.1872 10.079 20.1727 10.1153 20.1545C10.1523 20.1363 10.1864 20.1217 10.1917 20.1217C10.197 20.1217 10.2227 20.1108 10.2499 20.097C10.2771 20.0839 10.3074 20.0701 10.3172 20.0672C10.3346 20.0621 10.3951 20.0351 10.5411 19.9682C10.5743 19.9529 10.6053 19.9398 10.6091 19.9398C10.6121 19.9398 10.6424 19.9267 10.6757 19.9114C10.7831 19.8605 10.87 19.8234 10.8814 19.8234C10.8905 19.8234 10.8912 19.9078 10.8874 20.3851C10.8852 20.6944 10.8821 21.6265 10.8799 22.4552L10.8753 23.9636L10.8965 23.9549C10.9078 23.9505 10.9283 23.9389 10.9404 23.9309C10.9532 23.9221 10.985 23.904 11.0122 23.8909C11.0394 23.8778 11.072 23.8603 11.0841 23.8516C11.0969 23.8421 11.1272 23.8254 11.1521 23.813C11.1771 23.8006 11.2111 23.7824 11.227 23.7715C11.2429 23.7613 11.2595 23.7526 11.2625 23.7526C11.2663 23.7526 11.2928 23.7381 11.3223 23.7199C11.3518 23.7017 11.3782 23.6871 11.3813 23.6871C11.3843 23.6871 11.4108 23.6726 11.4395 23.6544C11.469 23.6362 11.4962 23.6216 11.5008 23.6216C11.5053 23.6216 11.5235 23.6122 11.5401 23.5998C11.5575 23.5882 11.5877 23.5707 11.6089 23.5612C11.6293 23.5511 11.6618 23.5336 11.6808 23.5205C11.7004 23.5081 11.7186 23.4979 11.7216 23.4979C11.7254 23.4979 11.7526 23.4827 11.7836 23.4645C11.8146 23.4463 11.8471 23.4281 11.8562 23.4252C11.8645 23.4215 11.8933 23.4055 11.9197 23.3895C11.9462 23.3728 11.9704 23.3597 11.9742 23.3597C11.978 23.3597 11.9991 23.3488 12.0203 23.3349C12.0422 23.3211 12.068 23.3066 12.0786 23.3029C12.0891 23.2993 12.1156 23.284 12.1383 23.2695C12.1602 23.2549 12.1806 23.2433 12.1837 23.2433C12.1867 23.2433 12.2253 23.2207 12.2691 23.1931C12.3826 23.1218 12.5036 23.0046 12.58 22.8918C12.6117 22.8453 12.6382 22.8045 12.6382 22.8016C12.6382 22.7994 12.6503 22.7732 12.6647 22.7441C12.6942 22.6844 12.7395 22.5251 12.7509 22.4407C12.7562 22.4029 12.7607 21.7516 12.7645 20.5066C12.7668 19.4749 12.7713 18.6301 12.7736 18.6301C12.7826 18.6308 12.9044 18.697 12.9694 18.7378C12.9967 18.7545 13.0224 18.7683 13.0262 18.7683C13.0292 18.7683 13.0519 18.7807 13.0753 18.7953C13.1177 18.8215 13.1411 18.8338 13.2372 18.884C13.2636 18.8971 13.2984 18.9175 13.315 18.9284C13.3445 18.9481 13.4126 18.9866 13.4845 19.023C13.5041 19.0332 13.5359 19.0521 13.5548 19.0645C13.5737 19.0769 13.5979 19.0892 13.6077 19.0921C13.6168 19.0958 13.6357 19.1052 13.6478 19.114C13.6607 19.1234 13.6932 19.1423 13.7212 19.1569C13.7491 19.1714 13.7847 19.1911 13.7998 19.2013C13.8149 19.2115 13.8308 19.2195 13.8346 19.2195C13.8384 19.2195 13.8641 19.234 13.8928 19.2522C13.9216 19.2704 13.9473 19.285 13.9511 19.285C13.9548 19.285 13.9813 19.2995 14.0093 19.3177C14.038 19.3359 14.0638 19.3504 14.0675 19.3504C14.0706 19.3504 14.0857 19.3584 14.1008 19.3686C14.1167 19.3788 14.1553 19.4006 14.187 19.4167C14.2188 19.4334 14.2506 19.4509 14.2566 19.4567C14.2627 19.4618 14.277 19.469 14.2876 19.4734C14.2982 19.477 14.3277 19.4923 14.3519 19.5076C14.3761 19.5229 14.4094 19.5418 14.4245 19.5505C14.5205 19.6007 14.5871 19.6379 14.5969 19.6459C14.603 19.6502 14.6325 19.667 14.6612 19.6815C14.6907 19.6968 14.7225 19.715 14.7323 19.7223C14.7421 19.7303 14.7535 19.7361 14.7572 19.7361C14.7618 19.7361 14.786 19.7492 14.8117 19.7652C14.8374 19.7812 14.8722 19.8016 14.8896 19.8103C14.9751 19.8554 15.0333 19.8874 15.0666 19.9093C15.087 19.9216 15.1059 19.9325 15.1089 19.9325C15.1127 19.9325 15.1377 19.9471 15.1656 19.9646C15.1936 19.9828 15.2239 19.9995 15.2322 20.0017C15.2413 20.0046 15.2685 20.0191 15.2927 20.0351C15.3176 20.0504 15.3403 20.0635 15.3441 20.0635C15.3479 20.0635 15.3638 20.0715 15.3789 20.0817C15.394 20.0912 15.4258 20.1101 15.45 20.1225C15.4734 20.1356 15.5067 20.1545 15.5233 20.1654C15.54 20.1763 15.5619 20.1879 15.571 20.1909C15.5808 20.1938 15.6035 20.2054 15.6202 20.2163C15.6375 20.2272 15.6693 20.2462 15.6905 20.2571C15.7109 20.2687 15.7464 20.2876 15.7684 20.3C15.7903 20.3116 15.8311 20.3357 15.8584 20.3531C15.8856 20.3699 15.9121 20.3837 15.9166 20.3837C15.9204 20.3837 15.9476 20.3982 15.9756 20.4164C16.0043 20.4346 16.03 20.4492 16.0331 20.4492C16.0353 20.4492 16.0648 20.4652 16.0981 20.4855C16.1314 20.5052 16.1616 20.5219 16.1654 20.5219C16.1692 20.5219 16.1828 20.5299 16.1957 20.5394C16.2085 20.5488 16.238 20.5656 16.2607 20.5765C16.2834 20.5874 16.3159 20.6056 16.3326 20.6165C16.3492 20.6274 16.3749 20.642 16.3893 20.6485C16.4036 20.6551 16.4309 20.6696 16.4498 20.682C16.4687 20.6936 16.4921 20.7075 16.5027 20.7111C16.5133 20.7155 16.539 20.7308 16.5609 20.7446C16.5821 20.7584 16.6033 20.7693 16.6071 20.7693C16.6109 20.7693 16.6373 20.7839 16.6661 20.8021C16.6948 20.8195 16.7213 20.8348 16.7243 20.8348C16.7273 20.8348 16.753 20.8494 16.7818 20.8676C16.8105 20.8857 16.8362 20.9003 16.84 20.9003C16.8438 20.9003 16.8589 20.9076 16.8733 20.917C16.9103 20.9396 17.014 20.9978 17.0586 21.0211C17.0797 21.032 17.1138 21.0509 17.1342 21.064C17.1554 21.0764 17.1955 21.1004 17.2242 21.1157C17.2529 21.131 17.2945 21.1535 17.3165 21.1659C17.3384 21.1775 17.3792 21.2001 17.408 21.2161C17.4359 21.2314 17.473 21.2532 17.4896 21.2634C17.5063 21.2743 17.5388 21.2925 17.5615 21.3034C17.5842 21.315 17.6084 21.3281 17.6144 21.3332C17.6205 21.3383 17.6409 21.3507 17.6598 21.3609C17.6787 21.3703 17.7211 21.3922 17.7543 21.4096C17.7876 21.4271 17.8254 21.4482 17.8375 21.4569C17.8504 21.4657 17.8791 21.4817 17.9018 21.4933C17.9245 21.5042 17.954 21.521 17.9668 21.5304C17.9797 21.5399 17.9933 21.5479 17.9971 21.5479C18.0009 21.5479 18.0311 21.5646 18.0644 21.5843C18.0977 21.6046 18.1272 21.6206 18.1302 21.6206C18.1325 21.6206 18.1559 21.6337 18.1809 21.6498C18.2058 21.6658 18.2293 21.6789 18.2331 21.6789C18.2368 21.6789 18.2595 21.6912 18.2845 21.7065C18.3344 21.7371 18.4123 21.7815 18.4713 21.8113C18.4925 21.8222 18.5235 21.8404 18.5401 21.8513C18.5575 21.8622 18.5885 21.8797 18.6089 21.8899C18.6445 21.9081 18.6815 21.9284 18.7806 21.9852C18.832 22.015 18.8955 22.05 18.922 22.0638C18.9326 22.0689 18.9629 22.0863 18.9886 22.1016C19.0143 22.1176 19.0385 22.13 19.0415 22.13C19.0453 22.13 19.0665 22.1424 19.0907 22.1576C19.1141 22.1722 19.1572 22.1977 19.1875 22.2137C19.2389 22.2413 19.2654 22.2559 19.3395 22.2973C19.3569 22.3075 19.3864 22.3235 19.4038 22.3337C19.4363 22.3512 19.5021 22.3883 19.6412 22.4662C19.679 22.4873 19.7221 22.5113 19.738 22.5193C19.7532 22.5273 19.7842 22.5455 19.8068 22.5586C19.8295 22.5724 19.8605 22.5906 19.8764 22.5986C19.9067 22.6146 19.9884 22.6597 20.1063 22.7266C20.1441 22.7477 20.1903 22.7732 20.2099 22.7841C20.3014 22.8336 20.3514 22.862 20.3861 22.8838C20.4073 22.8976 20.4277 22.9086 20.4323 22.9086C20.4361 22.9086 20.4625 22.9231 20.4913 22.9413C20.5193 22.9588 20.5495 22.9755 20.5571 22.9777C20.5654 22.9806 20.5926 22.9951 20.6168 23.0112C20.6418 23.0264 20.6645 23.0395 20.6682 23.0395C20.6728 23.0395 20.6924 23.0504 20.7129 23.0643C20.7333 23.0781 20.7688 23.0977 20.7915 23.1087C20.8142 23.1196 20.8429 23.1363 20.855 23.145C20.8679 23.1538 20.8928 23.1683 20.9118 23.1771C20.9307 23.1865 20.9602 23.2032 20.9775 23.2142C20.9942 23.2251 21.0154 23.2367 21.0237 23.2389C21.032 23.2418 21.0623 23.2585 21.0902 23.276C21.119 23.2942 21.1447 23.3088 21.1477 23.3088C21.1515 23.3088 21.1719 23.3204 21.1938 23.3342C21.215 23.348 21.2362 23.3597 21.24 23.3597C21.243 23.3597 21.2687 23.3742 21.2967 23.3917C21.3239 23.4092 21.3549 23.4259 21.3648 23.4288C21.3746 23.4317 21.4003 23.4463 21.4207 23.4601C21.4419 23.4747 21.4744 23.4936 21.4933 23.503C21.5122 23.5118 21.5591 23.5372 21.5962 23.5591C21.634 23.5809 21.6847 23.6093 21.7096 23.6216C21.7346 23.634 21.7656 23.6522 21.7777 23.6609C21.7905 23.6704 21.8155 23.6849 21.8344 23.6937C21.8699 23.7104 21.9667 23.7642 22.0212 23.7984C22.0393 23.8094 22.056 23.8181 22.0598 23.8181C22.0628 23.8181 22.084 23.8297 22.1067 23.8443C22.1293 23.8588 22.1588 23.8756 22.1709 23.8814C22.1838 23.8865 22.2088 23.901 22.2277 23.9127C22.2466 23.9251 22.2753 23.9411 22.2919 23.9491C22.3086 23.9571 22.3358 23.9724 22.3532 23.9818L22.3842 24L22.3887 23.7104C22.3918 23.5518 22.394 23.1967 22.394 22.9224C22.394 22.3905 22.3925 22.3687 22.3555 22.2442C22.3471 22.2151 22.3358 22.1773 22.3305 22.1591C22.3169 22.1147 22.242 21.9728 22.2133 21.9379C22.2004 21.9226 22.1898 21.9066 22.1898 21.9022C22.1898 21.8942 22.0794 21.7735 22.0492 21.748C21.9902 21.6985 21.9705 21.6832 21.9373 21.6592C21.9161 21.6447 21.8805 21.6236 21.8578 21.6112C21.8344 21.5988 21.8049 21.5814 21.792 21.5719C21.7792 21.5624 21.7656 21.5552 21.7618 21.5552C21.758 21.5552 21.73 21.5406 21.6998 21.5224C21.6695 21.5042 21.6423 21.4897 21.6385 21.4897C21.6355 21.4897 21.6189 21.4802 21.6022 21.4686C21.5848 21.4569 21.5531 21.438 21.5311 21.4271C21.5084 21.4162 21.4767 21.3987 21.46 21.3878C21.4434 21.3776 21.4245 21.3667 21.4185 21.3645C21.4124 21.3623 21.3814 21.3456 21.3504 21.3267C21.3194 21.3085 21.2914 21.2932 21.2884 21.2932C21.2854 21.2932 21.2596 21.2787 21.2317 21.2605C21.2037 21.2423 21.1772 21.2277 21.1734 21.2277C21.1689 21.2277 21.1454 21.2146 21.1205 21.1986C21.0963 21.1826 21.0728 21.1695 21.0698 21.1695C21.066 21.1695 21.0433 21.1571 21.0199 21.1419C20.9957 21.1273 20.9602 21.1069 20.9405 21.0968C20.8921 21.072 20.8081 21.0262 20.7756 21.0058C20.7613 20.9963 20.7295 20.9789 20.706 20.9665C20.6818 20.9541 20.6501 20.9352 20.635 20.9258C20.6198 20.9156 20.604 20.9076 20.6002 20.9076C20.5964 20.9076 20.5707 20.8937 20.5427 20.8763C20.5147 20.8595 20.4822 20.8399 20.4693 20.8334C20.3498 20.7693 20.3158 20.7504 20.2992 20.738C20.2886 20.7308 20.2689 20.7198 20.2553 20.7147C20.2417 20.7089 20.213 20.6936 20.191 20.6806C20.1699 20.6675 20.1419 20.6507 20.129 20.6442C20.1078 20.6325 20.092 20.6238 20.0148 20.5801C19.9974 20.57 19.9581 20.5488 19.9286 20.5328C19.8984 20.5168 19.8575 20.4928 19.8371 20.4805C19.8167 20.4674 19.7978 20.4564 19.7955 20.4564C19.7925 20.4564 19.7653 20.4419 19.735 20.4237C19.7055 20.4055 19.6783 20.391 19.6753 20.391C19.6715 20.391 19.6503 20.3786 19.6276 20.364C19.6042 20.3495 19.5686 20.3298 19.549 20.3204C19.5285 20.3109 19.4983 20.2935 19.4809 20.2818C19.4643 20.2694 19.4469 20.26 19.4431 20.26C19.4393 20.26 19.4121 20.2454 19.3833 20.2272C19.3546 20.209 19.3281 20.1945 19.3251 20.1945C19.3221 20.1945 19.2964 20.1799 19.2676 20.1617C19.2396 20.1443 19.2094 20.1276 19.2003 20.1246C19.1912 20.1225 19.1784 20.1159 19.1723 20.1108C19.1602 20.1006 19.0491 20.0388 18.9734 19.9995C18.9477 19.9857 18.916 19.9675 18.9024 19.9573C18.8895 19.9478 18.8751 19.9398 18.8721 19.9398C18.8683 19.9398 18.8403 19.9253 18.8101 19.9071C18.7798 19.8889 18.7526 19.8743 18.7503 19.8743C18.7473 19.8743 18.7299 19.8641 18.711 19.8518C18.6921 19.8401 18.6573 19.8198 18.6331 19.8081C18.6082 19.7958 18.5749 19.7768 18.5582 19.7652C18.5318 19.7463 18.5295 19.7426 18.5416 19.7383C18.5499 19.7361 18.5749 19.7215 18.5983 19.707C18.6218 19.6924 18.6505 19.6764 18.6626 19.6728C18.6747 19.6684 18.705 19.6517 18.7292 19.6349C18.7541 19.6189 18.7776 19.6051 18.7821 19.6051C18.7866 19.6051 18.8025 19.5978 18.8169 19.5884C18.8615 19.5607 19.0234 19.4712 19.1353 19.4123C19.1686 19.3948 19.2253 19.3635 19.2843 19.3293C19.3077 19.3162 19.3448 19.2959 19.3652 19.285C19.3864 19.274 19.4196 19.2551 19.4401 19.242C19.4612 19.2297 19.4809 19.2195 19.4839 19.2195C19.4877 19.2195 19.5006 19.2129 19.5127 19.2049C19.5255 19.1969 19.5444 19.1845 19.5565 19.1765C19.5679 19.1693 19.586 19.1605 19.5958 19.1576C19.6064 19.1547 19.6253 19.1445 19.6374 19.1358C19.6503 19.1263 19.6821 19.1081 19.7093 19.0958C19.7365 19.0827 19.7637 19.0674 19.7698 19.0623C19.7819 19.0528 19.8658 19.0063 19.9324 18.9721C19.9536 18.9619 19.9906 18.9408 20.0148 18.9255C20.0398 18.9102 20.0655 18.8964 20.0715 18.8942C20.0783 18.8913 20.1078 18.8753 20.1373 18.8586C20.1668 18.8411 20.1941 18.8265 20.1978 18.8265C20.2016 18.8265 20.2251 18.8135 20.25 18.7974C20.275 18.7814 20.2977 18.7683 20.3007 18.7683C20.3045 18.7683 20.3309 18.7538 20.3612 18.7356C20.3914 18.7174 20.4187 18.7029 20.4209 18.7029C20.424 18.7029 20.4512 18.6883 20.4814 18.6701C20.5117 18.6519 20.5397 18.6374 20.5427 18.6374C20.5457 18.6374 20.5722 18.6228 20.6009 18.6046C20.6297 18.5864 20.6569 18.5719 20.6607 18.5719C20.6645 18.5719 20.6811 18.5631 20.697 18.553C20.7257 18.534 20.8157 18.4838 20.8777 18.4518C20.8944 18.4438 20.9284 18.4242 20.9526 18.4089C20.9768 18.3936 21.0048 18.3791 21.0139 18.3754C21.0229 18.3718 21.0494 18.3572 21.0728 18.3434C21.0963 18.3288 21.1243 18.3136 21.1356 18.3099C21.147 18.3056 21.1659 18.2954 21.178 18.2874C21.2014 18.2714 21.2831 18.2255 21.3474 18.1935C21.3685 18.1826 21.4018 18.1637 21.4207 18.1506C21.4396 18.1382 21.4646 18.1244 21.4767 18.12C21.488 18.1157 21.5153 18.1011 21.5364 18.0873C21.5584 18.0742 21.5841 18.0596 21.5939 18.056C21.6045 18.0523 21.634 18.0356 21.6605 18.0196C21.6869 18.0029 21.7104 17.9898 21.7142 17.9898C21.7172 17.9898 21.7444 17.9752 21.7747 17.957C21.8049 17.9388 21.8321 17.9243 21.8352 17.9243C21.8374 17.9243 21.8631 17.9097 21.8919 17.8915C21.9199 17.8734 21.9471 17.8588 21.9524 17.8588C21.9569 17.8588 21.9781 17.8479 21.9985 17.8341C22.0189 17.8202 22.056 17.7991 22.0809 17.7868C22.1051 17.7737 22.1377 17.7569 22.152 17.7482C22.1664 17.7402 22.2065 17.7176 22.2405 17.698C22.2745 17.6783 22.3048 17.6623 22.3071 17.6623C22.3101 17.6623 22.332 17.6507 22.3555 17.6369L22.3993 17.6107L22.4039 17.2563C22.4069 17.0613 22.4092 16.509 22.4092 16.0288C22.4092 15.5486 22.4114 15.0363 22.4145 14.8901L22.4198 14.6245L22.4931 14.5896C22.5339 14.5706 22.571 14.5554 22.5763 14.5554C22.5808 14.5554 22.6111 14.5423 22.6429 14.527C22.6746 14.511 22.7397 14.4811 22.7873 14.4608C22.9053 14.4098 23.0119 14.3633 23.0951 14.3254C23.1337 14.308 23.17 14.2934 23.1753 14.2934C23.1806 14.2934 23.1911 14.289 23.1995 14.2832C23.2078 14.2781 23.2403 14.2629 23.2713 14.2505C23.3023 14.2374 23.3522 14.2163 23.381 14.2025C23.4105 14.1894 23.4732 14.161 23.5209 14.1406C23.5685 14.1195 23.6396 14.0882 23.6782 14.0708C23.716 14.0533 23.7523 14.0387 23.7576 14.0387C23.7621 14.0387 23.7818 14.03 23.8007 14.0198C23.8196 14.0096 23.8551 13.9929 23.8801 13.9827C23.9323 13.9616 24.0238 13.9209 24.1221 13.8743C24.1599 13.8568 24.1932 13.8423 24.1962 13.8423C24.1992 13.8423 24.2197 13.8299 24.2416 13.8146C24.2635 13.7986 24.29 13.7819 24.3013 13.7761C24.3399 13.7564 24.4579 13.656 24.5131 13.5949C24.5902 13.5105 24.6311 13.4566 24.678 13.3766C24.7506 13.2529 24.8088 13.0644 24.8179 12.9291C24.8201 12.8847 24.8345 12.7465 24.8489 12.6206C24.8633 12.4954 24.8799 12.3317 24.8859 12.2568C24.892 12.1826 24.9086 12.013 24.923 11.8813C24.9374 11.7489 24.9517 11.6085 24.954 11.5684C24.957 11.5284 24.9653 11.4411 24.9722 11.3734C24.9812 11.2912 24.9827 11.2519 24.9774 11.2519C24.9699 11.2519 24.8965 11.2839 24.7332 11.3581C24.6954 11.3756 24.6613 11.3902 24.6583 11.3902C24.6553 11.3902 24.6258 11.4033 24.5918 11.4185C24.5585 11.4346 24.4912 11.4637 24.4435 11.4848C24.3959 11.5051 24.3331 11.5328 24.3036 11.5466C24.2749 11.5597 24.2318 11.5779 24.2091 11.5866C24.1864 11.5954 24.1607 11.6063 24.1516 11.6121C24.1425 11.6172 24.1138 11.6303 24.0873 11.6412C24.0609 11.6521 24.0185 11.6696 23.9935 11.6812C23.9686 11.6921 23.9088 11.7183 23.8612 11.7394C23.8136 11.7605 23.7432 11.7918 23.7054 11.8093C23.6668 11.8267 23.6328 11.8413 23.629 11.8413C23.6245 11.8413 23.5905 11.8558 23.5526 11.874C23.5148 11.8922 23.4816 11.9068 23.4785 11.9068C23.4755 11.9068 23.4453 11.9199 23.412 11.9352C23.3779 11.9512 23.3114 11.981 23.2637 12.0014C23.2161 12.0225 23.1458 12.0538 23.108 12.0712C23.0701 12.0887 23.0354 12.1032 23.0308 12.1032C23.0263 12.1032 22.996 12.1163 22.9635 12.1316C22.931 12.1476 22.8652 12.1775 22.8175 12.1978C22.7064 12.2459 22.5944 12.2953 22.5249 12.3266C22.4946 12.3405 22.4598 12.3543 22.447 12.3579L22.4243 12.3645V11.7824C22.4243 11.3996 22.422 11.201 22.4167 11.201C22.4129 11.201 22.4092 11.1973 22.4092 11.1937C22.4092 11.1893 22.4145 11.1864 22.4205 11.1864C22.4273 11.1864 22.4583 11.1741 22.4908 11.1581C22.5226 11.1428 22.5574 11.1275 22.568 11.1246C22.5786 11.1217 22.6126 11.1071 22.6444 11.0918C22.6754 11.0766 22.7094 11.062 22.72 11.0591C22.7298 11.0562 22.7586 11.0438 22.7835 11.0322C22.8085 11.0198 22.8417 11.006 22.8576 11.0002C22.8728 10.9951 22.9106 10.9791 22.9408 10.9652C22.9907 10.9427 23.0633 10.9107 23.2335 10.8372C23.269 10.8219 23.3356 10.7928 23.381 10.7724C23.4271 10.752 23.4672 10.7353 23.4695 10.7353C23.4725 10.7353 23.5065 10.7207 23.5458 10.7026C23.5852 10.6844 23.6207 10.6698 23.6252 10.6698C23.6298 10.6698 23.6623 10.6553 23.6994 10.6371C23.7357 10.6189 23.7697 10.6043 23.775 10.6043C23.7803 10.6043 23.8151 10.5898 23.8514 10.5716C23.8877 10.5534 23.9225 10.5388 23.9293 10.5388C23.9361 10.5388 23.9444 10.5359 23.9489 10.5323C23.9527 10.5287 23.9845 10.5141 24.02 10.4988C24.0556 10.4843 24.1085 10.461 24.1372 10.4479C24.1667 10.4341 24.2091 10.4151 24.2318 10.4042C24.3361 10.3569 24.4397 10.2856 24.5297 10.1998C24.5993 10.1328 24.6076 10.1219 24.6651 10.0404C24.7249 9.95528 24.746 9.91962 24.7619 9.8796C24.771 9.85559 24.7808 9.83304 24.7838 9.8294C24.8217 9.77628 24.8693 9.47795 24.8859 9.18908C24.889 9.14106 24.9026 8.99699 24.9169 8.86893C24.9313 8.74086 24.9464 8.59024 24.9502 8.53422C24.957 8.4469 24.988 8.14784 24.9986 8.0729C25.0016 8.05252 25.0001 8.04961 24.9895 8.05252C24.9684 8.05835 24.8973 8.08745 24.8391 8.11292C24.8096 8.12602 24.7702 8.1413 24.7521 8.14712C24.7339 8.15367 24.6938 8.16967 24.6628 8.1835C24.6318 8.19732 24.5978 8.21115 24.5872 8.21406C24.5766 8.21697 24.5403 8.23152 24.5055 8.24753C24.4707 8.26281 24.4397 8.27591 24.4352 8.27591C24.4314 8.27591 24.3906 8.29192 24.3445 8.31229C24.2983 8.33193 24.2575 8.34867 24.2545 8.34867C24.2507 8.34867 24.2159 8.36322 24.1773 8.38141C24.1387 8.3996 24.1024 8.41416 24.0979 8.41416C24.0926 8.41416 24.0639 8.42507 24.0336 8.4389C23.9739 8.46582 23.8869 8.5022 23.8272 8.52476C23.8067 8.53276 23.7727 8.54659 23.7515 8.55604C23.7311 8.56478 23.6933 8.58006 23.6683 8.58879C23.6434 8.59825 23.5995 8.61644 23.57 8.62954C23.5413 8.64263 23.4914 8.66373 23.4604 8.67683C23.3643 8.7154 23.2925 8.74596 23.2448 8.76706C23.2199 8.77797 23.1874 8.79107 23.173 8.79616C23.1586 8.80126 23.1246 8.81508 23.0974 8.82745C23.0391 8.85365 22.9408 8.89512 22.8667 8.9235C22.838 8.93514 22.7933 8.95479 22.7691 8.96643C22.7442 8.9788 22.7207 8.98898 22.7162 8.98898C22.7117 8.98898 22.6769 9.00354 22.6398 9.021C22.602 9.03846 22.5634 9.0552 22.5529 9.05811C22.5423 9.06102 22.512 9.07412 22.4848 9.08722C22.4576 9.09958 22.422 9.11487 22.4054 9.11996C22.3887 9.12505 22.3487 9.14179 22.3169 9.15707C22.2844 9.17308 22.2541 9.18545 22.2496 9.18545C22.2451 9.18545 22.2148 9.19781 22.183 9.21382C22.1513 9.2291 22.1172 9.24438 22.1067 9.24729C22.0961 9.2502 22.0643 9.26403 22.0348 9.27785C22.0061 9.29168 21.9599 9.31133 21.9327 9.32151C21.9055 9.3317 21.8737 9.34552 21.8609 9.3528C21.8488 9.36008 21.8299 9.36808 21.8193 9.37099C21.8087 9.3739 21.7656 9.39209 21.7232 9.41174C21.6801 9.43138 21.6423 9.44739 21.6385 9.44739C21.6317 9.44739 21.5705 9.47504 21.4071 9.54999C21.3731 9.566 21.3428 9.57837 21.339 9.57837C21.3353 9.57837 21.3111 9.58782 21.2861 9.60019C21.2611 9.61184 21.2173 9.63075 21.1878 9.6424C21.1591 9.65477 21.0955 9.68096 21.0479 9.70206C21.0002 9.72244 20.9405 9.7479 20.9155 9.75809C20.8906 9.76755 20.8422 9.78865 20.8081 9.80466C20.7749 9.81994 20.7439 9.83304 20.7401 9.83304C20.7371 9.83304 20.7068 9.84613 20.6735 9.86214C20.6403 9.87815 20.61 9.89125 20.607 9.89125C20.604 9.89125 20.5654 9.90725 20.5223 9.92763C20.4792 9.94727 20.4398 9.96401 20.4361 9.96401C20.4315 9.96401 20.399 9.97783 20.3642 9.99457L20.3007 10.0244L20.2568 9.99603C20.2319 9.98002 20.2069 9.96474 20.1994 9.96255C20.1925 9.95964 20.1646 9.94436 20.1366 9.92836C20.1086 9.91162 20.0844 9.89852 20.0821 9.89852C20.0799 9.89852 20.0587 9.88615 20.036 9.8716C20.0126 9.85705 19.977 9.8374 19.9573 9.82794C19.9369 9.81848 19.9067 9.80102 19.8893 9.78938C19.8726 9.77701 19.8552 9.76755 19.8515 9.76755C19.8477 9.76755 19.8235 9.75445 19.797 9.73844C19.7705 9.72244 19.7463 9.70934 19.7433 9.70934C19.7403 9.70934 19.7146 9.69479 19.6874 9.67732C19.6601 9.66059 19.6299 9.64385 19.6208 9.64094C19.6117 9.63803 19.5913 9.62712 19.5754 9.61693C19.5444 9.59656 19.4431 9.53907 19.3765 9.50415C19.3538 9.49178 19.3243 9.47431 19.3107 9.46486C19.2979 9.4554 19.2835 9.44739 19.2805 9.44739C19.2767 9.44739 19.2487 9.43284 19.2185 9.41465C19.1882 9.39646 19.161 9.38191 19.158 9.38191C19.1557 9.38191 19.1345 9.37026 19.1118 9.35571C19.0891 9.34116 19.0513 9.32006 19.0286 9.30914C19.006 9.2975 18.9757 9.28004 18.9613 9.26985C18.947 9.25966 18.9311 9.25093 18.9273 9.25093C18.9228 9.25093 18.8955 9.23638 18.8676 9.21819C18.8388 9.2 18.8131 9.18545 18.8093 9.18545C18.8063 9.18545 18.7912 9.17744 18.7761 9.16725C18.7609 9.15707 18.7254 9.13742 18.6974 9.12287C18.6694 9.10832 18.6377 9.09013 18.6271 9.08285C18.6157 9.07557 18.5983 9.06611 18.587 9.06175C18.5756 9.05811 18.5461 9.04137 18.5212 9.02537C18.4962 9.00936 18.4728 8.99626 18.4698 8.99626C18.466 8.99626 18.4509 8.98826 18.4357 8.97807C18.4206 8.96788 18.3851 8.94824 18.3571 8.93369C18.3291 8.91913 18.2981 8.90167 18.2875 8.89439C18.2709 8.88421 18.2134 8.85146 18.1325 8.80853C18.1204 8.80198 18.0909 8.78525 18.0682 8.77142C18.0455 8.7576 18.0115 8.73868 17.9926 8.72922C17.9737 8.71976 17.9283 8.69429 17.8905 8.67247C17.8534 8.65064 17.8035 8.62371 17.7808 8.61134C17.7581 8.5997 17.7211 8.5786 17.6991 8.56478C17.678 8.55022 17.6522 8.5364 17.6432 8.53349C17.6265 8.52839 17.6167 8.5233 17.5638 8.48838C17.5501 8.47964 17.5365 8.47237 17.5328 8.47237C17.529 8.47237 17.5055 8.45927 17.4813 8.44326C17.4564 8.42725 17.4329 8.41416 17.4291 8.41416C17.4246 8.41416 17.4027 8.40251 17.38 8.38796C17.3573 8.37341 17.3165 8.35013 17.2892 8.33557C17.262 8.32175 17.231 8.30428 17.2197 8.29701C17.2091 8.289 17.1962 8.28318 17.1924 8.28318C17.1886 8.28318 17.1682 8.27227 17.1478 8.25844C17.1274 8.24462 17.0926 8.22497 17.0707 8.21406C17.0487 8.20387 17.017 8.18495 16.9996 8.17331C16.9829 8.16167 16.9663 8.15221 16.9633 8.15221C16.9595 8.15221 16.9323 8.13766 16.902 8.12019C16.8718 8.10273 16.8377 8.08381 16.8264 8.07872C16.8158 8.0729 16.7803 8.05325 16.7485 8.03361C16.6918 7.99941 16.6736 7.99359 16.6661 8.00596ZM16.7523 10.1306C16.7712 10.143 16.7893 10.1532 16.7924 10.1532C16.7954 10.1532 16.8211 10.1677 16.8498 10.1859C16.8786 10.2041 16.9043 10.2187 16.9073 10.2187C16.9134 10.2187 17.02 10.2783 17.085 10.3169C17.1123 10.3336 17.1849 10.3737 17.256 10.4115C17.3323 10.4522 17.3989 10.4901 17.4102 10.4988C17.4163 10.5039 17.4488 10.5214 17.4821 10.5388C17.5154 10.5556 17.5532 10.5774 17.566 10.5869C17.5789 10.5963 17.5933 10.6043 17.5985 10.6043C17.6031 10.6043 17.6303 10.6181 17.6583 10.6356C17.6863 10.6523 17.7195 10.672 17.7316 10.6785C17.7445 10.6851 17.7831 10.7062 17.8186 10.7251C17.8542 10.744 17.8935 10.7666 17.9056 10.7753C17.9184 10.784 17.9464 10.8001 17.9691 10.811C17.9918 10.8226 18.019 10.8372 18.0296 10.8437C18.0652 10.867 18.1809 10.9318 18.1862 10.9318C18.1892 10.9318 18.2089 10.9434 18.2308 10.9572C18.2527 10.9703 18.2883 10.9914 18.311 11.0031C18.3336 11.014 18.3828 11.0409 18.4199 11.0627C18.4577 11.0838 18.5015 11.1086 18.5182 11.1173C18.5348 11.126 18.5635 11.142 18.5817 11.153C18.5998 11.1646 18.6324 11.1828 18.6535 11.1937C18.6914 11.2126 18.7496 11.2461 18.8169 11.2854C18.8358 11.297 18.8691 11.3152 18.8918 11.3261C18.9145 11.3378 18.9439 11.3552 18.9576 11.3647C18.9712 11.3749 18.9848 11.3829 18.9886 11.3829C18.9923 11.3829 19.0196 11.3974 19.0498 11.4156C19.0801 11.4338 19.1073 11.4484 19.1111 11.4484C19.1149 11.4484 19.136 11.46 19.158 11.4746C19.1807 11.4891 19.2177 11.5102 19.2404 11.5211C19.2631 11.5328 19.2933 11.5502 19.3077 11.5604C19.3221 11.5706 19.338 11.5793 19.3417 11.5793C19.3463 11.5793 19.3728 11.5939 19.4007 11.6114C19.4287 11.6296 19.459 11.6463 19.468 11.6485C19.4771 11.6514 19.4983 11.663 19.5157 11.6739C19.5459 11.6936 19.614 11.7314 19.6858 11.7685C19.7055 11.7787 19.7373 11.7976 19.7562 11.81C19.7751 11.8224 19.7993 11.8347 19.8091 11.8377C19.8182 11.8413 19.8371 11.8508 19.8492 11.8595C19.8621 11.8689 19.8976 11.89 19.9286 11.9068C19.9596 11.9242 20.0118 11.9534 20.0443 11.9715C20.0761 11.9897 20.1192 12.013 20.1388 12.0232C20.1585 12.0334 20.1933 12.0523 20.216 12.0661C20.2387 12.08 20.2704 12.0981 20.2856 12.1062C20.337 12.1338 20.4156 12.1775 20.4542 12.2007C20.4754 12.2131 20.5026 12.2284 20.5147 12.2342L20.5374 12.2459L20.5351 14.2934C20.5344 15.4198 20.5314 16.3912 20.5291 16.4516L20.5245 16.5614L20.4973 16.5738C20.4814 16.5811 20.4572 16.5942 20.4429 16.6029C20.4149 16.6204 20.3355 16.6655 20.2833 16.6924C20.2659 16.7011 20.2288 16.7215 20.2009 16.7375C20.1721 16.7543 20.1472 16.7674 20.1449 16.7674C20.1426 16.7674 20.1192 16.7805 20.092 16.7972C20.0428 16.8263 20.0247 16.8365 19.9347 16.883C19.9082 16.8961 19.8696 16.9187 19.8484 16.9318C19.8273 16.9456 19.8068 16.9565 19.8031 16.9565C19.7993 16.9565 19.7834 16.9645 19.7683 16.9747C19.7532 16.9849 19.7259 17.0002 19.7078 17.0097C19.6722 17.0278 19.5845 17.0766 19.524 17.1115C19.5036 17.1232 19.4658 17.1435 19.4408 17.1566C19.4159 17.169 19.3818 17.1887 19.3659 17.1988C19.3501 17.2098 19.3334 17.2185 19.3296 17.2185C19.3251 17.2185 19.313 17.2243 19.3024 17.2323C19.2911 17.2396 19.2586 17.2578 19.2291 17.2731C19.2003 17.2876 19.1708 17.3043 19.1648 17.3094C19.1587 17.3145 19.1315 17.3291 19.1043 17.3422C19.077 17.3553 19.0498 17.3698 19.0438 17.3757C19.037 17.3807 19.0067 17.3982 18.9757 17.4135C18.9439 17.4295 18.9054 17.4506 18.8895 17.4615C18.8736 17.4717 18.857 17.4804 18.8532 17.4804C18.8487 17.4804 18.8366 17.4863 18.826 17.4943C18.8146 17.5015 18.7866 17.5175 18.764 17.5299C18.7413 17.5416 18.7027 17.5627 18.6793 17.5758C18.6218 17.6092 18.5688 17.6383 18.5023 17.6733C18.4728 17.6893 18.4433 17.706 18.4372 17.7111C18.432 17.7155 18.4115 17.7264 18.3934 17.7351C18.3745 17.7431 18.3442 17.7591 18.3261 17.77C18.283 17.7962 18.2331 17.8231 18.1778 17.8515C18.1529 17.8646 18.1158 17.8857 18.0947 17.8995C18.0742 17.9126 18.0485 17.9265 18.0379 17.9301C18.0274 17.9337 18.0009 17.949 17.9789 17.9629C17.9578 17.9774 17.9321 17.9912 17.923 17.9941C17.9132 17.997 17.8973 18.0043 17.8867 18.0116C17.83 18.0487 17.8058 18.0625 17.7982 18.0625C17.7944 18.0625 17.7785 18.0705 17.7642 18.0793C17.7498 18.0887 17.7158 18.1084 17.6885 18.1229C17.6613 18.1375 17.6258 18.1579 17.6106 18.168C17.5948 18.1782 17.5781 18.1862 17.5728 18.1862C17.5675 18.1862 17.5403 18.2008 17.5116 18.219C17.4836 18.2372 17.4571 18.2517 17.4533 18.2517C17.4496 18.2517 17.4254 18.2648 17.3996 18.2808C17.3543 18.3092 17.3384 18.3179 17.2423 18.3674C17.2159 18.3805 17.1781 18.4023 17.1569 18.4162C17.1365 18.4293 17.1108 18.4431 17.1002 18.4467C17.0896 18.4504 17.0631 18.4656 17.0412 18.4795C17.02 18.494 16.9943 18.5078 16.9845 18.5108C16.9754 18.5129 16.9474 18.5282 16.9224 18.5435C16.8975 18.5588 16.8627 18.5792 16.8453 18.5879C16.8279 18.5973 16.7954 18.6141 16.7735 18.6257C16.7515 18.6366 16.7145 18.6592 16.691 18.6745L16.6479 18.7021L16.6018 18.673C16.5768 18.6577 16.5549 18.6446 16.5526 18.6446C16.5488 18.6446 16.446 18.5864 16.3779 18.545C16.353 18.5297 16.3242 18.5144 16.3136 18.51C16.2902 18.5013 16.1972 18.4489 16.1367 18.4103C16.1117 18.3951 16.089 18.3827 16.0845 18.3827C16.0807 18.3827 16.0542 18.3681 16.0263 18.3499C15.9983 18.3318 15.9718 18.3172 15.9688 18.3172C15.965 18.3172 15.9348 18.3005 15.9015 18.2808C15.8682 18.2605 15.838 18.2444 15.8342 18.2444C15.8304 18.2444 15.816 18.2364 15.8032 18.227C15.7896 18.2168 15.7585 18.1993 15.7343 18.187C15.7101 18.1753 15.6784 18.1571 15.664 18.1469C15.6496 18.136 15.6338 18.128 15.63 18.128C15.6254 18.128 15.599 18.1135 15.571 18.096C15.543 18.0778 15.5135 18.0618 15.5052 18.0589C15.4969 18.0567 15.4674 18.04 15.4394 18.0225C15.4107 18.0043 15.3842 17.9898 15.3804 17.9898C15.3759 17.9898 15.3555 17.9789 15.3343 17.965C15.2972 17.941 15.2208 17.8981 15.1649 17.8697C15.1498 17.8617 15.118 17.8442 15.0953 17.8304C15.0734 17.8166 15.0409 17.7984 15.0242 17.7897C14.9788 17.7657 14.8851 17.7133 14.8472 17.69C14.8283 17.6791 14.8109 17.6696 14.8072 17.6696C14.8034 17.6696 14.7792 17.6558 14.7535 17.6398C14.7278 17.623 14.6998 17.607 14.6907 17.6041C14.6816 17.6005 14.6544 17.5859 14.6302 17.5707C14.5841 17.5416 14.5621 17.5299 14.482 17.4884C14.4555 17.4753 14.4177 17.4535 14.3965 17.4411C14.3761 17.4288 14.3489 17.4128 14.336 17.4062C14.3148 17.3946 14.299 17.3858 14.2218 17.3422C14.2044 17.332 14.1651 17.3109 14.1356 17.2949C14.1053 17.2789 14.0645 17.2549 14.0441 17.2418C14.0237 17.2294 14.0055 17.2185 14.0033 17.2185C14.001 17.2185 13.9738 17.2039 13.9435 17.1857C13.9125 17.1676 13.8845 17.153 13.8822 17.153C13.8792 17.153 13.8558 17.1399 13.8301 17.1239C13.8044 17.1079 13.7696 17.0875 13.7522 17.0788C13.7348 17.0693 13.6856 17.0424 13.6433 17.0184C13.6002 16.9944 13.5502 16.966 13.5313 16.9558C13.5124 16.9456 13.4814 16.9282 13.4625 16.9158C13.4436 16.9041 13.4202 16.8911 13.4096 16.8874C13.399 16.883 13.3755 16.8707 13.3566 16.8598C13.2803 16.8146 13.2296 16.7863 13.1903 16.7652C13.1676 16.7535 13.1343 16.7339 13.1169 16.723C13.0995 16.7113 13.0829 16.7019 13.0791 16.7019C13.0753 16.7019 13.0473 16.6873 13.0171 16.6691C12.9868 16.6509 12.9596 16.6364 12.9566 16.6364C12.9543 16.6364 12.9384 16.6276 12.9218 16.616C12.9052 16.6051 12.8658 16.5833 12.8348 16.5665L12.7781 16.5374V16.0426C12.7781 15.7712 12.7819 14.8028 12.7864 13.891C12.794 12.2706 12.7947 12.2335 12.8091 12.2233C12.8167 12.2175 12.8431 12.2022 12.8673 12.1891C12.8915 12.176 12.9286 12.1549 12.9505 12.1418C12.9725 12.1294 13.0072 12.1105 13.0277 12.1003C13.0488 12.0901 13.0844 12.0705 13.1071 12.0559C13.1298 12.0421 13.1517 12.0305 13.1555 12.0305C13.1593 12.0305 13.1683 12.0261 13.1744 12.0203C13.1812 12.0152 13.2137 11.997 13.247 11.9795C13.2803 11.9628 13.3128 11.9446 13.3188 11.9395C13.3249 11.9344 13.3521 11.9192 13.3793 11.9061C13.4066 11.893 13.4391 11.8755 13.4512 11.8668C13.464 11.858 13.4958 11.8398 13.523 11.8267C13.5502 11.8136 13.5775 11.7991 13.5835 11.794C13.5896 11.7889 13.607 11.7787 13.6221 11.7714C13.6372 11.7634 13.6637 11.7496 13.6818 11.7394C13.7544 11.698 13.7809 11.6834 13.8338 11.6565C13.8649 11.6412 13.8996 11.6216 13.9125 11.6128C13.9246 11.6048 13.9571 11.5866 13.9843 11.5735C14.0116 11.5597 14.0388 11.5444 14.0448 11.5393C14.0517 11.5335 14.0683 11.524 14.0827 11.5175C14.097 11.511 14.128 11.4949 14.1507 11.4811C14.1734 11.4673 14.2044 11.4513 14.2188 11.4447C14.2332 11.4382 14.2498 11.4287 14.2566 11.4236C14.2627 11.4178 14.2869 11.4047 14.3095 11.3931C14.3322 11.3822 14.3617 11.3662 14.3738 11.3574C14.3867 11.3487 14.4177 11.3312 14.4442 11.3189C14.4706 11.3058 14.5016 11.289 14.5137 11.281C14.5258 11.273 14.547 11.2614 14.5606 11.2548C14.5742 11.249 14.6007 11.2345 14.6196 11.2228C14.6385 11.2104 14.6657 11.1959 14.6801 11.1893C14.6945 11.1828 14.7119 11.1733 14.7179 11.1682C14.724 11.1631 14.7512 11.1486 14.7784 11.1355C14.8057 11.1224 14.8382 11.1042 14.8503 11.0955C14.8631 11.0867 14.8979 11.0664 14.9282 11.0511C15.0121 11.0082 15.0348 10.9958 15.0885 10.9645C15.1399 10.9347 15.1619 10.9223 15.2413 10.8816C15.2677 10.8685 15.3063 10.8466 15.3267 10.8328C15.3479 10.8197 15.3729 10.8059 15.3834 10.8022C15.394 10.7986 15.4205 10.7833 15.4424 10.7695C15.4636 10.7549 15.4893 10.7411 15.4984 10.7382C15.5082 10.7353 15.5241 10.728 15.5347 10.7207C15.5907 10.6844 15.6156 10.6698 15.6224 10.6698C15.6262 10.6698 15.6413 10.6618 15.6557 10.6531C15.6701 10.6436 15.7049 10.624 15.7328 10.6094C15.7601 10.5949 15.7948 10.5752 15.8092 10.5665C15.8236 10.557 15.8591 10.5374 15.8879 10.5221C15.9718 10.477 15.9824 10.4712 16.0384 10.4392C16.0686 10.4217 16.0958 10.4079 16.1004 10.4079C16.1042 10.4079 16.1155 10.402 16.1253 10.394C16.1352 10.3868 16.1692 10.3678 16.2002 10.3518C16.2312 10.3358 16.2705 10.314 16.2864 10.3038C16.3023 10.2929 16.3189 10.2842 16.3227 10.2842C16.3265 10.2842 16.3522 10.2696 16.381 10.2514C16.4097 10.2332 16.4354 10.2187 16.4384 10.2187C16.4415 10.2187 16.4694 10.2041 16.5004 10.1859C16.5307 10.1677 16.5587 10.1532 16.5617 10.1532C16.5647 10.1532 16.5791 10.1452 16.5935 10.1357C16.6078 10.1263 16.6335 10.1117 16.6494 10.1037C16.6827 10.0863 16.6857 10.0877 16.7523 10.1306Z" fill="#FFB125" stroke="#E58217" mask="url(#path-2-inside-1_43_80)"/>
</svg>
