<svg width="54" height="36" viewBox="0 0 54 36" fill="none" xmlns="http://www.w3.org/2000/svg">
<path d="M8.93349 33.8872C14.355 21.1463 38.7308 21.1463 44.1545 33.8872C44.4597 34.6083 43.9023 35.3913 43.0994 35.3913H9.98639C9.18345 35.3913 8.62603 34.6083 8.93349 33.8872ZM26.5429 0C20.4357 0 15.4831 4.95257 15.4831 11.0598C15.4831 17.167 20.4357 22.1196 26.5429 22.1196C32.6501 22.1196 37.6027 17.167 37.6027 11.0598C37.6027 4.95257 32.6501 0 26.5429 0Z" fill="#427BBD"/>
<path d="M49.7694 16.5895C49.7694 19.6442 47.2942 22.1194 44.2395 22.1194C41.1848 22.1194 38.7096 19.6442 38.7096 16.5895C38.7096 13.5347 41.1848 11.0596 44.2395 11.0596C47.2942 11.0596 49.7694 13.5347 49.7694 16.5895ZM8.84819 11.0596C5.79348 11.0596 3.3183 13.5347 3.3183 16.5895C3.3183 19.6442 5.79348 22.1194 8.84819 22.1194C11.9029 22.1194 14.3781 19.6442 14.3781 16.5895C14.3781 13.5347 11.9029 11.0596 8.84819 11.0596ZM53.0453 28.0032C50.9019 22.9687 42.8548 21.9291 38.2296 24.8533C40.2314 25.8974 41.9833 27.2046 43.399 28.7552H52.5188C52.9192 28.7552 53.1979 28.3637 53.0453 28.0032ZM14.8581 24.8533C10.2329 21.9291 2.18578 22.9687 0.042392 28.0032C-0.110233 28.3637 0.168473 28.7552 0.571049 28.7552H9.69095C11.1044 27.2046 12.8563 25.8974 14.8581 24.8533Z" fill="#427BBD" fill-opacity="0.69"/>
</svg>
