<svg width="26" height="24" viewBox="0 0 26 24" fill="none" xmlns="http://www.w3.org/2000/svg">
<path d="M12.9999 23.1115C12.6966 23.1115 12.3881 23.0574 12.0743 22.9492C11.7606 22.8411 11.4841 22.668 11.2449 22.4301L9.00246 20.3858C6.7058 18.2875 4.63101 16.2056 2.77809 14.1401C0.925163 12.0747 -0.000866055 9.79765 6.07758e-07 7.30907C6.07758e-07 5.27563 0.682497 3.5775 2.04749 2.21466C3.41248 0.851828 5.11331 0.17041 7.14996 0.17041C8.29829 0.17041 9.38162 0.413557 10.3999 0.899851C11.4183 1.38615 12.2849 2.05156 12.9999 2.89608C13.7149 2.05242 14.5816 1.38744 15.5999 0.901149C16.6182 0.414855 17.7016 0.171275 18.8499 0.17041C20.8866 0.17041 22.5874 0.851828 23.9524 2.21466C25.3174 3.5775 25.9999 5.27563 25.9999 7.30907C25.9999 9.79679 25.079 12.079 23.2374 14.1557C21.3957 16.2324 19.3049 18.3199 16.9649 20.4183L14.7549 22.4301C14.5166 22.668 14.2406 22.8411 13.9268 22.9492C13.6131 23.0574 13.3041 23.1115 12.9999 23.1115Z" fill="#ED2A2A"/>
</svg>
