<svg width="30" height="31" viewBox="0 0 30 31" fill="none" xmlns="http://www.w3.org/2000/svg">
<path d="M12.88 1.09629C13.8145 0.240691 15.2764 0.240691 16.2109 1.09629L27.9527 11.8463C28.6793 12.5114 29.0909 13.4369 29.0909 14.405V27.4788C29.0909 29.4235 27.4628 31 25.4545 31H20.6061C18.5977 31 16.9697 29.4235 16.9697 27.4788V21.61C16.9697 20.9619 16.427 20.4364 15.7576 20.4364H13.3333C12.6639 20.4364 12.1212 20.9619 12.1212 21.61V27.4788C12.1212 29.4235 10.4932 31 8.48485 31H3.63636C1.62805 31 0 29.4235 0 27.4788V14.405C0 13.4369 0.411637 12.5114 1.13813 11.8463L12.88 1.09629ZM14.5455 2.8021L2.80361 13.5521C2.56145 13.7738 2.42424 14.0823 2.42424 14.405V27.4788C2.42424 28.1269 2.96693 28.6525 3.63636 28.6525H8.48485C9.15428 28.6525 9.69697 28.1269 9.69697 27.4788V21.61C9.69697 19.6654 11.325 18.0889 13.3333 18.0889H15.7576C17.7659 18.0889 19.3939 19.6654 19.3939 21.61V27.4788C19.3939 28.1269 19.9367 28.6525 20.6061 28.6525H25.4545C26.1239 28.6525 26.6667 28.1269 26.6667 27.4788V14.405C26.6667 14.0823 26.5295 13.7738 26.2873 13.5521L14.5455 2.8021Z" fill="#1E3167"/>
</svg>
