<svg width="36" height="36" viewBox="0 0 36 36" fill="none" xmlns="http://www.w3.org/2000/svg">
<path d="M27.5287 33.7656C27.03 33.7656 26.5313 33.6369 26.0808 33.3634L19.6296 29.5344C18.9539 29.5183 18.2782 29.4702 17.6347 29.3736C17.2003 29.3093 16.8303 29.0196 16.6694 28.6013C16.5085 28.183 16.5889 27.7325 16.8785 27.3947C17.9403 26.1559 18.4873 24.6758 18.4873 23.0992C18.4873 19.2059 15.0606 16.0366 10.8455 16.0366C9.26891 16.0366 7.75663 16.4711 6.48568 17.3077C6.13175 17.5329 5.69738 17.5651 5.31127 17.3881C4.94124 17.2112 4.66777 16.8571 4.6195 16.4388C4.57124 15.9883 4.53906 15.538 4.53906 15.0715C4.53906 7.09181 11.4569 0.608398 19.9513 0.608398C28.4457 0.608398 35.3636 7.09181 35.3636 15.0715C35.3636 19.4474 33.3365 23.4692 29.765 26.2203L30.3119 30.5963C30.4406 31.6903 29.958 32.7199 29.041 33.3152C28.5905 33.6048 28.0596 33.7656 27.5287 33.7656ZM19.9352 27.1051C20.1605 27.089 20.3857 27.1535 20.5788 27.2822L27.3196 31.2881C27.4966 31.4007 27.6413 31.3525 27.7379 31.2881C27.8183 31.2398 27.947 31.1111 27.9148 30.8859L27.2874 25.802C27.2392 25.3515 27.4322 24.9173 27.7861 24.6599C31.0681 22.3593 32.9504 18.852 32.9504 15.0391C32.9504 8.3949 27.1265 2.98938 19.9513 2.98938C13.0496 2.98938 7.38661 8.00887 6.96832 14.3153C8.17492 13.8488 9.47805 13.5913 10.8294 13.5913C16.3798 13.5913 20.8844 17.8384 20.8844 23.067C20.9005 24.4828 20.5627 25.8502 19.9352 27.1051Z" fill="#427BBD"/>
<path d="M6.14588 35.1813C5.72759 35.1813 5.32539 35.0686 4.95537 34.8273C4.23141 34.3608 3.84532 33.5564 3.94185 32.7037L4.26359 30.2262C2.09172 28.4565 0.804688 25.8342 0.804688 23.0831C0.804688 19.946 2.44567 17.018 5.19671 15.2644C6.85376 14.1865 8.81647 13.6074 10.8596 13.6074C16.41 13.6074 20.9146 17.8546 20.9146 23.0831C20.9146 25.2067 20.1424 27.2982 18.7267 28.9552C16.9087 31.1593 14.1898 32.4463 11.1975 32.5428L7.27203 34.8756C6.9181 35.0847 6.53199 35.1813 6.14588 35.1813ZM10.8435 16.0205C9.26693 16.0205 7.75465 16.4549 6.48371 17.2915C4.42445 18.6107 3.20179 20.7665 3.20179 23.0831C3.20179 25.3194 4.29578 27.3625 6.22633 28.6817C6.59635 28.9391 6.78939 29.3735 6.74113 29.824L6.3872 32.575L10.2322 30.2905C10.4253 30.1779 10.6344 30.1136 10.8435 30.1136C13.2085 30.1136 15.4447 29.1 16.8605 27.3786C17.9223 26.1238 18.4854 24.6437 18.4854 23.0671C18.4854 19.1899 15.0586 16.0205 10.8435 16.0205Z" fill="#427BBD"/>
</svg>
