<svg width="32" height="31" viewBox="0 0 32 31" fill="none" xmlns="http://www.w3.org/2000/svg">
<path d="M12.9658 22.2726C12.4002 22.2683 11.8588 22.053 11.4572 21.6726C11.0555 21.2923 10.8256 20.7771 10.8164 20.2371V12.6669C10.8205 12.2967 10.9294 11.9345 11.1315 11.6186C11.3337 11.3027 11.6215 11.0448 11.9646 10.8724C12.3077 10.7 12.6933 10.6194 13.0804 10.6392C13.4676 10.6589 13.842 10.7783 14.1639 10.9847L20.0484 14.7445C20.3409 14.9332 20.5804 15.1876 20.746 15.4853C20.9116 15.783 20.9982 16.1149 20.9982 16.452C20.9982 16.7891 20.9116 17.121 20.746 17.4187C20.5804 17.7164 20.3409 17.9708 20.0484 18.1595L14.1639 21.9193C13.8111 22.15 13.3934 22.2732 12.9658 22.2726ZM13.0451 12.7847V20.1193L18.7798 16.452L13.0451 12.7847Z" fill="#1E3167"/>
<rect x="1.88477" y="1.70459" width="28.0455" height="28.0455" rx="3.75" stroke="#1E3167" stroke-width="2.5"/>
</svg>
