<svg width="32" height="32" viewBox="0 0 32 32" fill="none" xmlns="http://www.w3.org/2000/svg">
<path d="M10.2295 31.2398L10.1426 31.0866C8.81346 28.7446 6.56022 27.0699 3.93443 26.4725V26.4725C3.55972 26.3943 3.25995 26.1927 3.03513 25.8676C2.8103 25.5424 2.72287 25.184 2.77283 24.7922L2.79778 24.5249C3.04561 21.87 2.22282 19.226 0.512231 17.1804L0.374707 17.016C0.124902 16.7294 0 16.3908 0 16C0 15.6092 0.124902 15.2706 0.374707 14.984L0.51223 14.8196C2.22282 12.774 3.04561 10.13 2.79778 7.47507L2.77283 7.20782C2.72287 6.81705 2.8103 6.45859 3.03513 6.13244C3.25995 5.80628 3.55972 5.60465 3.93443 5.52754V5.52754C6.56022 4.93009 8.81346 3.25538 10.1426 0.91335L10.2295 0.760219C10.4294 0.421557 10.7041 0.193351 11.0539 0.0756009C11.4036 -0.0421492 11.7533 -0.0223505 12.103 0.134997V0.134997C14.5856 1.2303 17.4144 1.2303 19.897 0.134997V0.134997C20.2467 -0.0213085 20.5964 -0.0411071 20.9461 0.0756009C21.2959 0.192309 21.5707 0.420515 21.7705 0.760219L21.8574 0.913349C23.1865 3.25538 25.4398 4.93009 28.0656 5.52754V5.52754C28.4403 5.60569 28.74 5.80784 28.9649 6.134C29.1897 6.46016 29.2771 6.8181 29.2272 7.20782L29.2022 7.47507C28.9544 10.13 29.7772 12.774 31.4878 14.8196L31.6253 14.984C31.8751 15.2706 32 15.6092 32 16C32 16.3908 31.8751 16.7294 31.6253 17.016L31.4878 17.1804C29.7772 19.226 28.9544 21.87 29.2022 24.5249L29.2272 24.7922C29.2771 25.1829 29.1897 25.5414 28.9649 25.8676C28.74 26.1937 28.4403 26.3954 28.0656 26.4725V26.4725C25.4398 27.0699 23.1865 28.7446 21.8574 31.0866L21.7705 31.2398C21.5707 31.5784 21.2959 31.8066 20.9461 31.9244C20.5964 32.0421 20.2467 32.0223 19.897 31.865V31.865C17.4144 30.7697 14.5856 30.7697 12.103 31.865V31.865C11.7533 32.0213 11.4036 32.0411 11.0539 31.9244C10.7041 31.8077 10.4294 31.5795 10.2295 31.2398Z" fill="#1E3167"/>
<mask id="path-2-inside-1_43_69" fill="white">
<path d="M15.6661 8.00596C15.6638 8.00959 15.6532 8.01469 15.6434 8.01687C15.6328 8.01905 15.6048 8.03433 15.5806 8.04961C15.5557 8.06562 15.5239 8.08381 15.5095 8.08963C15.4952 8.09618 15.4498 8.12092 15.4082 8.14493C15.3666 8.16822 15.3159 8.1966 15.2947 8.20751C15.2743 8.21842 15.2403 8.23734 15.2191 8.25044C15.1987 8.26354 15.1737 8.27663 15.1647 8.27882C15.1556 8.28173 15.1253 8.29846 15.0974 8.31593C15.0686 8.33412 15.0429 8.34867 15.0391 8.34867C15.0353 8.34867 15.0111 8.36177 14.9854 8.37778C14.9597 8.39378 14.9242 8.41416 14.9068 8.42289C14.8183 8.46873 14.7321 8.51675 14.7283 8.52257C14.726 8.52621 14.7162 8.53058 14.7064 8.53349C14.6965 8.53567 14.6655 8.55241 14.6368 8.5706C14.6081 8.58879 14.5808 8.60334 14.5755 8.60334C14.571 8.60334 14.5498 8.61426 14.5294 8.62808C14.509 8.64191 14.4719 8.66301 14.447 8.67538C14.3971 8.70157 14.2957 8.75833 14.2549 8.78307C14.2405 8.79252 14.2254 8.7998 14.2216 8.7998C14.2186 8.7998 14.1906 8.81435 14.1611 8.83254C14.1308 8.85074 14.1029 8.86529 14.0983 8.86529C14.0938 8.86529 14.0824 8.87111 14.0726 8.87911C14.0628 8.88639 14.0272 8.90749 13.994 8.92495C13.9607 8.94314 13.9032 8.97516 13.8654 8.99626C13.8283 9.01736 13.783 9.0421 13.7663 9.05083C13.7489 9.05957 13.7149 9.07848 13.6899 9.09304C13.6642 9.10832 13.6408 9.11996 13.637 9.11996C13.6325 9.11996 13.6211 9.12578 13.6113 9.13378C13.6015 9.14106 13.5659 9.16216 13.5326 9.17962C13.4994 9.19781 13.4419 9.22983 13.4041 9.25093C13.367 9.27276 13.3194 9.29823 13.2982 9.30841C13.2778 9.31933 13.2468 9.33606 13.2301 9.34625C13.2135 9.35717 13.1863 9.37172 13.1696 9.37972C13.153 9.38773 13.1227 9.40373 13.1016 9.4161C12.9874 9.48232 12.9329 9.51288 12.9284 9.51288C12.9261 9.51288 12.8996 9.52743 12.8694 9.54562C12.8391 9.56381 12.8119 9.57837 12.8081 9.57837C12.8051 9.57837 12.793 9.58419 12.7817 9.59146C12.7227 9.63003 12.6992 9.64385 12.6894 9.64385C12.6841 9.64385 12.669 9.65113 12.6561 9.66059C12.6433 9.67005 12.6092 9.69042 12.5797 9.7057C12.551 9.72098 12.5185 9.73844 12.5079 9.74572C12.4973 9.753 12.4814 9.76027 12.4724 9.76318C12.4633 9.76609 12.433 9.78283 12.405 9.80029C12.3763 9.81848 12.3506 9.83304 12.3468 9.83304C12.3423 9.83304 12.3203 9.84541 12.2977 9.85996C12.2742 9.87451 12.2394 9.89416 12.2205 9.90362C12.2016 9.91235 12.154 9.94 12.1146 9.96401C12.0753 9.98802 12.0307 10.0135 12.0163 10.0208C11.9793 10.0382 11.8159 10.1277 11.7229 10.1816C11.6994 10.1947 11.6579 10.218 11.6306 10.2318C11.6042 10.2463 11.5701 10.2652 11.5558 10.2747C11.5421 10.2842 11.527 10.2914 11.5232 10.2914C11.5172 10.2914 11.5089 10.2958 11.4529 10.3329C11.44 10.3409 11.4211 10.3504 11.4113 10.3533C11.4007 10.3562 11.3826 10.3664 11.3697 10.3751C11.3576 10.3846 11.3251 10.402 11.2979 10.4151C11.2706 10.4282 11.2381 10.4464 11.2253 10.4559C11.2124 10.4653 11.1996 10.4734 11.1958 10.4734C11.1927 10.4734 11.1617 10.4894 11.127 10.5097C11.0922 10.5294 11.0612 10.5461 11.0574 10.5461C11.0536 10.5461 11.0422 10.5519 11.0324 10.5599C11.0226 10.5672 10.9908 10.5854 10.9613 10.6007C10.9326 10.6152 10.9031 10.632 10.897 10.6371C10.891 10.6422 10.8645 10.6567 10.8388 10.6698C10.8123 10.6822 10.7738 10.704 10.7526 10.7178C10.7314 10.7309 10.711 10.7426 10.7072 10.7426C10.7027 10.7426 10.68 10.7542 10.6566 10.7695C10.6331 10.784 10.6036 10.8001 10.5908 10.8059C10.5787 10.811 10.5461 10.8284 10.5197 10.8444C10.494 10.8605 10.4698 10.8735 10.4667 10.8735C10.4637 10.8735 10.438 10.8881 10.4093 10.9063C10.3798 10.9245 10.3533 10.939 10.3488 10.939C10.345 10.939 10.3261 10.9492 10.3072 10.9616C10.2762 10.982 10.2308 11.0067 10.1347 11.0555C10.1151 11.0656 10.0795 11.086 10.0553 11.1006C10.0319 11.1158 10.0084 11.1282 10.0047 11.1282C10.0001 11.1282 9.98045 11.1391 9.96079 11.1515L9.92449 11.1755L9.91919 11.6703C9.91617 11.9424 9.9139 12.5682 9.9139 13.0608C9.9139 13.5534 9.91163 13.9769 9.90936 14.0016L9.90407 14.0467L9.83147 14.0795C9.64618 14.1646 9.62122 14.1755 9.60383 14.1806C9.59324 14.1835 9.57131 14.1937 9.55467 14.2032C9.53803 14.2119 9.50778 14.2257 9.48661 14.2337C9.46619 14.2417 9.42157 14.2599 9.38829 14.2752C9.35502 14.2898 9.29376 14.3167 9.25216 14.3349C9.21057 14.3523 9.14553 14.3822 9.10772 14.3996C9.06915 14.4171 9.03436 14.4317 9.02982 14.4317C9.02528 14.4317 8.99579 14.4448 8.96478 14.4608C8.93378 14.4768 8.90504 14.4899 8.9005 14.4899C8.89672 14.4899 8.85664 14.5066 8.81202 14.527C8.76664 14.5474 8.69631 14.5786 8.65471 14.5968C8.61312 14.615 8.54808 14.6441 8.51027 14.6616C8.47245 14.6791 8.43766 14.6936 8.43313 14.6936C8.42859 14.6936 8.39985 14.706 8.36884 14.722C8.33859 14.7373 8.30532 14.7525 8.29549 14.7555C8.2849 14.7584 8.24406 14.7758 8.20473 14.7933C8.16541 14.8115 8.09886 14.8406 8.05726 14.8588C8.01567 14.877 7.95365 14.9046 7.91962 14.9199C7.88635 14.9359 7.85609 14.9483 7.85307 14.9483C7.84248 14.9483 7.69123 15.037 7.67383 15.0531C7.664 15.0618 7.64661 15.0749 7.63375 15.0829C7.62165 15.0902 7.60653 15.1025 7.60048 15.1105C7.59518 15.1178 7.58157 15.1295 7.57023 15.136C7.55888 15.1433 7.53014 15.1695 7.50594 15.1957C7.48174 15.2219 7.453 15.2532 7.44166 15.2648C7.39099 15.3186 7.28511 15.4918 7.26016 15.5609C7.25259 15.582 7.23596 15.6279 7.2231 15.6621C7.20722 15.7065 7.19663 15.7596 7.18453 15.8513C7.16562 16.0012 7.13386 16.2988 7.12705 16.3963C7.12403 16.4341 7.11193 16.5534 7.09983 16.6618C7.07109 16.9216 7.06428 16.9907 7.05521 17.1166C7.05067 17.1748 7.03857 17.2956 7.02798 17.3851C7.01739 17.4746 7.00983 17.5517 7.01134 17.5568C7.01286 17.5641 7.02193 17.5627 7.04764 17.5517C7.06655 17.5437 7.11042 17.5248 7.14596 17.5095C7.28284 17.4506 7.38645 17.4048 7.44469 17.3778C7.47872 17.3618 7.50897 17.3495 7.51199 17.3495C7.51577 17.3495 7.54981 17.3349 7.58762 17.3174C7.62543 17.3 7.69198 17.2701 7.73585 17.2512C7.77971 17.2323 7.85004 17.201 7.8924 17.1814C7.93475 17.1617 7.97256 17.1457 7.9771 17.1457C7.98164 17.1457 8.01491 17.1312 8.05121 17.113C8.08751 17.0948 8.12003 17.0802 8.12306 17.0802C8.12684 17.0802 8.15709 17.0671 8.19188 17.0519C8.22591 17.0366 8.29322 17.006 8.34086 16.9856C8.38851 16.9645 8.4596 16.9333 8.49741 16.9158C8.53598 16.8983 8.57077 16.8838 8.57455 16.8838C8.57833 16.8838 8.60329 16.8729 8.62976 16.859C8.65623 16.8459 8.68572 16.8328 8.69631 16.8299C8.7069 16.827 8.74244 16.8117 8.77572 16.7965C8.80899 16.7805 8.87554 16.7513 8.92319 16.7302C8.97083 16.7099 9.0389 16.68 9.07444 16.664C9.10999 16.6473 9.15082 16.6306 9.16519 16.6255C9.17956 16.6204 9.20906 16.608 9.22948 16.5978C9.26502 16.5811 9.34897 16.544 9.53198 16.4639C9.57358 16.4457 9.63181 16.4203 9.66055 16.4072C9.69004 16.3941 9.73391 16.3744 9.75886 16.3642C9.78382 16.3541 9.82088 16.3373 9.8413 16.3271C9.89877 16.2988 9.9018 16.3002 9.8965 16.3577C9.89348 16.3853 9.89121 16.6677 9.89121 16.9864V17.5656L9.85188 17.5823C9.75659 17.6223 9.64089 17.6733 9.58643 17.6994C9.55392 17.7155 9.52366 17.7278 9.51988 17.7278C9.51535 17.7278 9.48056 17.7424 9.44274 17.7598C9.40417 17.7773 9.33384 17.8086 9.2862 17.8297C9.14477 17.8908 9.05251 17.9316 8.97915 17.965C8.94134 17.9825 8.90731 17.997 8.90353 17.997C8.9005 17.997 8.87025 18.0101 8.83622 18.0254C8.80294 18.0414 8.73639 18.0713 8.68875 18.0916C8.48985 18.1775 8.46262 18.1891 8.39531 18.2197C8.35674 18.2372 8.32347 18.2517 8.3212 18.2517C8.31893 18.2517 8.28868 18.2641 8.2554 18.2801C8.22137 18.2954 8.15406 18.3252 8.10642 18.3463C7.93399 18.4213 7.89769 18.438 7.81979 18.4758C7.75097 18.51 7.67913 18.5515 7.66778 18.5646C7.66552 18.5668 7.65417 18.5748 7.64207 18.5821C7.5914 18.6134 7.42351 18.7763 7.40007 18.8178C7.39628 18.8251 7.39099 18.8316 7.38797 18.8338C7.38116 18.8389 7.32746 18.9182 7.32746 18.9226C7.32746 18.9248 7.31536 18.9452 7.30099 18.9684C7.28663 18.9917 7.26923 19.0274 7.26242 19.0477C7.25562 19.0681 7.2473 19.0885 7.24352 19.0921C7.23217 19.1067 7.2057 19.1824 7.19436 19.2347C7.1747 19.3286 7.14067 19.6044 7.13083 19.7557C7.1263 19.819 7.10966 19.99 7.09378 20.1363C7.07714 20.2825 7.06201 20.4361 7.05899 20.4783C7.05596 20.5205 7.04386 20.6413 7.03176 20.7475C7.01966 20.8537 7.00756 20.9723 7.00454 21.0116L7 21.0822L7.05975 21.056C7.09226 21.0415 7.15352 21.0153 7.19512 20.9971C7.23671 20.9789 7.30175 20.9498 7.33956 20.9323C7.37813 20.9148 7.41217 20.9003 7.41595 20.9003C7.41973 20.9003 7.44847 20.8872 7.48023 20.8719C7.51199 20.8559 7.54603 20.8414 7.55586 20.8384C7.57249 20.8334 7.60123 20.821 7.76761 20.7446C7.80769 20.7264 7.84324 20.7111 7.84702 20.7111C7.85004 20.7111 7.87954 20.698 7.91357 20.6827C7.94685 20.6667 7.99298 20.6471 8.01567 20.6383C8.03836 20.6296 8.06785 20.6165 8.08071 20.6085C8.09356 20.6012 8.11776 20.5903 8.13364 20.5845C8.16238 20.575 8.23574 20.5423 8.35977 20.4855C8.39304 20.4703 8.42859 20.4557 8.43918 20.4528C8.44976 20.4499 8.48758 20.4332 8.52312 20.4157C8.55942 20.3982 8.59043 20.3837 8.59346 20.3837C8.59648 20.3837 8.62295 20.372 8.6532 20.3575C8.6827 20.3429 8.72051 20.3269 8.73639 20.3211C8.76362 20.3116 8.78328 20.3029 8.95495 20.2243C8.99957 20.204 9.0389 20.1872 9.04268 20.1872C9.0457 20.1872 9.07898 20.1727 9.11528 20.1545C9.15234 20.1363 9.18637 20.1217 9.19166 20.1217C9.19696 20.1217 9.22267 20.1108 9.2499 20.097C9.27712 20.0839 9.30737 20.0701 9.3172 20.0672C9.3346 20.0621 9.3951 20.0351 9.54106 19.9682C9.57433 19.9529 9.60534 19.9398 9.60912 19.9398C9.61215 19.9398 9.6424 19.9267 9.67567 19.9114C9.78306 19.8605 9.87004 19.8234 9.88138 19.8234C9.89045 19.8234 9.89121 19.9078 9.88743 20.3851C9.88516 20.6944 9.88214 21.6265 9.87987 22.4552L9.87533 23.9636L9.8965 23.9549C9.90785 23.9505 9.92827 23.9389 9.94037 23.9309C9.95322 23.9221 9.98499 23.904 10.0122 23.8909C10.0394 23.8778 10.072 23.8603 10.0841 23.8516C10.0969 23.8421 10.1272 23.8254 10.1521 23.813C10.1771 23.8006 10.2111 23.7824 10.227 23.7715C10.2429 23.7613 10.2595 23.7526 10.2625 23.7526C10.2663 23.7526 10.2928 23.7381 10.3223 23.7199C10.3518 23.7017 10.3782 23.6871 10.3813 23.6871C10.3843 23.6871 10.4108 23.6726 10.4395 23.6544C10.469 23.6362 10.4962 23.6216 10.5008 23.6216C10.5053 23.6216 10.5235 23.6122 10.5401 23.5998C10.5575 23.5882 10.5877 23.5707 10.6089 23.5612C10.6293 23.5511 10.6618 23.5336 10.6808 23.5205C10.7004 23.5081 10.7186 23.4979 10.7216 23.4979C10.7254 23.4979 10.7526 23.4827 10.7836 23.4645C10.8146 23.4463 10.8471 23.4281 10.8562 23.4252C10.8645 23.4215 10.8933 23.4055 10.9197 23.3895C10.9462 23.3728 10.9704 23.3597 10.9742 23.3597C10.978 23.3597 10.9991 23.3488 11.0203 23.3349C11.0422 23.3211 11.068 23.3066 11.0786 23.3029C11.0891 23.2993 11.1156 23.284 11.1383 23.2695C11.1602 23.2549 11.1806 23.2433 11.1837 23.2433C11.1867 23.2433 11.2253 23.2207 11.2691 23.1931C11.3826 23.1218 11.5036 23.0046 11.58 22.8918C11.6117 22.8453 11.6382 22.8045 11.6382 22.8016C11.6382 22.7994 11.6503 22.7732 11.6647 22.7441C11.6942 22.6844 11.7395 22.5251 11.7509 22.4407C11.7562 22.4029 11.7607 21.7516 11.7645 20.5066C11.7668 19.4749 11.7713 18.6301 11.7736 18.6301C11.7826 18.6308 11.9044 18.697 11.9694 18.7378C11.9967 18.7545 12.0224 18.7683 12.0262 18.7683C12.0292 18.7683 12.0519 18.7807 12.0753 18.7953C12.1177 18.8215 12.1411 18.8338 12.2372 18.884C12.2636 18.8971 12.2984 18.9175 12.315 18.9284C12.3445 18.9481 12.4126 18.9866 12.4845 19.023C12.5041 19.0332 12.5359 19.0521 12.5548 19.0645C12.5737 19.0769 12.5979 19.0892 12.6077 19.0921C12.6168 19.0958 12.6357 19.1052 12.6478 19.114C12.6607 19.1234 12.6932 19.1423 12.7212 19.1569C12.7491 19.1714 12.7847 19.1911 12.7998 19.2013C12.8149 19.2115 12.8308 19.2195 12.8346 19.2195C12.8384 19.2195 12.8641 19.234 12.8928 19.2522C12.9216 19.2704 12.9473 19.285 12.9511 19.285C12.9548 19.285 12.9813 19.2995 13.0093 19.3177C13.038 19.3359 13.0638 19.3504 13.0675 19.3504C13.0706 19.3504 13.0857 19.3584 13.1008 19.3686C13.1167 19.3788 13.1553 19.4006 13.187 19.4167C13.2188 19.4334 13.2506 19.4509 13.2566 19.4567C13.2627 19.4618 13.277 19.469 13.2876 19.4734C13.2982 19.477 13.3277 19.4923 13.3519 19.5076C13.3761 19.5229 13.4094 19.5418 13.4245 19.5505C13.5205 19.6007 13.5871 19.6379 13.5969 19.6459C13.603 19.6502 13.6325 19.667 13.6612 19.6815C13.6907 19.6968 13.7225 19.715 13.7323 19.7223C13.7421 19.7303 13.7535 19.7361 13.7572 19.7361C13.7618 19.7361 13.786 19.7492 13.8117 19.7652C13.8374 19.7812 13.8722 19.8016 13.8896 19.8103C13.9751 19.8554 14.0333 19.8874 14.0666 19.9093C14.087 19.9216 14.1059 19.9325 14.1089 19.9325C14.1127 19.9325 14.1377 19.9471 14.1656 19.9646C14.1936 19.9828 14.2239 19.9995 14.2322 20.0017C14.2413 20.0046 14.2685 20.0191 14.2927 20.0351C14.3176 20.0504 14.3403 20.0635 14.3441 20.0635C14.3479 20.0635 14.3638 20.0715 14.3789 20.0817C14.394 20.0912 14.4258 20.1101 14.45 20.1225C14.4734 20.1356 14.5067 20.1545 14.5233 20.1654C14.54 20.1763 14.5619 20.1879 14.571 20.1909C14.5808 20.1938 14.6035 20.2054 14.6202 20.2163C14.6375 20.2272 14.6693 20.2462 14.6905 20.2571C14.7109 20.2687 14.7464 20.2876 14.7684 20.3C14.7903 20.3116 14.8311 20.3357 14.8584 20.3531C14.8856 20.3699 14.9121 20.3837 14.9166 20.3837C14.9204 20.3837 14.9476 20.3982 14.9756 20.4164C15.0043 20.4346 15.03 20.4492 15.0331 20.4492C15.0353 20.4492 15.0648 20.4652 15.0981 20.4855C15.1314 20.5052 15.1616 20.5219 15.1654 20.5219C15.1692 20.5219 15.1828 20.5299 15.1957 20.5394C15.2085 20.5488 15.238 20.5656 15.2607 20.5765C15.2834 20.5874 15.3159 20.6056 15.3326 20.6165C15.3492 20.6274 15.3749 20.642 15.3893 20.6485C15.4036 20.6551 15.4309 20.6696 15.4498 20.682C15.4687 20.6936 15.4921 20.7075 15.5027 20.7111C15.5133 20.7155 15.539 20.7308 15.5609 20.7446C15.5821 20.7584 15.6033 20.7693 15.6071 20.7693C15.6109 20.7693 15.6373 20.7839 15.6661 20.8021C15.6948 20.8195 15.7213 20.8348 15.7243 20.8348C15.7273 20.8348 15.753 20.8494 15.7818 20.8676C15.8105 20.8857 15.8362 20.9003 15.84 20.9003C15.8438 20.9003 15.8589 20.9076 15.8733 20.917C15.9103 20.9396 16.014 20.9978 16.0586 21.0211C16.0797 21.032 16.1138 21.0509 16.1342 21.064C16.1554 21.0764 16.1955 21.1004 16.2242 21.1157C16.2529 21.131 16.2945 21.1535 16.3165 21.1659C16.3384 21.1775 16.3792 21.2001 16.408 21.2161C16.4359 21.2314 16.473 21.2532 16.4896 21.2634C16.5063 21.2743 16.5388 21.2925 16.5615 21.3034C16.5842 21.315 16.6084 21.3281 16.6144 21.3332C16.6205 21.3383 16.6409 21.3507 16.6598 21.3609C16.6787 21.3703 16.7211 21.3922 16.7543 21.4096C16.7876 21.4271 16.8254 21.4482 16.8375 21.4569C16.8504 21.4657 16.8791 21.4817 16.9018 21.4933C16.9245 21.5042 16.954 21.521 16.9668 21.5304C16.9797 21.5399 16.9933 21.5479 16.9971 21.5479C17.0009 21.5479 17.0311 21.5646 17.0644 21.5843C17.0977 21.6046 17.1272 21.6206 17.1302 21.6206C17.1325 21.6206 17.1559 21.6337 17.1809 21.6498C17.2058 21.6658 17.2293 21.6789 17.2331 21.6789C17.2368 21.6789 17.2595 21.6912 17.2845 21.7065C17.3344 21.7371 17.4123 21.7815 17.4713 21.8113C17.4925 21.8222 17.5235 21.8404 17.5401 21.8513C17.5575 21.8622 17.5885 21.8797 17.6089 21.8899C17.6445 21.9081 17.6815 21.9284 17.7806 21.9852C17.832 22.015 17.8955 22.05 17.922 22.0638C17.9326 22.0689 17.9629 22.0863 17.9886 22.1016C18.0143 22.1176 18.0385 22.13 18.0415 22.13C18.0453 22.13 18.0665 22.1424 18.0907 22.1576C18.1141 22.1722 18.1572 22.1977 18.1875 22.2137C18.2389 22.2413 18.2654 22.2559 18.3395 22.2973C18.3569 22.3075 18.3864 22.3235 18.4038 22.3337C18.4363 22.3512 18.5021 22.3883 18.6412 22.4662C18.679 22.4873 18.7221 22.5113 18.738 22.5193C18.7532 22.5273 18.7842 22.5455 18.8068 22.5586C18.8295 22.5724 18.8605 22.5906 18.8764 22.5986C18.9067 22.6146 18.9884 22.6597 19.1063 22.7266C19.1441 22.7477 19.1903 22.7732 19.2099 22.7841C19.3014 22.8336 19.3514 22.862 19.3861 22.8838C19.4073 22.8976 19.4277 22.9086 19.4323 22.9086C19.4361 22.9086 19.4625 22.9231 19.4913 22.9413C19.5193 22.9588 19.5495 22.9755 19.5571 22.9777C19.5654 22.9806 19.5926 22.9951 19.6168 23.0112C19.6418 23.0264 19.6645 23.0395 19.6682 23.0395C19.6728 23.0395 19.6924 23.0504 19.7129 23.0643C19.7333 23.0781 19.7688 23.0977 19.7915 23.1087C19.8142 23.1196 19.8429 23.1363 19.855 23.145C19.8679 23.1538 19.8928 23.1683 19.9118 23.1771C19.9307 23.1865 19.9602 23.2032 19.9775 23.2142C19.9942 23.2251 20.0154 23.2367 20.0237 23.2389C20.032 23.2418 20.0623 23.2585 20.0902 23.276C20.119 23.2942 20.1447 23.3088 20.1477 23.3088C20.1515 23.3088 20.1719 23.3204 20.1938 23.3342C20.215 23.348 20.2362 23.3597 20.24 23.3597C20.243 23.3597 20.2687 23.3742 20.2967 23.3917C20.3239 23.4092 20.3549 23.4259 20.3648 23.4288C20.3746 23.4317 20.4003 23.4463 20.4207 23.4601C20.4419 23.4747 20.4744 23.4936 20.4933 23.503C20.5122 23.5118 20.5591 23.5372 20.5962 23.5591C20.634 23.5809 20.6847 23.6093 20.7096 23.6216C20.7346 23.634 20.7656 23.6522 20.7777 23.6609C20.7905 23.6704 20.8155 23.6849 20.8344 23.6937C20.8699 23.7104 20.9667 23.7642 21.0212 23.7984C21.0393 23.8094 21.056 23.8181 21.0598 23.8181C21.0628 23.8181 21.084 23.8297 21.1067 23.8443C21.1293 23.8588 21.1588 23.8756 21.1709 23.8814C21.1838 23.8865 21.2088 23.901 21.2277 23.9127C21.2466 23.9251 21.2753 23.9411 21.2919 23.9491C21.3086 23.9571 21.3358 23.9724 21.3532 23.9818L21.3842 24L21.3887 23.7104C21.3918 23.5518 21.394 23.1967 21.394 22.9224C21.394 22.3905 21.3925 22.3687 21.3555 22.2442C21.3471 22.2151 21.3358 22.1773 21.3305 22.1591C21.3169 22.1147 21.242 21.9728 21.2133 21.9379C21.2004 21.9226 21.1898 21.9066 21.1898 21.9022C21.1898 21.8942 21.0794 21.7735 21.0492 21.748C20.9902 21.6985 20.9705 21.6832 20.9373 21.6592C20.9161 21.6447 20.8805 21.6236 20.8578 21.6112C20.8344 21.5988 20.8049 21.5814 20.792 21.5719C20.7792 21.5624 20.7656 21.5552 20.7618 21.5552C20.758 21.5552 20.73 21.5406 20.6998 21.5224C20.6695 21.5042 20.6423 21.4897 20.6385 21.4897C20.6355 21.4897 20.6189 21.4802 20.6022 21.4686C20.5848 21.4569 20.5531 21.438 20.5311 21.4271C20.5084 21.4162 20.4767 21.3987 20.46 21.3878C20.4434 21.3776 20.4245 21.3667 20.4185 21.3645C20.4124 21.3623 20.3814 21.3456 20.3504 21.3267C20.3194 21.3085 20.2914 21.2932 20.2884 21.2932C20.2854 21.2932 20.2596 21.2787 20.2317 21.2605C20.2037 21.2423 20.1772 21.2277 20.1734 21.2277C20.1689 21.2277 20.1454 21.2146 20.1205 21.1986C20.0963 21.1826 20.0728 21.1695 20.0698 21.1695C20.066 21.1695 20.0433 21.1571 20.0199 21.1419C19.9957 21.1273 19.9602 21.1069 19.9405 21.0968C19.8921 21.072 19.8081 21.0262 19.7756 21.0058C19.7613 20.9963 19.7295 20.9789 19.706 20.9665C19.6818 20.9541 19.6501 20.9352 19.635 20.9258C19.6198 20.9156 19.604 20.9076 19.6002 20.9076C19.5964 20.9076 19.5707 20.8937 19.5427 20.8763C19.5147 20.8595 19.4822 20.8399 19.4693 20.8334C19.3498 20.7693 19.3158 20.7504 19.2992 20.738C19.2886 20.7308 19.2689 20.7198 19.2553 20.7147C19.2417 20.7089 19.213 20.6936 19.191 20.6806C19.1699 20.6675 19.1419 20.6507 19.129 20.6442C19.1078 20.6325 19.092 20.6238 19.0148 20.5801C18.9974 20.57 18.9581 20.5488 18.9286 20.5328C18.8984 20.5168 18.8575 20.4928 18.8371 20.4805C18.8167 20.4674 18.7978 20.4564 18.7955 20.4564C18.7925 20.4564 18.7653 20.4419 18.735 20.4237C18.7055 20.4055 18.6783 20.391 18.6753 20.391C18.6715 20.391 18.6503 20.3786 18.6276 20.364C18.6042 20.3495 18.5686 20.3298 18.549 20.3204C18.5285 20.3109 18.4983 20.2935 18.4809 20.2818C18.4643 20.2694 18.4469 20.26 18.4431 20.26C18.4393 20.26 18.4121 20.2454 18.3833 20.2272C18.3546 20.209 18.3281 20.1945 18.3251 20.1945C18.3221 20.1945 18.2964 20.1799 18.2676 20.1617C18.2396 20.1443 18.2094 20.1276 18.2003 20.1246C18.1912 20.1225 18.1784 20.1159 18.1723 20.1108C18.1602 20.1006 18.0491 20.0388 17.9734 19.9995C17.9477 19.9857 17.916 19.9675 17.9024 19.9573C17.8895 19.9478 17.8751 19.9398 17.8721 19.9398C17.8683 19.9398 17.8403 19.9253 17.8101 19.9071C17.7798 19.8889 17.7526 19.8743 17.7503 19.8743C17.7473 19.8743 17.7299 19.8641 17.711 19.8518C17.6921 19.8401 17.6573 19.8198 17.6331 19.8081C17.6082 19.7958 17.5749 19.7768 17.5582 19.7652C17.5318 19.7463 17.5295 19.7426 17.5416 19.7383C17.5499 19.7361 17.5749 19.7215 17.5983 19.707C17.6218 19.6924 17.6505 19.6764 17.6626 19.6728C17.6747 19.6684 17.705 19.6517 17.7292 19.6349C17.7541 19.6189 17.7776 19.6051 17.7821 19.6051C17.7866 19.6051 17.8025 19.5978 17.8169 19.5884C17.8615 19.5607 18.0234 19.4712 18.1353 19.4123C18.1686 19.3948 18.2253 19.3635 18.2843 19.3293C18.3077 19.3162 18.3448 19.2959 18.3652 19.285C18.3864 19.274 18.4196 19.2551 18.4401 19.242C18.4612 19.2297 18.4809 19.2195 18.4839 19.2195C18.4877 19.2195 18.5006 19.2129 18.5127 19.2049C18.5255 19.1969 18.5444 19.1845 18.5565 19.1765C18.5679 19.1693 18.586 19.1605 18.5958 19.1576C18.6064 19.1547 18.6253 19.1445 18.6374 19.1358C18.6503 19.1263 18.6821 19.1081 18.7093 19.0958C18.7365 19.0827 18.7637 19.0674 18.7698 19.0623C18.7819 19.0528 18.8658 19.0063 18.9324 18.9721C18.9536 18.9619 18.9906 18.9408 19.0148 18.9255C19.0398 18.9102 19.0655 18.8964 19.0715 18.8942C19.0783 18.8913 19.1078 18.8753 19.1373 18.8586C19.1668 18.8411 19.1941 18.8265 19.1978 18.8265C19.2016 18.8265 19.2251 18.8135 19.25 18.7974C19.275 18.7814 19.2977 18.7683 19.3007 18.7683C19.3045 18.7683 19.3309 18.7538 19.3612 18.7356C19.3914 18.7174 19.4187 18.7029 19.4209 18.7029C19.424 18.7029 19.4512 18.6883 19.4814 18.6701C19.5117 18.6519 19.5397 18.6374 19.5427 18.6374C19.5457 18.6374 19.5722 18.6228 19.6009 18.6046C19.6297 18.5864 19.6569 18.5719 19.6607 18.5719C19.6645 18.5719 19.6811 18.5631 19.697 18.553C19.7257 18.534 19.8157 18.4838 19.8777 18.4518C19.8944 18.4438 19.9284 18.4242 19.9526 18.4089C19.9768 18.3936 20.0048 18.3791 20.0139 18.3754C20.0229 18.3718 20.0494 18.3572 20.0728 18.3434C20.0963 18.3288 20.1243 18.3136 20.1356 18.3099C20.147 18.3056 20.1659 18.2954 20.178 18.2874C20.2014 18.2714 20.2831 18.2255 20.3474 18.1935C20.3685 18.1826 20.4018 18.1637 20.4207 18.1506C20.4396 18.1382 20.4646 18.1244 20.4767 18.12C20.488 18.1157 20.5153 18.1011 20.5364 18.0873C20.5584 18.0742 20.5841 18.0596 20.5939 18.056C20.6045 18.0523 20.634 18.0356 20.6605 18.0196C20.6869 18.0029 20.7104 17.9898 20.7142 17.9898C20.7172 17.9898 20.7444 17.9752 20.7747 17.957C20.8049 17.9388 20.8321 17.9243 20.8352 17.9243C20.8374 17.9243 20.8631 17.9097 20.8919 17.8915C20.9199 17.8734 20.9471 17.8588 20.9524 17.8588C20.9569 17.8588 20.9781 17.8479 20.9985 17.8341C21.0189 17.8202 21.056 17.7991 21.0809 17.7868C21.1051 17.7737 21.1377 17.7569 21.152 17.7482C21.1664 17.7402 21.2065 17.7176 21.2405 17.698C21.2745 17.6783 21.3048 17.6623 21.3071 17.6623C21.3101 17.6623 21.332 17.6507 21.3555 17.6369L21.3993 17.6107L21.4039 17.2563C21.4069 17.0613 21.4092 16.509 21.4092 16.0288C21.4092 15.5486 21.4114 15.0363 21.4145 14.8901L21.4198 14.6245L21.4931 14.5896C21.5339 14.5706 21.571 14.5554 21.5763 14.5554C21.5808 14.5554 21.6111 14.5423 21.6429 14.527C21.6746 14.511 21.7397 14.4811 21.7873 14.4608C21.9053 14.4098 22.0119 14.3633 22.0951 14.3254C22.1337 14.308 22.17 14.2934 22.1753 14.2934C22.1806 14.2934 22.1911 14.289 22.1995 14.2832C22.2078 14.2781 22.2403 14.2629 22.2713 14.2505C22.3023 14.2374 22.3522 14.2163 22.381 14.2025C22.4105 14.1894 22.4732 14.161 22.5209 14.1406C22.5685 14.1195 22.6396 14.0882 22.6782 14.0708C22.716 14.0533 22.7523 14.0387 22.7576 14.0387C22.7621 14.0387 22.7818 14.03 22.8007 14.0198C22.8196 14.0096 22.8551 13.9929 22.8801 13.9827C22.9323 13.9616 23.0238 13.9209 23.1221 13.8743C23.1599 13.8568 23.1932 13.8423 23.1962 13.8423C23.1992 13.8423 23.2197 13.8299 23.2416 13.8146C23.2635 13.7986 23.29 13.7819 23.3013 13.7761C23.3399 13.7564 23.4579 13.656 23.5131 13.5949C23.5902 13.5105 23.6311 13.4566 23.678 13.3766C23.7506 13.2529 23.8088 13.0644 23.8179 12.9291C23.8201 12.8847 23.8345 12.7465 23.8489 12.6206C23.8633 12.4954 23.8799 12.3317 23.8859 12.2568C23.892 12.1826 23.9086 12.013 23.923 11.8813C23.9374 11.7489 23.9517 11.6085 23.954 11.5684C23.957 11.5284 23.9653 11.4411 23.9722 11.3734C23.9812 11.2912 23.9827 11.2519 23.9774 11.2519C23.9699 11.2519 23.8965 11.2839 23.7332 11.3581C23.6954 11.3756 23.6613 11.3902 23.6583 11.3902C23.6553 11.3902 23.6258 11.4033 23.5918 11.4185C23.5585 11.4346 23.4912 11.4637 23.4435 11.4848C23.3959 11.5051 23.3331 11.5328 23.3036 11.5466C23.2749 11.5597 23.2318 11.5779 23.2091 11.5866C23.1864 11.5954 23.1607 11.6063 23.1516 11.6121C23.1425 11.6172 23.1138 11.6303 23.0873 11.6412C23.0609 11.6521 23.0185 11.6696 22.9935 11.6812C22.9686 11.6921 22.9088 11.7183 22.8612 11.7394C22.8136 11.7605 22.7432 11.7918 22.7054 11.8093C22.6668 11.8267 22.6328 11.8413 22.629 11.8413C22.6245 11.8413 22.5905 11.8558 22.5526 11.874C22.5148 11.8922 22.4816 11.9068 22.4785 11.9068C22.4755 11.9068 22.4453 11.9199 22.412 11.9352C22.3779 11.9512 22.3114 11.981 22.2637 12.0014C22.2161 12.0225 22.1458 12.0538 22.108 12.0712C22.0701 12.0887 22.0354 12.1032 22.0308 12.1032C22.0263 12.1032 21.996 12.1163 21.9635 12.1316C21.931 12.1476 21.8652 12.1775 21.8175 12.1978C21.7064 12.2459 21.5944 12.2953 21.5249 12.3266C21.4946 12.3405 21.4598 12.3543 21.447 12.3579L21.4243 12.3645V11.7824C21.4243 11.3996 21.422 11.201 21.4167 11.201C21.4129 11.201 21.4092 11.1973 21.4092 11.1937C21.4092 11.1893 21.4145 11.1864 21.4205 11.1864C21.4273 11.1864 21.4583 11.1741 21.4908 11.1581C21.5226 11.1428 21.5574 11.1275 21.568 11.1246C21.5786 11.1217 21.6126 11.1071 21.6444 11.0918C21.6754 11.0766 21.7094 11.062 21.72 11.0591C21.7298 11.0562 21.7586 11.0438 21.7835 11.0322C21.8085 11.0198 21.8417 11.006 21.8576 11.0002C21.8728 10.9951 21.9106 10.9791 21.9408 10.9652C21.9907 10.9427 22.0633 10.9107 22.2335 10.8372C22.269 10.8219 22.3356 10.7928 22.381 10.7724C22.4271 10.752 22.4672 10.7353 22.4695 10.7353C22.4725 10.7353 22.5065 10.7207 22.5458 10.7026C22.5852 10.6844 22.6207 10.6698 22.6252 10.6698C22.6298 10.6698 22.6623 10.6553 22.6994 10.6371C22.7357 10.6189 22.7697 10.6043 22.775 10.6043C22.7803 10.6043 22.8151 10.5898 22.8514 10.5716C22.8877 10.5534 22.9225 10.5388 22.9293 10.5388C22.9361 10.5388 22.9444 10.5359 22.9489 10.5323C22.9527 10.5287 22.9845 10.5141 23.02 10.4988C23.0556 10.4843 23.1085 10.461 23.1372 10.4479C23.1667 10.4341 23.2091 10.4151 23.2318 10.4042C23.3361 10.3569 23.4397 10.2856 23.5297 10.1998C23.5993 10.1328 23.6076 10.1219 23.6651 10.0404C23.7249 9.95528 23.746 9.91962 23.7619 9.8796C23.771 9.85559 23.7808 9.83304 23.7838 9.8294C23.8217 9.77628 23.8693 9.47795 23.8859 9.18908C23.889 9.14106 23.9026 8.99699 23.9169 8.86893C23.9313 8.74086 23.9464 8.59024 23.9502 8.53422C23.957 8.4469 23.988 8.14784 23.9986 8.0729C24.0016 8.05252 24.0001 8.04961 23.9895 8.05252C23.9684 8.05835 23.8973 8.08745 23.8391 8.11292C23.8096 8.12602 23.7702 8.1413 23.7521 8.14712C23.7339 8.15367 23.6938 8.16967 23.6628 8.1835C23.6318 8.19732 23.5978 8.21115 23.5872 8.21406C23.5766 8.21697 23.5403 8.23152 23.5055 8.24753C23.4707 8.26281 23.4397 8.27591 23.4352 8.27591C23.4314 8.27591 23.3906 8.29192 23.3445 8.31229C23.2983 8.33193 23.2575 8.34867 23.2545 8.34867C23.2507 8.34867 23.2159 8.36322 23.1773 8.38141C23.1387 8.3996 23.1024 8.41416 23.0979 8.41416C23.0926 8.41416 23.0639 8.42507 23.0336 8.4389C22.9739 8.46582 22.8869 8.5022 22.8272 8.52476C22.8067 8.53276 22.7727 8.54659 22.7515 8.55604C22.7311 8.56478 22.6933 8.58006 22.6683 8.58879C22.6434 8.59825 22.5995 8.61644 22.57 8.62954C22.5413 8.64263 22.4914 8.66373 22.4604 8.67683C22.3643 8.7154 22.2925 8.74596 22.2448 8.76706C22.2199 8.77797 22.1874 8.79107 22.173 8.79616C22.1586 8.80126 22.1246 8.81508 22.0974 8.82745C22.0391 8.85365 21.9408 8.89512 21.8667 8.9235C21.838 8.93514 21.7933 8.95479 21.7691 8.96643C21.7442 8.9788 21.7207 8.98898 21.7162 8.98898C21.7117 8.98898 21.6769 9.00354 21.6398 9.021C21.602 9.03846 21.5634 9.0552 21.5529 9.05811C21.5423 9.06102 21.512 9.07412 21.4848 9.08722C21.4576 9.09958 21.422 9.11487 21.4054 9.11996C21.3887 9.12505 21.3487 9.14179 21.3169 9.15707C21.2844 9.17308 21.2541 9.18545 21.2496 9.18545C21.2451 9.18545 21.2148 9.19781 21.183 9.21382C21.1513 9.2291 21.1172 9.24438 21.1067 9.24729C21.0961 9.2502 21.0643 9.26403 21.0348 9.27785C21.0061 9.29168 20.9599 9.31133 20.9327 9.32151C20.9055 9.3317 20.8737 9.34552 20.8609 9.3528C20.8488 9.36008 20.8299 9.36808 20.8193 9.37099C20.8087 9.3739 20.7656 9.39209 20.7232 9.41174C20.6801 9.43138 20.6423 9.44739 20.6385 9.44739C20.6317 9.44739 20.5705 9.47504 20.4071 9.54999C20.3731 9.566 20.3428 9.57837 20.339 9.57837C20.3353 9.57837 20.3111 9.58782 20.2861 9.60019C20.2611 9.61184 20.2173 9.63075 20.1878 9.6424C20.1591 9.65477 20.0955 9.68096 20.0479 9.70206C20.0002 9.72244 19.9405 9.7479 19.9155 9.75809C19.8906 9.76755 19.8422 9.78865 19.8081 9.80466C19.7749 9.81994 19.7439 9.83304 19.7401 9.83304C19.7371 9.83304 19.7068 9.84613 19.6735 9.86214C19.6403 9.87815 19.61 9.89125 19.607 9.89125C19.604 9.89125 19.5654 9.90725 19.5223 9.92763C19.4792 9.94727 19.4398 9.96401 19.4361 9.96401C19.4315 9.96401 19.399 9.97783 19.3642 9.99457L19.3007 10.0244L19.2568 9.99603C19.2319 9.98002 19.2069 9.96474 19.1994 9.96255C19.1925 9.95964 19.1646 9.94436 19.1366 9.92836C19.1086 9.91162 19.0844 9.89852 19.0821 9.89852C19.0799 9.89852 19.0587 9.88615 19.036 9.8716C19.0126 9.85705 18.977 9.8374 18.9573 9.82794C18.9369 9.81848 18.9067 9.80102 18.8893 9.78938C18.8726 9.77701 18.8552 9.76755 18.8515 9.76755C18.8477 9.76755 18.8235 9.75445 18.797 9.73844C18.7705 9.72244 18.7463 9.70934 18.7433 9.70934C18.7403 9.70934 18.7146 9.69479 18.6874 9.67732C18.6601 9.66059 18.6299 9.64385 18.6208 9.64094C18.6117 9.63803 18.5913 9.62712 18.5754 9.61693C18.5444 9.59656 18.4431 9.53907 18.3765 9.50415C18.3538 9.49178 18.3243 9.47431 18.3107 9.46486C18.2979 9.4554 18.2835 9.44739 18.2805 9.44739C18.2767 9.44739 18.2487 9.43284 18.2185 9.41465C18.1882 9.39646 18.161 9.38191 18.158 9.38191C18.1557 9.38191 18.1345 9.37026 18.1118 9.35571C18.0891 9.34116 18.0513 9.32006 18.0286 9.30914C18.006 9.2975 17.9757 9.28004 17.9613 9.26985C17.947 9.25966 17.9311 9.25093 17.9273 9.25093C17.9228 9.25093 17.8955 9.23638 17.8676 9.21819C17.8388 9.2 17.8131 9.18545 17.8093 9.18545C17.8063 9.18545 17.7912 9.17744 17.7761 9.16725C17.7609 9.15707 17.7254 9.13742 17.6974 9.12287C17.6694 9.10832 17.6377 9.09013 17.6271 9.08285C17.6157 9.07557 17.5983 9.06611 17.587 9.06175C17.5756 9.05811 17.5461 9.04137 17.5212 9.02537C17.4962 9.00936 17.4728 8.99626 17.4698 8.99626C17.466 8.99626 17.4509 8.98826 17.4357 8.97807C17.4206 8.96788 17.3851 8.94824 17.3571 8.93369C17.3291 8.91913 17.2981 8.90167 17.2875 8.89439C17.2709 8.88421 17.2134 8.85146 17.1325 8.80853C17.1204 8.80198 17.0909 8.78525 17.0682 8.77142C17.0455 8.7576 17.0115 8.73868 16.9926 8.72922C16.9737 8.71976 16.9283 8.69429 16.8905 8.67247C16.8534 8.65064 16.8035 8.62371 16.7808 8.61134C16.7581 8.5997 16.7211 8.5786 16.6991 8.56478C16.678 8.55022 16.6522 8.5364 16.6432 8.53349C16.6265 8.52839 16.6167 8.5233 16.5638 8.48838C16.5501 8.47964 16.5365 8.47237 16.5328 8.47237C16.529 8.47237 16.5055 8.45927 16.4813 8.44326C16.4564 8.42725 16.4329 8.41416 16.4291 8.41416C16.4246 8.41416 16.4027 8.40251 16.38 8.38796C16.3573 8.37341 16.3165 8.35013 16.2892 8.33557C16.262 8.32175 16.231 8.30428 16.2197 8.29701C16.2091 8.289 16.1962 8.28318 16.1924 8.28318C16.1886 8.28318 16.1682 8.27227 16.1478 8.25844C16.1274 8.24462 16.0926 8.22497 16.0707 8.21406C16.0487 8.20387 16.017 8.18495 15.9996 8.17331C15.9829 8.16167 15.9663 8.15221 15.9633 8.15221C15.9595 8.15221 15.9323 8.13766 15.902 8.12019C15.8718 8.10273 15.8377 8.08381 15.8264 8.07872C15.8158 8.0729 15.7803 8.05325 15.7485 8.03361C15.6918 7.99941 15.6736 7.99359 15.6661 8.00596ZM15.7523 10.1306C15.7712 10.143 15.7893 10.1532 15.7924 10.1532C15.7954 10.1532 15.8211 10.1677 15.8498 10.1859C15.8786 10.2041 15.9043 10.2187 15.9073 10.2187C15.9134 10.2187 16.02 10.2783 16.085 10.3169C16.1123 10.3336 16.1849 10.3737 16.256 10.4115C16.3323 10.4522 16.3989 10.4901 16.4102 10.4988C16.4163 10.5039 16.4488 10.5214 16.4821 10.5388C16.5154 10.5556 16.5532 10.5774 16.566 10.5869C16.5789 10.5963 16.5933 10.6043 16.5985 10.6043C16.6031 10.6043 16.6303 10.6181 16.6583 10.6356C16.6863 10.6523 16.7195 10.672 16.7316 10.6785C16.7445 10.6851 16.7831 10.7062 16.8186 10.7251C16.8542 10.744 16.8935 10.7666 16.9056 10.7753C16.9184 10.784 16.9464 10.8001 16.9691 10.811C16.9918 10.8226 17.019 10.8372 17.0296 10.8437C17.0652 10.867 17.1809 10.9318 17.1862 10.9318C17.1892 10.9318 17.2089 10.9434 17.2308 10.9572C17.2527 10.9703 17.2883 10.9914 17.311 11.0031C17.3336 11.014 17.3828 11.0409 17.4199 11.0627C17.4577 11.0838 17.5015 11.1086 17.5182 11.1173C17.5348 11.126 17.5635 11.142 17.5817 11.153C17.5998 11.1646 17.6324 11.1828 17.6535 11.1937C17.6914 11.2126 17.7496 11.2461 17.8169 11.2854C17.8358 11.297 17.8691 11.3152 17.8918 11.3261C17.9145 11.3378 17.9439 11.3552 17.9576 11.3647C17.9712 11.3749 17.9848 11.3829 17.9886 11.3829C17.9923 11.3829 18.0196 11.3974 18.0498 11.4156C18.0801 11.4338 18.1073 11.4484 18.1111 11.4484C18.1149 11.4484 18.136 11.46 18.158 11.4746C18.1807 11.4891 18.2177 11.5102 18.2404 11.5211C18.2631 11.5328 18.2933 11.5502 18.3077 11.5604C18.3221 11.5706 18.338 11.5793 18.3417 11.5793C18.3463 11.5793 18.3728 11.5939 18.4007 11.6114C18.4287 11.6296 18.459 11.6463 18.468 11.6485C18.4771 11.6514 18.4983 11.663 18.5157 11.6739C18.5459 11.6936 18.614 11.7314 18.6858 11.7685C18.7055 11.7787 18.7373 11.7976 18.7562 11.81C18.7751 11.8224 18.7993 11.8347 18.8091 11.8377C18.8182 11.8413 18.8371 11.8508 18.8492 11.8595C18.8621 11.8689 18.8976 11.89 18.9286 11.9068C18.9596 11.9242 19.0118 11.9534 19.0443 11.9715C19.0761 11.9897 19.1192 12.013 19.1388 12.0232C19.1585 12.0334 19.1933 12.0523 19.216 12.0661C19.2387 12.08 19.2704 12.0981 19.2856 12.1062C19.337 12.1338 19.4156 12.1775 19.4542 12.2007C19.4754 12.2131 19.5026 12.2284 19.5147 12.2342L19.5374 12.2459L19.5351 14.2934C19.5344 15.4198 19.5314 16.3912 19.5291 16.4516L19.5245 16.5614L19.4973 16.5738C19.4814 16.5811 19.4572 16.5942 19.4429 16.6029C19.4149 16.6204 19.3355 16.6655 19.2833 16.6924C19.2659 16.7011 19.2288 16.7215 19.2009 16.7375C19.1721 16.7543 19.1472 16.7674 19.1449 16.7674C19.1426 16.7674 19.1192 16.7805 19.092 16.7972C19.0428 16.8263 19.0247 16.8365 18.9347 16.883C18.9082 16.8961 18.8696 16.9187 18.8484 16.9318C18.8273 16.9456 18.8068 16.9565 18.8031 16.9565C18.7993 16.9565 18.7834 16.9645 18.7683 16.9747C18.7532 16.9849 18.7259 17.0002 18.7078 17.0097C18.6722 17.0278 18.5845 17.0766 18.524 17.1115C18.5036 17.1232 18.4658 17.1435 18.4408 17.1566C18.4159 17.169 18.3818 17.1887 18.3659 17.1988C18.3501 17.2098 18.3334 17.2185 18.3296 17.2185C18.3251 17.2185 18.313 17.2243 18.3024 17.2323C18.2911 17.2396 18.2586 17.2578 18.2291 17.2731C18.2003 17.2876 18.1708 17.3043 18.1648 17.3094C18.1587 17.3145 18.1315 17.3291 18.1043 17.3422C18.077 17.3553 18.0498 17.3698 18.0438 17.3757C18.037 17.3807 18.0067 17.3982 17.9757 17.4135C17.9439 17.4295 17.9054 17.4506 17.8895 17.4615C17.8736 17.4717 17.857 17.4804 17.8532 17.4804C17.8487 17.4804 17.8366 17.4863 17.826 17.4943C17.8146 17.5015 17.7866 17.5175 17.764 17.5299C17.7413 17.5416 17.7027 17.5627 17.6793 17.5758C17.6218 17.6092 17.5688 17.6383 17.5023 17.6733C17.4728 17.6893 17.4433 17.706 17.4372 17.7111C17.432 17.7155 17.4115 17.7264 17.3934 17.7351C17.3745 17.7431 17.3442 17.7591 17.3261 17.77C17.283 17.7962 17.2331 17.8231 17.1778 17.8515C17.1529 17.8646 17.1158 17.8857 17.0947 17.8995C17.0742 17.9126 17.0485 17.9265 17.0379 17.9301C17.0274 17.9337 17.0009 17.949 16.9789 17.9629C16.9578 17.9774 16.9321 17.9912 16.923 17.9941C16.9132 17.997 16.8973 18.0043 16.8867 18.0116C16.83 18.0487 16.8058 18.0625 16.7982 18.0625C16.7944 18.0625 16.7785 18.0705 16.7642 18.0793C16.7498 18.0887 16.7158 18.1084 16.6885 18.1229C16.6613 18.1375 16.6258 18.1579 16.6106 18.168C16.5948 18.1782 16.5781 18.1862 16.5728 18.1862C16.5675 18.1862 16.5403 18.2008 16.5116 18.219C16.4836 18.2372 16.4571 18.2517 16.4533 18.2517C16.4496 18.2517 16.4254 18.2648 16.3996 18.2808C16.3543 18.3092 16.3384 18.3179 16.2423 18.3674C16.2159 18.3805 16.1781 18.4023 16.1569 18.4162C16.1365 18.4293 16.1108 18.4431 16.1002 18.4467C16.0896 18.4504 16.0631 18.4656 16.0412 18.4795C16.02 18.494 15.9943 18.5078 15.9845 18.5108C15.9754 18.5129 15.9474 18.5282 15.9224 18.5435C15.8975 18.5588 15.8627 18.5792 15.8453 18.5879C15.8279 18.5973 15.7954 18.6141 15.7735 18.6257C15.7515 18.6366 15.7145 18.6592 15.691 18.6745L15.6479 18.7021L15.6018 18.673C15.5768 18.6577 15.5549 18.6446 15.5526 18.6446C15.5488 18.6446 15.446 18.5864 15.3779 18.545C15.353 18.5297 15.3242 18.5144 15.3136 18.51C15.2902 18.5013 15.1972 18.4489 15.1367 18.4103C15.1117 18.3951 15.089 18.3827 15.0845 18.3827C15.0807 18.3827 15.0542 18.3681 15.0263 18.3499C14.9983 18.3318 14.9718 18.3172 14.9688 18.3172C14.965 18.3172 14.9348 18.3005 14.9015 18.2808C14.8682 18.2605 14.838 18.2444 14.8342 18.2444C14.8304 18.2444 14.816 18.2364 14.8032 18.227C14.7896 18.2168 14.7585 18.1993 14.7343 18.187C14.7101 18.1753 14.6784 18.1571 14.664 18.1469C14.6496 18.136 14.6338 18.128 14.63 18.128C14.6254 18.128 14.599 18.1135 14.571 18.096C14.543 18.0778 14.5135 18.0618 14.5052 18.0589C14.4969 18.0567 14.4674 18.04 14.4394 18.0225C14.4107 18.0043 14.3842 17.9898 14.3804 17.9898C14.3759 17.9898 14.3555 17.9789 14.3343 17.965C14.2972 17.941 14.2208 17.8981 14.1649 17.8697C14.1498 17.8617 14.118 17.8442 14.0953 17.8304C14.0734 17.8166 14.0409 17.7984 14.0242 17.7897C13.9788 17.7657 13.8851 17.7133 13.8472 17.69C13.8283 17.6791 13.8109 17.6696 13.8072 17.6696C13.8034 17.6696 13.7792 17.6558 13.7535 17.6398C13.7278 17.623 13.6998 17.607 13.6907 17.6041C13.6816 17.6005 13.6544 17.5859 13.6302 17.5707C13.5841 17.5416 13.5621 17.5299 13.482 17.4884C13.4555 17.4753 13.4177 17.4535 13.3965 17.4411C13.3761 17.4288 13.3489 17.4128 13.336 17.4062C13.3148 17.3946 13.299 17.3858 13.2218 17.3422C13.2044 17.332 13.1651 17.3109 13.1356 17.2949C13.1053 17.2789 13.0645 17.2549 13.0441 17.2418C13.0237 17.2294 13.0055 17.2185 13.0033 17.2185C13.001 17.2185 12.9738 17.2039 12.9435 17.1857C12.9125 17.1676 12.8845 17.153 12.8822 17.153C12.8792 17.153 12.8558 17.1399 12.8301 17.1239C12.8044 17.1079 12.7696 17.0875 12.7522 17.0788C12.7348 17.0693 12.6856 17.0424 12.6433 17.0184C12.6002 16.9944 12.5502 16.966 12.5313 16.9558C12.5124 16.9456 12.4814 16.9282 12.4625 16.9158C12.4436 16.9041 12.4202 16.8911 12.4096 16.8874C12.399 16.883 12.3755 16.8707 12.3566 16.8598C12.2803 16.8146 12.2296 16.7863 12.1903 16.7652C12.1676 16.7535 12.1343 16.7339 12.1169 16.723C12.0995 16.7113 12.0829 16.7019 12.0791 16.7019C12.0753 16.7019 12.0473 16.6873 12.0171 16.6691C11.9868 16.6509 11.9596 16.6364 11.9566 16.6364C11.9543 16.6364 11.9384 16.6276 11.9218 16.616C11.9052 16.6051 11.8658 16.5833 11.8348 16.5665L11.7781 16.5374V16.0426C11.7781 15.7712 11.7819 14.8028 11.7864 13.891C11.794 12.2706 11.7947 12.2335 11.8091 12.2233C11.8167 12.2175 11.8431 12.2022 11.8673 12.1891C11.8915 12.176 11.9286 12.1549 11.9505 12.1418C11.9725 12.1294 12.0072 12.1105 12.0277 12.1003C12.0488 12.0901 12.0844 12.0705 12.1071 12.0559C12.1298 12.0421 12.1517 12.0305 12.1555 12.0305C12.1593 12.0305 12.1683 12.0261 12.1744 12.0203C12.1812 12.0152 12.2137 11.997 12.247 11.9795C12.2803 11.9628 12.3128 11.9446 12.3188 11.9395C12.3249 11.9344 12.3521 11.9192 12.3793 11.9061C12.4066 11.893 12.4391 11.8755 12.4512 11.8668C12.464 11.858 12.4958 11.8398 12.523 11.8267C12.5502 11.8136 12.5775 11.7991 12.5835 11.794C12.5896 11.7889 12.607 11.7787 12.6221 11.7714C12.6372 11.7634 12.6637 11.7496 12.6818 11.7394C12.7544 11.698 12.7809 11.6834 12.8338 11.6565C12.8649 11.6412 12.8996 11.6216 12.9125 11.6128C12.9246 11.6048 12.9571 11.5866 12.9843 11.5735C13.0116 11.5597 13.0388 11.5444 13.0448 11.5393C13.0517 11.5335 13.0683 11.524 13.0827 11.5175C13.097 11.511 13.128 11.4949 13.1507 11.4811C13.1734 11.4673 13.2044 11.4513 13.2188 11.4447C13.2332 11.4382 13.2498 11.4287 13.2566 11.4236C13.2627 11.4178 13.2869 11.4047 13.3095 11.3931C13.3322 11.3822 13.3617 11.3662 13.3738 11.3574C13.3867 11.3487 13.4177 11.3312 13.4442 11.3189C13.4706 11.3058 13.5016 11.289 13.5137 11.281C13.5258 11.273 13.547 11.2614 13.5606 11.2548C13.5742 11.249 13.6007 11.2345 13.6196 11.2228C13.6385 11.2104 13.6657 11.1959 13.6801 11.1893C13.6945 11.1828 13.7119 11.1733 13.7179 11.1682C13.724 11.1631 13.7512 11.1486 13.7784 11.1355C13.8057 11.1224 13.8382 11.1042 13.8503 11.0955C13.8631 11.0867 13.8979 11.0664 13.9282 11.0511C14.0121 11.0082 14.0348 10.9958 14.0885 10.9645C14.1399 10.9347 14.1619 10.9223 14.2413 10.8816C14.2677 10.8685 14.3063 10.8466 14.3267 10.8328C14.3479 10.8197 14.3729 10.8059 14.3834 10.8022C14.394 10.7986 14.4205 10.7833 14.4424 10.7695C14.4636 10.7549 14.4893 10.7411 14.4984 10.7382C14.5082 10.7353 14.5241 10.728 14.5347 10.7207C14.5907 10.6844 14.6156 10.6698 14.6224 10.6698C14.6262 10.6698 14.6413 10.6618 14.6557 10.6531C14.6701 10.6436 14.7049 10.624 14.7328 10.6094C14.7601 10.5949 14.7948 10.5752 14.8092 10.5665C14.8236 10.557 14.8591 10.5374 14.8879 10.5221C14.9718 10.477 14.9824 10.4712 15.0384 10.4392C15.0686 10.4217 15.0958 10.4079 15.1004 10.4079C15.1042 10.4079 15.1155 10.402 15.1253 10.394C15.1352 10.3868 15.1692 10.3678 15.2002 10.3518C15.2312 10.3358 15.2705 10.314 15.2864 10.3038C15.3023 10.2929 15.3189 10.2842 15.3227 10.2842C15.3265 10.2842 15.3522 10.2696 15.381 10.2514C15.4097 10.2332 15.4354 10.2187 15.4384 10.2187C15.4415 10.2187 15.4694 10.2041 15.5004 10.1859C15.5307 10.1677 15.5587 10.1532 15.5617 10.1532C15.5647 10.1532 15.5791 10.1452 15.5935 10.1357C15.6078 10.1263 15.6335 10.1117 15.6494 10.1037C15.6827 10.0863 15.6857 10.0877 15.7523 10.1306Z"/>
</mask>
<path d="M15.6661 8.00596C15.6638 8.00959 15.6532 8.01469 15.6434 8.01687C15.6328 8.01905 15.6048 8.03433 15.5806 8.04961C15.5557 8.06562 15.5239 8.08381 15.5095 8.08963C15.4952 8.09618 15.4498 8.12092 15.4082 8.14493C15.3666 8.16822 15.3159 8.1966 15.2947 8.20751C15.2743 8.21842 15.2403 8.23734 15.2191 8.25044C15.1987 8.26354 15.1737 8.27663 15.1647 8.27882C15.1556 8.28173 15.1253 8.29846 15.0974 8.31593C15.0686 8.33412 15.0429 8.34867 15.0391 8.34867C15.0353 8.34867 15.0111 8.36177 14.9854 8.37778C14.9597 8.39378 14.9242 8.41416 14.9068 8.42289C14.8183 8.46873 14.7321 8.51675 14.7283 8.52257C14.726 8.52621 14.7162 8.53058 14.7064 8.53349C14.6965 8.53567 14.6655 8.55241 14.6368 8.5706C14.6081 8.58879 14.5808 8.60334 14.5755 8.60334C14.571 8.60334 14.5498 8.61426 14.5294 8.62808C14.509 8.64191 14.4719 8.66301 14.447 8.67538C14.3971 8.70157 14.2957 8.75833 14.2549 8.78307C14.2405 8.79252 14.2254 8.7998 14.2216 8.7998C14.2186 8.7998 14.1906 8.81435 14.1611 8.83254C14.1308 8.85074 14.1029 8.86529 14.0983 8.86529C14.0938 8.86529 14.0824 8.87111 14.0726 8.87911C14.0628 8.88639 14.0272 8.90749 13.994 8.92495C13.9607 8.94314 13.9032 8.97516 13.8654 8.99626C13.8283 9.01736 13.783 9.0421 13.7663 9.05083C13.7489 9.05957 13.7149 9.07848 13.6899 9.09304C13.6642 9.10832 13.6408 9.11996 13.637 9.11996C13.6325 9.11996 13.6211 9.12578 13.6113 9.13378C13.6015 9.14106 13.5659 9.16216 13.5326 9.17962C13.4994 9.19781 13.4419 9.22983 13.4041 9.25093C13.367 9.27276 13.3194 9.29823 13.2982 9.30841C13.2778 9.31933 13.2468 9.33606 13.2301 9.34625C13.2135 9.35717 13.1863 9.37172 13.1696 9.37972C13.153 9.38773 13.1227 9.40373 13.1016 9.4161C12.9874 9.48232 12.9329 9.51288 12.9284 9.51288C12.9261 9.51288 12.8996 9.52743 12.8694 9.54562C12.8391 9.56381 12.8119 9.57837 12.8081 9.57837C12.8051 9.57837 12.793 9.58419 12.7817 9.59146C12.7227 9.63003 12.6992 9.64385 12.6894 9.64385C12.6841 9.64385 12.669 9.65113 12.6561 9.66059C12.6433 9.67005 12.6092 9.69042 12.5797 9.7057C12.551 9.72098 12.5185 9.73844 12.5079 9.74572C12.4973 9.753 12.4814 9.76027 12.4724 9.76318C12.4633 9.76609 12.433 9.78283 12.405 9.80029C12.3763 9.81848 12.3506 9.83304 12.3468 9.83304C12.3423 9.83304 12.3203 9.84541 12.2977 9.85996C12.2742 9.87451 12.2394 9.89416 12.2205 9.90362C12.2016 9.91235 12.154 9.94 12.1146 9.96401C12.0753 9.98802 12.0307 10.0135 12.0163 10.0208C11.9793 10.0382 11.8159 10.1277 11.7229 10.1816C11.6994 10.1947 11.6579 10.218 11.6306 10.2318C11.6042 10.2463 11.5701 10.2652 11.5558 10.2747C11.5421 10.2842 11.527 10.2914 11.5232 10.2914C11.5172 10.2914 11.5089 10.2958 11.4529 10.3329C11.44 10.3409 11.4211 10.3504 11.4113 10.3533C11.4007 10.3562 11.3826 10.3664 11.3697 10.3751C11.3576 10.3846 11.3251 10.402 11.2979 10.4151C11.2706 10.4282 11.2381 10.4464 11.2253 10.4559C11.2124 10.4653 11.1996 10.4734 11.1958 10.4734C11.1927 10.4734 11.1617 10.4894 11.127 10.5097C11.0922 10.5294 11.0612 10.5461 11.0574 10.5461C11.0536 10.5461 11.0422 10.5519 11.0324 10.5599C11.0226 10.5672 10.9908 10.5854 10.9613 10.6007C10.9326 10.6152 10.9031 10.632 10.897 10.6371C10.891 10.6422 10.8645 10.6567 10.8388 10.6698C10.8123 10.6822 10.7738 10.704 10.7526 10.7178C10.7314 10.7309 10.711 10.7426 10.7072 10.7426C10.7027 10.7426 10.68 10.7542 10.6566 10.7695C10.6331 10.784 10.6036 10.8001 10.5908 10.8059C10.5787 10.811 10.5461 10.8284 10.5197 10.8444C10.494 10.8605 10.4698 10.8735 10.4667 10.8735C10.4637 10.8735 10.438 10.8881 10.4093 10.9063C10.3798 10.9245 10.3533 10.939 10.3488 10.939C10.345 10.939 10.3261 10.9492 10.3072 10.9616C10.2762 10.982 10.2308 11.0067 10.1347 11.0555C10.1151 11.0656 10.0795 11.086 10.0553 11.1006C10.0319 11.1158 10.0084 11.1282 10.0047 11.1282C10.0001 11.1282 9.98045 11.1391 9.96079 11.1515L9.92449 11.1755L9.91919 11.6703C9.91617 11.9424 9.9139 12.5682 9.9139 13.0608C9.9139 13.5534 9.91163 13.9769 9.90936 14.0016L9.90407 14.0467L9.83147 14.0795C9.64618 14.1646 9.62122 14.1755 9.60383 14.1806C9.59324 14.1835 9.57131 14.1937 9.55467 14.2032C9.53803 14.2119 9.50778 14.2257 9.48661 14.2337C9.46619 14.2417 9.42157 14.2599 9.38829 14.2752C9.35502 14.2898 9.29376 14.3167 9.25216 14.3349C9.21057 14.3523 9.14553 14.3822 9.10772 14.3996C9.06915 14.4171 9.03436 14.4317 9.02982 14.4317C9.02528 14.4317 8.99579 14.4448 8.96478 14.4608C8.93378 14.4768 8.90504 14.4899 8.9005 14.4899C8.89672 14.4899 8.85664 14.5066 8.81202 14.527C8.76664 14.5474 8.69631 14.5786 8.65471 14.5968C8.61312 14.615 8.54808 14.6441 8.51027 14.6616C8.47245 14.6791 8.43766 14.6936 8.43313 14.6936C8.42859 14.6936 8.39985 14.706 8.36884 14.722C8.33859 14.7373 8.30532 14.7525 8.29549 14.7555C8.2849 14.7584 8.24406 14.7758 8.20473 14.7933C8.16541 14.8115 8.09886 14.8406 8.05726 14.8588C8.01567 14.877 7.95365 14.9046 7.91962 14.9199C7.88635 14.9359 7.85609 14.9483 7.85307 14.9483C7.84248 14.9483 7.69123 15.037 7.67383 15.0531C7.664 15.0618 7.64661 15.0749 7.63375 15.0829C7.62165 15.0902 7.60653 15.1025 7.60048 15.1105C7.59518 15.1178 7.58157 15.1295 7.57023 15.136C7.55888 15.1433 7.53014 15.1695 7.50594 15.1957C7.48174 15.2219 7.453 15.2532 7.44166 15.2648C7.39099 15.3186 7.28511 15.4918 7.26016 15.5609C7.25259 15.582 7.23596 15.6279 7.2231 15.6621C7.20722 15.7065 7.19663 15.7596 7.18453 15.8513C7.16562 16.0012 7.13386 16.2988 7.12705 16.3963C7.12403 16.4341 7.11193 16.5534 7.09983 16.6618C7.07109 16.9216 7.06428 16.9907 7.05521 17.1166C7.05067 17.1748 7.03857 17.2956 7.02798 17.3851C7.01739 17.4746 7.00983 17.5517 7.01134 17.5568C7.01286 17.5641 7.02193 17.5627 7.04764 17.5517C7.06655 17.5437 7.11042 17.5248 7.14596 17.5095C7.28284 17.4506 7.38645 17.4048 7.44469 17.3778C7.47872 17.3618 7.50897 17.3495 7.51199 17.3495C7.51577 17.3495 7.54981 17.3349 7.58762 17.3174C7.62543 17.3 7.69198 17.2701 7.73585 17.2512C7.77971 17.2323 7.85004 17.201 7.8924 17.1814C7.93475 17.1617 7.97256 17.1457 7.9771 17.1457C7.98164 17.1457 8.01491 17.1312 8.05121 17.113C8.08751 17.0948 8.12003 17.0802 8.12306 17.0802C8.12684 17.0802 8.15709 17.0671 8.19188 17.0519C8.22591 17.0366 8.29322 17.006 8.34086 16.9856C8.38851 16.9645 8.4596 16.9333 8.49741 16.9158C8.53598 16.8983 8.57077 16.8838 8.57455 16.8838C8.57833 16.8838 8.60329 16.8729 8.62976 16.859C8.65623 16.8459 8.68572 16.8328 8.69631 16.8299C8.7069 16.827 8.74244 16.8117 8.77572 16.7965C8.80899 16.7805 8.87554 16.7513 8.92319 16.7302C8.97083 16.7099 9.0389 16.68 9.07444 16.664C9.10999 16.6473 9.15082 16.6306 9.16519 16.6255C9.17956 16.6204 9.20906 16.608 9.22948 16.5978C9.26502 16.5811 9.34897 16.544 9.53198 16.4639C9.57358 16.4457 9.63181 16.4203 9.66055 16.4072C9.69004 16.3941 9.73391 16.3744 9.75886 16.3642C9.78382 16.3541 9.82088 16.3373 9.8413 16.3271C9.89877 16.2988 9.9018 16.3002 9.8965 16.3577C9.89348 16.3853 9.89121 16.6677 9.89121 16.9864V17.5656L9.85188 17.5823C9.75659 17.6223 9.64089 17.6733 9.58643 17.6994C9.55392 17.7155 9.52366 17.7278 9.51988 17.7278C9.51535 17.7278 9.48056 17.7424 9.44274 17.7598C9.40417 17.7773 9.33384 17.8086 9.2862 17.8297C9.14477 17.8908 9.05251 17.9316 8.97915 17.965C8.94134 17.9825 8.90731 17.997 8.90353 17.997C8.9005 17.997 8.87025 18.0101 8.83622 18.0254C8.80294 18.0414 8.73639 18.0713 8.68875 18.0916C8.48985 18.1775 8.46262 18.1891 8.39531 18.2197C8.35674 18.2372 8.32347 18.2517 8.3212 18.2517C8.31893 18.2517 8.28868 18.2641 8.2554 18.2801C8.22137 18.2954 8.15406 18.3252 8.10642 18.3463C7.93399 18.4213 7.89769 18.438 7.81979 18.4758C7.75097 18.51 7.67913 18.5515 7.66778 18.5646C7.66552 18.5668 7.65417 18.5748 7.64207 18.5821C7.5914 18.6134 7.42351 18.7763 7.40007 18.8178C7.39628 18.8251 7.39099 18.8316 7.38797 18.8338C7.38116 18.8389 7.32746 18.9182 7.32746 18.9226C7.32746 18.9248 7.31536 18.9452 7.30099 18.9684C7.28663 18.9917 7.26923 19.0274 7.26242 19.0477C7.25562 19.0681 7.2473 19.0885 7.24352 19.0921C7.23217 19.1067 7.2057 19.1824 7.19436 19.2347C7.1747 19.3286 7.14067 19.6044 7.13083 19.7557C7.1263 19.819 7.10966 19.99 7.09378 20.1363C7.07714 20.2825 7.06201 20.4361 7.05899 20.4783C7.05596 20.5205 7.04386 20.6413 7.03176 20.7475C7.01966 20.8537 7.00756 20.9723 7.00454 21.0116L7 21.0822L7.05975 21.056C7.09226 21.0415 7.15352 21.0153 7.19512 20.9971C7.23671 20.9789 7.30175 20.9498 7.33956 20.9323C7.37813 20.9148 7.41217 20.9003 7.41595 20.9003C7.41973 20.9003 7.44847 20.8872 7.48023 20.8719C7.51199 20.8559 7.54603 20.8414 7.55586 20.8384C7.57249 20.8334 7.60123 20.821 7.76761 20.7446C7.80769 20.7264 7.84324 20.7111 7.84702 20.7111C7.85004 20.7111 7.87954 20.698 7.91357 20.6827C7.94685 20.6667 7.99298 20.6471 8.01567 20.6383C8.03836 20.6296 8.06785 20.6165 8.08071 20.6085C8.09356 20.6012 8.11776 20.5903 8.13364 20.5845C8.16238 20.575 8.23574 20.5423 8.35977 20.4855C8.39304 20.4703 8.42859 20.4557 8.43918 20.4528C8.44976 20.4499 8.48758 20.4332 8.52312 20.4157C8.55942 20.3982 8.59043 20.3837 8.59346 20.3837C8.59648 20.3837 8.62295 20.372 8.6532 20.3575C8.6827 20.3429 8.72051 20.3269 8.73639 20.3211C8.76362 20.3116 8.78328 20.3029 8.95495 20.2243C8.99957 20.204 9.0389 20.1872 9.04268 20.1872C9.0457 20.1872 9.07898 20.1727 9.11528 20.1545C9.15234 20.1363 9.18637 20.1217 9.19166 20.1217C9.19696 20.1217 9.22267 20.1108 9.2499 20.097C9.27712 20.0839 9.30737 20.0701 9.3172 20.0672C9.3346 20.0621 9.3951 20.0351 9.54106 19.9682C9.57433 19.9529 9.60534 19.9398 9.60912 19.9398C9.61215 19.9398 9.6424 19.9267 9.67567 19.9114C9.78306 19.8605 9.87004 19.8234 9.88138 19.8234C9.89045 19.8234 9.89121 19.9078 9.88743 20.3851C9.88516 20.6944 9.88214 21.6265 9.87987 22.4552L9.87533 23.9636L9.8965 23.9549C9.90785 23.9505 9.92827 23.9389 9.94037 23.9309C9.95322 23.9221 9.98499 23.904 10.0122 23.8909C10.0394 23.8778 10.072 23.8603 10.0841 23.8516C10.0969 23.8421 10.1272 23.8254 10.1521 23.813C10.1771 23.8006 10.2111 23.7824 10.227 23.7715C10.2429 23.7613 10.2595 23.7526 10.2625 23.7526C10.2663 23.7526 10.2928 23.7381 10.3223 23.7199C10.3518 23.7017 10.3782 23.6871 10.3813 23.6871C10.3843 23.6871 10.4108 23.6726 10.4395 23.6544C10.469 23.6362 10.4962 23.6216 10.5008 23.6216C10.5053 23.6216 10.5235 23.6122 10.5401 23.5998C10.5575 23.5882 10.5877 23.5707 10.6089 23.5612C10.6293 23.5511 10.6618 23.5336 10.6808 23.5205C10.7004 23.5081 10.7186 23.4979 10.7216 23.4979C10.7254 23.4979 10.7526 23.4827 10.7836 23.4645C10.8146 23.4463 10.8471 23.4281 10.8562 23.4252C10.8645 23.4215 10.8933 23.4055 10.9197 23.3895C10.9462 23.3728 10.9704 23.3597 10.9742 23.3597C10.978 23.3597 10.9991 23.3488 11.0203 23.3349C11.0422 23.3211 11.068 23.3066 11.0786 23.3029C11.0891 23.2993 11.1156 23.284 11.1383 23.2695C11.1602 23.2549 11.1806 23.2433 11.1837 23.2433C11.1867 23.2433 11.2253 23.2207 11.2691 23.1931C11.3826 23.1218 11.5036 23.0046 11.58 22.8918C11.6117 22.8453 11.6382 22.8045 11.6382 22.8016C11.6382 22.7994 11.6503 22.7732 11.6647 22.7441C11.6942 22.6844 11.7395 22.5251 11.7509 22.4407C11.7562 22.4029 11.7607 21.7516 11.7645 20.5066C11.7668 19.4749 11.7713 18.6301 11.7736 18.6301C11.7826 18.6308 11.9044 18.697 11.9694 18.7378C11.9967 18.7545 12.0224 18.7683 12.0262 18.7683C12.0292 18.7683 12.0519 18.7807 12.0753 18.7953C12.1177 18.8215 12.1411 18.8338 12.2372 18.884C12.2636 18.8971 12.2984 18.9175 12.315 18.9284C12.3445 18.9481 12.4126 18.9866 12.4845 19.023C12.5041 19.0332 12.5359 19.0521 12.5548 19.0645C12.5737 19.0769 12.5979 19.0892 12.6077 19.0921C12.6168 19.0958 12.6357 19.1052 12.6478 19.114C12.6607 19.1234 12.6932 19.1423 12.7212 19.1569C12.7491 19.1714 12.7847 19.1911 12.7998 19.2013C12.8149 19.2115 12.8308 19.2195 12.8346 19.2195C12.8384 19.2195 12.8641 19.234 12.8928 19.2522C12.9216 19.2704 12.9473 19.285 12.9511 19.285C12.9548 19.285 12.9813 19.2995 13.0093 19.3177C13.038 19.3359 13.0638 19.3504 13.0675 19.3504C13.0706 19.3504 13.0857 19.3584 13.1008 19.3686C13.1167 19.3788 13.1553 19.4006 13.187 19.4167C13.2188 19.4334 13.2506 19.4509 13.2566 19.4567C13.2627 19.4618 13.277 19.469 13.2876 19.4734C13.2982 19.477 13.3277 19.4923 13.3519 19.5076C13.3761 19.5229 13.4094 19.5418 13.4245 19.5505C13.5205 19.6007 13.5871 19.6379 13.5969 19.6459C13.603 19.6502 13.6325 19.667 13.6612 19.6815C13.6907 19.6968 13.7225 19.715 13.7323 19.7223C13.7421 19.7303 13.7535 19.7361 13.7572 19.7361C13.7618 19.7361 13.786 19.7492 13.8117 19.7652C13.8374 19.7812 13.8722 19.8016 13.8896 19.8103C13.9751 19.8554 14.0333 19.8874 14.0666 19.9093C14.087 19.9216 14.1059 19.9325 14.1089 19.9325C14.1127 19.9325 14.1377 19.9471 14.1656 19.9646C14.1936 19.9828 14.2239 19.9995 14.2322 20.0017C14.2413 20.0046 14.2685 20.0191 14.2927 20.0351C14.3176 20.0504 14.3403 20.0635 14.3441 20.0635C14.3479 20.0635 14.3638 20.0715 14.3789 20.0817C14.394 20.0912 14.4258 20.1101 14.45 20.1225C14.4734 20.1356 14.5067 20.1545 14.5233 20.1654C14.54 20.1763 14.5619 20.1879 14.571 20.1909C14.5808 20.1938 14.6035 20.2054 14.6202 20.2163C14.6375 20.2272 14.6693 20.2462 14.6905 20.2571C14.7109 20.2687 14.7464 20.2876 14.7684 20.3C14.7903 20.3116 14.8311 20.3357 14.8584 20.3531C14.8856 20.3699 14.9121 20.3837 14.9166 20.3837C14.9204 20.3837 14.9476 20.3982 14.9756 20.4164C15.0043 20.4346 15.03 20.4492 15.0331 20.4492C15.0353 20.4492 15.0648 20.4652 15.0981 20.4855C15.1314 20.5052 15.1616 20.5219 15.1654 20.5219C15.1692 20.5219 15.1828 20.5299 15.1957 20.5394C15.2085 20.5488 15.238 20.5656 15.2607 20.5765C15.2834 20.5874 15.3159 20.6056 15.3326 20.6165C15.3492 20.6274 15.3749 20.642 15.3893 20.6485C15.4036 20.6551 15.4309 20.6696 15.4498 20.682C15.4687 20.6936 15.4921 20.7075 15.5027 20.7111C15.5133 20.7155 15.539 20.7308 15.5609 20.7446C15.5821 20.7584 15.6033 20.7693 15.6071 20.7693C15.6109 20.7693 15.6373 20.7839 15.6661 20.8021C15.6948 20.8195 15.7213 20.8348 15.7243 20.8348C15.7273 20.8348 15.753 20.8494 15.7818 20.8676C15.8105 20.8857 15.8362 20.9003 15.84 20.9003C15.8438 20.9003 15.8589 20.9076 15.8733 20.917C15.9103 20.9396 16.014 20.9978 16.0586 21.0211C16.0797 21.032 16.1138 21.0509 16.1342 21.064C16.1554 21.0764 16.1955 21.1004 16.2242 21.1157C16.2529 21.131 16.2945 21.1535 16.3165 21.1659C16.3384 21.1775 16.3792 21.2001 16.408 21.2161C16.4359 21.2314 16.473 21.2532 16.4896 21.2634C16.5063 21.2743 16.5388 21.2925 16.5615 21.3034C16.5842 21.315 16.6084 21.3281 16.6144 21.3332C16.6205 21.3383 16.6409 21.3507 16.6598 21.3609C16.6787 21.3703 16.7211 21.3922 16.7543 21.4096C16.7876 21.4271 16.8254 21.4482 16.8375 21.4569C16.8504 21.4657 16.8791 21.4817 16.9018 21.4933C16.9245 21.5042 16.954 21.521 16.9668 21.5304C16.9797 21.5399 16.9933 21.5479 16.9971 21.5479C17.0009 21.5479 17.0311 21.5646 17.0644 21.5843C17.0977 21.6046 17.1272 21.6206 17.1302 21.6206C17.1325 21.6206 17.1559 21.6337 17.1809 21.6498C17.2058 21.6658 17.2293 21.6789 17.2331 21.6789C17.2368 21.6789 17.2595 21.6912 17.2845 21.7065C17.3344 21.7371 17.4123 21.7815 17.4713 21.8113C17.4925 21.8222 17.5235 21.8404 17.5401 21.8513C17.5575 21.8622 17.5885 21.8797 17.6089 21.8899C17.6445 21.9081 17.6815 21.9284 17.7806 21.9852C17.832 22.015 17.8955 22.05 17.922 22.0638C17.9326 22.0689 17.9629 22.0863 17.9886 22.1016C18.0143 22.1176 18.0385 22.13 18.0415 22.13C18.0453 22.13 18.0665 22.1424 18.0907 22.1576C18.1141 22.1722 18.1572 22.1977 18.1875 22.2137C18.2389 22.2413 18.2654 22.2559 18.3395 22.2973C18.3569 22.3075 18.3864 22.3235 18.4038 22.3337C18.4363 22.3512 18.5021 22.3883 18.6412 22.4662C18.679 22.4873 18.7221 22.5113 18.738 22.5193C18.7532 22.5273 18.7842 22.5455 18.8068 22.5586C18.8295 22.5724 18.8605 22.5906 18.8764 22.5986C18.9067 22.6146 18.9884 22.6597 19.1063 22.7266C19.1441 22.7477 19.1903 22.7732 19.2099 22.7841C19.3014 22.8336 19.3514 22.862 19.3861 22.8838C19.4073 22.8976 19.4277 22.9086 19.4323 22.9086C19.4361 22.9086 19.4625 22.9231 19.4913 22.9413C19.5193 22.9588 19.5495 22.9755 19.5571 22.9777C19.5654 22.9806 19.5926 22.9951 19.6168 23.0112C19.6418 23.0264 19.6645 23.0395 19.6682 23.0395C19.6728 23.0395 19.6924 23.0504 19.7129 23.0643C19.7333 23.0781 19.7688 23.0977 19.7915 23.1087C19.8142 23.1196 19.8429 23.1363 19.855 23.145C19.8679 23.1538 19.8928 23.1683 19.9118 23.1771C19.9307 23.1865 19.9602 23.2032 19.9775 23.2142C19.9942 23.2251 20.0154 23.2367 20.0237 23.2389C20.032 23.2418 20.0623 23.2585 20.0902 23.276C20.119 23.2942 20.1447 23.3088 20.1477 23.3088C20.1515 23.3088 20.1719 23.3204 20.1938 23.3342C20.215 23.348 20.2362 23.3597 20.24 23.3597C20.243 23.3597 20.2687 23.3742 20.2967 23.3917C20.3239 23.4092 20.3549 23.4259 20.3648 23.4288C20.3746 23.4317 20.4003 23.4463 20.4207 23.4601C20.4419 23.4747 20.4744 23.4936 20.4933 23.503C20.5122 23.5118 20.5591 23.5372 20.5962 23.5591C20.634 23.5809 20.6847 23.6093 20.7096 23.6216C20.7346 23.634 20.7656 23.6522 20.7777 23.6609C20.7905 23.6704 20.8155 23.6849 20.8344 23.6937C20.8699 23.7104 20.9667 23.7642 21.0212 23.7984C21.0393 23.8094 21.056 23.8181 21.0598 23.8181C21.0628 23.8181 21.084 23.8297 21.1067 23.8443C21.1293 23.8588 21.1588 23.8756 21.1709 23.8814C21.1838 23.8865 21.2088 23.901 21.2277 23.9127C21.2466 23.9251 21.2753 23.9411 21.2919 23.9491C21.3086 23.9571 21.3358 23.9724 21.3532 23.9818L21.3842 24L21.3887 23.7104C21.3918 23.5518 21.394 23.1967 21.394 22.9224C21.394 22.3905 21.3925 22.3687 21.3555 22.2442C21.3471 22.2151 21.3358 22.1773 21.3305 22.1591C21.3169 22.1147 21.242 21.9728 21.2133 21.9379C21.2004 21.9226 21.1898 21.9066 21.1898 21.9022C21.1898 21.8942 21.0794 21.7735 21.0492 21.748C20.9902 21.6985 20.9705 21.6832 20.9373 21.6592C20.9161 21.6447 20.8805 21.6236 20.8578 21.6112C20.8344 21.5988 20.8049 21.5814 20.792 21.5719C20.7792 21.5624 20.7656 21.5552 20.7618 21.5552C20.758 21.5552 20.73 21.5406 20.6998 21.5224C20.6695 21.5042 20.6423 21.4897 20.6385 21.4897C20.6355 21.4897 20.6189 21.4802 20.6022 21.4686C20.5848 21.4569 20.5531 21.438 20.5311 21.4271C20.5084 21.4162 20.4767 21.3987 20.46 21.3878C20.4434 21.3776 20.4245 21.3667 20.4185 21.3645C20.4124 21.3623 20.3814 21.3456 20.3504 21.3267C20.3194 21.3085 20.2914 21.2932 20.2884 21.2932C20.2854 21.2932 20.2596 21.2787 20.2317 21.2605C20.2037 21.2423 20.1772 21.2277 20.1734 21.2277C20.1689 21.2277 20.1454 21.2146 20.1205 21.1986C20.0963 21.1826 20.0728 21.1695 20.0698 21.1695C20.066 21.1695 20.0433 21.1571 20.0199 21.1419C19.9957 21.1273 19.9602 21.1069 19.9405 21.0968C19.8921 21.072 19.8081 21.0262 19.7756 21.0058C19.7613 20.9963 19.7295 20.9789 19.706 20.9665C19.6818 20.9541 19.6501 20.9352 19.635 20.9258C19.6198 20.9156 19.604 20.9076 19.6002 20.9076C19.5964 20.9076 19.5707 20.8937 19.5427 20.8763C19.5147 20.8595 19.4822 20.8399 19.4693 20.8334C19.3498 20.7693 19.3158 20.7504 19.2992 20.738C19.2886 20.7308 19.2689 20.7198 19.2553 20.7147C19.2417 20.7089 19.213 20.6936 19.191 20.6806C19.1699 20.6675 19.1419 20.6507 19.129 20.6442C19.1078 20.6325 19.092 20.6238 19.0148 20.5801C18.9974 20.57 18.9581 20.5488 18.9286 20.5328C18.8984 20.5168 18.8575 20.4928 18.8371 20.4805C18.8167 20.4674 18.7978 20.4564 18.7955 20.4564C18.7925 20.4564 18.7653 20.4419 18.735 20.4237C18.7055 20.4055 18.6783 20.391 18.6753 20.391C18.6715 20.391 18.6503 20.3786 18.6276 20.364C18.6042 20.3495 18.5686 20.3298 18.549 20.3204C18.5285 20.3109 18.4983 20.2935 18.4809 20.2818C18.4643 20.2694 18.4469 20.26 18.4431 20.26C18.4393 20.26 18.4121 20.2454 18.3833 20.2272C18.3546 20.209 18.3281 20.1945 18.3251 20.1945C18.3221 20.1945 18.2964 20.1799 18.2676 20.1617C18.2396 20.1443 18.2094 20.1276 18.2003 20.1246C18.1912 20.1225 18.1784 20.1159 18.1723 20.1108C18.1602 20.1006 18.0491 20.0388 17.9734 19.9995C17.9477 19.9857 17.916 19.9675 17.9024 19.9573C17.8895 19.9478 17.8751 19.9398 17.8721 19.9398C17.8683 19.9398 17.8403 19.9253 17.8101 19.9071C17.7798 19.8889 17.7526 19.8743 17.7503 19.8743C17.7473 19.8743 17.7299 19.8641 17.711 19.8518C17.6921 19.8401 17.6573 19.8198 17.6331 19.8081C17.6082 19.7958 17.5749 19.7768 17.5582 19.7652C17.5318 19.7463 17.5295 19.7426 17.5416 19.7383C17.5499 19.7361 17.5749 19.7215 17.5983 19.707C17.6218 19.6924 17.6505 19.6764 17.6626 19.6728C17.6747 19.6684 17.705 19.6517 17.7292 19.6349C17.7541 19.6189 17.7776 19.6051 17.7821 19.6051C17.7866 19.6051 17.8025 19.5978 17.8169 19.5884C17.8615 19.5607 18.0234 19.4712 18.1353 19.4123C18.1686 19.3948 18.2253 19.3635 18.2843 19.3293C18.3077 19.3162 18.3448 19.2959 18.3652 19.285C18.3864 19.274 18.4196 19.2551 18.4401 19.242C18.4612 19.2297 18.4809 19.2195 18.4839 19.2195C18.4877 19.2195 18.5006 19.2129 18.5127 19.2049C18.5255 19.1969 18.5444 19.1845 18.5565 19.1765C18.5679 19.1693 18.586 19.1605 18.5958 19.1576C18.6064 19.1547 18.6253 19.1445 18.6374 19.1358C18.6503 19.1263 18.6821 19.1081 18.7093 19.0958C18.7365 19.0827 18.7637 19.0674 18.7698 19.0623C18.7819 19.0528 18.8658 19.0063 18.9324 18.9721C18.9536 18.9619 18.9906 18.9408 19.0148 18.9255C19.0398 18.9102 19.0655 18.8964 19.0715 18.8942C19.0783 18.8913 19.1078 18.8753 19.1373 18.8586C19.1668 18.8411 19.1941 18.8265 19.1978 18.8265C19.2016 18.8265 19.2251 18.8135 19.25 18.7974C19.275 18.7814 19.2977 18.7683 19.3007 18.7683C19.3045 18.7683 19.3309 18.7538 19.3612 18.7356C19.3914 18.7174 19.4187 18.7029 19.4209 18.7029C19.424 18.7029 19.4512 18.6883 19.4814 18.6701C19.5117 18.6519 19.5397 18.6374 19.5427 18.6374C19.5457 18.6374 19.5722 18.6228 19.6009 18.6046C19.6297 18.5864 19.6569 18.5719 19.6607 18.5719C19.6645 18.5719 19.6811 18.5631 19.697 18.553C19.7257 18.534 19.8157 18.4838 19.8777 18.4518C19.8944 18.4438 19.9284 18.4242 19.9526 18.4089C19.9768 18.3936 20.0048 18.3791 20.0139 18.3754C20.0229 18.3718 20.0494 18.3572 20.0728 18.3434C20.0963 18.3288 20.1243 18.3136 20.1356 18.3099C20.147 18.3056 20.1659 18.2954 20.178 18.2874C20.2014 18.2714 20.2831 18.2255 20.3474 18.1935C20.3685 18.1826 20.4018 18.1637 20.4207 18.1506C20.4396 18.1382 20.4646 18.1244 20.4767 18.12C20.488 18.1157 20.5153 18.1011 20.5364 18.0873C20.5584 18.0742 20.5841 18.0596 20.5939 18.056C20.6045 18.0523 20.634 18.0356 20.6605 18.0196C20.6869 18.0029 20.7104 17.9898 20.7142 17.9898C20.7172 17.9898 20.7444 17.9752 20.7747 17.957C20.8049 17.9388 20.8321 17.9243 20.8352 17.9243C20.8374 17.9243 20.8631 17.9097 20.8919 17.8915C20.9199 17.8734 20.9471 17.8588 20.9524 17.8588C20.9569 17.8588 20.9781 17.8479 20.9985 17.8341C21.0189 17.8202 21.056 17.7991 21.0809 17.7868C21.1051 17.7737 21.1377 17.7569 21.152 17.7482C21.1664 17.7402 21.2065 17.7176 21.2405 17.698C21.2745 17.6783 21.3048 17.6623 21.3071 17.6623C21.3101 17.6623 21.332 17.6507 21.3555 17.6369L21.3993 17.6107L21.4039 17.2563C21.4069 17.0613 21.4092 16.509 21.4092 16.0288C21.4092 15.5486 21.4114 15.0363 21.4145 14.8901L21.4198 14.6245L21.4931 14.5896C21.5339 14.5706 21.571 14.5554 21.5763 14.5554C21.5808 14.5554 21.6111 14.5423 21.6429 14.527C21.6746 14.511 21.7397 14.4811 21.7873 14.4608C21.9053 14.4098 22.0119 14.3633 22.0951 14.3254C22.1337 14.308 22.17 14.2934 22.1753 14.2934C22.1806 14.2934 22.1911 14.289 22.1995 14.2832C22.2078 14.2781 22.2403 14.2629 22.2713 14.2505C22.3023 14.2374 22.3522 14.2163 22.381 14.2025C22.4105 14.1894 22.4732 14.161 22.5209 14.1406C22.5685 14.1195 22.6396 14.0882 22.6782 14.0708C22.716 14.0533 22.7523 14.0387 22.7576 14.0387C22.7621 14.0387 22.7818 14.03 22.8007 14.0198C22.8196 14.0096 22.8551 13.9929 22.8801 13.9827C22.9323 13.9616 23.0238 13.9209 23.1221 13.8743C23.1599 13.8568 23.1932 13.8423 23.1962 13.8423C23.1992 13.8423 23.2197 13.8299 23.2416 13.8146C23.2635 13.7986 23.29 13.7819 23.3013 13.7761C23.3399 13.7564 23.4579 13.656 23.5131 13.5949C23.5902 13.5105 23.6311 13.4566 23.678 13.3766C23.7506 13.2529 23.8088 13.0644 23.8179 12.9291C23.8201 12.8847 23.8345 12.7465 23.8489 12.6206C23.8633 12.4954 23.8799 12.3317 23.8859 12.2568C23.892 12.1826 23.9086 12.013 23.923 11.8813C23.9374 11.7489 23.9517 11.6085 23.954 11.5684C23.957 11.5284 23.9653 11.4411 23.9722 11.3734C23.9812 11.2912 23.9827 11.2519 23.9774 11.2519C23.9699 11.2519 23.8965 11.2839 23.7332 11.3581C23.6954 11.3756 23.6613 11.3902 23.6583 11.3902C23.6553 11.3902 23.6258 11.4033 23.5918 11.4185C23.5585 11.4346 23.4912 11.4637 23.4435 11.4848C23.3959 11.5051 23.3331 11.5328 23.3036 11.5466C23.2749 11.5597 23.2318 11.5779 23.2091 11.5866C23.1864 11.5954 23.1607 11.6063 23.1516 11.6121C23.1425 11.6172 23.1138 11.6303 23.0873 11.6412C23.0609 11.6521 23.0185 11.6696 22.9935 11.6812C22.9686 11.6921 22.9088 11.7183 22.8612 11.7394C22.8136 11.7605 22.7432 11.7918 22.7054 11.8093C22.6668 11.8267 22.6328 11.8413 22.629 11.8413C22.6245 11.8413 22.5905 11.8558 22.5526 11.874C22.5148 11.8922 22.4816 11.9068 22.4785 11.9068C22.4755 11.9068 22.4453 11.9199 22.412 11.9352C22.3779 11.9512 22.3114 11.981 22.2637 12.0014C22.2161 12.0225 22.1458 12.0538 22.108 12.0712C22.0701 12.0887 22.0354 12.1032 22.0308 12.1032C22.0263 12.1032 21.996 12.1163 21.9635 12.1316C21.931 12.1476 21.8652 12.1775 21.8175 12.1978C21.7064 12.2459 21.5944 12.2953 21.5249 12.3266C21.4946 12.3405 21.4598 12.3543 21.447 12.3579L21.4243 12.3645V11.7824C21.4243 11.3996 21.422 11.201 21.4167 11.201C21.4129 11.201 21.4092 11.1973 21.4092 11.1937C21.4092 11.1893 21.4145 11.1864 21.4205 11.1864C21.4273 11.1864 21.4583 11.1741 21.4908 11.1581C21.5226 11.1428 21.5574 11.1275 21.568 11.1246C21.5786 11.1217 21.6126 11.1071 21.6444 11.0918C21.6754 11.0766 21.7094 11.062 21.72 11.0591C21.7298 11.0562 21.7586 11.0438 21.7835 11.0322C21.8085 11.0198 21.8417 11.006 21.8576 11.0002C21.8728 10.9951 21.9106 10.9791 21.9408 10.9652C21.9907 10.9427 22.0633 10.9107 22.2335 10.8372C22.269 10.8219 22.3356 10.7928 22.381 10.7724C22.4271 10.752 22.4672 10.7353 22.4695 10.7353C22.4725 10.7353 22.5065 10.7207 22.5458 10.7026C22.5852 10.6844 22.6207 10.6698 22.6252 10.6698C22.6298 10.6698 22.6623 10.6553 22.6994 10.6371C22.7357 10.6189 22.7697 10.6043 22.775 10.6043C22.7803 10.6043 22.8151 10.5898 22.8514 10.5716C22.8877 10.5534 22.9225 10.5388 22.9293 10.5388C22.9361 10.5388 22.9444 10.5359 22.9489 10.5323C22.9527 10.5287 22.9845 10.5141 23.02 10.4988C23.0556 10.4843 23.1085 10.461 23.1372 10.4479C23.1667 10.4341 23.2091 10.4151 23.2318 10.4042C23.3361 10.3569 23.4397 10.2856 23.5297 10.1998C23.5993 10.1328 23.6076 10.1219 23.6651 10.0404C23.7249 9.95528 23.746 9.91962 23.7619 9.8796C23.771 9.85559 23.7808 9.83304 23.7838 9.8294C23.8217 9.77628 23.8693 9.47795 23.8859 9.18908C23.889 9.14106 23.9026 8.99699 23.9169 8.86893C23.9313 8.74086 23.9464 8.59024 23.9502 8.53422C23.957 8.4469 23.988 8.14784 23.9986 8.0729C24.0016 8.05252 24.0001 8.04961 23.9895 8.05252C23.9684 8.05835 23.8973 8.08745 23.8391 8.11292C23.8096 8.12602 23.7702 8.1413 23.7521 8.14712C23.7339 8.15367 23.6938 8.16967 23.6628 8.1835C23.6318 8.19732 23.5978 8.21115 23.5872 8.21406C23.5766 8.21697 23.5403 8.23152 23.5055 8.24753C23.4707 8.26281 23.4397 8.27591 23.4352 8.27591C23.4314 8.27591 23.3906 8.29192 23.3445 8.31229C23.2983 8.33193 23.2575 8.34867 23.2545 8.34867C23.2507 8.34867 23.2159 8.36322 23.1773 8.38141C23.1387 8.3996 23.1024 8.41416 23.0979 8.41416C23.0926 8.41416 23.0639 8.42507 23.0336 8.4389C22.9739 8.46582 22.8869 8.5022 22.8272 8.52476C22.8067 8.53276 22.7727 8.54659 22.7515 8.55604C22.7311 8.56478 22.6933 8.58006 22.6683 8.58879C22.6434 8.59825 22.5995 8.61644 22.57 8.62954C22.5413 8.64263 22.4914 8.66373 22.4604 8.67683C22.3643 8.7154 22.2925 8.74596 22.2448 8.76706C22.2199 8.77797 22.1874 8.79107 22.173 8.79616C22.1586 8.80126 22.1246 8.81508 22.0974 8.82745C22.0391 8.85365 21.9408 8.89512 21.8667 8.9235C21.838 8.93514 21.7933 8.95479 21.7691 8.96643C21.7442 8.9788 21.7207 8.98898 21.7162 8.98898C21.7117 8.98898 21.6769 9.00354 21.6398 9.021C21.602 9.03846 21.5634 9.0552 21.5529 9.05811C21.5423 9.06102 21.512 9.07412 21.4848 9.08722C21.4576 9.09958 21.422 9.11487 21.4054 9.11996C21.3887 9.12505 21.3487 9.14179 21.3169 9.15707C21.2844 9.17308 21.2541 9.18545 21.2496 9.18545C21.2451 9.18545 21.2148 9.19781 21.183 9.21382C21.1513 9.2291 21.1172 9.24438 21.1067 9.24729C21.0961 9.2502 21.0643 9.26403 21.0348 9.27785C21.0061 9.29168 20.9599 9.31133 20.9327 9.32151C20.9055 9.3317 20.8737 9.34552 20.8609 9.3528C20.8488 9.36008 20.8299 9.36808 20.8193 9.37099C20.8087 9.3739 20.7656 9.39209 20.7232 9.41174C20.6801 9.43138 20.6423 9.44739 20.6385 9.44739C20.6317 9.44739 20.5705 9.47504 20.4071 9.54999C20.3731 9.566 20.3428 9.57837 20.339 9.57837C20.3353 9.57837 20.3111 9.58782 20.2861 9.60019C20.2611 9.61184 20.2173 9.63075 20.1878 9.6424C20.1591 9.65477 20.0955 9.68096 20.0479 9.70206C20.0002 9.72244 19.9405 9.7479 19.9155 9.75809C19.8906 9.76755 19.8422 9.78865 19.8081 9.80466C19.7749 9.81994 19.7439 9.83304 19.7401 9.83304C19.7371 9.83304 19.7068 9.84613 19.6735 9.86214C19.6403 9.87815 19.61 9.89125 19.607 9.89125C19.604 9.89125 19.5654 9.90725 19.5223 9.92763C19.4792 9.94727 19.4398 9.96401 19.4361 9.96401C19.4315 9.96401 19.399 9.97783 19.3642 9.99457L19.3007 10.0244L19.2568 9.99603C19.2319 9.98002 19.2069 9.96474 19.1994 9.96255C19.1925 9.95964 19.1646 9.94436 19.1366 9.92836C19.1086 9.91162 19.0844 9.89852 19.0821 9.89852C19.0799 9.89852 19.0587 9.88615 19.036 9.8716C19.0126 9.85705 18.977 9.8374 18.9573 9.82794C18.9369 9.81848 18.9067 9.80102 18.8893 9.78938C18.8726 9.77701 18.8552 9.76755 18.8515 9.76755C18.8477 9.76755 18.8235 9.75445 18.797 9.73844C18.7705 9.72244 18.7463 9.70934 18.7433 9.70934C18.7403 9.70934 18.7146 9.69479 18.6874 9.67732C18.6601 9.66059 18.6299 9.64385 18.6208 9.64094C18.6117 9.63803 18.5913 9.62712 18.5754 9.61693C18.5444 9.59656 18.4431 9.53907 18.3765 9.50415C18.3538 9.49178 18.3243 9.47431 18.3107 9.46486C18.2979 9.4554 18.2835 9.44739 18.2805 9.44739C18.2767 9.44739 18.2487 9.43284 18.2185 9.41465C18.1882 9.39646 18.161 9.38191 18.158 9.38191C18.1557 9.38191 18.1345 9.37026 18.1118 9.35571C18.0891 9.34116 18.0513 9.32006 18.0286 9.30914C18.006 9.2975 17.9757 9.28004 17.9613 9.26985C17.947 9.25966 17.9311 9.25093 17.9273 9.25093C17.9228 9.25093 17.8955 9.23638 17.8676 9.21819C17.8388 9.2 17.8131 9.18545 17.8093 9.18545C17.8063 9.18545 17.7912 9.17744 17.7761 9.16725C17.7609 9.15707 17.7254 9.13742 17.6974 9.12287C17.6694 9.10832 17.6377 9.09013 17.6271 9.08285C17.6157 9.07557 17.5983 9.06611 17.587 9.06175C17.5756 9.05811 17.5461 9.04137 17.5212 9.02537C17.4962 9.00936 17.4728 8.99626 17.4698 8.99626C17.466 8.99626 17.4509 8.98826 17.4357 8.97807C17.4206 8.96788 17.3851 8.94824 17.3571 8.93369C17.3291 8.91913 17.2981 8.90167 17.2875 8.89439C17.2709 8.88421 17.2134 8.85146 17.1325 8.80853C17.1204 8.80198 17.0909 8.78525 17.0682 8.77142C17.0455 8.7576 17.0115 8.73868 16.9926 8.72922C16.9737 8.71976 16.9283 8.69429 16.8905 8.67247C16.8534 8.65064 16.8035 8.62371 16.7808 8.61134C16.7581 8.5997 16.7211 8.5786 16.6991 8.56478C16.678 8.55022 16.6522 8.5364 16.6432 8.53349C16.6265 8.52839 16.6167 8.5233 16.5638 8.48838C16.5501 8.47964 16.5365 8.47237 16.5328 8.47237C16.529 8.47237 16.5055 8.45927 16.4813 8.44326C16.4564 8.42725 16.4329 8.41416 16.4291 8.41416C16.4246 8.41416 16.4027 8.40251 16.38 8.38796C16.3573 8.37341 16.3165 8.35013 16.2892 8.33557C16.262 8.32175 16.231 8.30428 16.2197 8.29701C16.2091 8.289 16.1962 8.28318 16.1924 8.28318C16.1886 8.28318 16.1682 8.27227 16.1478 8.25844C16.1274 8.24462 16.0926 8.22497 16.0707 8.21406C16.0487 8.20387 16.017 8.18495 15.9996 8.17331C15.9829 8.16167 15.9663 8.15221 15.9633 8.15221C15.9595 8.15221 15.9323 8.13766 15.902 8.12019C15.8718 8.10273 15.8377 8.08381 15.8264 8.07872C15.8158 8.0729 15.7803 8.05325 15.7485 8.03361C15.6918 7.99941 15.6736 7.99359 15.6661 8.00596ZM15.7523 10.1306C15.7712 10.143 15.7893 10.1532 15.7924 10.1532C15.7954 10.1532 15.8211 10.1677 15.8498 10.1859C15.8786 10.2041 15.9043 10.2187 15.9073 10.2187C15.9134 10.2187 16.02 10.2783 16.085 10.3169C16.1123 10.3336 16.1849 10.3737 16.256 10.4115C16.3323 10.4522 16.3989 10.4901 16.4102 10.4988C16.4163 10.5039 16.4488 10.5214 16.4821 10.5388C16.5154 10.5556 16.5532 10.5774 16.566 10.5869C16.5789 10.5963 16.5933 10.6043 16.5985 10.6043C16.6031 10.6043 16.6303 10.6181 16.6583 10.6356C16.6863 10.6523 16.7195 10.672 16.7316 10.6785C16.7445 10.6851 16.7831 10.7062 16.8186 10.7251C16.8542 10.744 16.8935 10.7666 16.9056 10.7753C16.9184 10.784 16.9464 10.8001 16.9691 10.811C16.9918 10.8226 17.019 10.8372 17.0296 10.8437C17.0652 10.867 17.1809 10.9318 17.1862 10.9318C17.1892 10.9318 17.2089 10.9434 17.2308 10.9572C17.2527 10.9703 17.2883 10.9914 17.311 11.0031C17.3336 11.014 17.3828 11.0409 17.4199 11.0627C17.4577 11.0838 17.5015 11.1086 17.5182 11.1173C17.5348 11.126 17.5635 11.142 17.5817 11.153C17.5998 11.1646 17.6324 11.1828 17.6535 11.1937C17.6914 11.2126 17.7496 11.2461 17.8169 11.2854C17.8358 11.297 17.8691 11.3152 17.8918 11.3261C17.9145 11.3378 17.9439 11.3552 17.9576 11.3647C17.9712 11.3749 17.9848 11.3829 17.9886 11.3829C17.9923 11.3829 18.0196 11.3974 18.0498 11.4156C18.0801 11.4338 18.1073 11.4484 18.1111 11.4484C18.1149 11.4484 18.136 11.46 18.158 11.4746C18.1807 11.4891 18.2177 11.5102 18.2404 11.5211C18.2631 11.5328 18.2933 11.5502 18.3077 11.5604C18.3221 11.5706 18.338 11.5793 18.3417 11.5793C18.3463 11.5793 18.3728 11.5939 18.4007 11.6114C18.4287 11.6296 18.459 11.6463 18.468 11.6485C18.4771 11.6514 18.4983 11.663 18.5157 11.6739C18.5459 11.6936 18.614 11.7314 18.6858 11.7685C18.7055 11.7787 18.7373 11.7976 18.7562 11.81C18.7751 11.8224 18.7993 11.8347 18.8091 11.8377C18.8182 11.8413 18.8371 11.8508 18.8492 11.8595C18.8621 11.8689 18.8976 11.89 18.9286 11.9068C18.9596 11.9242 19.0118 11.9534 19.0443 11.9715C19.0761 11.9897 19.1192 12.013 19.1388 12.0232C19.1585 12.0334 19.1933 12.0523 19.216 12.0661C19.2387 12.08 19.2704 12.0981 19.2856 12.1062C19.337 12.1338 19.4156 12.1775 19.4542 12.2007C19.4754 12.2131 19.5026 12.2284 19.5147 12.2342L19.5374 12.2459L19.5351 14.2934C19.5344 15.4198 19.5314 16.3912 19.5291 16.4516L19.5245 16.5614L19.4973 16.5738C19.4814 16.5811 19.4572 16.5942 19.4429 16.6029C19.4149 16.6204 19.3355 16.6655 19.2833 16.6924C19.2659 16.7011 19.2288 16.7215 19.2009 16.7375C19.1721 16.7543 19.1472 16.7674 19.1449 16.7674C19.1426 16.7674 19.1192 16.7805 19.092 16.7972C19.0428 16.8263 19.0247 16.8365 18.9347 16.883C18.9082 16.8961 18.8696 16.9187 18.8484 16.9318C18.8273 16.9456 18.8068 16.9565 18.8031 16.9565C18.7993 16.9565 18.7834 16.9645 18.7683 16.9747C18.7532 16.9849 18.7259 17.0002 18.7078 17.0097C18.6722 17.0278 18.5845 17.0766 18.524 17.1115C18.5036 17.1232 18.4658 17.1435 18.4408 17.1566C18.4159 17.169 18.3818 17.1887 18.3659 17.1988C18.3501 17.2098 18.3334 17.2185 18.3296 17.2185C18.3251 17.2185 18.313 17.2243 18.3024 17.2323C18.2911 17.2396 18.2586 17.2578 18.2291 17.2731C18.2003 17.2876 18.1708 17.3043 18.1648 17.3094C18.1587 17.3145 18.1315 17.3291 18.1043 17.3422C18.077 17.3553 18.0498 17.3698 18.0438 17.3757C18.037 17.3807 18.0067 17.3982 17.9757 17.4135C17.9439 17.4295 17.9054 17.4506 17.8895 17.4615C17.8736 17.4717 17.857 17.4804 17.8532 17.4804C17.8487 17.4804 17.8366 17.4863 17.826 17.4943C17.8146 17.5015 17.7866 17.5175 17.764 17.5299C17.7413 17.5416 17.7027 17.5627 17.6793 17.5758C17.6218 17.6092 17.5688 17.6383 17.5023 17.6733C17.4728 17.6893 17.4433 17.706 17.4372 17.7111C17.432 17.7155 17.4115 17.7264 17.3934 17.7351C17.3745 17.7431 17.3442 17.7591 17.3261 17.77C17.283 17.7962 17.2331 17.8231 17.1778 17.8515C17.1529 17.8646 17.1158 17.8857 17.0947 17.8995C17.0742 17.9126 17.0485 17.9265 17.0379 17.9301C17.0274 17.9337 17.0009 17.949 16.9789 17.9629C16.9578 17.9774 16.9321 17.9912 16.923 17.9941C16.9132 17.997 16.8973 18.0043 16.8867 18.0116C16.83 18.0487 16.8058 18.0625 16.7982 18.0625C16.7944 18.0625 16.7785 18.0705 16.7642 18.0793C16.7498 18.0887 16.7158 18.1084 16.6885 18.1229C16.6613 18.1375 16.6258 18.1579 16.6106 18.168C16.5948 18.1782 16.5781 18.1862 16.5728 18.1862C16.5675 18.1862 16.5403 18.2008 16.5116 18.219C16.4836 18.2372 16.4571 18.2517 16.4533 18.2517C16.4496 18.2517 16.4254 18.2648 16.3996 18.2808C16.3543 18.3092 16.3384 18.3179 16.2423 18.3674C16.2159 18.3805 16.1781 18.4023 16.1569 18.4162C16.1365 18.4293 16.1108 18.4431 16.1002 18.4467C16.0896 18.4504 16.0631 18.4656 16.0412 18.4795C16.02 18.494 15.9943 18.5078 15.9845 18.5108C15.9754 18.5129 15.9474 18.5282 15.9224 18.5435C15.8975 18.5588 15.8627 18.5792 15.8453 18.5879C15.8279 18.5973 15.7954 18.6141 15.7735 18.6257C15.7515 18.6366 15.7145 18.6592 15.691 18.6745L15.6479 18.7021L15.6018 18.673C15.5768 18.6577 15.5549 18.6446 15.5526 18.6446C15.5488 18.6446 15.446 18.5864 15.3779 18.545C15.353 18.5297 15.3242 18.5144 15.3136 18.51C15.2902 18.5013 15.1972 18.4489 15.1367 18.4103C15.1117 18.3951 15.089 18.3827 15.0845 18.3827C15.0807 18.3827 15.0542 18.3681 15.0263 18.3499C14.9983 18.3318 14.9718 18.3172 14.9688 18.3172C14.965 18.3172 14.9348 18.3005 14.9015 18.2808C14.8682 18.2605 14.838 18.2444 14.8342 18.2444C14.8304 18.2444 14.816 18.2364 14.8032 18.227C14.7896 18.2168 14.7585 18.1993 14.7343 18.187C14.7101 18.1753 14.6784 18.1571 14.664 18.1469C14.6496 18.136 14.6338 18.128 14.63 18.128C14.6254 18.128 14.599 18.1135 14.571 18.096C14.543 18.0778 14.5135 18.0618 14.5052 18.0589C14.4969 18.0567 14.4674 18.04 14.4394 18.0225C14.4107 18.0043 14.3842 17.9898 14.3804 17.9898C14.3759 17.9898 14.3555 17.9789 14.3343 17.965C14.2972 17.941 14.2208 17.8981 14.1649 17.8697C14.1498 17.8617 14.118 17.8442 14.0953 17.8304C14.0734 17.8166 14.0409 17.7984 14.0242 17.7897C13.9788 17.7657 13.8851 17.7133 13.8472 17.69C13.8283 17.6791 13.8109 17.6696 13.8072 17.6696C13.8034 17.6696 13.7792 17.6558 13.7535 17.6398C13.7278 17.623 13.6998 17.607 13.6907 17.6041C13.6816 17.6005 13.6544 17.5859 13.6302 17.5707C13.5841 17.5416 13.5621 17.5299 13.482 17.4884C13.4555 17.4753 13.4177 17.4535 13.3965 17.4411C13.3761 17.4288 13.3489 17.4128 13.336 17.4062C13.3148 17.3946 13.299 17.3858 13.2218 17.3422C13.2044 17.332 13.1651 17.3109 13.1356 17.2949C13.1053 17.2789 13.0645 17.2549 13.0441 17.2418C13.0237 17.2294 13.0055 17.2185 13.0033 17.2185C13.001 17.2185 12.9738 17.2039 12.9435 17.1857C12.9125 17.1676 12.8845 17.153 12.8822 17.153C12.8792 17.153 12.8558 17.1399 12.8301 17.1239C12.8044 17.1079 12.7696 17.0875 12.7522 17.0788C12.7348 17.0693 12.6856 17.0424 12.6433 17.0184C12.6002 16.9944 12.5502 16.966 12.5313 16.9558C12.5124 16.9456 12.4814 16.9282 12.4625 16.9158C12.4436 16.9041 12.4202 16.8911 12.4096 16.8874C12.399 16.883 12.3755 16.8707 12.3566 16.8598C12.2803 16.8146 12.2296 16.7863 12.1903 16.7652C12.1676 16.7535 12.1343 16.7339 12.1169 16.723C12.0995 16.7113 12.0829 16.7019 12.0791 16.7019C12.0753 16.7019 12.0473 16.6873 12.0171 16.6691C11.9868 16.6509 11.9596 16.6364 11.9566 16.6364C11.9543 16.6364 11.9384 16.6276 11.9218 16.616C11.9052 16.6051 11.8658 16.5833 11.8348 16.5665L11.7781 16.5374V16.0426C11.7781 15.7712 11.7819 14.8028 11.7864 13.891C11.794 12.2706 11.7947 12.2335 11.8091 12.2233C11.8167 12.2175 11.8431 12.2022 11.8673 12.1891C11.8915 12.176 11.9286 12.1549 11.9505 12.1418C11.9725 12.1294 12.0072 12.1105 12.0277 12.1003C12.0488 12.0901 12.0844 12.0705 12.1071 12.0559C12.1298 12.0421 12.1517 12.0305 12.1555 12.0305C12.1593 12.0305 12.1683 12.0261 12.1744 12.0203C12.1812 12.0152 12.2137 11.997 12.247 11.9795C12.2803 11.9628 12.3128 11.9446 12.3188 11.9395C12.3249 11.9344 12.3521 11.9192 12.3793 11.9061C12.4066 11.893 12.4391 11.8755 12.4512 11.8668C12.464 11.858 12.4958 11.8398 12.523 11.8267C12.5502 11.8136 12.5775 11.7991 12.5835 11.794C12.5896 11.7889 12.607 11.7787 12.6221 11.7714C12.6372 11.7634 12.6637 11.7496 12.6818 11.7394C12.7544 11.698 12.7809 11.6834 12.8338 11.6565C12.8649 11.6412 12.8996 11.6216 12.9125 11.6128C12.9246 11.6048 12.9571 11.5866 12.9843 11.5735C13.0116 11.5597 13.0388 11.5444 13.0448 11.5393C13.0517 11.5335 13.0683 11.524 13.0827 11.5175C13.097 11.511 13.128 11.4949 13.1507 11.4811C13.1734 11.4673 13.2044 11.4513 13.2188 11.4447C13.2332 11.4382 13.2498 11.4287 13.2566 11.4236C13.2627 11.4178 13.2869 11.4047 13.3095 11.3931C13.3322 11.3822 13.3617 11.3662 13.3738 11.3574C13.3867 11.3487 13.4177 11.3312 13.4442 11.3189C13.4706 11.3058 13.5016 11.289 13.5137 11.281C13.5258 11.273 13.547 11.2614 13.5606 11.2548C13.5742 11.249 13.6007 11.2345 13.6196 11.2228C13.6385 11.2104 13.6657 11.1959 13.6801 11.1893C13.6945 11.1828 13.7119 11.1733 13.7179 11.1682C13.724 11.1631 13.7512 11.1486 13.7784 11.1355C13.8057 11.1224 13.8382 11.1042 13.8503 11.0955C13.8631 11.0867 13.8979 11.0664 13.9282 11.0511C14.0121 11.0082 14.0348 10.9958 14.0885 10.9645C14.1399 10.9347 14.1619 10.9223 14.2413 10.8816C14.2677 10.8685 14.3063 10.8466 14.3267 10.8328C14.3479 10.8197 14.3729 10.8059 14.3834 10.8022C14.394 10.7986 14.4205 10.7833 14.4424 10.7695C14.4636 10.7549 14.4893 10.7411 14.4984 10.7382C14.5082 10.7353 14.5241 10.728 14.5347 10.7207C14.5907 10.6844 14.6156 10.6698 14.6224 10.6698C14.6262 10.6698 14.6413 10.6618 14.6557 10.6531C14.6701 10.6436 14.7049 10.624 14.7328 10.6094C14.7601 10.5949 14.7948 10.5752 14.8092 10.5665C14.8236 10.557 14.8591 10.5374 14.8879 10.5221C14.9718 10.477 14.9824 10.4712 15.0384 10.4392C15.0686 10.4217 15.0958 10.4079 15.1004 10.4079C15.1042 10.4079 15.1155 10.402 15.1253 10.394C15.1352 10.3868 15.1692 10.3678 15.2002 10.3518C15.2312 10.3358 15.2705 10.314 15.2864 10.3038C15.3023 10.2929 15.3189 10.2842 15.3227 10.2842C15.3265 10.2842 15.3522 10.2696 15.381 10.2514C15.4097 10.2332 15.4354 10.2187 15.4384 10.2187C15.4415 10.2187 15.4694 10.2041 15.5004 10.1859C15.5307 10.1677 15.5587 10.1532 15.5617 10.1532C15.5647 10.1532 15.5791 10.1452 15.5935 10.1357C15.6078 10.1263 15.6335 10.1117 15.6494 10.1037C15.6827 10.0863 15.6857 10.0877 15.7523 10.1306Z" fill="#DDC179" stroke="#C19869" mask="url(#path-2-inside-1_43_69)"/>
</svg>
