<svg width="240" height="181" viewBox="0 0 240 181" fill="none" xmlns="http://www.w3.org/2000/svg">
<path d="M239.451 171.893H0.548981V172.013H239.451V171.893Z" fill="#EBEBEB"/>
<path d="M215.513 179.581H199.688V179.701H215.513V179.581Z" fill="#EBEBEB"/>
<path d="M158.807 180.88H154.655V181H158.807V180.88Z" fill="#EBEBEB"/>
<path d="M199.21 175.147H190.041V175.266H199.21V175.147Z" fill="#EBEBEB"/>
<path d="M46.251 175.95H25.6146V176.069H46.251V175.95Z" fill="#EBEBEB"/>
<path d="M53.5327 175.95H50.5082V176.069H53.5327V175.95Z" fill="#EBEBEB"/>
<path d="M108.127 177.966H63.3659V178.085H108.127V177.966Z" fill="#EBEBEB"/>
<path d="M113.789 150.583H21.5294C20.8066 150.582 20.1139 150.294 19.6033 149.782C19.0927 149.271 18.8059 148.577 18.8059 147.855V18.1643C18.8122 17.4457 19.1017 16.7586 19.6117 16.2523C20.1216 15.7459 20.8107 15.4612 21.5294 15.46H113.789C114.512 15.46 115.206 15.7474 115.718 16.2591C116.229 16.7707 116.517 17.4646 116.517 18.1882V147.855C116.517 148.578 116.229 149.272 115.718 149.784C115.206 150.296 114.512 150.583 113.789 150.583ZM21.5294 15.5555C20.8383 15.5568 20.176 15.8322 19.6877 16.3213C19.1995 16.8104 18.9253 17.4733 18.9253 18.1643V147.855C18.9253 148.546 19.1995 149.209 19.6877 149.698C20.176 150.187 20.8383 150.462 21.5294 150.464H113.789C114.48 150.462 115.143 150.187 115.632 149.698C116.121 149.209 116.396 148.546 116.397 147.855V18.1643C116.396 17.4728 116.121 16.81 115.632 16.321C115.143 15.832 114.48 15.5568 113.789 15.5555H21.5294Z" fill="#EBEBEB"/>
<path d="M217.142 150.583H124.878C124.155 150.582 123.462 150.294 122.951 149.782C122.439 149.271 122.151 148.578 122.15 147.855V18.1643C122.158 17.4453 122.448 16.7582 122.959 16.252C123.47 15.7457 124.159 15.4612 124.878 15.46H217.142C217.86 15.4624 218.548 15.7477 219.057 16.2539C219.566 16.7602 219.855 17.4466 219.861 18.1643V147.855C219.861 148.577 219.575 149.269 219.065 149.781C218.556 150.292 217.864 150.58 217.142 150.583ZM124.878 15.5555C124.187 15.5568 123.524 15.832 123.035 16.321C122.546 16.81 122.271 17.4728 122.27 18.1643V147.855C122.271 148.546 122.546 149.209 123.035 149.698C123.524 150.187 124.187 150.462 124.878 150.464H217.142C217.834 150.462 218.497 150.187 218.986 149.698C219.475 149.209 219.75 148.546 219.751 147.855V18.1643C219.75 17.4728 219.475 16.81 218.986 16.321C218.497 15.832 217.834 15.5568 217.142 15.5555H124.878Z" fill="#EBEBEB"/>
<path d="M116.34 72.2612H48.5014V171.726H116.34V72.2612Z" fill="#F0F0F0"/>
<path d="M113.941 75.3911H50.8952V93.7627H113.941V75.3911Z" fill="#E0E0E0"/>
<path d="M54.4787 78.3628H50.8952V93.7576H54.4787V78.3628Z" fill="#EBEBEB"/>
<path d="M71.7991 78.3628H68.2156V93.7576H71.7991V78.3628Z" fill="#EBEBEB"/>
<path d="M91.4569 77.9762L87.9254 78.585L90.5405 93.7561L94.072 93.1474L91.4569 77.9762Z" fill="#EBEBEB"/>
<path d="M58.9175 80.3936H55.334V93.7625H58.9175V80.3936Z" fill="#EBEBEB"/>
<path d="M67.1501 80.3936H63.5666V93.7625H67.1501V80.3936Z" fill="#EBEBEB"/>
<path d="M87.9298 80.3936H84.3463V93.7625H87.9298V80.3936Z" fill="#EBEBEB"/>
<path d="M76.5061 79.9296L73.0079 80.707L75.9083 93.7576L79.4065 92.9801L76.5061 79.9296Z" fill="#EBEBEB"/>
<path d="M62.0137 77.5986H60.2219V93.758H62.0137V77.5986Z" fill="#EBEBEB"/>
<path d="M83.3142 77.5986H81.5225V93.758H83.3142V77.5986Z" fill="#EBEBEB"/>
<path d="M50.9 115.044L113.946 115.044V96.6724H50.9V115.044Z" fill="#E0E0E0"/>
<path d="M110.358 115.039H113.941V99.6442H110.358V115.039Z" fill="#EBEBEB"/>
<path d="M93.0423 115.039H96.6258V99.6442H93.0423V115.039Z" fill="#EBEBEB"/>
<path d="M70.7705 114.427L74.3019 115.036L76.917 99.865L73.3855 99.2563L70.7705 114.427Z" fill="#EBEBEB"/>
<path d="M105.919 115.044H109.503V101.675H105.919V115.044Z" fill="#EBEBEB"/>
<path d="M97.6913 115.044H101.275V101.675H97.6913V115.044Z" fill="#EBEBEB"/>
<path d="M76.9116 115.044H80.4952V101.675H76.9116V115.044Z" fill="#EBEBEB"/>
<path d="M85.4466 114.263L88.9448 115.04L91.8452 101.989L88.347 101.212L85.4466 114.263Z" fill="#EBEBEB"/>
<path d="M102.823 115.039H104.615V98.8797H102.823V115.039Z" fill="#EBEBEB"/>
<path d="M81.5272 115.039H83.319V98.8797H81.5272V115.039Z" fill="#EBEBEB"/>
<path d="M54.4787 99.644H50.8952V115.039H54.4787V99.644Z" fill="#EBEBEB"/>
<path d="M58.9175 101.67H55.334V115.039H58.9175V101.67Z" fill="#EBEBEB"/>
<path d="M67.1501 101.67H63.5666V115.039H67.1501V101.67Z" fill="#EBEBEB"/>
<path d="M62.0137 98.8799H60.2219V115.039H62.0137V98.8799Z" fill="#EBEBEB"/>
<path d="M113.941 117.949H50.8952V136.32H113.941V117.949Z" fill="#E0E0E0"/>
<path d="M90.6676 120.921H87.0841V136.316H90.6676V120.921Z" fill="#EBEBEB"/>
<path d="M110.328 120.533L106.797 121.142L109.412 136.313L112.943 135.704L110.328 120.533Z" fill="#EBEBEB"/>
<path d="M77.786 122.952H74.2025V136.321H77.786V122.952Z" fill="#EBEBEB"/>
<path d="M86.0186 122.952H82.4351V136.321H86.0186V122.952Z" fill="#EBEBEB"/>
<path d="M106.798 122.952H103.215V136.321H106.798V122.952Z" fill="#EBEBEB"/>
<path d="M95.3761 122.488L91.8779 123.266L94.7783 136.316L98.2765 135.539L95.3761 122.488Z" fill="#EBEBEB"/>
<path d="M80.8822 120.156H79.0904V136.316H80.8822V120.156Z" fill="#EBEBEB"/>
<path d="M102.183 120.156H100.391V136.316H102.183V120.156Z" fill="#EBEBEB"/>
<path d="M69.124 120.537L65.5925 121.146L68.2076 136.317L71.739 135.708L69.124 120.537Z" fill="#EBEBEB"/>
<path d="M65.5924 122.952H62.0089V136.321H65.5924V122.952Z" fill="#EBEBEB"/>
<path d="M54.1722 122.488L50.674 123.266L53.5744 136.316L57.0726 135.539L54.1722 122.488Z" fill="#EBEBEB"/>
<path d="M60.9816 120.156H59.1899V136.316H60.9816V120.156Z" fill="#EBEBEB"/>
<path d="M36.7952 171.984H48.5014L48.5014 72.2614H36.7952L36.7952 171.984Z" fill="#E0E0E0"/>
<path d="M156.046 169.38H146.102L151.33 126.788C151.455 125.898 151.892 125.082 152.563 124.484C153.235 123.887 154.096 123.547 154.994 123.525H198.36L192 169.361L156.046 169.38Z" fill="#F5F5F5"/>
<path d="M187.581 169.38H197.524L202.756 126.788C202.82 126.379 202.793 125.96 202.677 125.562C202.561 125.165 202.359 124.797 202.086 124.486C201.812 124.174 201.474 123.927 201.094 123.761C200.715 123.595 200.303 123.514 199.889 123.525H196.473C195.576 123.552 194.717 123.894 194.047 124.491C193.377 125.087 192.939 125.901 192.808 126.788L187.581 169.38Z" fill="#F0F0F0"/>
<path d="M183.921 169.313L185.722 148.719C185.76 148.273 185.95 147.852 186.26 147.529C186.571 147.205 186.983 146.998 187.428 146.942L188.168 146.846C188.766 146.772 189.32 146.493 189.737 146.058C190.154 145.623 190.408 145.058 190.457 144.457L190.787 140.702C190.819 140.338 190.776 139.971 190.658 139.625C190.541 139.278 190.353 138.96 190.107 138.69C189.86 138.421 189.56 138.205 189.225 138.058C188.891 137.911 188.529 137.835 188.164 137.835H204.782C205.147 137.835 205.509 137.911 205.843 138.058C206.178 138.205 206.478 138.421 206.725 138.69C206.972 138.96 207.159 139.278 207.276 139.625C207.394 139.971 207.437 140.338 207.405 140.702L207.075 144.457C207.026 145.058 206.772 145.623 206.355 146.058C205.938 146.493 205.384 146.772 204.786 146.846L204.046 146.942C203.601 146.999 203.19 147.207 202.879 147.53C202.569 147.853 202.379 148.273 202.34 148.719L200.539 169.313C200.474 170.036 200.141 170.71 199.606 171.201C199.07 171.691 198.37 171.964 197.643 171.965H181.025C181.752 171.964 182.452 171.691 182.988 171.201C183.523 170.71 183.856 170.036 183.921 169.313Z" fill="#E6E6E6"/>
<path d="M138.185 143.583C138.054 142.02 137.34 140.563 136.185 139.501C135.03 138.44 133.519 137.85 131.95 137.85H146.418C147.982 137.856 149.488 138.448 150.638 139.509C151.787 140.571 152.498 142.024 152.629 143.583L154.063 159.905H139.614L138.185 143.583Z" fill="#E6E6E6"/>
<path d="M125.523 137.869H131.945C133.514 137.869 135.025 138.459 136.18 139.52C137.335 140.582 138.049 142.039 138.18 143.602L139.614 159.924H174.073L175.507 143.602C175.637 142.043 176.347 140.589 177.497 139.527C178.647 138.466 180.153 137.874 181.718 137.869H188.144C188.51 137.869 188.872 137.945 189.206 138.092C189.541 138.239 189.841 138.454 190.088 138.724C190.334 138.994 190.522 139.312 190.639 139.658C190.756 140.005 190.8 140.371 190.768 140.735L190.438 144.491C190.389 145.091 190.134 145.657 189.718 146.092C189.301 146.527 188.747 146.805 188.149 146.88L187.409 146.976C186.964 147.032 186.552 147.239 186.241 147.563C185.931 147.886 185.741 148.306 185.703 148.753L183.921 169.313C183.856 170.037 183.523 170.71 182.988 171.201C182.452 171.692 181.752 171.964 181.025 171.965H132.662C131.935 171.964 131.235 171.692 130.699 171.201C130.164 170.71 129.831 170.037 129.766 169.313L127.965 148.72C127.925 148.273 127.735 147.854 127.425 147.531C127.114 147.208 126.703 147 126.259 146.942L125.519 146.847C124.921 146.771 124.367 146.493 123.949 146.058C123.532 145.623 123.276 145.058 123.225 144.458L122.9 140.702C122.873 140.341 122.92 139.977 123.039 139.635C123.159 139.293 123.347 138.979 123.593 138.713C123.84 138.447 124.138 138.235 124.47 138.089C124.802 137.944 125.161 137.869 125.523 137.869Z" fill="#F0F0F0"/>
<path d="M49.3614 67.2921C49.3614 67.2921 48.8311 63.7994 51.3778 61.5585C53.9245 59.3176 53.6999 57.9893 52.9689 57.8173C52.2378 57.6453 51.5737 59.8814 50.4556 60.4978C50.4556 60.4978 50.4174 57.306 51.5546 56.1354C52.6917 54.9648 53.289 51.9307 52.2044 51.8782C51.1198 51.8256 51.0146 53.6747 50.771 54.9887C50.5273 56.3026 49.3375 58.147 49.3375 58.147C49.3375 58.147 49.1034 55.2801 48.3819 54.1191C47.6605 52.958 49.6051 50.2584 48.8597 49.0878C48.1144 47.9172 46.7622 50.1485 46.8721 52.6665C46.982 55.1846 48.6638 57.8698 48.272 60.4978C48.272 60.4978 47.5315 58.6487 46.8673 58.4814C46.2032 58.3142 45.5295 57.0958 45.0851 56.6419C44.6407 56.188 44.0769 57.7552 45.0851 59.2077C46.0933 60.6602 48.6638 64.5543 48.272 67.6983L49.3614 67.2921Z" fill="#E6E6E6"/>
<path d="M50.8809 65.7012L51.717 70.9331C51.7771 71.313 51.7541 71.7014 51.6497 72.0715C51.5453 72.4416 51.3618 72.7847 51.1121 73.0772C50.8623 73.3696 50.5521 73.6045 50.2029 73.7655C49.8537 73.9266 49.4737 74.0101 49.0891 74.0102H48.2004C47.8158 74.0101 47.4358 73.9266 47.0866 73.7655C46.7373 73.6045 46.4272 73.3696 46.1774 73.0772C45.9276 72.7847 45.7442 72.4416 45.6398 72.0715C45.5354 71.7014 45.5124 71.313 45.5725 70.9331L46.4182 65.7012H50.8809Z" fill="#E6E6E6"/>
<path d="M100.912 72.9873H103.506V61.8306H100.912V72.9873Z" fill="#EBEBEB"/>
<path d="M88.3646 72.9873H90.9591V61.8306H88.3646V72.9873Z" fill="#EBEBEB"/>
<path d="M72.2264 72.5442L74.7832 72.9849L76.6783 61.9903L74.1215 61.5496L72.2264 72.5442Z" fill="#EBEBEB"/>
<path d="M97.6961 72.9829H100.291V63.2978H97.6961V72.9829Z" fill="#EBEBEB"/>
<path d="M91.7331 72.9829H94.3276V63.2978H91.7331V72.9829Z" fill="#EBEBEB"/>
<path d="M76.6727 72.9829H79.2672V63.2978H76.6727V72.9829Z" fill="#EBEBEB"/>
<path d="M82.8604 72.421L85.3931 72.9839L87.4943 63.5295L84.9616 62.9666L82.8604 72.421Z" fill="#EBEBEB"/>
<path d="M95.4504 72.9873H96.7501V61.2763H95.4504V72.9873Z" fill="#EBEBEB"/>
<path d="M80.0126 72.9873H81.3122V61.2763H80.0126V72.9873Z" fill="#EBEBEB"/>
<path d="M70.7623 64.1289H58.1148V72.8584H70.7623V64.1289Z" fill="#EBEBEB"/>
<path d="M114.137 67.7031H103.544V74.2204H114.137V67.7031Z" fill="#EBEBEB"/>
<path d="M111.662 61.9741H106.363V68.4914H111.662V61.9741Z" fill="#EBEBEB"/>
<path d="M200.18 53.3496H187.581V105.851H200.18V53.3496Z" fill="#E0E0E0"/>
<path d="M151.707 105.994H198.828V53.3545L151.707 53.3545V105.994Z" fill="#E0E0E0"/>
<path d="M150.188 105.994H199.077V53.3545L150.188 53.3545V105.994Z" fill="#F0F0F0"/>
<path d="M152.28 103.572H197.07V55.0269L152.28 55.0269V103.572Z" fill="white"/>
<path d="M152.276 103.572H153.107V55.0269H152.276V103.572Z" fill="#E0E0E0"/>
<path d="M152.973 89.9403V91.2495H197.189V89.9403H152.973Z" fill="#E0E0E0"/>
<path d="M152.276 89.9355H197.767V87.7376H152.276V89.9355Z" fill="#F0F0F0"/>
<path d="M209.245 0.000104312H194.528C193.327 0.000104312 192.176 0.477191 191.326 1.32641C190.477 2.17562 190 3.32741 190 4.52838V17.3346C189.999 17.9297 190.116 18.5191 190.343 19.0691C190.57 19.6191 190.904 20.1188 191.325 20.5399C191.745 20.9609 192.244 21.2949 192.794 21.5228C193.344 21.7507 193.933 21.868 194.528 21.868H198.826L197.802 25.9096L201.9 21.868H209.271C210.473 21.868 211.626 21.3904 212.476 20.5402C213.327 19.69 213.804 18.5369 213.804 17.3346V4.52838C213.804 3.93113 213.686 3.33977 213.457 2.78836C213.227 2.23695 212.891 1.73639 212.467 1.31549C212.043 0.894599 211.54 0.561691 210.988 0.335939C210.435 0.110188 209.842 -0.00394947 209.245 0.000104312Z" fill="#407BFF"/>
<path opacity="0.7" d="M209.245 0.000104312H194.528C193.327 0.000104312 192.176 0.477191 191.326 1.32641C190.477 2.17562 190 3.32741 190 4.52838V17.3346C189.999 17.9297 190.116 18.5191 190.343 19.0691C190.57 19.6191 190.904 20.1188 191.325 20.5399C191.745 20.9609 192.244 21.2949 192.794 21.5228C193.344 21.7507 193.933 21.868 194.528 21.868H198.826L197.802 25.9096L201.9 21.868H209.271C210.473 21.868 211.626 21.3904 212.476 20.5402C213.327 19.69 213.804 18.5369 213.804 17.3346V4.52838C213.804 3.93113 213.686 3.33977 213.457 2.78836C213.227 2.23695 212.891 1.73639 212.467 1.31549C212.043 0.894599 211.54 0.561691 210.988 0.335939C210.435 0.110188 209.842 -0.00394947 209.245 0.000104312Z" fill="white"/>
<path d="M201.889 16.5916C205.044 16.5916 207.601 14.0344 207.601 10.88C207.601 7.72562 205.044 5.16846 201.889 5.16846C198.735 5.16846 196.178 7.72562 196.178 10.88C196.178 14.0344 198.735 16.5916 201.889 16.5916Z" fill="white"/>
<path d="M201.889 3.57569C200.445 3.57569 199.032 4.0041 197.831 4.80674C196.63 5.60939 195.694 6.75022 195.141 8.08497C194.588 9.41973 194.443 10.8885 194.725 12.3054C195.007 13.7224 195.703 15.024 196.724 16.0455C197.746 17.0671 199.047 17.7628 200.464 18.0447C201.881 18.3265 203.35 18.1818 204.685 17.629C206.019 17.0761 207.16 16.1398 207.963 14.9386C208.766 13.7374 209.194 12.3251 209.194 10.8804C209.195 9.9209 209.006 8.97072 208.639 8.08418C208.272 7.19763 207.734 6.3921 207.056 5.71367C206.378 5.03523 205.572 4.4972 204.685 4.13035C203.799 3.76349 202.849 3.57501 201.889 3.57569ZM206.033 8.69817L201.633 13.8821C201.571 13.957 201.492 14.0171 201.404 14.0578C201.315 14.0986 201.218 14.1191 201.121 14.1178C201.023 14.1183 200.927 14.0975 200.839 14.0568C200.75 14.0161 200.672 13.9565 200.609 13.8821L197.745 10.5064C197.685 10.4397 197.638 10.3614 197.609 10.2763C197.579 10.1913 197.567 10.1011 197.573 10.0112C197.579 9.92131 197.603 9.83354 197.643 9.75313C197.684 9.67272 197.74 9.60132 197.809 9.54317C197.878 9.48503 197.958 9.44134 198.044 9.4147C198.13 9.38806 198.221 9.37902 198.31 9.38812C198.4 9.39722 198.487 9.42428 198.566 9.46767C198.645 9.51107 198.714 9.56992 198.77 9.64071L201.121 12.412L205.009 7.83247C205.126 7.7036 205.288 7.62512 205.462 7.61358C205.635 7.60203 205.806 7.65832 205.939 7.77058C206.072 7.88284 206.156 8.0423 206.174 8.21535C206.191 8.38839 206.141 8.56149 206.033 8.69817Z" fill="#407BFF"/>
<path d="M201.904 82.0082C201.904 82.0082 192.373 80.8038 177.932 84.7454C177.932 84.7454 175.611 58.9394 175.884 55.392C176.158 51.8447 198.181 52.8848 198.181 52.8848C198.181 52.8848 198.729 63.2148 200.163 69.4446C201.597 75.6744 202.648 80.8093 201.904 82.0082Z" fill="#7F8CA6"/>
<path opacity="0.2" d="M201.904 82.0082C201.904 82.0082 192.373 80.8038 177.932 84.7454C177.932 84.7454 175.611 58.9394 175.884 55.392C176.158 51.8447 198.181 52.8848 198.181 52.8848C198.181 52.8848 198.729 63.2148 200.163 69.4446C201.597 75.6744 202.648 80.8093 201.904 82.0082Z" fill="#A7ACD0"/>
<path d="M170.968 167.44L174.855 168.541L175.78 162.491L176.278 159.256L172.392 158.156L171.729 162.491L170.968 167.44Z" fill="#E4897B"/>
<path d="M193.315 167.758L197.322 168.289L197.36 162.491L197.387 158.889L193.375 158.364L193.347 162.491L193.315 167.758Z" fill="#E4897B"/>
<path opacity="0.2" d="M193.375 158.364L193.347 162.491H197.36L197.387 158.889L193.375 158.364Z" fill="black"/>
<path opacity="0.2" d="M171.729 162.491H175.78L176.278 159.256L172.392 158.156L171.729 162.491Z" fill="black"/>
<path d="M153.713 57.5102L149.854 56.3716L150.56 60.7784C150.56 60.7784 154.064 61.5831 154.392 59.7602L153.713 57.5102Z" fill="#E4897B"/>
<path d="M146 57.3953L147.894 60.9755L150.56 60.7784L149.854 56.3716L146 57.3953Z" fill="#E4897B"/>
<path d="M159.04 58.6386L152.701 57.2207L152.126 60.2973L157.879 61.6987L159.04 58.6386Z" fill="#E4897B"/>
<path d="M178.216 55.8574L177.844 56.3008C177.045 57.2369 175.107 59.4978 173.087 61.4467C171.445 63.0342 169.802 64.4192 168.708 64.6984C165.604 65.4977 154.321 62.1748 154.321 62.1748L155.487 57.5982C155.487 57.5982 165.998 58.9942 166.813 58.9942C167.432 58.9942 173.826 49.7316 175.375 48.9707L178.216 55.8574Z" fill="#A7ACD0"/>
<path opacity="0.2" d="M177.844 56.301C177.045 57.2371 175.107 59.498 173.087 61.4468C173.492 58.2389 174.669 55.2937 176.218 53.4324C176.363 53.2528 176.528 53.091 176.711 52.9507L177.844 56.301Z" fill="black"/>
<path d="M171.018 166.833L175.43 166.718C175.51 166.715 175.588 166.74 175.651 166.788C175.715 166.836 175.76 166.904 175.78 166.981L176.711 170.534C176.733 170.619 176.736 170.708 176.719 170.794C176.702 170.88 176.666 170.962 176.614 171.032C176.561 171.102 176.493 171.16 176.415 171.201C176.337 171.242 176.251 171.264 176.164 171.267C174.57 171.267 172.266 171.267 170.268 171.305C167.925 171.371 166.436 171.256 163.698 171.305C162.056 171.349 161.509 169.696 162.209 169.526C165.346 168.749 167.399 168.902 170.071 167.15C170.353 166.962 170.679 166.853 171.018 166.833Z" fill="#263238"/>
<path d="M170.634 167.402C169.989 167.545 168.839 167.736 168.379 167.358C168.312 167.303 168.259 167.232 168.225 167.152C168.191 167.072 168.176 166.985 168.182 166.899C168.182 166.846 168.195 166.795 168.221 166.75C168.247 166.705 168.285 166.667 168.33 166.641C168.817 166.351 170.465 167.134 170.656 167.222C170.673 167.231 170.687 167.244 170.697 167.26C170.706 167.277 170.711 167.296 170.711 167.315C170.71 167.336 170.702 167.356 170.688 167.372C170.674 167.388 170.655 167.399 170.634 167.402ZM168.445 166.795H168.412C168.394 166.805 168.378 166.82 168.368 166.839C168.357 166.857 168.352 166.878 168.352 166.899C168.347 166.955 168.356 167.012 168.378 167.064C168.4 167.117 168.434 167.163 168.478 167.2C168.735 167.413 169.403 167.435 170.29 167.26C169.649 166.992 168.757 166.68 168.456 166.795H168.445Z" fill="#7F8CA6"/>
<path d="M170.634 167.402H170.569C170.071 167.194 169.074 166.351 169.129 165.897C169.129 165.787 169.217 165.65 169.479 165.618C169.576 165.605 169.674 165.612 169.768 165.637C169.862 165.662 169.95 165.706 170.027 165.765C170.574 166.176 170.7 167.254 170.711 167.298C170.713 167.315 170.71 167.332 170.703 167.347C170.697 167.362 170.686 167.376 170.673 167.386L170.634 167.402ZM169.408 165.831C169.326 165.858 169.321 165.902 169.321 165.919C169.288 166.192 169.967 166.86 170.476 167.145C170.417 166.685 170.214 166.256 169.895 165.919C169.841 165.873 169.778 165.84 169.71 165.821C169.642 165.802 169.571 165.798 169.501 165.809C169.469 165.812 169.438 165.819 169.408 165.831Z" fill="#7F8CA6"/>
<path d="M193.473 166.833L197.886 166.718C197.966 166.715 198.045 166.74 198.109 166.787C198.174 166.835 198.221 166.903 198.241 166.981L199.167 170.534C199.19 170.619 199.194 170.708 199.177 170.795C199.161 170.881 199.125 170.963 199.072 171.034C199.019 171.105 198.951 171.163 198.873 171.203C198.794 171.243 198.707 171.265 198.619 171.267C197.026 171.267 194.721 171.267 192.718 171.305C190.38 171.371 188.886 171.256 186.149 171.305C184.506 171.349 183.959 169.696 184.66 169.526C187.796 168.749 189.844 168.902 192.515 167.15C192.8 166.961 193.131 166.851 193.473 166.833Z" fill="#263238"/>
<path d="M193.096 167.402C192.45 167.545 191.295 167.736 190.84 167.358C190.773 167.303 190.72 167.232 190.686 167.152C190.652 167.072 190.637 166.985 190.643 166.899C190.643 166.846 190.656 166.795 190.682 166.75C190.708 166.705 190.746 166.667 190.791 166.641C191.273 166.351 192.926 167.134 193.112 167.222C193.13 167.229 193.146 167.242 193.155 167.259C193.165 167.276 193.169 167.295 193.167 167.315C193.165 167.335 193.158 167.354 193.145 167.37C193.132 167.385 193.115 167.397 193.096 167.402ZM190.906 166.795H190.873C190.855 166.805 190.84 166.82 190.831 166.839C190.821 166.857 190.817 166.878 190.818 166.899C190.813 166.955 190.821 167.012 190.843 167.065C190.865 167.118 190.9 167.164 190.944 167.2C191.201 167.413 191.864 167.435 192.756 167.26C192.105 166.992 191.212 166.68 190.911 166.795H190.906Z" fill="#7F8CA6"/>
<path d="M193.096 167.402H193.024C192.532 167.194 191.53 166.351 191.59 165.897C191.59 165.787 191.672 165.65 191.935 165.618C192.032 165.604 192.13 165.611 192.224 165.636C192.318 165.661 192.406 165.705 192.483 165.765C192.866 166.192 193.105 166.728 193.167 167.298C193.17 167.315 193.167 167.332 193.161 167.348C193.154 167.363 193.143 167.376 193.128 167.386L193.096 167.402ZM191.864 165.831C191.787 165.858 191.782 165.902 191.782 165.919C191.743 166.192 192.428 166.86 192.937 167.145C192.874 166.686 192.672 166.258 192.357 165.919C192.302 165.874 192.239 165.84 192.171 165.822C192.103 165.803 192.032 165.799 191.962 165.809L191.864 165.831Z" fill="#7F8CA6"/>
<path d="M201.581 79.6543C203.705 88.8566 200.059 161.255 200.059 161.255H193.019L190.008 100.922L178.923 161.255L171.395 160.707C176.322 113.967 180.663 86.0647 180.663 86.0647V82.5393L201.581 79.6543Z" fill="#263238"/>
<path opacity="0.4" d="M171.395 160.707L178.923 161.255L187.649 113.759L190.008 100.922L193.019 161.255H200.059C200.059 161.255 203.705 88.8566 201.581 79.6543L180.652 82.5393V86.0647C180.652 86.0647 176.317 113.967 171.395 160.707Z" fill="white"/>
<path d="M197.787 45.5711C197.571 49.971 197.683 54.3808 198.121 58.7642C198.417 61.8298 198.822 64.7257 199.254 67.337C200.267 73.4627 201.417 78.0557 201.581 79.6597L180.652 82.5446C173.021 61.1948 175.895 48.79 175.895 48.79C177.46 48.1438 179.064 47.5953 180.696 47.1477C181.041 47.0546 181.391 46.967 181.753 46.8849C184.692 46.3065 187.662 45.8971 190.649 45.6586C191.196 45.6094 191.793 45.5711 192.351 45.5437C195.209 45.4014 197.787 45.5711 197.787 45.5711Z" fill="#263238"/>
<path d="M186.587 35.9634C186.74 38.8921 187.052 44.3884 189.488 45.7843C189.488 45.7843 187.972 48.6693 184.693 48.9649C182.213 49.1839 182.377 46.7369 182.377 46.7369C183.811 45.6694 183.472 43.8574 182.377 41.81L186.587 35.9634Z" fill="#E4897B"/>
<path opacity="0.2" d="M184.868 38.3501L182.393 41.8099C182.654 42.283 182.874 42.7775 183.05 43.2879C184.2 42.8281 185.519 41.0982 185.328 39.8446C185.268 39.3224 185.112 38.8157 184.868 38.3501Z" fill="black"/>
<path d="M175.912 30.0679C175.435 31.5898 175.698 34.7102 177.817 33.6974C179.935 32.6847 176.733 27.4567 175.912 30.0679Z" fill="#263238"/>
<path d="M186.86 32.1264C187.096 36.0296 187.408 38.3014 185.705 40.5131C183.116 43.836 178.101 42.5988 176.7 38.8324C175.441 35.4384 175.271 29.6246 178.89 27.6539C179.692 27.2175 180.592 26.9917 181.505 26.9977C182.418 27.0036 183.314 27.2411 184.111 27.688C184.907 28.1348 185.577 28.7764 186.058 29.5526C186.539 30.3289 186.815 31.2144 186.86 32.1264Z" fill="#E4897B"/>
<path d="M184.123 30.0019V25.6224C184.123 25.6224 188.765 25.2776 188.557 27.6534C191.13 28.9289 189.915 32.9307 186.461 34.8905C184.567 33.3741 184.786 29.7282 184.786 29.7282C184.583 29.8322 184.353 29.9198 184.123 30.0019Z" fill="#263238"/>
<path d="M188.749 35.1697C188.66 35.6472 188.475 36.1019 188.207 36.5072C187.939 36.9124 187.593 37.2598 187.189 37.5291C186.094 38.2463 185.147 37.3649 185.109 36.1332C185.076 35.0383 185.596 33.3084 186.855 33.0895C187.13 33.0465 187.412 33.0725 187.675 33.1652C187.938 33.2578 188.174 33.4142 188.361 33.6203C188.549 33.8264 188.683 34.0758 188.75 34.3462C188.818 34.6166 188.817 34.8995 188.749 35.1697Z" fill="#E4897B"/>
<path d="M181.096 33.8667C181.134 34.1843 180.997 34.458 180.789 34.4799C180.581 34.5018 180.384 34.2664 180.346 33.9324C180.308 33.5985 180.444 33.3412 180.647 33.3193C180.85 33.2974 181.058 33.5273 181.096 33.8667Z" fill="#263238"/>
<path d="M177.516 34.2665C177.554 34.584 177.417 34.8578 177.209 34.8797C177.001 34.9016 176.804 34.6662 176.766 34.3322C176.727 33.9983 176.864 33.741 177.072 33.7191C177.28 33.6972 177.466 33.949 177.516 34.2665Z" fill="#263238"/>
<path d="M178.671 34.2939C178.394 35.2728 177.983 36.2087 177.45 37.0749C177.686 37.1962 177.945 37.2663 178.21 37.2804C178.475 37.2946 178.741 37.2525 178.988 37.157L178.671 34.2939Z" fill="#DE5753"/>
<path d="M180.833 38.1753C180.698 38.2097 180.561 38.2353 180.423 38.2519C180.398 38.2519 180.374 38.2421 180.357 38.2247C180.339 38.2072 180.329 38.1836 180.329 38.1589C180.329 38.1342 180.339 38.1105 180.357 38.0931C180.374 38.0756 180.398 38.0658 180.423 38.0658C180.816 38.0301 181.195 37.9026 181.53 37.6934C181.864 37.4842 182.145 37.1992 182.349 36.8615C182.354 36.8504 182.361 36.8404 182.37 36.8321C182.379 36.8239 182.389 36.8175 182.4 36.8134C182.411 36.8093 182.424 36.8075 182.435 36.8083C182.447 36.809 182.459 36.8122 182.47 36.8177C182.481 36.8229 182.491 36.8304 182.5 36.8396C182.508 36.8489 182.514 36.8597 182.518 36.8714C182.522 36.8831 182.524 36.8956 182.523 36.908C182.523 36.9204 182.519 36.9325 182.514 36.9436C182.335 37.2545 182.093 37.5247 181.803 37.7368C181.514 37.9489 181.184 38.0982 180.833 38.1753Z" fill="#263238"/>
<path d="M182.059 32.5913C182.026 32.599 181.992 32.598 181.959 32.5884C181.926 32.5788 181.897 32.561 181.873 32.5366C181.715 32.3628 181.518 32.2284 181.298 32.1438C181.079 32.0593 180.843 32.0269 180.609 32.0493C180.585 32.0549 180.559 32.0554 180.535 32.0509C180.511 32.0464 180.488 32.0369 180.467 32.023C180.447 32.0092 180.429 31.9912 180.416 31.9703C180.402 31.9494 180.394 31.926 180.39 31.9015C180.385 31.8774 180.385 31.8527 180.39 31.8286C180.395 31.8045 180.404 31.7816 180.418 31.7613C180.432 31.7409 180.449 31.7235 180.47 31.71C180.49 31.6965 180.513 31.6872 180.538 31.6826C180.833 31.6474 181.133 31.6832 181.412 31.7869C181.691 31.8907 181.941 32.0595 182.141 32.2793C182.159 32.2962 182.174 32.3165 182.183 32.3391C182.193 32.3617 182.198 32.386 182.198 32.4107C182.198 32.4353 182.193 32.4596 182.183 32.4822C182.174 32.5048 182.159 32.5251 182.141 32.542C182.118 32.5643 182.09 32.5811 182.059 32.5913Z" fill="#263238"/>
<path d="M175.824 33.2101C175.789 33.2236 175.75 33.2236 175.715 33.2101C175.668 33.1939 175.63 33.1601 175.609 33.116C175.587 33.072 175.584 33.0212 175.6 32.9747C175.69 32.6929 175.847 32.4372 176.058 32.2294C176.269 32.0216 176.527 31.8678 176.809 31.7813C176.857 31.7689 176.908 31.7761 176.951 31.8013C176.993 31.8265 177.024 31.8675 177.037 31.9154C177.049 31.9633 177.042 32.0142 177.017 32.0568C176.992 32.0994 176.95 32.1303 176.903 32.1426C176.679 32.2116 176.475 32.3345 176.31 32.5006C176.145 32.6667 176.023 32.8709 175.955 33.0951C175.945 33.1238 175.928 33.1494 175.905 33.1695C175.882 33.1896 175.854 33.2036 175.824 33.2101Z" fill="#263238"/>
<path d="M186.182 31.6224C186.182 31.6224 183.444 30.6206 182.196 29.0331C182.196 29.0331 179.711 29.6845 179.202 30.6754C178.969 30.4764 178.819 30.1985 178.78 29.8952C178.74 29.5919 178.815 29.2848 178.988 29.0331C178.988 29.0331 177.127 29.4272 176.76 30.6754C176.458 30.5314 176.209 30.2941 176.052 29.9985C175.894 29.7029 175.835 29.3645 175.884 29.0331C175.884 29.0331 175.058 29.3451 174.789 30.6754C174.789 30.6754 172.737 26.3944 179.519 25.1682C179.006 24.994 178.468 24.9035 177.926 24.9C177.926 24.9 182.662 22.9894 186.411 24.7357C190.161 26.482 189.51 29.8652 186.182 31.6224Z" fill="#263238"/>
<path d="M203.196 83.3435L196.627 84.2194C196.627 84.2194 193.917 65.2837 192.723 59.1689V46.1181L196.156 45.2148L198.816 46.1181C199.546 48.7438 200.107 51.4134 200.497 54.1106C200.82 56.158 201.11 58.3477 201.367 60.5648C201.723 63.5867 202.019 66.6632 202.271 69.5427C202.665 74.1904 202.927 78.3017 203.07 80.8144C203.152 82.391 203.196 83.3435 203.196 83.3435Z" fill="#407BFF"/>
<path d="M192.729 59.1585C192.729 59.1585 193.276 49.9452 196.161 45.1935C196.161 45.1935 196.09 43.8359 195.515 43.6169C194.94 43.3979 192.729 44.7118 192.729 44.7118C192.729 44.7118 191.355 43.7702 191.054 44.2081C190.753 44.6461 190.019 47.5584 192.729 59.1585Z" fill="#7F8CA6"/>
<path opacity="0.7" d="M192.729 59.1585C192.729 59.1585 193.276 49.9452 196.161 45.1935C196.161 45.1935 196.09 43.8359 195.515 43.6169C194.94 43.3979 192.729 44.7118 192.729 44.7118C192.729 44.7118 191.355 43.7702 191.054 44.2081C190.753 44.6461 190.019 47.5584 192.729 59.1585Z" fill="white"/>
<path d="M177.795 85.8673L178.545 86.4148C178.545 86.4148 177.45 80.3109 177.899 64.8733C177.899 64.1288 177.948 63.4117 177.975 62.7274C178.523 49.6656 180.559 47.2898 180.713 47.1475L178.819 47.7934L175.386 48.9759C174.351 60.1161 177.795 85.8673 177.795 85.8673Z" fill="#407BFF"/>
<path d="M178.091 60.4776C178.091 60.4776 176.196 51.5216 176.76 48.4341C177.324 45.3466 179.344 46.7206 179.344 46.7206C179.344 46.7206 181.2 45.2207 181.753 46.8739C181.753 46.8739 179.202 48.6695 178.091 60.4776Z" fill="#7F8CA6"/>
<path opacity="0.7" d="M178.091 60.4776C178.091 60.4776 176.196 51.5216 176.76 48.4341C177.324 45.3466 179.344 46.7206 179.344 46.7206C179.344 46.7206 181.2 45.2207 181.753 46.8739C181.753 46.8739 179.202 48.6695 178.091 60.4776Z" fill="white"/>
<path opacity="0.2" d="M201.356 60.5436C198.554 58.9725 198.181 54.8722 198.181 54.8722C198.351 54.8065 199.391 54.4507 200.486 54.0894C200.809 56.1368 201.099 58.3265 201.356 60.5436Z" fill="black"/>
<path opacity="0.2" d="M187.649 113.759L190.008 100.922L189.554 94.1284C189.554 94.1284 186.318 105.909 187.649 113.759Z" fill="black"/>
<path opacity="0.2" d="M203.059 80.7926C201.296 80.6722 199.774 80.5572 199.774 80.5572L199.44 73.3913C199.99 73.0475 200.649 72.9261 201.285 73.0519C201.718 71.9071 202.046 70.7253 202.265 69.521C202.648 74.1687 202.917 78.2854 203.059 80.7926Z" fill="black"/>
<path d="M203.661 69.5156L200.229 75.0283L202.944 76.5884L206.168 71.6232L203.661 69.5156Z" fill="#E4897B"/>
<path d="M198.668 46.0308C200.979 46.2826 210.8 59.7604 211.232 63.8223C211.664 67.8843 205.462 74.8969 205.462 74.8969L201.323 72.4608C201.323 72.4608 205.528 65.9956 205.747 64.2493C205.966 62.503 198.055 55.4466 198.055 55.4466C197.457 53.821 197.128 52.1088 197.081 50.3774C196.971 47.4103 198.668 46.0308 198.668 46.0308Z" fill="#A7ACD0"/>
<path d="M199.435 73.397C199.435 73.397 202.966 74.1524 204.389 76.375C204.389 76.375 202.911 81.0008 201.854 81.5044C200.798 82.0081 198.181 82.0081 198.181 82.0081C198.181 82.0081 198.012 76.8622 199.435 73.397Z" fill="#407BFF"/>
<path d="M58.7397 158.847H58.3704C58.3704 158.299 58.8252 145.455 61.0604 143.298C63.3578 141.063 66.0594 143.267 66.0827 143.298L65.8495 143.578C65.7484 143.496 63.3733 141.568 61.3131 143.578C59.1867 145.603 58.7436 158.715 58.7397 158.847Z" fill="#407BFF"/>
<path d="M58.5531 161.424L58.1877 161.389C58.1877 161.234 59.6338 145.794 54.04 139.372L54.316 139.131C60.0147 145.673 58.5687 161.269 58.5531 161.424Z" fill="#407BFF"/>
<path d="M58.7319 159.776C58.6853 159.045 57.6085 141.895 61.9078 137.93L62.1566 138.202C57.9856 142.035 59.0857 159.582 59.0973 159.749L58.7319 159.776Z" fill="#407BFF"/>
<path d="M58.1877 159.765C58.1877 159.648 58.0555 148.103 54.9962 146.365C54.7362 146.194 54.4387 146.087 54.1288 146.055C53.819 146.022 53.5059 146.065 53.2159 146.178C51.4238 146.921 50.4715 150.342 50.4598 150.377L50.106 150.28C50.1449 150.132 51.1167 146.653 53.0759 145.84C53.4172 145.703 53.7866 145.65 54.1526 145.686C54.5187 145.722 54.8707 145.846 55.1789 146.046C58.417 147.901 58.5531 159.263 58.557 159.761L58.1877 159.765Z" fill="#407BFF"/>
<path d="M59.4472 159.772C59.4239 159.384 58.9535 150.661 61.4297 147.422C62.0905 146.563 62.8213 146.155 63.6143 146.213C65.3753 146.334 66.7241 148.721 66.798 148.822L66.4792 149.005C66.4792 148.981 65.1498 146.672 63.5871 146.579C62.9302 146.528 62.3004 146.89 61.7212 147.648C59.3267 150.758 59.8087 159.663 59.8126 159.753L59.4472 159.772Z" fill="#407BFF"/>
<path d="M58.9535 160.981L58.5881 160.954C58.5881 160.744 60.143 139.916 57.5774 136.441L57.8728 136.223C60.5239 139.807 59.0196 160.118 58.9535 160.981Z" fill="#407BFF"/>
<path d="M52.3646 147.912C52.3646 147.912 53.9506 148.499 53.4802 149.879C53.0098 151.259 47.9875 153.533 47.9875 153.533C47.9875 153.533 45.8845 151.609 47.8164 148.48C49.7484 145.351 52.3218 146.925 52.3646 147.912Z" fill="#407BFF"/>
<path opacity="0.2" d="M52.3646 147.912C52.3646 147.912 53.9506 148.499 53.4802 149.879C53.0098 151.259 47.9875 153.533 47.9875 153.533C47.9875 153.533 45.8845 151.609 47.8164 148.48C49.7484 145.351 52.3218 146.925 52.3646 147.912Z" fill="black"/>
<path d="M59.2645 145.284C59.2645 145.284 57.5735 145.214 57.4763 146.668C57.3791 148.122 61.1303 152.157 61.1303 152.157C61.1303 152.157 63.8126 151.185 63.2373 147.551C62.6619 143.916 59.6843 144.386 59.2645 145.284Z" fill="#407BFF"/>
<path opacity="0.2" d="M59.2645 145.284C59.2645 145.284 57.5735 145.214 57.4763 146.668C57.3791 148.122 61.1303 152.157 61.1303 152.157C61.1303 152.157 63.8126 151.185 63.2373 147.551C62.6619 143.916 59.6843 144.386 59.2645 145.284Z" fill="black"/>
<path d="M60.695 138.311C60.695 138.311 59.5677 138.19 59.6571 137.506C59.7465 136.822 64.038 135.053 66.5687 137.895C66.5687 137.895 64.9477 140.678 62.6075 140.717C60.2674 140.756 60.695 138.311 60.695 138.311Z" fill="#407BFF"/>
<path opacity="0.2" d="M60.695 138.311C60.695 138.311 59.5677 138.19 59.6571 137.506C59.7465 136.822 64.038 135.053 66.5687 137.895C66.5687 137.895 64.9477 140.678 62.6075 140.717C60.2674 140.756 60.695 138.311 60.695 138.311Z" fill="black"/>
<path d="M58.5959 136.643C58.5959 136.643 59.6143 137.137 59.902 136.507C60.1896 135.877 57.4802 132.11 53.8223 133.195C53.8223 133.195 53.7251 136.414 55.6921 137.685C57.659 138.956 58.5959 136.643 58.5959 136.643Z" fill="#407BFF"/>
<path opacity="0.2" d="M58.5959 136.643C58.5959 136.643 59.6143 137.137 59.902 136.507C60.1896 135.877 57.4802 132.11 53.8223 133.195C53.8223 133.195 53.7251 136.414 55.6921 137.685C57.659 138.956 58.5959 136.643 58.5959 136.643Z" fill="black"/>
<path d="M63.9292 147.36C63.9292 147.36 63.1517 146.73 63.9914 146.423C64.831 146.116 68.9477 146.206 68.9904 150.283C68.9904 150.283 64.1935 151.08 63.6027 149.525C63.0118 147.971 63.9292 147.36 63.9292 147.36Z" fill="#407BFF"/>
<path opacity="0.2" d="M63.9292 147.36C63.9292 147.36 63.1517 146.73 63.9914 146.423C64.831 146.116 68.9477 146.206 68.9904 150.283C68.9904 150.283 64.1935 151.08 63.6027 149.525C63.0118 147.971 63.9292 147.36 63.9292 147.36Z" fill="black"/>
<path d="M54.1333 138.21C54.1333 138.21 54.9107 137.58 54.0711 137.277C53.2314 136.974 49.1148 137.055 49.0721 141.133C49.0721 141.133 53.8689 141.934 54.4598 140.379C55.0507 138.824 54.1333 138.21 54.1333 138.21Z" fill="#407BFF"/>
<path opacity="0.2" d="M54.1333 138.21C54.1333 138.21 54.9107 137.58 54.0711 137.277C53.2314 136.974 49.1148 137.055 49.0721 141.133C49.0721 141.133 53.8689 141.934 54.4598 140.379C55.0507 138.824 54.1333 138.21 54.1333 138.21Z" fill="black"/>
<path d="M56.6833 141.494C56.6833 141.494 56.7533 140.717 56.1352 141.032C55.5171 141.346 53.3752 143.648 55.5988 145.844C55.5988 145.844 58.5959 143.624 58.0555 142.47C57.5152 141.315 56.6833 141.494 56.6833 141.494Z" fill="#407BFF"/>
<path opacity="0.2" d="M56.6833 141.494C56.6833 141.494 56.7533 140.717 56.1352 141.032C55.5171 141.346 53.3752 143.648 55.5988 145.844C55.5988 145.844 58.5959 143.624 58.0555 142.47C57.5152 141.315 56.6833 141.494 56.6833 141.494Z" fill="black"/>
<path d="M64.6289 142.583C64.6289 142.583 64.1624 141.972 64.8466 141.899C65.5308 141.825 68.5784 142.637 67.867 145.685C67.867 145.685 64.1508 145.405 63.9797 144.13C63.8087 142.855 64.6289 142.583 64.6289 142.583Z" fill="#407BFF"/>
<path opacity="0.2" d="M64.6289 142.583C64.6289 142.583 64.1624 141.972 64.8466 141.899C65.5308 141.825 68.5784 142.637 67.867 145.685C67.867 145.685 64.1508 145.405 63.9797 144.13C63.8087 142.855 64.6289 142.583 64.6289 142.583Z" fill="black"/>
<path d="M52.6405 171.068H64.6561L66.2538 159.383H51.0429L52.6405 171.068Z" fill="#263238"/>
<path opacity="0.2" d="M52.6405 171.068H64.6561L66.2538 159.383H51.0429L52.6405 171.068Z" fill="white"/>
<path d="M67.762 158.435V159.547C67.762 159.904 67.6203 160.246 67.3681 160.498C67.1159 160.75 66.7738 160.892 66.417 160.892H50.7319C50.3752 160.892 50.0331 160.75 49.7808 160.498C49.5286 160.246 49.3869 159.904 49.3869 159.547V158.435H67.762Z" fill="#263238"/>
</svg>
