<svg width="37" height="32" viewBox="0 0 37 32" fill="none" xmlns="http://www.w3.org/2000/svg">
<path d="M3.39758 32C2.48849 32 1.71053 31.6869 1.0637 31.0608C0.416866 30.4347 0.0928988 29.6811 0.0917969 28.8V9.6C0.0917969 8.72 0.415764 7.96693 1.0637 7.3408C1.71163 6.71467 2.48959 6.40107 3.39758 6.4H8.60419L11.662 3.2H21.5794V6.4H13.1083L10.0918 9.6H3.39758V28.8H29.8439V14.4H33.1497V28.8C33.1497 29.68 32.8262 30.4336 32.1794 31.0608C31.5326 31.688 30.7541 32.0011 29.8439 32H3.39758ZM29.8439 9.6V6.4H26.5381V3.2H29.8439V0H33.1497V3.2H36.4554V6.4H33.1497V9.6H29.8439ZM16.6207 26.4C18.6868 26.4 20.4433 25.7003 21.8901 24.3008C23.337 22.9013 24.0598 21.2011 24.0587 19.2C24.0587 17.2 23.3359 15.5003 21.8901 14.1008C20.4444 12.7013 18.6879 12.0011 16.6207 12C14.5546 12 12.7987 12.7003 11.353 14.1008C9.90722 15.5013 9.18381 17.2011 9.18271 19.2C9.18271 21.2 9.90612 22.9003 11.353 24.3008C12.7998 25.7013 14.5557 26.4011 16.6207 26.4ZM16.6207 23.2C15.4637 23.2 14.4857 22.8133 13.6868 22.04C12.8879 21.2667 12.4885 20.32 12.4885 19.2C12.4885 18.08 12.8879 17.1333 13.6868 16.36C14.4857 15.5867 15.4637 15.2 16.6207 15.2C17.7777 15.2 18.7557 15.5867 19.5546 16.36C20.3535 17.1333 20.753 18.08 20.753 19.2C20.753 20.32 20.3535 21.2667 19.5546 22.04C18.7557 22.8133 17.7777 23.2 16.6207 23.2Z" fill="#1E3167"/>
</svg>
