<svg width="25" height="22" viewBox="0 0 25 22" fill="none" xmlns="http://www.w3.org/2000/svg">
<path d="M2.27273 22C1.64773 22 1.11288 21.7848 0.668182 21.3543C0.223485 20.9238 0.000757576 20.4057 0 19.8V6.6C0 5.995 0.222727 5.47727 0.668182 5.0468C1.11364 4.61633 1.64848 4.40073 2.27273 4.4H5.85227L7.95455 2.2H14.7727V4.4H8.94886L6.875 6.6H2.27273V19.8H20.4545V9.9H22.7273V19.8C22.7273 20.405 22.5049 20.9231 22.0602 21.3543C21.6155 21.7855 21.0803 22.0007 20.4545 22H2.27273ZM20.4545 6.6V4.4H18.1818V2.2H20.4545V0H22.7273V2.2H25V4.4H22.7273V6.6H20.4545ZM11.3636 18.15C12.7841 18.15 13.9917 17.6689 14.9864 16.7068C15.9811 15.7447 16.478 14.5757 16.4773 13.2C16.4773 11.825 15.9803 10.6564 14.9864 9.6943C13.9924 8.73217 12.7848 8.25073 11.3636 8.25C9.94318 8.25 8.73598 8.73143 7.74205 9.6943C6.74811 10.6572 6.25076 11.8257 6.25 13.2C6.25 14.575 6.74735 15.7439 7.74205 16.7068C8.73674 17.6697 9.94394 18.1507 11.3636 18.15ZM11.3636 15.95C10.5682 15.95 9.89583 15.6842 9.34659 15.1525C8.79735 14.6208 8.52273 13.97 8.52273 13.2C8.52273 12.43 8.79735 11.7792 9.34659 11.2475C9.89583 10.7158 10.5682 10.45 11.3636 10.45C12.1591 10.45 12.8314 10.7158 13.3807 11.2475C13.9299 11.7792 14.2045 12.43 14.2045 13.2C14.2045 13.97 13.9299 14.6208 13.3807 15.1525C12.8314 15.6842 12.1591 15.95 11.3636 15.95Z" fill="white"/>
</svg>
