<svg width="20" height="21" viewBox="0 0 20 21" fill="none" xmlns="http://www.w3.org/2000/svg">
<path d="M8.85498 0.441165C9.49748 -0.147055 10.5025 -0.147055 11.145 0.441165L19.2175 7.83179C19.717 8.28908 20 8.92531 20 9.5909V18.5791C20 19.9161 18.8807 21 17.5 21H14.1667C12.786 21 11.6667 19.9161 11.6667 18.5791V14.5444C11.6667 14.0988 11.2936 13.7375 10.8333 13.7375H9.16667C8.70643 13.7375 8.33333 14.0988 8.33333 14.5444V18.5791C8.33333 19.9161 7.21405 21 5.83333 21H2.5C1.11928 21 0 19.9161 0 18.5791V9.5909C0 8.92531 0.283 8.28908 0.782467 7.83179L8.85498 0.441165ZM10 1.61391L1.92748 9.00454C1.761 9.15696 1.66667 9.36904 1.66667 9.5909V18.5791C1.66667 19.0247 2.03977 19.3861 2.5 19.3861H5.83333C6.29357 19.3861 6.66667 19.0247 6.66667 18.5791V14.5444C6.66667 13.2074 7.78595 12.1236 9.16667 12.1236H10.8333C12.2141 12.1236 13.3333 13.2074 13.3333 14.5444V18.5791C13.3333 19.0247 13.7065 19.3861 14.1667 19.3861H17.5C17.9602 19.3861 18.3333 19.0247 18.3333 18.5791V9.5909C18.3333 9.36904 18.239 9.15696 18.0725 9.00454L10 1.61391Z" fill="white"/>
</svg>
