<svg width="21" height="21" viewBox="0 0 21 21" fill="none" xmlns="http://www.w3.org/2000/svg">
<path d="M8.47773 15C8.08886 14.997 7.71662 14.849 7.44051 14.5875C7.1644 14.326 7.00631 13.9718 7 13.6006V8.3961C7.00281 8.1416 7.07767 7.89256 7.21664 7.67537C7.35561 7.45818 7.55352 7.28092 7.7894 7.16238C8.02528 7.04384 8.29035 6.98843 8.55653 7.00201C8.82271 7.0156 9.08008 7.09768 9.30138 7.23956L13.347 9.82444C13.5481 9.95419 13.7128 10.1291 13.8266 10.3337C13.9405 10.5384 14 10.7666 14 10.9983C14 11.2301 13.9405 11.4583 13.8266 11.663C13.7128 11.8676 13.5481 12.0425 13.347 12.1722L9.30138 14.7571C9.05887 14.9157 8.77168 15.0004 8.47773 15ZM8.53223 8.47706V13.5196L12.4749 10.9983L8.53223 8.47706Z" fill="white"/>
<rect x="0.75" y="0.75" width="19.5" height="19.5" rx="4.25" stroke="white" stroke-width="1.5"/>
</svg>
